<svg width="24" height="24" viewBox="0 0 24 24" fill="none" xmlns="http://www.w3.org/2000/svg">
<path d="M1.6499 7.0079V7.7579H3.1499V7.0079H1.6499ZM7.0079 3.1499H7.7579V1.6499H7.0079V3.1499ZM16.9919 1.6499L16.2419 1.6499V3.1499L16.9919 3.1499V1.6499ZM17.7599 2.3999V1.6499V2.3999ZM21.5999 6.2399H20.8499H21.5999ZM20.8499 7.0079V7.7579H22.3499V7.0079H20.8499ZM6.38623 19.4422L6.91656 18.9119L5.8559 17.8512L5.32557 18.3816L6.38623 19.4422ZM2.63757 21.0696L2.10724 21.5999L3.1679 22.6606L3.69823 22.1302L2.63757 21.0696ZM20.3016 22.1302L20.8319 22.6606L21.8926 21.5999L21.3622 21.0696L20.3016 22.1302ZM18.6742 18.3816L18.1439 17.8512L17.0832 18.9119L17.6136 19.4422L18.6742 18.3816ZM9.53023 12.0696L8.9999 11.5392L7.93924 12.5999L8.46957 13.1302L9.53023 12.0696ZM10.7999 14.3999L10.2696 14.9302C10.5625 15.2231 11.0373 15.2231 11.3302 14.9302L10.7999 14.3999ZM15.5302 10.7302L16.0606 10.1999L14.9999 9.13924L14.4696 9.66957L15.5302 10.7302ZM2.3999 7.0079H3.1499V6.2399H2.3999H1.6499V7.0079H2.3999ZM6.2399 2.3999V3.1499H7.0079V2.3999V1.6499H6.2399V2.3999ZM2.3999 6.2399H3.1499C3.1499 4.53334 4.53334 3.1499 6.2399 3.1499V2.3999V1.6499C3.70491 1.6499 1.6499 3.70492 1.6499 6.2399H2.3999ZM16.9919 2.3999V3.1499L17.7599 3.1499V2.3999V1.6499L16.9919 1.6499V2.3999ZM21.5999 6.2399H20.8499V7.0079H21.5999H22.3499V6.2399H21.5999ZM17.7599 2.3999V3.1499C19.4665 3.1499 20.8499 4.53334 20.8499 6.2399H21.5999H22.3499C22.3499 3.70492 20.2949 1.6499 17.7599 1.6499V2.3999ZM5.8559 18.9119L5.32557 18.3816L2.63757 21.0696L3.1679 21.5999L3.69823 22.1302L6.38623 19.4422L5.8559 18.9119ZM20.8319 21.5999L21.3622 21.0696L18.6742 18.3816L18.1439 18.9119L17.6136 19.4422L20.3016 22.1302L20.8319 21.5999ZM20.4479 12.7679H19.6979C19.6979 17.0194 16.2514 20.4659 11.9999 20.4659V21.2159V21.9659C17.0798 21.9659 21.1979 17.8478 21.1979 12.7679H20.4479ZM11.9999 21.2159V20.4659C7.74841 20.4659 4.3019 17.0194 4.3019 12.7679H3.5519H2.8019C2.8019 17.8478 6.91999 21.9659 11.9999 21.9659V21.2159ZM3.5519 12.7679H4.3019C4.3019 8.51641 7.74841 5.0699 11.9999 5.0699V4.3199V3.5699C6.91999 3.5699 2.8019 7.68799 2.8019 12.7679H3.5519ZM11.9999 4.3199V5.0699C16.2514 5.0699 19.6979 8.51641 19.6979 12.7679H20.4479H21.1979C21.1979 7.68799 17.0798 3.5699 11.9999 3.5699V4.3199ZM8.9999 12.5999L8.46957 13.1302L10.2696 14.9302L10.7999 14.3999L11.3302 13.8696L9.53023 12.0696L8.9999 12.5999ZM10.7999 14.3999L11.3302 14.9302L15.5302 10.7302L14.9999 10.1999L14.4696 9.66957L10.2696 13.8696L10.7999 14.3999Z" fill="#2C2920"/>
</svg>
