<svg width="25" height="24" viewBox="0 0 25 24" fill="none" xmlns="http://www.w3.org/2000/svg">
<path d="M2.6499 7.0079V6.2399C2.6499 4.11913 4.36913 2.3999 6.4899 2.3999H7.2579M17.2419 2.3999L18.0099 2.3999C20.1307 2.3999 21.8499 4.11913 21.8499 6.2399V7.0079M6.1059 18.9119L3.4179 21.5999M21.0819 21.5999L18.3939 18.9119M15.2499 12.5999H9.2499M20.6979 12.7679C20.6979 17.4336 16.9156 21.2159 12.2499 21.2159C7.5842 21.2159 3.8019 17.4336 3.8019 12.7679C3.8019 8.1022 7.5842 4.3199 12.2499 4.3199C16.9156 4.3199 20.6979 8.1022 20.6979 12.7679Z" stroke="#2C2920" stroke-width="1.5" stroke-linecap="square"/>
</svg>
