<svg width="25" height="24" viewBox="0 0 25 24" fill="none" xmlns="http://www.w3.org/2000/svg">
<path d="M1.8999 7.0079V7.7579H3.3999V7.0079H1.8999ZM7.2579 3.1499H8.0079V1.6499H7.2579V3.1499ZM17.2419 1.6499L16.4919 1.6499V3.1499L17.2419 3.1499V1.6499ZM18.0099 2.3999V1.6499V2.3999ZM21.8499 6.2399H21.0999H21.8499ZM21.0999 7.0079V7.7579H22.5999V7.0079H21.0999ZM6.63623 19.4422L7.16656 18.9119L6.1059 17.8512L5.57557 18.3816L6.63623 19.4422ZM2.88757 21.0696L2.35724 21.5999L3.4179 22.6606L3.94823 22.1302L2.88757 21.0696ZM20.5516 22.1302L21.0819 22.6606L22.1426 21.5999L21.6122 21.0696L20.5516 22.1302ZM18.9242 18.3816L18.3939 17.8512L17.3332 18.9119L17.8636 19.4422L18.9242 18.3816ZM12.9999 9.5999V8.8499H11.4999V9.5999H12.9999ZM11.4999 15.5999V16.3499H12.9999V15.5999H11.4999ZM15.2499 13.3499H15.9999V11.8499H15.2499V13.3499ZM9.2499 11.8499H8.4999V13.3499H9.2499V11.8499ZM2.6499 7.0079H3.3999V6.2399H2.6499H1.8999V7.0079H2.6499ZM6.4899 2.3999V3.1499H7.2579V2.3999V1.6499H6.4899V2.3999ZM2.6499 6.2399H3.3999C3.3999 4.53334 4.78334 3.1499 6.4899 3.1499V2.3999V1.6499C3.95491 1.6499 1.8999 3.70492 1.8999 6.2399H2.6499ZM17.2419 2.3999V3.1499L18.0099 3.1499V2.3999V1.6499L17.2419 1.6499V2.3999ZM21.8499 6.2399H21.0999V7.0079H21.8499H22.5999V6.2399H21.8499ZM18.0099 2.3999V3.1499C19.7165 3.1499 21.0999 4.53334 21.0999 6.2399H21.8499H22.5999C22.5999 3.70492 20.5449 1.6499 18.0099 1.6499V2.3999ZM6.1059 18.9119L5.57557 18.3816L2.88757 21.0696L3.4179 21.5999L3.94823 22.1302L6.63623 19.4422L6.1059 18.9119ZM21.0819 21.5999L21.6122 21.0696L18.9242 18.3816L18.3939 18.9119L17.8636 19.4422L20.5516 22.1302L21.0819 21.5999ZM20.6979 12.7679H19.9479C19.9479 17.0194 16.5014 20.4659 12.2499 20.4659V21.2159V21.9659C17.3298 21.9659 21.4479 17.8478 21.4479 12.7679H20.6979ZM12.2499 21.2159V20.4659C7.99841 20.4659 4.5519 17.0194 4.5519 12.7679H3.8019H3.0519C3.0519 17.8478 7.16999 21.9659 12.2499 21.9659V21.2159ZM3.8019 12.7679H4.5519C4.5519 8.51641 7.99841 5.0699 12.2499 5.0699V4.3199V3.5699C7.16999 3.5699 3.0519 7.68799 3.0519 12.7679H3.8019ZM12.2499 4.3199V5.0699C16.5014 5.0699 19.9479 8.51641 19.9479 12.7679H20.6979H21.4479C21.4479 7.68799 17.3298 3.5699 12.2499 3.5699V4.3199ZM12.2499 9.5999H11.4999V12.5999H12.2499H12.9999V9.5999H12.2499ZM12.2499 12.5999H11.4999V15.5999H12.2499H12.9999V12.5999H12.2499ZM15.2499 12.5999V11.8499H12.2499V12.5999V13.3499H15.2499V12.5999ZM12.2499 12.5999V11.8499H9.2499V12.5999V13.3499H12.2499V12.5999Z" fill="#2C2920"/>
</svg>
