<svg width="25" height="24" viewBox="0 0 25 24" fill="none" xmlns="http://www.w3.org/2000/svg">
<path d="M2.6499 7.0079V6.2399C2.6499 5.37527 2.93567 4.57738 3.4179 3.93553M17.2419 2.3999L18.0099 2.3999C20.1307 2.3999 21.8499 4.11913 21.8499 6.2399V7.0079M6.1059 18.9119L3.4179 21.5999M21.0819 21.5999L3.8019 3.49759M9.8499 4.66568C10.6107 4.44067 11.4162 4.3199 12.2499 4.3199C16.9156 4.3199 20.6979 8.1022 20.6979 12.7679C20.6979 14.1049 20.3873 15.3693 19.8344 16.4929M18.0099 18.9478C16.5009 20.3549 14.4759 21.2159 12.2499 21.2159C7.5842 21.2159 3.8019 17.4336 3.8019 12.7679C3.8019 10.5419 4.66287 8.51693 6.06996 7.0079" stroke="#2C2920" stroke-width="1.5" stroke-linecap="square" stroke-linejoin="round"/>
</svg>
