<svg width="24" height="24" viewBox="0 0 24 24" fill="none" xmlns="http://www.w3.org/2000/svg">
<path d="M9.53038 12.0696L9.00005 11.5392L7.93939 12.5999L8.46972 13.1302L9.53038 12.0696ZM10.8 14.3999L10.2697 14.9302C10.5626 15.2231 11.0375 15.2231 11.3304 14.9302L10.8 14.3999ZM15.5304 10.7302L16.0607 10.1999L15 9.13924L14.4697 9.66957L15.5304 10.7302ZM6.38638 19.4422L6.91671 18.9119L5.85605 17.8512L5.32572 18.3816L6.38638 19.4422ZM2.63772 21.0696L2.10739 21.5999L3.16805 22.6606L3.69838 22.1302L2.63772 21.0696ZM20.3017 22.1302L20.832 22.6606L21.8927 21.5999L21.3624 21.0696L20.3017 22.1302ZM18.6744 18.3816L18.144 17.8512L17.0834 18.9119L17.6137 19.4422L18.6744 18.3816ZM5.33038 2.93023L5.86071 2.3999L4.80005 1.33924L4.26972 1.86957L5.33038 2.93023ZM1.26972 4.86957L0.739389 5.3999L1.80005 6.46056L2.33038 5.93023L1.26972 4.86957ZM21.6697 5.93023L22.2001 6.46056L23.2607 5.3999L22.7304 4.86957L21.6697 5.93023ZM19.7304 1.86957L19.2001 1.33924L18.1394 2.3999L18.6697 2.93023L19.7304 1.86957ZM9.00005 12.5999L8.46972 13.1302L10.2697 14.9302L10.8 14.3999L11.3304 13.8696L9.53038 12.0696L9.00005 12.5999ZM10.8 14.3999L11.3304 14.9302L15.5304 10.7302L15 10.1999L14.4697 9.66957L10.2697 13.8696L10.8 14.3999ZM5.85605 18.9119L5.32572 18.3816L2.63772 21.0696L3.16805 21.5999L3.69838 22.1302L6.38638 19.4422L5.85605 18.9119ZM20.832 21.5999L21.3624 21.0696L18.6744 18.3816L18.144 18.9119L17.6137 19.4422L20.3017 22.1302L20.832 21.5999ZM20.448 12.7679H19.698C19.698 17.0194 16.2515 20.4659 12 20.4659V21.2159V21.9659C17.08 21.9659 21.198 17.8478 21.198 12.7679H20.448ZM12 21.2159V20.4659C7.74856 20.4659 4.30205 17.0194 4.30205 12.7679H3.55205H2.80205C2.80205 17.8478 6.92013 21.9659 12 21.9659V21.2159ZM3.55205 12.7679H4.30205C4.30205 8.51641 7.74856 5.0699 12 5.0699V4.3199V3.5699C6.92013 3.5699 2.80205 7.68799 2.80205 12.7679H3.55205ZM12 4.3199V5.0699C16.2515 5.0699 19.698 8.51641 19.698 12.7679H20.448H21.198C21.198 7.68799 17.08 3.5699 12 3.5699V4.3199ZM4.80005 2.3999L4.26972 1.86957L1.26972 4.86957L1.80005 5.3999L2.33038 5.93023L5.33038 2.93023L4.80005 2.3999ZM22.2001 5.3999L22.7304 4.86957L19.7304 1.86957L19.2001 2.3999L18.6697 2.93023L21.6697 5.93023L22.2001 5.3999Z" fill="#2C2920"/>
</svg>
