<svg width="24" height="24" viewBox="0 0 24 24" fill="none" xmlns="http://www.w3.org/2000/svg">
<path d="M7.74276 12.4879C7.42455 12.753 7.38156 13.226 7.64673 13.5442C7.91191 13.8624 8.38483 13.9054 8.70304 13.6402L7.74276 12.4879ZM12.2004 9.74945L12.6805 9.17328C12.4024 8.94151 11.9984 8.94151 11.7203 9.17328L12.2004 9.74945ZM15.6978 13.6402C16.016 13.9054 16.4889 13.8624 16.7541 13.5442C17.0192 13.226 16.9763 12.753 16.658 12.4879L15.6978 13.6402ZM8.2229 13.064L8.70304 13.6402L12.6805 10.3256L12.2004 9.74945L11.7203 9.17328L7.74276 12.4879L8.2229 13.064ZM12.2004 9.74945L11.7203 10.3256L15.6978 13.6402L16.1779 13.064L16.658 12.4879L12.6805 9.17328L12.2004 9.74945ZM21 12H20.25C20.25 16.5563 16.5563 20.25 12 20.25V21V21.75C17.3848 21.75 21.75 17.3848 21.75 12H21ZM12 21V20.25C7.44365 20.25 3.75 16.5563 3.75 12H3H2.25C2.25 17.3848 6.61522 21.75 12 21.75V21ZM3 12H3.75C3.75 7.44365 7.44365 3.75 12 3.75V3V2.25C6.61522 2.25 2.25 6.61522 2.25 12H3ZM12 3V3.75C16.5563 3.75 20.25 7.44365 20.25 12H21H21.75C21.75 6.61522 17.3848 2.25 12 2.25V3Z" fill="#2C2920"/>
</svg>
