<svg width="24" height="24" viewBox="0 0 24 24" fill="none" xmlns="http://www.w3.org/2000/svg">
<path d="M14.2065 3.25C13.7923 3.25 13.4565 3.58579 13.4565 4C13.4565 4.41421 13.7923 4.75 14.2065 4.75V3.25ZM20 4H20.75C20.75 3.58579 20.4142 3.25 20 3.25V4ZM19.25 9.79311C19.25 10.2073 19.5858 10.5431 20 10.5431C20.4142 10.5431 20.75 10.2073 20.75 9.79311H19.25ZM13.2409 10.7586L12.7106 10.2283L12.7106 10.2283L13.2409 10.7586ZM9.79349 20.75C10.2077 20.75 10.5435 20.4142 10.5435 20C10.5435 19.5858 10.2077 19.25 9.79349 19.25V20.75ZM4 20H3.25C3.25 20.4142 3.58579 20.75 4 20.75V20ZM4.75 14.2069C4.75 13.7927 4.41421 13.4569 4 13.4569C3.58579 13.4569 3.25 13.7927 3.25 14.2069H4.75ZM14.2065 4V4.75H20V4V3.25H14.2065V4ZM20 4H19.25V9.79311H20H20.75V4H20ZM20 4L19.4697 3.46965L12.7106 10.2283L13.2409 10.7586L13.7712 11.289L20.5303 4.53035L20 4ZM9.79349 20V19.25H4V20V20.75H9.79349V20ZM4 20H4.75V14.2069H4H3.25V20H4ZM4 20L4.53034 20.5303L13.7713 11.2889L13.2409 10.7586L12.7106 10.2283L3.46966 19.4697L4 20Z" fill="#2C2920"/>
</svg>
