<svg width="24" height="24" viewBox="0 0 24 24" fill="none" xmlns="http://www.w3.org/2000/svg">
<path d="M10.7609 16.4577C11.0261 16.7759 11.499 16.8189 11.8172 16.5537C12.1354 16.2885 12.1784 15.8156 11.9132 15.4974L10.7609 16.4577ZM8.02247 12L7.4463 11.5199C7.21452 11.798 7.21452 12.202 7.4463 12.4802L8.02247 12ZM11.9132 8.50266C12.1784 8.18446 12.1354 7.71153 11.8172 7.44636C11.499 7.18119 11.0261 7.22418 10.7609 7.54239L11.9132 8.50266ZM15.9775 12.75C16.3917 12.75 16.7275 12.4142 16.7275 12C16.7275 11.5858 16.3917 11.25 15.9775 11.25V12.75ZM11.3371 15.9775L11.9132 15.4974L8.59863 11.5199L8.02247 12L7.4463 12.4802L10.7609 16.4577L11.3371 15.9775ZM8.02247 12L8.59863 12.4802L11.9132 8.50266L11.3371 8.02252L10.7609 7.54239L7.4463 11.5199L8.02247 12ZM8.02247 12V12.75H15.9775V12V11.25H8.02247V12ZM5.63604 5.63604L6.16637 6.16637C9.38819 2.94454 14.6118 2.94454 17.8336 6.16637L18.364 5.63604L18.8943 5.10571C15.0867 1.2981 8.91332 1.2981 5.10571 5.10571L5.63604 5.63604ZM18.364 5.63604L17.8336 6.16637C21.0555 9.38819 21.0555 14.6118 17.8336 17.8336L18.364 18.364L18.8943 18.8943C22.7019 15.0867 22.7019 8.91332 18.8943 5.10571L18.364 5.63604ZM18.364 18.364L17.8336 17.8336C14.6118 21.0555 9.38819 21.0555 6.16637 17.8336L5.63604 18.364L5.10571 18.8943C8.91332 22.7019 15.0867 22.7019 18.8943 18.8943L18.364 18.364ZM5.63604 18.364L6.16637 17.8336C2.94454 14.6118 2.94454 9.38819 6.16637 6.16637L5.63604 5.63604L5.10571 5.10571C1.2981 8.91332 1.2981 15.0867 5.10571 18.8943L5.63604 18.364Z" fill="#2C2920"/>
</svg>
