<svg width="24" height="24" viewBox="0 0 24 24" fill="none" xmlns="http://www.w3.org/2000/svg">
<path d="M16.0282 9.72418C16.0657 9.31166 15.7617 8.94685 15.3492 8.90935C14.9367 8.87185 14.5719 9.17586 14.5344 9.58837L16.0282 9.72418ZM14.8125 14.8126L14.8804 15.5595C15.241 15.5267 15.5267 15.241 15.5594 14.8805L14.8125 14.8126ZM9.58833 14.5344C9.17582 14.5719 8.87181 14.9367 8.90931 15.3492C8.94682 15.7617 9.31162 16.0657 9.72414 16.0282L9.58833 14.5344ZM9.71781 8.65719C9.42492 8.3643 8.95005 8.3643 8.65715 8.65719C8.36426 8.95008 8.36426 9.42496 8.65715 9.71785L9.71781 8.65719ZM15.2813 9.65627L14.5344 9.58837L14.0656 14.7447L14.8125 14.8126L15.5594 14.8805L16.0282 9.72418L15.2813 9.65627ZM14.8125 14.8126L14.7446 14.0656L9.58833 14.5344L9.65623 15.2813L9.72414 16.0282L14.8804 15.5595L14.8125 14.8126ZM14.8125 14.8126L15.3429 14.2822L9.71781 8.65719L9.18748 9.18752L8.65715 9.71785L14.2822 15.3429L14.8125 14.8126ZM21 12H20.25C20.25 16.5563 16.5563 20.25 12 20.25V21V21.75C17.3848 21.75 21.75 17.3848 21.75 12H21ZM12 21V20.25C7.44365 20.25 3.75 16.5563 3.75 12H3H2.25C2.25 17.3848 6.61522 21.75 12 21.75V21ZM3 12H3.75C3.75 7.44365 7.44365 3.75 12 3.75V3V2.25C6.61522 2.25 2.25 6.61522 2.25 12H3ZM12 3V3.75C16.5563 3.75 20.25 7.44365 20.25 12H21H21.75C21.75 6.61522 17.3848 2.25 12 2.25V3Z" fill="#2C2920"/>
</svg>
