<svg width="24" height="24" viewBox="0 0 24 24" fill="none" xmlns="http://www.w3.org/2000/svg">
<path d="M16.4576 13.2391C16.7758 12.9739 16.8188 12.501 16.5536 12.1828C16.2885 11.8646 15.8155 11.8216 15.4973 12.0868L16.4576 13.2391ZM12 15.9775L11.5198 16.5537C11.798 16.7855 12.202 16.7855 12.4801 16.5537L12 15.9775ZM8.50261 12.0868C8.1844 11.8216 7.71148 11.8646 7.4463 12.1828C7.18113 12.501 7.22412 12.9739 7.54233 13.2391L8.50261 12.0868ZM12.75 8.02253C12.75 7.60831 12.4142 7.27253 12 7.27253C11.5858 7.27253 11.25 7.60831 11.25 8.02253H12.75ZM15.9775 12.6629L15.4973 12.0868L11.5198 15.4014L12 15.9775L12.4801 16.5537L16.4576 13.2391L15.9775 12.6629ZM12 15.9775L12.4801 15.4014L8.50261 12.0868L8.02247 12.6629L7.54233 13.2391L11.5198 16.5537L12 15.9775ZM12 15.9775H12.75V8.02253H12H11.25V15.9775H12ZM18.364 18.364L17.8336 17.8336C14.6118 21.0555 9.38819 21.0555 6.16637 17.8336L5.63604 18.364L5.10571 18.8943C8.91332 22.7019 15.0867 22.7019 18.8943 18.8943L18.364 18.364ZM5.63604 18.364L6.16637 17.8336C2.94454 14.6118 2.94454 9.38819 6.16637 6.16637L5.63604 5.63604L5.10571 5.10571C1.2981 8.91332 1.2981 15.0867 5.10571 18.8943L5.63604 18.364ZM5.63604 5.63604L6.16637 6.16637C9.38819 2.94454 14.6118 2.94454 17.8336 6.16637L18.364 5.63604L18.8943 5.10571C15.0867 1.2981 8.91332 1.2981 5.10571 5.10571L5.63604 5.63604ZM18.364 5.63604L17.8336 6.16637C21.0555 9.38819 21.0555 14.6118 17.8336 17.8336L18.364 18.364L18.8943 18.8943C22.7019 15.0867 22.7019 8.91332 18.8943 5.10571L18.364 5.63604Z" fill="#2C2920"/>
</svg>
