<svg width="24" height="24" viewBox="0 0 24 24" fill="none" xmlns="http://www.w3.org/2000/svg">
<path d="M7.54233 10.7609C7.22412 11.0261 7.18113 11.499 7.4463 11.8172C7.71148 12.1354 8.1844 12.1784 8.50261 11.9132L7.54233 10.7609ZM12 8.02247L12.4801 7.4463C12.202 7.21452 11.798 7.21452 11.5198 7.4463L12 8.02247ZM15.4973 11.9132C15.8155 12.1784 16.2885 12.1354 16.5536 11.8172C16.8188 11.499 16.7758 11.0261 16.4576 10.7609L15.4973 11.9132ZM11.25 15.9775C11.25 16.3917 11.5858 16.7275 12 16.7275C12.4142 16.7275 12.75 16.3917 12.75 15.9775H11.25ZM8.02247 11.3371L8.50261 11.9132L12.4801 8.59863L12 8.02247L11.5198 7.4463L7.54233 10.7609L8.02247 11.3371ZM12 8.02247L11.5198 8.59863L15.4973 11.9132L15.9775 11.3371L16.4576 10.7609L12.4801 7.4463L12 8.02247ZM12 8.02247H11.25V15.9775H12H12.75V8.02247H12ZM18.364 5.63604L17.8336 6.16637C21.0555 9.38819 21.0555 14.6118 17.8336 17.8336L18.364 18.364L18.8943 18.8943C22.7019 15.0867 22.7019 8.91332 18.8943 5.10571L18.364 5.63604ZM18.364 18.364L17.8336 17.8336C14.6118 21.0555 9.38819 21.0555 6.16637 17.8336L5.63604 18.364L5.10571 18.8943C8.91332 22.7019 15.0867 22.7019 18.8943 18.8943L18.364 18.364ZM5.63604 18.364L6.16637 17.8336C2.94454 14.6118 2.94454 9.38819 6.16637 6.16637L5.63604 5.63604L5.10571 5.10571C1.2981 8.91332 1.2981 15.0867 5.10571 18.8943L5.63604 18.364ZM5.63604 5.63604L6.16637 6.16637C9.38819 2.94454 14.6118 2.94454 17.8336 6.16637L18.364 5.63604L18.8943 5.10571C15.0867 1.2981 8.91332 1.2981 5.10571 5.10571L5.63604 5.63604Z" fill="#2C2920"/>
</svg>
