<svg width="24" height="24" viewBox="0 0 24 24" fill="none" xmlns="http://www.w3.org/2000/svg">
<path d="M16.6571 11.4506C16.9753 11.1854 17.0183 10.7125 16.7532 10.3943C16.488 10.0761 16.0151 10.0331 15.6969 10.2983L16.6571 11.4506ZM12.1995 14.189L11.7194 14.7652C11.9975 14.997 12.4015 14.997 12.6796 14.7652L12.1995 14.189ZM8.70213 10.2983C8.38393 10.0331 7.911 10.0761 7.64583 10.3943C7.38066 10.7125 7.42365 11.1854 7.74186 11.4506L8.70213 10.2983ZM16.177 10.8744L15.6969 10.2983L11.7194 13.6129L12.1995 14.189L12.6796 14.7652L16.6571 11.4506L16.177 10.8744ZM12.1995 14.189L12.6796 13.6129L8.70213 10.2983L8.22199 10.8744L7.74186 11.4506L11.7194 14.7652L12.1995 14.189ZM21 12H20.25C20.25 16.5563 16.5563 20.25 12 20.25V21V21.75C17.3848 21.75 21.75 17.3848 21.75 12H21ZM12 21V20.25C7.44365 20.25 3.75 16.5563 3.75 12H3H2.25C2.25 17.3848 6.61522 21.75 12 21.75V21ZM3 12H3.75C3.75 7.44365 7.44365 3.75 12 3.75V3V2.25C6.61522 2.25 2.25 6.61522 2.25 12H3ZM12 3V3.75C16.5563 3.75 20.25 7.44365 20.25 12H21H21.75C21.75 6.61522 17.3848 2.25 12 2.25V3Z" fill="#2C2920"/>
</svg>
