<svg width="24" height="24" viewBox="0 0 24 24" fill="none" xmlns="http://www.w3.org/2000/svg">
<path d="M14.2758 16.0282C14.6883 16.0657 15.0531 15.7617 15.0906 15.3492C15.1281 14.9367 14.8241 14.5719 14.4116 14.5344L14.2758 16.0282ZM9.18744 14.8125L8.44052 14.8804C8.4733 15.241 8.75898 15.5267 9.11954 15.5594L9.18744 14.8125ZM9.46561 9.58833C9.42811 9.17582 9.0633 8.87181 8.65079 8.90931C8.23827 8.94682 7.93427 9.31162 7.97177 9.72414L9.46561 9.58833ZM15.3428 9.71781C15.6357 9.42492 15.6357 8.95005 15.3428 8.65715C15.0499 8.36426 14.575 8.36426 14.2821 8.65715L15.3428 9.71781ZM14.3437 15.2813L14.4116 14.5344L9.25534 14.0656L9.18744 14.8125L9.11954 15.5594L14.2758 16.0282L14.3437 15.2813ZM9.18744 14.8125L9.93436 14.7446L9.46561 9.58833L8.71869 9.65623L7.97177 9.72414L8.44052 14.8804L9.18744 14.8125ZM9.18744 14.8125L9.71777 15.3429L15.3428 9.71781L14.8125 9.18748L14.2821 8.65715L8.65711 14.2822L9.18744 14.8125ZM12 21V20.25C7.44365 20.25 3.75 16.5563 3.75 12H3H2.25C2.25 17.3848 6.61522 21.75 12 21.75V21ZM3 12H3.75C3.75 7.44365 7.44365 3.75 12 3.75V3V2.25C6.61522 2.25 2.25 6.61522 2.25 12H3ZM12 3V3.75C16.5563 3.75 20.25 7.44365 20.25 12H21H21.75C21.75 6.61522 17.3848 2.25 12 2.25V3ZM21 12H20.25C20.25 16.5563 16.5563 20.25 12 20.25V21V21.75C17.3848 21.75 21.75 17.3848 21.75 12H21Z" fill="#2C2920"/>
</svg>
