<svg width="24" height="24" viewBox="0 0 24 24" fill="none" xmlns="http://www.w3.org/2000/svg">
<path d="M11.4506 7.34286C11.1854 7.02465 10.7125 6.98166 10.3943 7.24683C10.0761 7.51201 10.0331 7.98493 10.2983 8.30314L11.4506 7.34286ZM14.189 11.8005L14.7652 12.2806C14.997 12.0025 14.997 11.5985 14.7652 11.3204L14.189 11.8005ZM10.2983 15.2979C10.0331 15.6161 10.0761 16.089 10.3943 16.3542C10.7125 16.6193 11.1854 16.5764 11.4506 16.2581L10.2983 15.2979ZM10.8744 7.823L10.2983 8.30314L13.6129 12.2806L14.189 11.8005L14.7652 11.3204L11.4506 7.34286L10.8744 7.823ZM14.189 11.8005L13.6129 11.3204L10.2983 15.2979L10.8744 15.778L11.4506 16.2581L14.7652 12.2806L14.189 11.8005ZM12 3V3.75C16.5563 3.75 20.25 7.44365 20.25 12H21H21.75C21.75 6.61522 17.3848 2.25 12 2.25V3ZM21 12H20.25C20.25 16.5563 16.5563 20.25 12 20.25V21V21.75C17.3848 21.75 21.75 17.3848 21.75 12H21ZM12 21V20.25C7.44365 20.25 3.75 16.5563 3.75 12H3H2.25C2.25 17.3848 6.61522 21.75 12 21.75V21ZM3 12H3.75C3.75 7.44365 7.44365 3.75 12 3.75V3V2.25C6.61522 2.25 2.25 6.61522 2.25 12H3Z" fill="#2C2920"/>
</svg>
