<svg width="24" height="24" viewBox="0 0 24 24" fill="none" xmlns="http://www.w3.org/2000/svg">
<path d="M12.4879 16.2572C12.753 16.5754 13.226 16.6184 13.5442 16.3533C13.8624 16.0881 13.9054 15.6152 13.6402 15.297L12.4879 16.2572ZM9.74945 11.7996L9.17328 11.3195C8.94151 11.5976 8.94151 12.0016 9.17328 12.2797L9.74945 11.7996ZM13.6402 8.30223C13.9054 7.98402 13.8624 7.5111 13.5442 7.24593C13.226 6.98075 12.753 7.02375 12.4879 7.34195L13.6402 8.30223ZM13.064 15.7771L13.6402 15.297L10.3256 11.3195L9.74945 11.7996L9.17328 12.2797L12.4879 16.2572L13.064 15.7771ZM9.74945 11.7996L10.3256 12.2797L13.6402 8.30223L13.064 7.82209L12.4879 7.34195L9.17328 11.3195L9.74945 11.7996ZM12 3V3.75C16.5563 3.75 20.25 7.44365 20.25 12H21H21.75C21.75 6.61522 17.3848 2.25 12 2.25V3ZM21 12H20.25C20.25 16.5563 16.5563 20.25 12 20.25V21V21.75C17.3848 21.75 21.75 17.3848 21.75 12H21ZM12 21V20.25C7.44365 20.25 3.75 16.5563 3.75 12H3H2.25C2.25 17.3848 6.61522 21.75 12 21.75V21ZM3 12H3.75C3.75 7.44365 7.44365 3.75 12 3.75V3V2.25C6.61522 2.25 2.25 6.61522 2.25 12H3Z" fill="#2C2920"/>
</svg>
