<svg width="24" height="24" viewBox="0 0 24 24" fill="none" xmlns="http://www.w3.org/2000/svg">
<path d="M2.3999 18.0815L2.40012 6.25766C2.40014 5.58422 3.05233 5.10331 3.69568 5.30235L4.04375 5.41004C6.71575 6.23671 9.60455 6.23671 12.2765 5.41004C15.1974 4.50639 18.3688 4.59289 21.2274 5.65417L21.6002 5.79256L21.5999 18.575C21.5999 18.7676 21.4078 18.9012 21.2272 18.8342V18.8342C18.3685 17.7729 15.1971 17.6864 12.2763 18.59C9.6043 19.4167 6.7155 19.4167 4.04351 18.59L2.3999 18.0815Z" stroke="#2C2920" stroke-width="1.5" stroke-linecap="square" stroke-linejoin="round"/>
<path d="M14.3999 11.99C14.3999 13.3155 13.3254 14.39 11.9999 14.39C10.6744 14.39 9.5999 13.3155 9.5999 11.99C9.5999 10.6646 10.6744 9.59004 11.9999 9.59004C13.3254 9.59004 14.3999 10.6646 14.3999 11.99Z" stroke="#2C2920" stroke-width="1.5" stroke-linecap="square" stroke-linejoin="round"/>
</svg>
