<svg width="24" height="24" viewBox="0 0 24 24" fill="none" xmlns="http://www.w3.org/2000/svg">
<path d="M4.60239 16.8594L3.98077 16.4398H3.98077L4.60239 16.8594ZM5.69243 13.3814L4.94243 13.3733V13.3814H5.69243ZM5.7153 11.2786L6.4653 11.2868V11.2786H5.7153ZM19.4068 16.8763L20.0364 16.4687L20.0364 16.4687L19.4068 16.8763ZM18.3578 13.3814L17.6078 13.3728V13.3814H18.3578ZM18.3806 11.3828L19.1306 11.3914V11.3828H18.3806ZM9.50226 20.25H8.75226V21.75H9.50226V20.25ZM14.5011 21.75H15.2511V20.25H14.5011V21.75ZM3.29893 6.11279L3.03247 6.81386L4.43461 7.34678L4.70107 6.64571L3.29893 6.11279ZM7.18663 3.65209L7.83872 3.28159L7.09771 1.9774L6.44561 2.34791L7.18663 3.65209ZM17.5417 2.36109L16.8937 1.98348L16.1384 3.27949L16.7865 3.6571L17.5417 2.36109ZM19.2962 6.62927L19.5555 7.33304L20.963 6.81455L20.7038 6.11078L19.2962 6.62927ZM4.60239 16.8594L5.22401 17.279C5.83928 16.3676 6.44243 15.0187 6.44243 13.3814H5.69243H4.94243C4.94243 14.6466 4.47483 15.7079 3.98077 16.4398L4.60239 16.8594ZM5.69243 13.3814L6.44238 13.3896L6.46526 11.2868L5.7153 11.2786L4.96535 11.2705L4.94247 13.3733L5.69243 13.3814ZM19.4068 16.8763L20.0364 16.4687C19.5625 15.7367 19.1078 14.6646 19.1078 13.3814H18.3578H17.6078C17.6078 15.0206 18.1868 16.3718 18.7772 17.2838L19.4068 16.8763ZM18.3578 13.3814L19.1077 13.39L19.1306 11.3914L18.3806 11.3828L17.6307 11.3742L17.6078 13.3728L18.3578 13.3814ZM18.3806 11.3828H19.1306C19.1306 7.08985 16.0197 3.45457 12.0017 3.45457V4.20457V4.95457C15.0297 4.95457 17.6306 7.74691 17.6306 11.3828H18.3806ZM19.025 17.8508V18.6008C19.6638 18.6008 20.0196 18.1064 20.1499 17.762C20.2863 17.4015 20.3129 16.8959 20.0364 16.4687L19.4068 16.8763L18.7772 17.2838C18.7639 17.2632 18.757 17.2457 18.7536 17.2343C18.7503 17.2232 18.75 17.217 18.7499 17.2163C18.7499 17.2155 18.75 17.2176 18.7494 17.2218C18.7487 17.226 18.7477 17.2294 18.7469 17.2313C18.7438 17.2397 18.749 17.2183 18.7851 17.1864C18.827 17.1493 18.9111 17.1008 19.025 17.1008V17.8508ZM5.7153 11.2786H6.4653C6.4653 7.70026 9.0248 4.95457 12.0017 4.95457V4.20457V3.45457C8.03481 3.45457 4.9653 7.0432 4.9653 11.2786H5.7153ZM4.97923 17.8508V17.1008C5.09577 17.1008 5.18067 17.1513 5.22178 17.1883C5.25696 17.2199 5.26096 17.2401 5.25709 17.2296C5.25605 17.2267 5.25482 17.2223 5.25406 17.2173C5.2533 17.2122 5.25346 17.2095 5.25344 17.2098C5.25342 17.2101 5.25304 17.2164 5.24947 17.2278C5.24582 17.2395 5.2384 17.2577 5.22401 17.279L4.60239 16.8594L3.98077 16.4398C3.69127 16.8686 3.71559 17.3829 3.84887 17.7462C3.97569 18.0919 4.33031 18.6008 4.97923 18.6008V17.8508ZM19.025 17.8508V17.1008H4.97923V17.8508V18.6008H19.025V17.8508ZM9.50226 21V21.75H14.5011V21V20.25H9.50226V21ZM4 6.37925L4.70107 6.64571C5.19323 5.3508 6.06724 4.28811 7.18663 3.65209L6.81612 3L6.44561 2.34791C4.99212 3.17376 3.90189 4.52638 3.29893 6.11279L4 6.37925ZM17.1641 3.0091L16.7865 3.6571C17.9331 4.32528 18.831 5.36631 19.2962 6.62927L20 6.37003L20.7038 6.11078C20.1137 4.50894 18.9785 3.19834 17.5417 2.36109L17.1641 3.0091Z" fill="#2C2920"/>
</svg>
