<svg width="24" height="24" viewBox="0 0 24 24" fill="none" xmlns="http://www.w3.org/2000/svg">
<path d="M4.60147 16.4759L3.98595 16.0474H3.98595L4.60147 16.4759ZM5.69156 13.1034L4.94156 13.095V13.1034H5.69156ZM5.71444 11.0643L6.46444 11.0727V11.0643H5.71444ZM19.4065 16.4923L20.0303 16.0759L20.0303 16.0759L19.4065 16.4923ZM18.3575 13.1034L17.6075 13.0945V13.1034H18.3575ZM18.3803 11.1653L19.1303 11.1742V11.1653H18.3803ZM9.96839 19.5647L9.38137 19.0979L8.44774 20.2719L9.03475 20.7388L9.96839 19.5647ZM14.9674 20.7388L15.5544 20.2719L14.6208 19.0979L14.0338 19.5647L14.9674 20.7388ZM3.29894 6.11274L3.03246 6.8138L4.43459 7.34675L4.70106 6.64568L3.29894 6.11274ZM7.18674 3.6521L7.83884 3.28161L7.09786 1.97741L6.44576 2.3479L7.18674 3.6521ZM17.5415 2.36111L16.8935 1.98352L16.1383 3.27955L16.7863 3.65714L17.5415 2.36111ZM19.2962 6.62928L19.5555 7.33304L20.963 6.81452L20.7038 6.11076L19.2962 6.62928ZM4.60147 16.4759L5.217 16.9045C5.834 16.0182 6.44156 14.7027 6.44156 13.1034H5.69156H4.94156C4.94156 14.3185 4.47834 15.3402 3.98595 16.0474L4.60147 16.4759ZM5.69156 13.1034L6.44151 13.1118L6.46439 11.0727L5.71444 11.0643L4.96449 11.0559L4.94161 13.095L5.69156 13.1034ZM19.4065 16.4923L20.0303 16.0759C19.5582 15.3687 19.1075 14.3365 19.1075 13.1034H18.3575H17.6075C17.6075 14.7041 18.1906 16.0217 18.7828 16.9087L19.4065 16.4923ZM18.3575 13.1034L19.1074 13.1122L19.1303 11.1742L18.3803 11.1653L17.6304 11.1565L17.6075 13.0945L18.3575 13.1034ZM18.3803 11.1653H19.1303C19.1303 6.96977 15.9987 3.45465 12.0011 3.45465V4.20465V4.95465C15.0498 4.95465 17.6303 7.67235 17.6303 11.1653H18.3803ZM19.0248 17.4373V18.1873C19.65 18.1873 20.0108 17.7152 20.1469 17.3665C20.287 17.0072 20.3144 16.5014 20.0303 16.0759L19.4065 16.4923L18.7828 16.9087C18.7531 16.8643 18.7501 16.8305 18.7497 16.8243C18.7495 16.8202 18.7499 16.8191 18.7497 16.8202C18.7495 16.8213 18.7492 16.8219 18.7495 16.8213C18.7497 16.8208 18.7515 16.8162 18.757 16.8081C18.7624 16.8 18.7737 16.7854 18.7935 16.7685C18.8367 16.7315 18.9179 16.6873 19.0248 16.6873V17.4373ZM5.71444 11.0643H6.46444C6.46444 7.62711 9.00352 4.95465 12.0011 4.95465V4.20465V3.45465C8.05462 3.45465 4.96444 6.92453 4.96444 11.0643H5.71444ZM4.97833 17.4373V16.6873C5.08764 16.6873 5.1698 16.7333 5.21228 16.7703C5.23177 16.7873 5.24248 16.8017 5.24737 16.8091C5.24998 16.813 5.25155 16.8159 5.25238 16.8175C5.25281 16.8184 5.2531 16.819 5.25327 16.8194C5.25345 16.8198 5.25353 16.82 5.25353 16.82C5.25354 16.82 5.25336 16.8195 5.25314 16.8187C5.25292 16.8179 5.25274 16.817 5.25262 16.8162C5.25233 16.8143 5.25266 16.8148 5.25243 16.8186C5.25209 16.8238 5.24884 16.8587 5.217 16.9045L4.60147 16.4759L3.98595 16.0474C3.68871 16.4744 3.71362 16.9888 3.8506 17.3508C3.98315 17.7012 4.34305 18.1873 4.97833 18.1873V17.4373ZM19.0248 17.4373V16.6873H4.97833V17.4373V18.1873H19.0248V17.4373ZM12.0011 21V20.25C11.2077 20.25 10.4969 19.985 9.96839 19.5647L9.50157 20.1517L9.03475 20.7388C9.83286 21.3734 10.874 21.75 12.0011 21.75V21ZM14.5006 20.1517L14.0338 19.5647C13.5053 19.985 12.7945 20.25 12.0011 20.25V21V21.75C13.1282 21.75 14.1693 21.3734 14.9674 20.7388L14.5006 20.1517ZM4 6.37921L4.70106 6.64568C5.19325 5.3508 6.06729 4.28811 7.18674 3.6521L6.81625 3L6.44576 2.3479C4.9922 3.17373 3.90192 4.52634 3.29894 6.11274L4 6.37921ZM17.1639 3.00913L16.7863 3.65714C17.933 4.32532 18.831 5.36634 19.2962 6.62928L20 6.37002L20.7038 6.11076C20.1137 4.50893 18.9784 3.19835 17.5415 2.36111L17.1639 3.00913Z" fill="#2C2920"/>
</svg>
