<svg width="24" height="24" viewBox="0 0 24 24" fill="none" xmlns="http://www.w3.org/2000/svg">
<path d="M4.10557 18.1074L3.51021 17.6513H3.51021L4.10557 18.1074ZM5.26855 14.8377L4.51855 14.8285V14.8377H5.26855ZM5.29296 12.8609L6.04296 12.8701V12.8609H5.29296ZM19.9006 18.1233L20.5051 17.6792L20.5051 17.6792L19.9006 18.1233ZM18.7814 14.8377L18.0314 14.828V14.8377H18.7814ZM18.8058 12.9588L19.5558 12.9686V12.9588H18.8058ZM15.95 19.0395V18.2895H14.45V19.0395H15.95ZM9.55 19.0395V18.2895H8.05V19.0395H9.55ZM4.10557 18.1074L4.70094 18.5635C5.35975 17.7036 6.01855 16.4143 6.01855 14.8377H5.26855H4.51855C4.51855 15.9897 4.03497 16.9663 3.51021 17.6513L4.10557 18.1074ZM5.26855 14.8377L6.0185 14.847L6.0429 12.8701L5.29296 12.8609L4.54302 12.8516L4.51861 14.8285L5.26855 14.8377ZM19.9006 18.1233L20.5051 17.6792C20.0025 16.9952 19.5314 16.0083 19.5314 14.8377H18.7814H18.0314C18.0314 16.4145 18.6633 17.7058 19.2962 18.5673L19.9006 18.1233ZM18.7814 14.8377L19.5314 14.8475L19.5558 12.9686L18.8058 12.9588L18.0559 12.9491L18.0315 14.828L18.7814 14.8377ZM18.8058 12.9588H19.5558C19.5558 8.81165 16.167 5.46053 12 5.46053V6.21053V6.96053C15.3506 6.96053 18.0558 9.65205 18.0558 12.9588H18.8058ZM19.4933 19.0394V19.7894C20.09 19.7894 20.4749 19.3735 20.6343 19.0024C20.7925 18.6337 20.8217 18.1102 20.5051 17.6792L19.9006 18.1233L19.2962 18.5673C19.2601 18.5182 19.2515 18.4728 19.2502 18.4503C19.249 18.4296 19.2527 18.418 19.2559 18.4106C19.2588 18.4038 19.2706 18.3793 19.3065 18.3514C19.3473 18.3196 19.4136 18.2894 19.4933 18.2894V19.0394ZM5.29296 12.8609H6.04296C6.04296 9.60819 8.70401 6.96053 12 6.96053V6.21053V5.46053C7.88761 5.46053 4.54296 8.76779 4.54296 12.8609H5.29296ZM4.50763 19.0394V18.2894C4.58934 18.2894 4.65666 18.3209 4.69713 18.353C4.73249 18.3811 4.74312 18.4049 4.74524 18.41C4.74762 18.4157 4.75108 18.4259 4.74969 18.4458C4.74816 18.4676 4.73905 18.5138 4.70094 18.5635L4.10557 18.1074L3.51021 17.6513C3.17975 18.0826 3.20559 18.6145 3.36048 18.9865C3.5162 19.3605 3.90116 19.7894 4.50763 19.7894V19.0394ZM19.4933 19.0394V18.2894H4.50763V19.0394V19.7894H19.4933V19.0394ZM15.2 19.0395H14.45C14.45 20.2064 13.4091 21.25 12 21.25V22V22.75C14.1255 22.75 15.95 21.1426 15.95 19.0395H15.2ZM12 22V21.25C10.5909 21.25 9.55 20.2064 9.55 19.0395H8.8H8.05C8.05 21.1426 9.87447 22.75 12 22.75V22ZM14.1333 4.10526H13.3833C13.3833 4.84442 12.7734 5.46053 12 5.46053V6.21053V6.96053C13.583 6.96053 14.8833 5.69152 14.8833 4.10526H14.1333ZM12 6.21053V5.46053C11.2266 5.46053 10.6167 4.84442 10.6167 4.10526H9.86667H9.11667C9.11667 5.69152 10.417 6.96053 12 6.96053V6.21053ZM9.86667 4.10526H10.6167C10.6167 3.36611 11.2266 2.75 12 2.75V2V1.25C10.417 1.25 9.11667 2.51901 9.11667 4.10526H9.86667ZM12 2V2.75C12.7734 2.75 13.3833 3.36611 13.3833 4.10526H14.1333H14.8833C14.8833 2.51901 13.583 1.25 12 1.25V2Z" fill="#2C2920"/>
</svg>
