<svg width="24" height="24" viewBox="0 0 24 24" fill="none" xmlns="http://www.w3.org/2000/svg">
<path d="M9.02718 20.6606L8.6505 20.012L9.02718 20.6606ZM8.28334 20.0979L7.53901 20.0059V20.0059L8.28334 20.0979ZM7.69451 16.9505L7.03949 17.3159L7.04403 17.3238L7.69451 16.9505ZM6.80557 15.3571L7.46059 14.9917L7.45605 14.9838L6.80557 15.3571ZM20.7936 13.8266L21.1703 14.4752H21.1703L20.7936 13.8266ZM20.6926 12.9076L20.9998 12.2234L20.9998 12.2234L20.6926 12.9076ZM18.3045 10.7882L17.6493 11.1532L17.654 11.1616L18.3045 10.7882ZM17.4606 9.27323L18.1158 8.90822L18.1111 8.8999L17.4606 9.27323ZM9.01683 6.97555L9.39351 7.6241L9.01683 6.97555ZM16.398 16.3841L16.0247 15.7336L14.7237 16.4802L15.0971 17.1307L16.398 16.3841ZM14.5949 20.5863L14.9716 21.2349L14.5949 20.5863ZM11.3729 19.3027L10.9996 18.6522L9.69859 19.3988L10.0719 20.0493L11.3729 19.3027ZM2.31834 11.6339L2.42411 12.3764L3.90912 12.1649L3.80335 11.4224L2.31834 11.6339ZM4.45888 8.1054L4.85117 7.46618L3.57271 6.68161L3.18043 7.32084L4.45888 8.1054ZM11.9341 2.25123L11.1843 2.26545L11.2127 3.76518L11.9626 3.75096L11.9341 2.25123ZM15.1484 4.80817L15.7318 5.27949L16.6745 4.11268L16.091 3.64137L15.1484 4.80817ZM8.28334 20.0979L9.02767 20.1899C9.15091 19.1933 9.07548 17.85 8.34499 16.5772L7.69451 16.9505L7.04403 17.3238C7.56695 18.235 7.6354 19.2263 7.53901 20.0059L8.28334 20.0979ZM7.69451 16.9505L8.34948 16.5851L7.46054 14.9917L6.80557 15.3571L6.1506 15.7225L7.03954 17.3159L7.69451 16.9505ZM20.6926 12.9076L20.9998 12.2234C20.3 11.9091 19.4865 11.341 18.955 10.4149L18.3045 10.7882L17.654 11.1616C18.3846 12.4345 19.4836 13.1868 20.3853 13.5917L20.6926 12.9076ZM18.3045 10.7882L18.9597 10.4233L18.1158 8.90825L17.4606 9.27323L16.8054 9.63821L17.6493 11.1532L18.3045 10.7882ZM17.4606 9.27323L18.1111 8.8999C16.1948 5.56105 11.9557 4.40134 8.64016 6.327L9.01683 6.97555L9.39351 7.6241C11.9806 6.12155 15.3022 7.01925 16.8101 9.64656L17.4606 9.27323ZM20.7936 13.8266L21.1703 14.4752C21.6747 14.1822 21.7863 13.6414 21.7398 13.2628C21.6934 12.8849 21.4696 12.4344 20.9998 12.2234L20.6926 12.9076L20.3853 13.5917C20.322 13.5633 20.2872 13.523 20.2719 13.4995C20.2574 13.4772 20.2527 13.4596 20.251 13.4455C20.2493 13.4322 20.2475 13.3979 20.2671 13.3484C20.2891 13.2931 20.3369 13.2245 20.4169 13.1781L20.7936 13.8266ZM6.80557 15.3571L7.45605 14.9838C5.97157 12.3972 6.84662 9.10333 9.39351 7.6241L9.01683 6.97555L8.64016 6.327C5.37015 8.22622 4.26516 12.4374 6.15509 15.7304L6.80557 15.3571ZM9.02718 20.6606L8.6505 20.012C8.73261 19.9643 8.81876 19.957 8.8799 19.9665C8.9342 19.9749 8.96322 19.9946 8.97334 20.0025C8.98414 20.0109 8.99636 20.0234 9.0076 20.0465C9.01958 20.0712 9.03615 20.1214 9.02767 20.1899L8.28334 20.0979L7.53901 20.0059C7.47507 20.523 7.75008 20.9517 8.0534 21.1873C8.35688 21.4229 8.88904 21.6081 9.40385 21.3091L9.02718 20.6606ZM20.7936 13.8266L20.4169 13.1781L8.6505 20.012L9.02718 20.6606L9.40385 21.3091L21.1703 14.4752L20.7936 13.8266ZM15.7475 16.7574L15.0971 17.1307C15.6216 18.0446 15.2869 19.3171 14.2183 19.9378L14.5949 20.5863L14.9716 21.2349C16.6783 20.2436 17.3757 18.0876 16.398 16.3841L15.7475 16.7574ZM14.5949 20.5863L14.2183 19.9378C13.1516 20.5573 11.8956 20.2134 11.3729 19.3027L10.7224 19.676L10.0719 20.0493C11.0514 21.756 13.263 22.2272 14.9716 21.2349L14.5949 20.5863ZM9.72479 4.31763L9.07431 4.69096C9.40403 5.26546 9.20658 5.99803 8.64016 6.327L9.01683 6.97555L9.39351 7.6241C10.6773 6.87848 11.1138 5.23107 10.3753 3.94431L9.72479 4.31763ZM9.01683 6.97555L8.64016 6.327C8.07638 6.65445 7.35341 6.46195 7.02518 5.89004L6.3747 6.26337L5.72422 6.63669C6.4642 7.92604 8.10709 8.37126 9.39351 7.6241L9.01683 6.97555ZM6.3747 6.26337L7.02518 5.89004C6.69547 5.31554 6.89292 4.58297 7.45934 4.254L7.08266 3.60545L6.70598 2.9569C5.4222 3.70252 4.98572 5.34993 5.72422 6.63669L6.3747 6.26337ZM7.08266 3.60545L7.45934 4.254C8.02311 3.92655 8.74608 4.11905 9.07431 4.69096L9.72479 4.31763L10.3753 3.94431C9.63529 2.65496 7.99241 2.20974 6.70598 2.9569L7.08266 3.60545ZM3.06084 11.5281L3.80335 11.4224C3.63701 10.2547 3.86047 9.08052 4.45888 8.1054L3.81966 7.71312L3.18043 7.32084C2.3869 8.61388 2.10615 10.1443 2.31834 11.6339L3.06084 11.5281ZM11.9484 3.00109L11.9626 3.75096C13.1367 3.72868 14.2652 4.09466 15.1484 4.80817L15.6197 4.22477L16.091 3.64137C14.9143 2.69069 13.4356 2.22274 11.9341 2.25123L11.9484 3.00109Z" fill="#2C2920"/>
</svg>
