<svg width="24" height="24" viewBox="0 0 24 24" fill="none" xmlns="http://www.w3.org/2000/svg">
<path d="M6.84103 21.6155L6.46603 20.966L6.84103 21.6155ZM5.99338 20.9781L5.24912 20.8855V20.8855L5.99338 20.9781ZM5.32238 17.4128L4.66829 17.7799L4.67286 17.7878L5.32238 17.4128ZM4.30938 15.6078L4.96347 15.2407L4.9589 15.2328L4.30938 15.6078ZM20.2495 13.8741L20.6245 14.5236L20.2495 13.8741ZM20.1344 12.833L20.4401 12.1481L20.4401 12.1481L20.1344 12.833ZM17.4131 10.4322L16.7587 10.7989L16.7635 10.8072L17.4131 10.4322ZM16.4513 8.71606L17.1057 8.34938L17.1009 8.34106L16.4513 8.71606ZM6.82924 6.11328L6.45424 5.46376L6.82924 6.11328ZM15.1488 16.819L14.7738 16.1695L13.4747 16.9195L13.8497 17.569L15.1488 16.819ZM13.1858 21.5314L13.5608 22.1809L13.1858 21.5314ZM9.42235 20.1252L9.04735 19.4757L7.74831 20.2257L8.12331 20.8752L9.42235 20.1252ZM5.99338 20.9781L6.73764 21.0707C6.87639 19.9553 6.79077 18.4561 5.9719 17.0378L5.32238 17.4128L4.67286 17.7878C5.28232 18.8434 5.36066 19.9888 5.24912 20.8855L5.99338 20.9781ZM5.32238 17.4128L5.97642 17.0457L4.96342 15.2407L4.30938 15.6078L3.65534 15.9749L4.66834 17.7799L5.32238 17.4128ZM20.1344 12.833L20.4401 12.1481C19.628 11.7856 18.6815 11.1292 18.0626 10.0572L17.4131 10.4322L16.7635 10.8072C17.5828 12.2262 18.8158 13.0657 19.8286 13.5178L20.1344 12.833ZM17.4131 10.4322L18.0673 10.0656L17.1056 8.34941L16.4513 8.71606L15.7971 9.0827L16.7588 10.7989L17.4131 10.4322ZM16.4513 8.71606L17.1009 8.34106C14.9445 4.60606 10.179 3.31325 6.45424 5.46376L6.82924 6.11328L7.20424 6.76279C10.2058 5.02986 14.0563 6.06766 15.8018 9.09106L16.4513 8.71606ZM20.2495 13.8741L20.6245 14.5236C21.1522 14.219 21.2739 13.6526 21.2238 13.2469C21.1738 12.8424 20.9335 12.3684 20.4401 12.1481L20.1344 12.833L19.8286 13.5178C19.7778 13.4952 19.7525 13.4641 19.7438 13.4508C19.736 13.4389 19.7354 13.4331 19.7351 13.4308C19.7349 13.4291 19.7319 13.4067 19.7475 13.3677C19.7654 13.3227 19.8061 13.2641 19.8745 13.2246L20.2495 13.8741ZM4.30938 15.6078L4.9589 15.2328C3.24167 12.2585 4.25153 8.46754 7.20424 6.76279L6.82924 6.11328L6.45424 5.46376C2.77827 7.58608 1.53178 12.2969 3.65986 15.9828L4.30938 15.6078ZM6.84103 21.6155L6.46603 20.966C6.53617 20.9255 6.60872 20.9202 6.65644 20.9276C6.67804 20.9309 6.69268 20.9364 6.70062 20.9399C6.7086 20.9435 6.71256 20.9464 6.71377 20.9474C6.71411 20.9476 6.71793 20.9498 6.72381 20.9618C6.73044 20.9754 6.74472 21.0138 6.73764 21.0707L5.99338 20.9781L5.24912 20.8855C5.18135 21.4303 5.47315 21.8846 5.79725 22.1348C6.12183 22.3853 6.67976 22.5746 7.21603 22.265L6.84103 21.6155ZM20.2495 13.8741L19.8745 13.2246L6.46603 20.966L6.84103 21.6155L7.21603 22.265L20.6245 14.5236L20.2495 13.8741ZM14.4992 17.194L13.8497 17.569C14.4761 18.6539 14.0735 20.1528 12.8108 20.8819L13.1858 21.5314L13.5608 22.1809C15.4607 21.084 16.2342 18.6991 15.1488 16.819L14.4992 17.194ZM13.1858 21.5314L12.8108 20.8819C11.5481 21.6109 10.0487 21.2101 9.42235 20.1252L8.77283 20.5002L8.12331 20.8752C9.20876 22.7552 11.6609 23.2778 13.5608 22.1809L13.1858 21.5314ZM7.636 3.10242L6.98648 3.47742C7.38802 4.1729 7.14973 5.06222 6.45424 5.46376L6.82924 6.11328L7.20424 6.76279C8.61717 5.94704 9.10127 4.14034 8.28552 2.72742L7.636 3.10242ZM6.82924 6.11328L6.45424 5.46376C5.75876 5.86529 4.86944 5.627 4.4679 4.93152L3.81838 5.30652L3.16887 5.68152C3.98462 7.09444 5.79132 7.57855 7.20424 6.76279L6.82924 6.11328ZM3.81838 5.30652L4.4679 4.93152C4.06637 4.23603 4.30466 3.34672 5.00014 2.94518L4.62514 2.29566L4.25014 1.64614C2.83722 2.46189 2.35311 4.26859 3.16887 5.68152L3.81838 5.30652ZM4.62514 2.29566L5.00014 2.94518C5.69563 2.54364 6.58494 2.78193 6.98648 3.47742L7.636 3.10242L8.28552 2.72742C7.46976 1.31449 5.66307 0.83039 4.25014 1.64614L4.62514 2.29566Z" fill="#2C2920"/>
</svg>
