<svg width="24" height="24" viewBox="0 0 24 24" fill="none" xmlns="http://www.w3.org/2000/svg">
<path d="M4.10557 16.5624L3.48308 16.1441L3.48308 16.1441L4.10557 16.5624ZM5.26855 12.835L4.51855 12.8269V12.835H5.26855ZM5.29296 10.5814L6.04296 10.5895V10.5814H5.29296ZM19.9006 16.5805L20.5311 16.1743L20.5311 16.1742L19.9006 16.5805ZM18.7814 12.835L18.0314 12.8265V12.835H18.7814ZM18.8058 10.6931L19.5558 10.7016V10.6931H18.8058ZM9.33333 20.25H8.58333V21.75H9.33333V20.25ZM14.6667 21.75H15.4167V20.25H14.6667V21.75ZM4.10557 16.5624L4.72807 16.9808C5.3802 16.0104 6.01855 14.5755 6.01855 12.835H5.26855H4.51855C4.51855 14.2051 4.01452 15.3533 3.48308 16.1441L4.10557 16.5624ZM5.26855 12.835L6.01851 12.8431L6.04292 10.5895L5.29296 10.5814L4.54301 10.5733L4.5186 12.8269L5.26855 12.835ZM19.9006 16.5805L20.5311 16.1742C20.0213 15.3833 19.5314 14.2239 19.5314 12.835H18.7814H18.0314C18.0314 14.5781 18.6445 16.0159 19.2702 16.9868L19.9006 16.5805ZM18.7814 12.835L19.5314 12.8436L19.5558 10.7016L18.8058 10.6931L18.0559 10.6845L18.0315 12.8265L18.7814 12.835ZM18.8058 10.6931H19.5558C19.5558 6.11911 16.2567 2.25 12 2.25V3V3.75C15.2608 3.75 18.0558 6.7695 18.0558 10.6931H18.8058ZM19.4933 17.625V18.375C20.1472 18.375 20.5125 17.8669 20.647 17.5097C20.7879 17.1356 20.8142 16.6136 20.5311 16.1743L19.9006 16.5805L19.2702 16.9868C19.2481 16.9525 19.2495 16.9326 19.2499 16.942C19.2504 16.9513 19.2484 16.9673 19.2432 16.9811C19.2372 16.9969 19.2383 16.9818 19.2693 16.9543C19.3062 16.9215 19.3849 16.875 19.4933 16.875V17.625ZM5.29296 10.5814H6.04296C6.04296 6.7195 8.79376 3.75 12 3.75V3V2.25C7.79785 2.25 4.54296 6.06912 4.54296 10.5814H5.29296ZM4.50763 17.625V16.875C4.61863 16.875 4.69805 16.9234 4.73408 16.956C4.76418 16.9832 4.76399 16.9969 4.75734 16.9787C4.7515 16.9627 4.74947 16.9448 4.75011 16.9345C4.75075 16.924 4.75212 16.945 4.72807 16.9808L4.10557 16.5624L3.48308 16.1441C3.18669 16.5851 3.21061 17.1161 3.34838 17.4933C3.47937 17.852 3.84351 18.375 4.50763 18.375V17.625ZM19.4933 17.625V16.875H4.50763V17.625V18.375H19.4933V17.625ZM9.33333 21V21.75H14.6667V21V20.25H9.33333V21Z" fill="#2C2920"/>
</svg>
