<svg width="24" height="24" viewBox="0 0 24 24" fill="none" xmlns="http://www.w3.org/2000/svg">
<path d="M9.12626 6.63427H3.62288M20.3999 6.63427H14.6297M4.84585 14.5836V13.3606C4.84585 10.6446 6.32149 8.2732 8.51478 7.00445M19.5216 14.5836V13.3606C19.5216 10.6446 18.0459 8.2732 15.8526 7.00445M10.516 9.32411H13.2306C13.7303 9.32411 14.1355 8.91899 14.1355 8.41925V5.70466C14.1355 5.20492 13.7303 4.7998 13.2306 4.7998H10.516C10.0163 4.7998 9.61115 5.20492 9.61115 5.70466V8.41925C9.61115 8.91899 10.0163 9.32411 10.516 9.32411ZM3.30476 19.1079H6.01934C6.51908 19.1079 6.9242 18.7028 6.9242 18.203V15.4885C6.9242 14.9887 6.51908 14.5836 6.01934 14.5836H3.30476C2.80502 14.5836 2.3999 14.9887 2.3999 15.4885V18.203C2.3999 18.7028 2.80502 19.1079 3.30476 19.1079ZM17.9805 19.1079H20.695C21.1948 19.1079 21.5999 18.7028 21.5999 18.203V15.4885C21.5999 14.9887 21.1948 14.5836 20.695 14.5836H17.9805C17.4807 14.5836 17.0756 14.9887 17.0756 15.4885V18.203C17.0756 18.7028 17.4807 19.1079 17.9805 19.1079Z" stroke="#2C2920" stroke-width="1.5" stroke-linecap="square"/>
</svg>
