<svg width="24" height="24" viewBox="0 0 24 24" fill="none" xmlns="http://www.w3.org/2000/svg">
<path d="M4.5095 9.78025C5.26949 7.22665 7.37434 5.25225 10.0027 4.67842M9.47555 18.9636C7.09509 18.2552 5.21796 16.378 4.5095 13.9976M18.6589 13.9976C17.9505 16.378 16.0733 18.2552 13.6929 18.9636M13.1657 4.67842C15.9723 5.29116 18.182 7.50083 18.7947 10.3074M10.3634 6.83921H13.027C13.5173 6.83921 13.9149 6.4417 13.9149 5.95135V3.28776C13.9149 2.79741 13.5173 2.3999 13.027 2.3999H10.3634C9.87306 2.3999 9.47555 2.79741 9.47555 3.28776V5.95135C9.47555 6.4417 9.87306 6.83921 10.3634 6.83921ZM10.3634 21.5999H13.027C13.5173 21.5999 13.9149 21.2024 13.9149 20.712V18.0485C13.9149 17.5581 13.5173 17.1606 13.027 17.1606H10.3634C9.87306 17.1606 9.47555 17.5581 9.47555 18.0485V20.712C9.47555 21.2024 9.87306 21.5999 10.3634 21.5999ZM16.1065 10.6679V13.3314C16.1065 13.8218 16.504 14.2193 16.9944 14.2193H19.658C20.1483 14.2193 20.5458 13.8218 20.5458 13.3314V10.6679C20.5458 10.1775 20.1483 9.77999 19.658 9.77999H16.9944C16.504 9.77999 16.1065 10.1775 16.1065 10.6679ZM2.40015 10.6679L2.40015 13.3314C2.40015 13.8218 2.79766 14.2193 3.28801 14.2193H5.95159C6.44194 14.2193 6.83945 13.8218 6.83945 13.3314L6.83945 10.6679C6.83945 10.1775 6.44194 9.77999 5.95159 9.77999H3.28801C2.79766 9.77999 2.40015 10.1775 2.40015 10.6679Z" stroke="#2C2920" stroke-width="1.5" stroke-linecap="square"/>
</svg>
