<svg width="24" height="24" viewBox="0 0 24 24" fill="none" xmlns="http://www.w3.org/2000/svg">
<path d="M8.25 21H7.5C7.5 21.2893 7.66642 21.5529 7.92767 21.6772C8.18892 21.8015 8.49839 21.7645 8.72294 21.5821L8.25 21ZM8.25 3L8.72294 2.41791C8.49839 2.23547 8.18892 2.19845 7.92767 2.3228C7.66642 2.44714 7.5 2.71067 7.5 3H8.25ZM14.25 7.875L14.6758 8.49241C14.8702 8.35832 14.9901 8.14046 14.9994 7.90446C15.0087 7.66845 14.9063 7.44186 14.7229 7.29291L14.25 7.875ZM14.25 16.125L14.7229 16.7071C14.9063 16.5581 15.0087 16.3316 14.9994 16.0955C14.9901 15.8595 14.8702 15.6417 14.6758 15.5076L14.25 16.125ZM3.4258 7.74897L2.80839 7.32317L1.95679 8.55799L2.5742 8.98379L3.4258 7.74897ZM2.5742 15.0162L1.95679 15.442L2.80839 16.6768L3.4258 16.251L2.5742 15.0162ZM16.8413 9.38316L16.1734 9.0419L15.4909 10.3776L16.1587 10.7189L16.8413 9.38316ZM16.1587 13.2811L15.4909 13.6224L16.1734 14.9581L16.8413 14.6169L16.1587 13.2811ZM18.8339 6.85402L18.1879 6.47296L17.4258 7.76492L18.0718 8.14598L18.8339 6.85402ZM18.0718 15.854L17.4258 16.2351L18.1879 17.527L18.8339 17.146L18.0718 15.854ZM8.25 21H9V12.0129H8.25H7.5V21H8.25ZM8.25 12.0129H9V11.9871H8.25H7.5V12.0129H8.25ZM8.25 11.9871H9V3H8.25H7.5V11.9871H8.25ZM8.25 3L7.77706 3.58209L13.7771 8.45709L14.25 7.875L14.7229 7.29291L8.72294 2.41791L8.25 3ZM8.25 21L8.72294 21.5821L14.7229 16.7071L14.25 16.125L13.7771 15.5429L7.77706 20.4179L8.25 21ZM14.25 16.125L14.6758 15.5076L8.69455 11.3826L8.26875 12L7.84295 12.6174L13.8242 16.7424L14.25 16.125ZM8.26875 12L8.69453 11.3826L8.67578 11.3696L8.25 11.9871L7.82422 12.6045L7.84297 12.6174L8.26875 12ZM8.25 11.9871L8.6758 11.3697L3.4258 7.74897L3 8.36638L2.5742 8.98379L7.8242 12.6045L8.25 11.9871ZM14.25 7.875L13.8242 7.25759L7.84295 11.3826L8.26875 12L8.69455 12.6174L14.6758 8.49241L14.25 7.875ZM8.26875 12L7.84297 11.3826L7.82422 11.3955L8.25 12.0129L8.67578 12.6304L8.69453 12.6174L8.26875 12ZM8.25 12.0129L7.8242 11.3955L2.5742 15.0162L3 15.6336L3.4258 16.251L8.6758 12.6303L8.25 12.0129ZM16.5 10.051L16.1587 10.7189C16.7115 11.0013 17.0236 11.4934 17.0236 12H17.7736H18.5236C18.5236 10.841 17.8112 9.87878 16.8413 9.38316L16.5 10.051ZM17.7736 12H17.0236C17.0236 12.5066 16.7115 12.9987 16.1587 13.2811L16.5 13.949L16.8413 14.6169C17.8112 14.1212 18.5236 13.1591 18.5236 12H17.7736ZM18.4528 7.5L18.0718 8.14598C19.371 8.91241 20.25 10.3485 20.25 12H21H21.75C21.75 9.80572 20.58 7.88407 18.8339 6.85402L18.4528 7.5ZM21 12H20.25C20.25 13.6515 19.371 15.0876 18.0718 15.854L18.4528 16.5L18.8339 17.146C20.58 16.1159 21.75 14.1943 21.75 12H21Z" fill="#2C2920"/>
</svg>
