<svg width="24" height="24" viewBox="0 0 24 24" fill="none" xmlns="http://www.w3.org/2000/svg">
<path d="M8.3999 16.7999H7.6499V17.5499H8.3999V16.7999ZM8.3999 7.1999V6.4499H7.6499V7.1999H8.3999ZM13.2599 16.7999V16.0499H8.3999V16.7999V17.5499H13.2599V16.7999ZM8.3999 16.7999H9.1499V11.9999H8.3999H7.6499V16.7999H8.3999ZM15.5999 14.3999H16.3499C16.3499 12.6782 14.9842 11.2499 13.2599 11.2499V11.9999V12.7499C14.1202 12.7499 14.8499 13.4706 14.8499 14.3999H15.5999ZM13.2599 16.7999V17.5499C14.9842 17.5499 16.3499 16.1216 16.3499 14.3999H15.5999H14.8499C14.8499 15.3292 14.1202 16.0499 13.2599 16.0499V16.7999ZM12.5399 11.9999V11.2499H8.3999V11.9999V12.7499H12.5399V11.9999ZM8.3999 11.9999H9.1499V7.1999H8.3999H7.6499V11.9999H8.3999ZM12.5399 7.1999V6.4499H8.3999V7.1999V7.9499H12.5399V7.1999ZM14.8799 9.5999H15.6299C15.6299 7.87822 14.2642 6.4499 12.5399 6.4499V7.1999V7.9499C13.4002 7.9499 14.1299 8.67062 14.1299 9.5999H14.8799ZM12.5399 11.9999V12.7499C14.2642 12.7499 15.6299 11.3216 15.6299 9.5999H14.8799H14.1299C14.1299 10.5292 13.4002 11.2499 12.5399 11.2499V11.9999ZM13.2599 11.9999V11.2499H8.3999V11.9999V12.7499H13.2599V11.9999ZM4.7999 2.3999V3.1499H19.1999V2.3999V1.6499H4.7999V2.3999ZM21.5999 4.7999H20.8499V19.1999H21.5999H22.3499V4.7999H21.5999ZM19.1999 21.5999V20.8499H4.7999V21.5999V22.3499H19.1999V21.5999ZM2.3999 19.1999H3.1499V4.7999H2.3999H1.6499V19.1999H2.3999ZM4.7999 21.5999V20.8499C3.88863 20.8499 3.1499 20.1112 3.1499 19.1999H2.3999H1.6499C1.6499 20.9396 3.06021 22.3499 4.7999 22.3499V21.5999ZM21.5999 19.1999H20.8499C20.8499 20.1112 20.1112 20.8499 19.1999 20.8499V21.5999V22.3499C20.9396 22.3499 22.3499 20.9396 22.3499 19.1999H21.5999ZM19.1999 2.3999V3.1499C20.1112 3.1499 20.8499 3.88863 20.8499 4.7999H21.5999H22.3499C22.3499 3.06021 20.9396 1.6499 19.1999 1.6499V2.3999ZM4.7999 2.3999V1.6499C3.06021 1.6499 1.6499 3.06021 1.6499 4.7999H2.3999H3.1499C3.1499 3.88863 3.88863 3.1499 4.7999 3.1499V2.3999Z" fill="#2C2920"/>
</svg>
