<svg width="24" height="24" viewBox="0 0 24 24" fill="none" xmlns="http://www.w3.org/2000/svg">
<path d="M7.08901 20.2377H6.58208C5.18223 20.2377 4.04743 19.1029 4.04743 17.703V12.6337C4.04743 11.8529 2.3999 11.4931 2.3999 11.4931C2.3999 11.4931 4.04743 11.1925 4.04743 10.3526V6.29711C4.04743 4.89725 5.18223 3.76245 6.58208 3.76245H7.08901M16.9108 3.76245H17.4177C18.8176 3.76245 19.9524 4.89725 19.9524 6.29711V11.3664C19.9524 12.1472 21.5999 12.507 21.5999 12.507C21.5999 12.507 19.9524 12.8077 19.9524 13.6476L19.9524 17.703C19.9524 19.1029 18.8176 20.2377 17.4177 20.2377H16.9108M9.5999 12.1625H14.3999M11.9999 14.5625V9.76245" stroke="#2C2920" stroke-width="1.5" stroke-linecap="square" stroke-linejoin="round"/>
</svg>
