<svg width="24" height="24" viewBox="0 0 24 24" fill="none" xmlns="http://www.w3.org/2000/svg">
<path d="M7.1999 6.11999V6.86999C7.46665 6.86999 7.71333 6.72831 7.84774 6.49789L7.1999 6.11999ZM8.8799 3.23999V2.48999C8.61315 2.48999 8.36648 2.63167 8.23207 2.86209L8.8799 3.23999ZM15.1199 3.23999L15.7677 2.86209C15.6333 2.63167 15.3867 2.48999 15.1199 2.48999V3.23999ZM16.7999 6.11999L16.1521 6.49789C16.2865 6.72831 16.5331 6.86999 16.7999 6.86999V6.11999ZM2.3999 18.36H3.1499V8.51999H2.3999H1.6499V18.36H2.3999ZM4.7999 6.11999V6.86999H7.1999V6.11999V5.36999H4.7999V6.11999ZM7.1999 6.11999L7.84774 6.49789L9.52774 3.61789L8.8799 3.23999L8.23207 2.86209L6.55207 5.74209L7.1999 6.11999ZM8.8799 3.23999V3.98999H15.1199V3.23999V2.48999H8.8799V3.23999ZM15.1199 3.23999L14.4721 3.61789L16.1521 6.49789L16.7999 6.11999L17.4477 5.74209L15.7677 2.86209L15.1199 3.23999ZM16.7999 6.11999V6.86999H19.1999V6.11999V5.36999H16.7999V6.11999ZM21.5999 8.51999H20.8499V18.36H21.5999H22.3499V8.51999H21.5999ZM21.5999 18.36H20.8499C20.8499 19.2713 20.1112 20.01 19.1999 20.01V20.76V21.51C20.9396 21.51 22.3499 20.0997 22.3499 18.36H21.5999ZM19.1999 6.11999V6.86999C20.1112 6.86999 20.8499 7.60872 20.8499 8.51999H21.5999H22.3499C22.3499 6.78029 20.9396 5.36999 19.1999 5.36999V6.11999ZM2.3999 8.51999H3.1499C3.1499 7.60872 3.88863 6.86999 4.7999 6.86999V6.11999V5.36999C3.06021 5.36999 1.6499 6.78029 1.6499 8.51999H2.3999ZM4.7999 20.76V20.01C3.88863 20.01 3.1499 19.2713 3.1499 18.36H2.3999H1.6499C1.6499 20.0997 3.06021 21.51 4.7999 21.51V20.76ZM15.5999 12.84H14.8499C14.8499 14.414 13.5739 15.69 11.9999 15.69V16.44V17.19C14.4023 17.19 16.3499 15.2424 16.3499 12.84H15.5999ZM11.9999 16.44V15.69C10.4259 15.69 9.1499 14.414 9.1499 12.84H8.3999H7.6499C7.6499 15.2424 9.59746 17.19 11.9999 17.19V16.44ZM8.3999 12.84H9.1499C9.1499 11.266 10.4259 9.98999 11.9999 9.98999V9.23999V8.48999C9.59746 8.48999 7.6499 10.4376 7.6499 12.84H8.3999ZM11.9999 9.23999V9.98999C13.5739 9.98999 14.8499 11.266 14.8499 12.84H15.5999H16.3499C16.3499 10.4376 14.4023 8.48999 11.9999 8.48999V9.23999ZM19.1999 20.76V20.01H4.7999V20.76V21.51H19.1999V20.76Z" fill="#2C2920"/>
</svg>
