<svg width="24" height="24" viewBox="0 0 24 24" fill="none" xmlns="http://www.w3.org/2000/svg">
<path d="M2.3999 18.12H3.1499V5.88001H2.3999H1.6499V18.12H2.3999ZM4.7999 3.48001V4.23001H19.1999V3.48001V2.73001H4.7999V3.48001ZM21.5999 5.88001H20.8499V18.12H21.5999H22.3499V5.88001H21.5999ZM21.5999 18.12H20.8499C20.8499 19.0313 20.1112 19.77 19.1999 19.77V20.52V21.27C20.9396 21.27 22.3499 19.8597 22.3499 18.12H21.5999ZM19.1999 3.48001V4.23001C20.1112 4.23001 20.8499 4.96874 20.8499 5.88001H21.5999H22.3499C22.3499 4.14031 20.9396 2.73001 19.1999 2.73001V3.48001ZM2.3999 5.88001H3.1499C3.1499 4.96874 3.88863 4.23001 4.7999 4.23001V3.48001V2.73001C3.06021 2.73001 1.6499 4.14031 1.6499 5.88001H2.3999ZM4.7999 20.52V19.77C3.88863 19.77 3.1499 19.0313 3.1499 18.12H2.3999H1.6499C1.6499 19.8597 3.06021 21.27 4.7999 21.27V20.52ZM15.5999 12.0001H14.8499C14.8499 13.5741 13.5739 14.8501 11.9999 14.8501V15.6001V16.3501C14.4023 16.3501 16.3499 14.4026 16.3499 12.0001H15.5999ZM11.9999 15.6001V14.8501C10.4259 14.8501 9.1499 13.5741 9.1499 12.0001H8.3999H7.6499C7.6499 14.4026 9.59746 16.3501 11.9999 16.3501V15.6001ZM8.3999 12.0001H9.1499C9.1499 10.4261 10.4259 9.15013 11.9999 9.15013V8.40013V7.65013C9.59746 7.65013 7.6499 9.59769 7.6499 12.0001H8.3999ZM11.9999 8.40013V9.15013C13.5739 9.15013 14.8499 10.4261 14.8499 12.0001H15.5999H16.3499C16.3499 9.59769 14.4023 7.65013 11.9999 7.65013V8.40013ZM19.1999 20.52V19.77H4.7999V20.52V21.27H19.1999V20.52Z" fill="#2C2920"/>
</svg>
