<svg width="24" height="24" viewBox="0 0 24 24" fill="none" xmlns="http://www.w3.org/2000/svg">
<path d="M2.3999 7.98001V17.82C2.3999 19.1455 3.47442 20.22 4.7999 20.22H14.3999M5.9999 5.58001H7.1999L8.8799 2.70001H15.1199L16.7999 5.58001H19.1999C20.5254 5.58001 21.5999 6.65453 21.5999 7.98001V17.82C21.5999 18.7084 21.1173 19.484 20.3999 19.8989M14.6832 14.7C15.2533 14.0631 15.5999 13.222 15.5999 12.3C15.5999 10.3118 13.9881 8.70001 11.9999 8.70001C11.0779 8.70001 10.2368 9.04664 9.5999 9.61668M11.3999 15.8502C9.84265 15.589 8.62441 14.328 8.42772 12.7498M20.9999 21.3L2.9999 2.70001" stroke="#2C2920" stroke-width="1.5" stroke-linecap="square" stroke-linejoin="round"/>
</svg>
