<svg width="24" height="24" viewBox="0 0 24 24" fill="none" xmlns="http://www.w3.org/2000/svg">
<path d="M12.0002 17.8125L4.20051 17.8123C2.87507 17.8123 1.80059 16.7378 1.80055 15.4124L1.80029 6.41252C1.80026 5.08701 2.87478 4.01245 4.20029 4.01245H18.5992C19.925 4.01245 20.9998 5.08667 20.9998 6.41238L20.9998 8.21245M2.39983 8.2123H20.3998M16.1998 13.4874L17.5899 12.7924C18.6034 12.2856 19.7963 12.2856 20.8098 12.7924L22.1998 13.4874C22.1998 13.4874 22.1998 15.6774 22.1998 16.8324C22.1998 17.9874 21.1322 18.767 19.1998 19.9874C17.2675 18.767 16.1998 17.7374 16.1998 16.8324V13.4874Z" stroke="#2C2920" stroke-width="1.5" stroke-linecap="square" stroke-linejoin="round"/>
</svg>
