<svg width="31" height="22" viewBox="0 0 31 22" fill="none" xmlns="http://www.w3.org/2000/svg">
<path d="M4.86364 17.1705C3.99242 17.1705 3.24432 16.9792 2.61932 16.5966C1.99811 16.214 1.51894 15.6856 1.18182 15.0114C0.848485 14.3333 0.681818 13.553 0.681818 12.6705C0.681818 11.7841 0.852273 11.0019 1.19318 10.3239C1.53409 9.64205 2.01515 9.11174 2.63636 8.73295C3.26136 8.35038 4 8.15909 4.85227 8.15909C5.56061 8.15909 6.1875 8.28977 6.73295 8.55114C7.2822 8.80871 7.7197 9.17424 8.04545 9.64773C8.37121 10.1174 8.55682 10.6667 8.60227 11.2955H6.63636C6.55682 10.875 6.36742 10.5246 6.06818 10.2443C5.77273 9.96023 5.37689 9.81818 4.88068 9.81818C4.46023 9.81818 4.09091 9.93182 3.77273 10.1591C3.45455 10.3826 3.20644 10.7045 3.02841 11.125C2.85417 11.5455 2.76705 12.0492 2.76705 12.6364C2.76705 13.2311 2.85417 13.7424 3.02841 14.1705C3.20265 14.5947 3.44697 14.9223 3.76136 15.1534C4.07955 15.3807 4.45265 15.4943 4.88068 15.4943C5.18371 15.4943 5.45455 15.4375 5.69318 15.3239C5.93561 15.2064 6.13826 15.0379 6.30114 14.8182C6.46402 14.5985 6.57576 14.3314 6.63636 14.017H8.60227C8.55303 14.6345 8.37121 15.1818 8.05682 15.6591C7.74242 16.1326 7.31439 16.5038 6.77273 16.7727C6.23106 17.0379 5.5947 17.1705 4.86364 17.1705ZM12.6226 17.1761C12.0695 17.1761 11.5714 17.0777 11.1282 16.8807C10.6888 16.6799 10.3404 16.3845 10.0828 15.9943C9.829 15.6042 9.7021 15.1231 9.7021 14.5511C9.7021 14.0587 9.79301 13.6515 9.97483 13.3295C10.1566 13.0076 10.4048 12.75 10.7191 12.5568C11.0335 12.3636 11.3877 12.2178 11.7816 12.1193C12.1794 12.017 12.5904 11.9432 13.0146 11.8977C13.526 11.8447 13.9407 11.7973 14.2589 11.7557C14.5771 11.7102 14.8082 11.642 14.9521 11.5511C15.0998 11.4564 15.1737 11.3106 15.1737 11.1136V11.0795C15.1737 10.6515 15.0468 10.3201 14.793 10.0852C14.5392 9.85038 14.1737 9.73295 13.6964 9.73295C13.1926 9.73295 12.793 9.8428 12.4976 10.0625C12.2059 10.2822 12.0089 10.5417 11.9066 10.8409L9.98619 10.5682C10.1377 10.0379 10.3877 9.5947 10.7362 9.23864C11.0847 8.87879 11.5108 8.60985 12.0146 8.43182C12.5184 8.25 13.0752 8.15909 13.6851 8.15909C14.1055 8.15909 14.5241 8.20833 14.9407 8.30682C15.3574 8.4053 15.7381 8.56818 16.0828 8.79545C16.4275 9.01894 16.704 9.32386 16.9123 9.71023C17.1245 10.0966 17.2305 10.5795 17.2305 11.1591V17H15.2532V15.8011H15.1851C15.0601 16.0436 14.8839 16.2708 14.6566 16.483C14.4332 16.6913 14.151 16.8598 13.8101 16.9886C13.4729 17.1136 13.0771 17.1761 12.6226 17.1761ZM13.1566 15.6648C13.5695 15.6648 13.9275 15.5833 14.2305 15.4205C14.5335 15.2538 14.7665 15.0341 14.9294 14.7614C15.096 14.4886 15.1794 14.1913 15.1794 13.8693V12.8409C15.115 12.8939 15.0051 12.9432 14.8498 12.9886C14.6983 13.0341 14.5279 13.0739 14.3385 13.108C14.1491 13.142 13.9616 13.1723 13.776 13.1989C13.5904 13.2254 13.4294 13.2481 13.293 13.267C12.9862 13.3087 12.7116 13.3769 12.4691 13.4716C12.2267 13.5663 12.0354 13.6989 11.8953 13.8693C11.7551 14.036 11.6851 14.2519 11.6851 14.517C11.6851 14.8958 11.8233 15.1818 12.0998 15.375C12.3763 15.5682 12.7286 15.6648 13.1566 15.6648ZM19.1187 17V8.27273H21.113V9.72727H21.2039C21.363 9.22348 21.6357 8.83523 22.0221 8.5625C22.4123 8.28598 22.8573 8.14773 23.3573 8.14773C23.471 8.14773 23.5979 8.15341 23.738 8.16477C23.882 8.17235 24.0013 8.18561 24.096 8.20455V10.0966C24.0088 10.0663 23.8706 10.0398 23.6812 10.017C23.4956 9.99053 23.3157 9.97727 23.1414 9.97727C22.7664 9.97727 22.4293 10.0587 22.1301 10.2216C21.8346 10.3807 21.6016 10.6023 21.4312 10.8864C21.2607 11.1705 21.1755 11.4981 21.1755 11.8693V17H19.1187ZM30.1091 8.27273V9.86364H25.0921V8.27273H30.1091ZM26.3307 6.18182H28.3876V14.375C28.3876 14.6515 28.4292 14.8636 28.5126 15.0114C28.5997 15.1553 28.7133 15.2538 28.8535 15.3068C28.9936 15.3598 29.1489 15.3864 29.3194 15.3864C29.4482 15.3864 29.5656 15.3769 29.6716 15.358C29.7815 15.339 29.8648 15.322 29.9216 15.3068L30.2682 16.9148C30.1584 16.9527 30.0012 16.9943 29.7966 17.0398C29.5959 17.0852 29.3497 17.1117 29.058 17.1193C28.5429 17.1345 28.0788 17.0568 27.666 16.8864C27.2531 16.7121 26.9254 16.4432 26.683 16.0795C26.4444 15.7159 26.3269 15.2614 26.3307 14.7159V6.18182Z" fill="#2C2920"/>
</svg>
