<svg width="24" height="24" viewBox="0 0 24 24" fill="none" xmlns="http://www.w3.org/2000/svg">
<path d="M12 15.6L10.2 18.6M15 18.6L13.2 21.6M21 8.4C21 11.7137 18.3137 14.4 15 14.4C13.5438 14.4 11.4 14.4 11.4 14.4C11.4 14.4 9.11306 14.4 7.8 14.4C5.14903 14.4 3 12.251 3 9.6C3 6.94904 5.14903 4.8 7.8 4.8C8.54469 4.8 9.24977 4.96959 9.87873 5.27224C10.9331 3.54953 12.8323 2.4 15 2.4C18.3137 2.4 21 5.08629 21 8.4Z" stroke="#2C2920" stroke-width="1.5" stroke-linecap="square" stroke-linejoin="round"/>
</svg>
