<svg width="24" height="24" viewBox="0 0 24 24" fill="none" xmlns="http://www.w3.org/2000/svg">
<path d="M8.39187 10.9581L8.20515 11.6845C8.56807 11.7778 8.94414 11.5889 9.08602 11.2421L8.39187 10.9581ZM4.14978 10.8705L4.44436 11.5602L5.82382 10.9711L5.52924 10.2813L4.14978 10.8705ZM6.73626 5.85126L6.44169 5.16153L6.73626 5.85126ZM5.81088 5.59405L6.10545 6.28378L7.48491 5.69464L7.19033 5.00491L5.81088 5.59405ZM6.48336 3.34956L6.18878 2.65983L4.80933 3.24897L5.1039 3.9387L6.48336 3.34956ZM9.24846 4.98219L8.96904 5.6782L10.3611 6.23704L10.6405 5.54103L9.24846 4.98219ZM11.3111 3.87061L11.5905 3.1746L10.1985 2.61577L9.91906 3.31178L11.3111 3.87061ZM2.70092 6.39454L2.00491 6.11512L1.44607 7.50714L2.14208 7.78655L2.70092 6.39454ZM3.8125 8.45716L4.50851 8.73657L5.06734 7.34456L4.37133 7.06514L3.8125 8.45716ZM10.2491 7.23249L10.7567 7.78463L11.8609 6.76946L11.3534 6.21732L10.2491 7.23249ZM21.5999 13.5517H20.8499C20.8499 16.9243 18.116 19.6588 14.7428 19.6588V20.4088V21.1588C18.9445 21.1588 22.3499 17.7527 22.3499 13.5517H21.5999ZM14.7428 6.69452V7.44452C18.116 7.44452 20.8499 10.179 20.8499 13.5517H21.5999H22.3499C22.3499 9.35067 18.9445 5.94452 14.7428 5.94452V6.69452ZM8.39187 10.9581L9.08602 11.2421C9.99792 9.01312 12.1889 7.44452 14.7428 7.44452V6.69452V5.94452C11.5591 5.94452 8.83225 7.90092 7.69771 10.6742L8.39187 10.9581ZM7.1999 10.8088V11.5588C7.54962 11.5588 7.88599 11.6025 8.20515 11.6845L8.39187 10.9581L8.57858 10.2318C8.13703 10.1183 7.67518 10.0588 7.1999 10.0588V10.8088ZM2.3999 15.6088H3.1499C3.1499 13.3718 4.9624 11.5588 7.1999 11.5588V10.8088V10.0588C4.13384 10.0588 1.6499 12.5435 1.6499 15.6088H2.3999ZM7.1999 20.4088V19.6588C4.9624 19.6588 3.1499 17.8458 3.1499 15.6088H2.3999H1.6499C1.6499 18.6741 4.13384 21.1588 7.1999 21.1588V20.4088ZM14.7428 20.4088V19.6588H7.1999V20.4088V21.1588H14.7428V20.4088ZM4.83951 10.5759L5.52924 10.2813C4.91103 8.83382 5.58331 7.15921 7.03084 6.54099L6.73626 5.85126L6.44169 5.16153C4.23231 6.10513 3.20619 8.66111 4.14978 10.8705L4.83951 10.5759ZM6.5006 5.29948L7.19033 5.00491L6.48336 3.34956L5.79363 3.64413L5.1039 3.9387L5.81088 5.59405L6.5006 5.29948ZM9.94446 5.26161L10.6405 5.54103L11.3111 3.87061L10.6151 3.59119L9.91906 3.31178L9.24846 4.98219L9.94446 5.26161ZM2.4215 7.09055L2.14208 7.78655L3.8125 8.45716L4.09192 7.76115L4.37133 7.06514L2.70092 6.39454L2.4215 7.09055ZM6.73626 5.85126L7.03084 6.54099C8.17095 6.05407 9.45378 6.36739 10.2491 7.23249L10.8012 6.7249L11.3534 6.21732C10.1413 4.89889 8.18458 4.41717 6.44169 5.16153L6.73626 5.85126Z" fill="#2C2920"/>
</svg>
