<svg width="24" height="24" viewBox="0 0 24 24" fill="none" xmlns="http://www.w3.org/2000/svg">
<path d="M18.6978 13.25C18.6978 12.7556 18.9944 11.7668 20.1809 11.7668C21.3674 11.7668 21.664 12.7556 21.664 13.25L18.6978 16.2162H21.664" stroke="#2C2920" stroke-width="1.5" stroke-linecap="round" stroke-linejoin="round"/>
<path d="M7.94136 9H6.44647C4.80826 9 3.48022 10.328 3.48022 11.9662V11.9662C3.48022 13.6045 4.80826 14.9325 6.44647 14.9325H7.94136M15.2882 11.5669V12.3656C15.2882 13.7832 14.1389 14.9325 12.7212 14.9325V14.9325C11.3035 14.9325 10.1543 13.7832 10.1543 12.3656V11.5669C10.1543 10.1493 11.3035 9 12.7212 9V9C14.1389 9 15.2882 10.1493 15.2882 11.5669Z" stroke="#2C2920" stroke-width="1.5" stroke-linecap="round" stroke-linejoin="round"/>
</svg>
