<svg width="24" height="24" viewBox="0 0 24 24" fill="none" xmlns="http://www.w3.org/2000/svg">
<path d="M8.04316 20.4615C9.20696 20.0769 11.9225 21.0213 13.8622 20.8462C15.4008 20.7072 15.9651 20.7487 17.3536 20.0769C18.5623 19.4921 19.8491 18.0971 20.6897 17.0681C21.225 16.4128 21.0427 15.464 20.335 14.9962C19.7293 14.5959 18.9228 14.675 18.408 15.1854L16.8715 16.7087C16.435 17.1415 15.843 17.3846 15.2257 17.3846H12.6984M8.04316 15.0769L9.22402 14.4915C9.97815 14.1177 10.8097 13.9231 11.6529 13.9231H11.9711C12.4538 13.9231 12.9344 13.9869 13.4001 14.1128L15.0309 14.5538C15.893 14.7869 16.1795 15.8564 15.5476 16.4829L14.6381 17.3846M11.5346 8.15385C11.5346 9.85318 12.9241 11.2308 14.6381 11.2308C16.3521 11.2308 17.7415 9.85318 17.7415 8.15385C17.7415 6.45451 16.3521 5.07692 14.6381 5.07692M11.5346 8.15385C11.5346 6.45451 12.9241 5.07692 14.6381 5.07692M11.5346 8.15385C9.82057 8.15385 8.43109 6.77626 8.43109 5.07692C8.43109 3.37759 9.82057 2 11.5346 2C13.2486 2 14.6381 3.37759 14.6381 5.07692M3.77587 22H6.87935C7.30785 22 7.65522 21.6556 7.65522 21.2308V14.3077C7.65522 13.8829 7.30785 13.5385 6.87935 13.5385H3.77587C3.34737 13.5385 3 13.8829 3 14.3077V21.2308C3 21.6556 3.34737 22 3.77587 22Z" stroke="#2C2920" stroke-width="1.5" stroke-linecap="square"/>
</svg>
