<svg width="24" height="24" viewBox="0 0 24 24" fill="none" xmlns="http://www.w3.org/2000/svg">
<path d="M10.2 7.79995C10.7457 5.39516 12.8963 3.59995 15.4662 3.59995C18.4486 3.59995 20.8662 6.01761 20.8662 8.99995C20.8662 11.7625 18.7919 14.0405 16.1158 14.3613M6.60005 5.99995L9.00005 3.59995L6.60005 1.19995M1.80005 8.39995V6.79995C1.80005 5.03264 3.23274 3.59995 5.00005 3.59995H7.40005M17.4 18L15 20.3999L17.4 22.7999M22.2 15.6V17.1999C22.2 18.9673 20.7674 20.4 19 20.4H16.6M12.6 16.2C12.6 19.1823 10.1824 21.5999 7.20005 21.5999C4.21771 21.5999 1.80005 19.1823 1.80005 16.2C1.80005 13.2176 4.21771 10.8 7.20005 10.8C10.1824 10.8 12.6 13.2176 12.6 16.2Z" stroke="#2C2920" stroke-width="1.5" stroke-linecap="square" stroke-linejoin="round"/>
</svg>
