<svg width="24" height="24" viewBox="0 0 24 24" fill="none" xmlns="http://www.w3.org/2000/svg">
<path d="M5.2001 9.44335C3.06871 10.482 1.6001 12.6695 1.6001 15.2C1.6001 18.7346 4.46547 21.6 8.0001 21.6C11.5347 21.6 14.4001 18.7346 14.4001 15.2C14.4001 14.929 14.3833 14.662 14.3506 14.4M12.4001 20.4922C13.4258 21.1913 14.6652 21.6 16.0001 21.6C19.5347 21.6 22.4001 18.7346 22.4001 15.2C22.4001 12.4504 20.6662 10.1059 18.2322 9.19999M18.4001 8.79999C18.4001 12.3346 15.5347 15.2 12.0001 15.2C8.46547 15.2 5.6001 12.3346 5.6001 8.79999C5.6001 5.26537 8.46547 2.39999 12.0001 2.39999C15.5347 2.39999 18.4001 5.26537 18.4001 8.79999Z" stroke="#2C2920" stroke-width="1.5" stroke-linecap="square"/>
</svg>
