<svg width="24" height="24" viewBox="0 0 24 24" fill="none" xmlns="http://www.w3.org/2000/svg">
<path d="M17.3332 21.5999C16.2016 21.5999 15.1164 21.1504 14.3162 20.3502C13.5161 19.5501 13.0666 18.4648 13.0666 17.3332V4.53324C13.0666 3.96744 13.2913 3.42482 13.6914 3.02474C14.0915 2.62466 14.6341 2.3999 15.1999 2.3999H19.4666C20.0324 2.3999 20.575 2.62466 20.9751 3.02474C21.3751 3.42482 21.5999 3.96744 21.5999 4.53324V17.3332C21.5999 18.4648 21.1504 19.5501 20.3502 20.3502C19.5501 21.1504 18.4648 21.5999 17.3332 21.5999ZM17.3332 21.5999H4.53324C3.96744 21.5999 3.42482 21.3751 3.02474 20.9751C2.62466 20.575 2.3999 20.0324 2.3999 19.4666V15.1999C2.3999 14.6341 2.62466 14.0915 3.02474 13.6914C3.42482 13.2913 3.96744 13.0666 4.53324 13.0666H6.98657M13.0666 7.0399L10.9332 4.90657C10.5332 4.50663 9.99065 4.28196 9.42497 4.28196C8.85928 4.28196 8.31676 4.50663 7.9167 4.90657L4.90017 7.9231C4.50023 8.32316 4.27556 8.86568 4.27556 9.43137C4.27556 9.99705 4.50023 10.5396 4.90017 10.9396L14.5002 20.5396M17.3332 17.3332V17.3439" stroke="#2C2920" stroke-width="1.5" stroke-linecap="square" stroke-linejoin="round"/>
</svg>
