<svg width="24" height="24" viewBox="0 0 24 24" fill="none" xmlns="http://www.w3.org/2000/svg">
<path d="M11.1 17.4H4.8C3.80589 17.4 3 16.5941 3 15.6V4.8C3 3.80589 3.80589 3 4.8 3H11.1C12.0941 3 12.9 3.80589 12.9 4.8V6.6M12.9 6.6H19.2C20.1941 6.6 21 7.40589 21 8.4V19.2C21 20.1941 20.1941 21 19.2 21H12.9C11.9059 21 11.1 20.1941 11.1 19.2V8.4C11.1 7.40589 11.9059 6.6 12.9 6.6ZM5.7 10.2H9.75M9.75 10.2L7.95 12M9.75 10.2L7.95 8.4M17.85 13.8H13.8M13.8 13.8L15.6 12M13.8 13.8L15.6 15.6" stroke="#2C2920" stroke-width="1.5" stroke-linecap="square" stroke-linejoin="round"/>
</svg>
