<svg width="24" height="24" viewBox="0 0 24 24" fill="none" xmlns="http://www.w3.org/2000/svg">
<path d="M3.08569 5.14276C3.08569 3.62792 4.31371 2.3999 5.82855 2.3999H18.1714C19.6862 2.3999 20.9143 3.62792 20.9143 5.14276V18.857C20.9143 20.3719 19.6862 21.5999 18.1714 21.5999H5.82855C4.31371 21.5999 3.08569 20.3719 3.08569 18.857V5.14276Z" stroke="#2C2920" stroke-width="1.5" stroke-linecap="square"/>
<path d="M6.5 16.8769C6.5 14.7138 8.30714 12.9603 12 12.9603C15.6929 12.9603 17.5 14.7138 17.5 16.8769C17.5 17.221 17.2489 17.5 16.9392 17.5H7.06078C6.75107 17.5 6.5 17.221 6.5 16.8769Z" stroke="#2C2920" stroke-width="1.5" stroke-linecap="round"/>
<path d="M14.0625 8.5625C14.0625 9.70159 13.1391 10.625 12 10.625C10.8609 10.625 9.9375 9.70159 9.9375 8.5625C9.9375 7.42341 10.8609 6.5 12 6.5C13.1391 6.5 14.0625 7.42341 14.0625 8.5625Z" stroke="#2C2920" stroke-width="1.5" stroke-linecap="round"/>
</svg>
