<svg width="24" height="24" viewBox="0 0 24 24" fill="none" xmlns="http://www.w3.org/2000/svg">
<path d="M14.9999 8.62321C14.4188 7.95901 13.6826 7.50973 12.8836 7.33171C12.0846 7.15369 11.2583 7.25485 10.5083 7.6225C9.75837 7.99016 9.11815 8.60795 8.66793 9.3984C8.21772 10.1888 7.97755 11.1168 7.97755 12.0658C7.97755 13.0149 8.21772 13.9428 8.66793 14.7333C9.11815 15.5237 9.75837 16.1415 10.5083 16.5092C11.2583 16.8768 12.0846 16.978 12.8836 16.8C13.6826 16.6219 14.4188 16.1727 14.9999 15.5085M12.1081 10.6888H6.5999M6.5999 13.4429H12.1081M21.5999 11.9999C21.5999 17.3018 17.3018 21.5999 11.9999 21.5999C6.69797 21.5999 2.3999 17.3018 2.3999 11.9999C2.3999 6.69797 6.69797 2.3999 11.9999 2.3999C17.3018 2.3999 21.5999 6.69797 21.5999 11.9999Z" stroke="#2C2920" stroke-width="1.5" stroke-linecap="square" stroke-linejoin="round"/>
</svg>
