<svg width="24" height="24" viewBox="0 0 24 24" fill="none" xmlns="http://www.w3.org/2000/svg">
<path d="M14.1111 9.90071L14.3564 10.6095L15.7739 10.119L15.5287 9.4102L14.1111 9.90071ZM13.1999 8.43323L13.2329 7.68396C13.2219 7.68347 13.2109 7.68323 13.1999 7.68323V8.43323ZM10.7999 12.0999V12.8499V12.0999ZM13.1999 15.7666V16.5166V15.7666ZM10.7999 15.7666L10.7669 16.5158C10.7779 16.5163 10.7889 16.5166 10.7999 16.5166V15.7666ZM9.88867 14.2991L9.64341 13.5903L8.22588 14.0808L8.47114 14.7896L9.88867 14.2991ZM12.7499 6.5999V5.8499H11.2499V6.5999H12.7499ZM11.2499 8.43323V9.18323H12.7499V8.43323H11.2499ZM12.7499 15.7666V15.0166H11.2499V15.7666H12.7499ZM11.2499 17.5999V18.3499H12.7499V17.5999H11.2499ZM14.8199 9.65546L15.5287 9.4102C15.3611 8.92581 15.0542 8.5014 14.6454 8.19296L14.1937 8.79167L13.742 9.39039C13.9105 9.51758 14.0399 9.69483 14.1111 9.90071L14.8199 9.65546ZM14.1937 8.79167L14.6454 8.19296C14.2364 7.88439 13.7445 7.70646 13.2329 7.68396L13.1999 8.43323L13.1669 9.18251C13.3732 9.19158 13.5735 9.26332 13.742 9.39039L14.1937 8.79167ZM13.1999 8.43323V7.68323H10.7999V8.43323V9.18323H13.1999V8.43323ZM10.7999 8.43323V7.68323C10.1191 7.68323 9.46905 7.95881 8.99194 8.44476L9.52711 8.9702L10.0623 9.49565C10.2603 9.29396 10.5259 9.18323 10.7999 9.18323V8.43323ZM9.52711 8.9702L8.99194 8.44476C8.51528 8.93024 8.2499 9.58582 8.2499 10.2666H8.9999H9.7499C9.7499 9.97485 9.86381 9.6978 10.0623 9.49565L9.52711 8.9702ZM8.9999 10.2666H8.2499C8.2499 10.9473 8.51528 11.6029 8.99194 12.0884L9.52711 11.5629L10.0623 11.0375C9.86381 10.8353 9.7499 10.5583 9.7499 10.2666H8.9999ZM9.52711 11.5629L8.99194 12.0884C9.46905 12.5743 10.1191 12.8499 10.7999 12.8499V12.0999V11.3499C10.5259 11.3499 10.2603 11.2392 10.0623 11.0375L9.52711 11.5629ZM10.7999 12.0999V12.8499H13.1999V12.0999V11.3499H10.7999V12.0999ZM13.1999 12.0999V12.8499C13.4739 12.8499 13.7395 12.9606 13.9375 13.1623L14.4727 12.6369L15.0079 12.1114C14.5308 11.6255 13.8807 11.3499 13.1999 11.3499V12.0999ZM14.4727 12.6369L13.9375 13.1623C14.136 13.3645 14.2499 13.6415 14.2499 13.9332H14.9999H15.7499C15.7499 13.2525 15.4845 12.5969 15.0079 12.1114L14.4727 12.6369ZM14.9999 13.9332H14.2499C14.2499 14.2249 14.136 14.502 13.9375 14.7042L14.4727 15.2296L15.0079 15.755C15.4845 15.2696 15.7499 14.614 15.7499 13.9332H14.9999ZM14.4727 15.2296L13.9375 14.7042C13.7395 14.9058 13.4739 15.0166 13.1999 15.0166V15.7666V16.5166C13.8807 16.5166 14.5308 16.241 15.0079 15.755L14.4727 15.2296ZM13.1999 15.7666V15.0166H10.7999V15.7666V16.5166H13.1999V15.7666ZM10.7999 15.7666L10.8329 15.0173C10.6266 15.0082 10.4263 14.9365 10.2578 14.8094L9.80614 15.4081L9.35443 16.0068C9.76343 16.3154 10.2553 16.4933 10.7669 16.5158L10.7999 15.7666ZM9.80614 15.4081L10.2578 14.8094C10.0893 14.6822 9.95991 14.505 9.88867 14.2991L9.1799 14.5443L8.47114 14.7896C8.63875 15.274 8.94561 15.6984 9.35443 16.0068L9.80614 15.4081ZM11.9999 6.5999H11.2499V8.43323H11.9999H12.7499V6.5999H11.9999ZM11.9999 15.7666H11.2499V17.5999H11.9999H12.7499V15.7666H11.9999ZM21.5999 11.9999H20.8499C20.8499 16.8876 16.8876 20.8499 11.9999 20.8499V21.5999V22.3499C17.716 22.3499 22.3499 17.716 22.3499 11.9999H21.5999ZM11.9999 21.5999V20.8499C7.11218 20.8499 3.1499 16.8876 3.1499 11.9999H2.3999H1.6499C1.6499 17.716 6.28375 22.3499 11.9999 22.3499V21.5999ZM2.3999 11.9999H3.1499C3.1499 7.11218 7.11218 3.1499 11.9999 3.1499V2.3999V1.6499C6.28375 1.6499 1.6499 6.28375 1.6499 11.9999H2.3999ZM11.9999 2.3999V3.1499C16.8876 3.1499 20.8499 7.11218 20.8499 11.9999H21.5999H22.3499C22.3499 6.28375 17.716 1.6499 11.9999 1.6499V2.3999Z" fill="#2C2920"/>
</svg>
