<svg width="24" height="24" viewBox="0 0 24 24" fill="none" xmlns="http://www.w3.org/2000/svg">
<path d="M8.3999 8.01917H13.7846C14.3202 8.01917 14.8338 8.23192 15.2125 8.6106C15.5912 8.98929 15.8039 9.5029 15.8039 10.0384C15.8039 10.574 15.5912 11.0876 15.2125 11.4663C14.8338 11.845 14.3202 12.0577 13.7846 12.0577M13.7846 12.0577C14.3202 12.0577 14.8338 12.2705 15.2125 12.6491C15.5912 13.0278 15.8039 13.5414 15.8039 14.077C15.8039 14.6125 15.5912 15.1261 15.2125 15.5048C14.8338 15.8835 14.3202 16.0963 13.7846 16.0963H8.3999M13.7846 12.0577H9.74608M9.74608 8.01917V16.0963M10.4192 5.9999V8.01917M13.1115 5.9999V8.01917M10.4192 16.0963V18.1155M13.1115 16.0963V18.1155M21.5999 11.9999C21.5999 17.3018 17.3018 21.5999 11.9999 21.5999C6.69797 21.5999 2.3999 17.3018 2.3999 11.9999C2.3999 6.69797 6.69797 2.3999 11.9999 2.3999C17.3018 2.3999 21.5999 6.69797 21.5999 11.9999Z" stroke="#2C2920" stroke-width="1.5" stroke-linecap="square" stroke-linejoin="round"/>
</svg>
