<svg width="24" height="24" viewBox="0 0 24 24" fill="none" xmlns="http://www.w3.org/2000/svg">
<path d="M11.7011 6.19174V7.59274M11.7011 15.9987V17.3997M21.5999 11.9999C21.5999 17.3018 17.3018 21.5999 11.9999 21.5999C6.69797 21.5999 2.3999 17.3018 2.3999 11.9999C2.3999 6.69797 6.69797 2.3999 11.9999 2.3999C17.3018 2.3999 21.5999 6.69797 21.5999 11.9999ZM9.59962 7.59274H13.1021C13.6595 7.59274 14.194 7.81414 14.5881 8.20825C14.9822 8.60236 15.2036 9.13688 15.2036 9.69424V9.79441C15.2036 10.3252 14.9928 10.8342 14.6174 11.2096C14.2421 11.5849 13.7331 11.7957 13.2023 11.7957H9.59962H13.1021C13.6595 11.7957 14.194 12.0171 14.5881 12.4112C14.9822 12.8054 15.2036 13.3399 15.2036 13.8972V13.9974C15.2036 14.5282 14.9928 15.0372 14.6174 15.4126C14.2421 15.7879 13.7331 15.9987 13.2023 15.9987H9.59962V7.59274Z" stroke="#2C2920" stroke-width="1.5" stroke-linecap="square" stroke-linejoin="round"/>
</svg>
