<svg width="24" height="24" viewBox="0 0 24 24" fill="none" xmlns="http://www.w3.org/2000/svg">
<path d="M15.5999 16.1087C15.0407 16.365 14.4328 16.4977 13.8177 16.4977C13.2026 16.4977 12.5947 16.365 12.0355 16.1087C11.451 15.9069 10.8296 15.8343 10.2143 15.8958C9.59891 15.9574 9.00422 16.1516 8.47119 16.4652C8.85288 16.333 9.18935 16.0955 9.44167 15.7802C9.69399 15.4648 9.85183 15.0844 9.89693 14.683V9.33644C9.90069 8.71192 10.1094 8.1059 10.491 7.61148C10.8725 7.11706 11.4059 6.76158 12.009 6.59965C12.6122 6.43772 13.2519 6.4783 13.8298 6.71515C14.4076 6.952 14.8918 7.37202 15.2078 7.9107M13.39 12.1879H8.3999M21.5999 11.9999C21.5999 17.3018 17.3018 21.5999 11.9999 21.5999C6.69797 21.5999 2.3999 17.3018 2.3999 11.9999C2.3999 6.69797 6.69797 2.3999 11.9999 2.3999C17.3018 2.3999 21.5999 6.69797 21.5999 11.9999Z" stroke="#2C2920" stroke-width="1.5" stroke-linecap="square" stroke-linejoin="round"/>
</svg>
