<svg width="24" height="24" viewBox="0 0 24 24" fill="none" xmlns="http://www.w3.org/2000/svg">
<path d="M17.7601 4.3199C17.7601 5.38029 18.6197 6.2399 19.6801 6.2399C20.7405 6.2399 21.6001 5.38029 21.6001 4.3199C21.6001 3.25952 20.7405 2.3999 19.6801 2.3999C18.6197 2.3999 17.7601 3.25952 17.7601 4.3199ZM17.7601 4.3199H6.59966M17.7601 19.6799C17.7601 20.7403 18.6197 21.5999 19.6801 21.5999C20.7405 21.5999 21.6001 20.7403 21.6001 19.6799C21.6001 18.6195 20.7405 17.7599 19.6801 17.7599C18.6197 17.7599 17.7601 18.6195 17.7601 19.6799ZM17.7601 19.6799H12.2401C11.7099 19.6799 11.2801 19.2501 11.2801 18.7199V5.2799M17.4001 11.9999H11.4001M21.6001 11.9999C21.6001 13.0603 20.7405 13.9199 19.6801 13.9199C18.6197 13.9199 17.7601 13.0603 17.7601 11.9999C17.7601 10.9395 18.6197 10.0799 19.6801 10.0799C20.7405 10.0799 21.6001 10.9395 21.6001 11.9999ZM6.23966 4.3199C6.23966 5.38029 5.38005 6.2399 4.31966 6.2399C3.25927 6.2399 2.39966 5.38029 2.39966 4.3199C2.39966 3.25952 3.25927 2.3999 4.31966 2.3999C5.38005 2.3999 6.23966 3.25952 6.23966 4.3199Z" stroke="#2C2920" stroke-width="1.5" stroke-linecap="square"/>
</svg>
