<svg width="24" height="24" viewBox="0 0 24 24" fill="none" xmlns="http://www.w3.org/2000/svg">
<path d="M6.2399 11.9999C6.2399 13.0603 5.38029 13.9199 4.3199 13.9199C3.25952 13.9199 2.3999 13.0603 2.3999 11.9999C2.3999 10.9395 3.25952 10.0799 4.3199 10.0799C5.38029 10.0799 6.2399 10.9395 6.2399 11.9999ZM6.2399 11.9999H17.7599M17.7599 11.9999C17.7599 13.0603 18.6195 13.9199 19.6799 13.9199C20.7403 13.9199 21.5999 13.0603 21.5999 11.9999C21.5999 10.9395 20.7403 10.0799 19.6799 10.0799C18.6195 10.0799 17.7599 10.9395 17.7599 11.9999ZM17.7599 4.3199C17.7599 5.38029 18.6195 6.2399 19.6799 6.2399C20.7403 6.2399 21.5999 5.38029 21.5999 4.3199C21.5999 3.25952 20.7403 2.3999 19.6799 2.3999C18.6195 2.3999 17.7599 3.25952 17.7599 4.3199ZM17.7599 4.3199H12.2399C11.7097 4.3199 11.2799 4.74971 11.2799 5.2799V18.7199C11.2799 19.2501 11.7097 19.6799 12.2399 19.6799H17.7599M17.7599 19.6799C17.7599 20.7403 18.6195 21.5999 19.6799 21.5999C20.7403 21.5999 21.5999 20.7403 21.5999 19.6799C21.5999 18.6195 20.7403 17.7599 19.6799 17.7599C18.6195 17.7599 17.7599 18.6195 17.7599 19.6799Z" stroke="#2C2920" stroke-width="1.5" stroke-linecap="square"/>
</svg>
