<svg width="24" height="24" viewBox="0 0 24 24" fill="none" xmlns="http://www.w3.org/2000/svg">
<path d="M11.9999 17.3999V11.3999M19.6799 17.7599C18.6195 17.7599 17.7599 18.6195 17.7599 19.6799C17.7599 20.7403 18.6195 21.5999 19.6799 21.5999C20.7403 21.5999 21.5999 20.7403 21.5999 19.6799C21.5999 18.6195 20.7403 17.7599 19.6799 17.7599ZM19.6799 17.7599L19.6799 12.2399C19.6799 11.7097 19.2501 11.2799 18.7199 11.2799H5.2799C4.74971 11.2799 4.3199 11.7097 4.3199 12.2399L4.3199 17.7599M4.3199 17.7599C3.25951 17.7599 2.3999 18.6195 2.3999 19.6799C2.3999 20.7403 3.25951 21.5999 4.3199 21.5999C5.38029 21.5999 6.2399 20.7403 6.2399 19.6799C6.2399 18.6195 5.38029 17.7599 4.3199 17.7599ZM11.9999 21.5999C10.9395 21.5999 10.0799 20.7403 10.0799 19.6799C10.0799 18.6195 10.9395 17.7599 11.9999 17.7599C13.0603 17.7599 13.9199 18.6195 13.9199 19.6799C13.9199 20.7403 13.0603 21.5999 11.9999 21.5999ZM5.9999 7.1999H17.9999C18.6626 7.1999 19.1999 6.66264 19.1999 5.9999V3.5999C19.1999 2.93716 18.6626 2.3999 17.9999 2.3999H5.9999C5.33716 2.3999 4.7999 2.93716 4.7999 3.5999V5.9999C4.7999 6.66264 5.33716 7.1999 5.9999 7.1999Z" stroke="#2C2920" stroke-width="1.5" stroke-linecap="square"/>
</svg>
