<svg width="24" height="24" viewBox="0 0 24 24" fill="none" xmlns="http://www.w3.org/2000/svg">
<path d="M8.3999 15.5999L15.5999 8.3999M8.9538 8.94924L8.93965 8.93495M15.0643 15.1226L15.0502 15.1083M9.57586 4.0427L7.638 3.61808C7.32837 3.55023 7.01804 3.72941 6.92198 4.03147L6.32078 5.92202C6.26044 6.11177 6.11177 6.26044 5.92202 6.32078L4.03147 6.92198C3.72941 7.01804 3.55023 7.32837 3.61808 7.638L4.0427 9.57586C4.08532 9.77036 4.0309 9.97345 3.89674 10.1206L2.56008 11.5865C2.34651 11.8207 2.34651 12.1791 2.56008 12.4133L3.89674 13.8792C4.0309 14.0264 4.08532 14.2294 4.0427 14.4239L3.61808 16.3618C3.55023 16.6714 3.72941 16.9818 4.03147 17.0778L5.92202 17.679C6.11177 17.7394 6.26044 17.888 6.32078 18.0778L6.92198 19.9683C7.01804 20.2704 7.32837 20.4496 7.638 20.3817L9.57586 19.9571C9.77036 19.9145 9.97345 19.9689 10.1206 20.1031L11.5865 21.4397C11.8207 21.6533 12.1791 21.6533 12.4133 21.4397L13.8792 20.1031C14.0264 19.9689 14.2294 19.9145 14.4239 19.9571L16.3618 20.3817C16.6714 20.4496 16.9818 20.2704 17.0778 19.9683L17.679 18.0778C17.7394 17.888 17.888 17.7394 18.0778 17.679L19.9683 17.0778C20.2704 16.9818 20.4496 16.6714 20.3817 16.3618L19.9571 14.4239C19.9145 14.2294 19.9689 14.0264 20.1031 13.8792L21.4397 12.4133C21.6533 12.1791 21.6533 11.8207 21.4397 11.5865L20.1031 10.1206C19.9689 9.97345 19.9145 9.77036 19.9571 9.57586L20.3817 7.638C20.4496 7.32837 20.2704 7.01804 19.9683 6.92198L18.0778 6.32078C17.888 6.26044 17.7394 6.11177 17.679 5.92202L17.0778 4.03147C16.9818 3.72941 16.6714 3.55023 16.3618 3.61808L14.4239 4.0427C14.2294 4.08532 14.0264 4.0309 13.8792 3.89674L12.4133 2.56008C12.1791 2.34651 11.8207 2.34651 11.5865 2.56008L10.1206 3.89674C9.97345 4.0309 9.77036 4.08532 9.57586 4.0427Z" stroke="#2C2920" stroke-width="1.5" stroke-linecap="square"/>
</svg>
