<svg width="24" height="24" viewBox="0 0 24 24" fill="none" xmlns="http://www.w3.org/2000/svg">
<path d="M8.40022 15.6L15.6002 8.40004M8.95412 8.94938L8.93997 8.93509M15.0646 15.1227L15.0505 15.1084M11.4991 3.63805L9.57469 2.57292C9.15197 2.33895 8.62758 2.52432 8.42842 2.97814L7.52176 5.0441C7.40376 5.31297 7.16256 5.50063 6.88181 5.54201L4.7246 5.85993C4.25074 5.92976 3.93098 6.40117 4.02564 6.8904L4.45655 9.11756C4.51264 9.40741 4.42327 9.70709 4.21946 9.91266L2.65342 11.4922C2.30942 11.8392 2.31644 12.4165 2.66875 12.7543L4.27265 14.292C4.48139 14.4921 4.578 14.7893 4.52898 15.0806L4.15229 17.3184C4.06954 17.81 4.40065 18.2728 4.87605 18.3301L7.0403 18.5909C7.32196 18.6249 7.56764 18.8061 7.69213 19.0718L8.64867 21.1131C8.85879 21.5615 9.38751 21.733 9.80442 21.4879L11.7023 20.3723C11.9493 20.2271 12.2503 20.2231 12.5007 20.3617L14.4251 21.4269C14.8478 21.6609 15.3722 21.4755 15.5714 21.0217L16.478 18.9557C16.596 18.6868 16.8372 18.4992 17.118 18.4578L19.2752 18.1399C19.7491 18.07 20.0688 17.5986 19.9742 17.1094L19.5432 14.8822C19.4872 14.5924 19.5765 14.2927 19.7803 14.0871L21.3464 12.5076C21.6904 12.1606 21.6834 11.5833 21.331 11.2455L19.7272 9.70782C19.5184 9.5077 19.4218 9.21048 19.4708 8.91924L19.8475 6.68141C19.9303 6.18984 19.5992 5.72702 19.1238 5.66973L16.9595 5.40889C16.6778 5.37495 16.4322 5.19371 16.3077 4.92804L15.3511 2.8867C15.141 2.43829 14.6123 2.26682 14.1954 2.51188L12.2975 3.62751C12.0505 3.7727 11.7495 3.77667 11.4991 3.63805Z" stroke="#2C2920" stroke-width="1.5" stroke-linecap="square"/>
</svg>
