<svg width="25" height="24" viewBox="0 0 25 24" fill="none" xmlns="http://www.w3.org/2000/svg">
<path d="M11.3484 3.80369H5.6619C3.77756 3.80369 2.25 5.3312 2.25 7.21548V18.5882C2.25 20.4725 3.77756 22 5.6619 22H17.0349C18.9192 22 20.4468 20.4725 20.4468 18.5882L20.4468 12.9018M7.93649 16.3136L12.0744 15.4799C12.294 15.4356 12.4957 15.3274 12.6541 15.1689L21.9171 5.90116C22.3612 5.45682 22.3609 4.73657 21.9164 4.2926L19.9542 2.33264C19.5099 1.88886 18.79 1.88916 18.3461 2.33332L9.0821 11.6021C8.924 11.7602 8.81605 11.9615 8.77175 12.1807L7.93649 16.3136Z" stroke="#2C2920" stroke-width="1.5" stroke-linecap="square" stroke-linejoin="round"/>
</svg>
