<svg width="25" height="24" viewBox="0 0 25 24" fill="none" xmlns="http://www.w3.org/2000/svg">
<path d="M6.10102 15.9423L6.63772 16.4662L7.68548 15.3928L7.14877 14.8689L6.10102 15.9423ZM3.25 12.1114L2.72612 11.5747C2.58153 11.7158 2.5 11.9093 2.5 12.1114C2.5 12.3135 2.58153 12.507 2.72612 12.6481L3.25 12.1114ZM7.14877 9.35388L7.68548 8.83L6.63773 7.75659L6.10102 8.28047L7.14877 9.35388ZM18.399 8.28047L17.8623 7.75659L16.8145 8.83L17.3512 9.35388L18.399 8.28047ZM21.25 12.1114L21.7739 12.6481C21.9185 12.507 22 12.3135 22 12.1114C22 11.9093 21.9185 11.7158 21.7739 11.5747L21.25 12.1114ZM17.3512 14.8689L16.8145 15.3928L17.8623 16.4662L18.399 15.9423L17.3512 14.8689ZM9.91787 17.8024L9.72028 18.5259L11.1673 18.9211L11.3649 18.1976L9.91787 17.8024ZM12.2497 12.1109L11.5267 11.9114L11.5262 11.9133L12.2497 12.1109ZM14.6585 6.19945L14.8579 5.47646L13.412 5.07756L13.2125 5.80055L14.6585 6.19945ZM6.6249 15.4056L7.14877 14.8689L3.77388 11.5747L3.25 12.1114L2.72612 12.6481L6.10102 15.9423L6.6249 15.4056ZM3.25 12.1114L3.77388 12.6481L7.14877 9.35388L6.6249 8.81717L6.10102 8.28047L2.72612 11.5747L3.25 12.1114ZM17.8751 8.81717L17.3512 9.35388L20.7261 12.6481L21.25 12.1114L21.7739 11.5747L18.399 8.28047L17.8751 8.81717ZM21.25 12.1114L20.7261 11.5747L17.3512 14.8689L17.8751 15.4056L18.399 15.9423L21.7739 12.6481L21.25 12.1114ZM10.6414 18L11.3649 18.1976L12.9732 12.3085L12.2497 12.1109L11.5262 11.9133L9.91787 17.8024L10.6414 18ZM12.2497 12.1109L12.9727 12.3103L14.6585 6.19945L13.9355 6L13.2125 5.80055L11.5267 11.9114L12.2497 12.1109Z" fill="#2C2920"/>
</svg>
