<svg width="54" height="22" viewBox="0 0 54 22" fill="none" xmlns="http://www.w3.org/2000/svg">
<path d="M5.17045 17.1705C4.29545 17.1705 3.53977 16.9886 2.90341 16.625C2.27083 16.2576 1.78409 15.7386 1.44318 15.0682C1.10227 14.3939 0.931818 13.6004 0.931818 12.6875C0.931818 11.7898 1.10227 11.0019 1.44318 10.3239C1.78788 9.64205 2.26894 9.11174 2.88636 8.73295C3.50379 8.35038 4.22917 8.15909 5.0625 8.15909C5.60038 8.15909 6.10795 8.24621 6.58523 8.42045C7.06629 8.59091 7.49053 8.85606 7.85795 9.21591C8.22917 9.57576 8.52083 10.0341 8.73295 10.5909C8.94508 11.1439 9.05114 11.803 9.05114 12.5682V13.1989H1.89773V11.8125H7.07955C7.07576 11.4186 6.99053 11.0682 6.82386 10.7614C6.6572 10.4508 6.42424 10.2064 6.125 10.0284C5.82955 9.85038 5.48485 9.76136 5.09091 9.76136C4.67045 9.76136 4.30114 9.86364 3.98295 10.0682C3.66477 10.2689 3.41667 10.5341 3.23864 10.8636C3.06439 11.1894 2.97538 11.5473 2.97159 11.9375V13.1477C2.97159 13.6553 3.06439 14.0909 3.25 14.4545C3.43561 14.8144 3.69508 15.0909 4.02841 15.2841C4.36174 15.4735 4.75189 15.5682 5.19886 15.5682C5.49811 15.5682 5.76894 15.5265 6.01136 15.4432C6.25379 15.3561 6.46402 15.2292 6.64205 15.0625C6.82008 14.8958 6.95455 14.6894 7.04545 14.4432L8.96591 14.6591C8.8447 15.1667 8.61364 15.6098 8.27273 15.9886C7.93561 16.3636 7.50379 16.6553 6.97727 16.8636C6.45076 17.0682 5.84848 17.1705 5.17045 17.1705ZM10.6112 17V8.27273H12.5771V9.75568H12.6794C12.8612 9.25568 13.1623 8.86553 13.5828 8.58523C14.0032 8.30114 14.5051 8.15909 15.0885 8.15909C15.6794 8.15909 16.1775 8.30303 16.5828 8.59091C16.9919 8.875 17.2798 9.26326 17.4464 9.75568H17.5373C17.7305 9.27083 18.0563 8.88447 18.5146 8.59659C18.9767 8.30492 19.5241 8.15909 20.1566 8.15909C20.9597 8.15909 21.615 8.41288 22.1226 8.92045C22.6301 9.42803 22.8839 10.1686 22.8839 11.142V17H20.8214V11.4602C20.8214 10.9186 20.6775 10.5227 20.3896 10.2727C20.1017 10.0189 19.7495 9.89205 19.3328 9.89205C18.8366 9.89205 18.4483 10.0473 18.168 10.358C17.8915 10.6648 17.7532 11.0644 17.7532 11.5568V17H15.7362V11.375C15.7362 10.9242 15.5998 10.5644 15.3271 10.2955C15.0582 10.0265 14.7059 9.89205 14.2703 9.89205C13.9748 9.89205 13.7059 9.9678 13.4635 10.1193C13.221 10.267 13.0279 10.4773 12.8839 10.75C12.74 11.0189 12.668 11.3333 12.668 11.6932V17H10.6112ZM24.8815 17V5.36364H26.9383V9.71591H27.0235C27.1296 9.50379 27.2792 9.27841 27.4724 9.03977C27.6656 8.79735 27.9269 8.59091 28.2565 8.42045C28.586 8.24621 29.0065 8.15909 29.5178 8.15909C30.1921 8.15909 30.8 8.33144 31.3417 8.67614C31.8872 9.01705 32.319 9.52273 32.6372 10.1932C32.9591 10.8598 33.1201 11.678 33.1201 12.6477C33.1201 13.6061 32.9629 14.4205 32.6485 15.0909C32.3341 15.7614 31.9061 16.2727 31.3644 16.625C30.8228 16.9773 30.2091 17.1534 29.5235 17.1534C29.0235 17.1534 28.6087 17.0701 28.2792 16.9034C27.9497 16.7367 27.6845 16.536 27.4837 16.3011C27.2868 16.0625 27.1334 15.8371 27.0235 15.625H26.9042V17H24.8815ZM26.8985 12.6364C26.8985 13.2008 26.9781 13.6951 27.1372 14.1193C27.3 14.5436 27.533 14.875 27.836 15.1136C28.1428 15.3485 28.5141 15.4659 28.9497 15.4659C29.4042 15.4659 29.7849 15.3447 30.0917 15.1023C30.3985 14.8561 30.6296 14.5208 30.7849 14.0966C30.944 13.6686 31.0235 13.1818 31.0235 12.6364C31.0235 12.0947 30.9459 11.6136 30.7906 11.1932C30.6353 10.7727 30.4042 10.4432 30.0974 10.2045C29.7906 9.96591 29.408 9.84659 28.9497 9.84659C28.5103 9.84659 28.1372 9.96212 27.8303 10.1932C27.5235 10.4242 27.2906 10.7481 27.1315 11.1648C26.9762 11.5814 26.8985 12.072 26.8985 12.6364ZM38.5523 17.1705C37.6773 17.1705 36.9216 16.9886 36.2853 16.625C35.6527 16.2576 35.166 15.7386 34.8251 15.0682C34.4841 14.3939 34.3137 13.6004 34.3137 12.6875C34.3137 11.7898 34.4841 11.0019 34.8251 10.3239C35.1698 9.64205 35.6508 9.11174 36.2682 8.73295C36.8857 8.35038 37.611 8.15909 38.4444 8.15909C38.9823 8.15909 39.4898 8.24621 39.9671 8.42045C40.4482 8.59091 40.8724 8.85606 41.2398 9.21591C41.611 9.57576 41.9027 10.0341 42.1148 10.5909C42.327 11.1439 42.433 11.803 42.433 12.5682V13.1989H35.2796V11.8125H40.4614C40.4576 11.4186 40.3724 11.0682 40.2057 10.7614C40.0391 10.4508 39.8061 10.2064 39.5069 10.0284C39.2114 9.85038 38.8667 9.76136 38.4728 9.76136C38.0523 9.76136 37.683 9.86364 37.3648 10.0682C37.0466 10.2689 36.7985 10.5341 36.6205 10.8636C36.4463 11.1894 36.3573 11.5473 36.3535 11.9375V13.1477C36.3535 13.6553 36.4463 14.0909 36.6319 14.4545C36.8175 14.8144 37.0769 15.0909 37.4103 15.2841C37.7436 15.4735 38.1338 15.5682 38.5807 15.5682C38.88 15.5682 39.1508 15.5265 39.3932 15.4432C39.6357 15.3561 39.8459 15.2292 40.0239 15.0625C40.2019 14.8958 40.3364 14.6894 40.4273 14.4432L42.3478 14.6591C42.2266 15.1667 41.9955 15.6098 41.6546 15.9886C41.3175 16.3636 40.8857 16.6553 40.3591 16.8636C39.8326 17.0682 39.2304 17.1705 38.5523 17.1705ZM47.2317 17.1534C46.5461 17.1534 45.9325 16.9773 45.3908 16.625C44.8491 16.2727 44.4211 15.7614 44.1067 15.0909C43.7923 14.4205 43.6351 13.6061 43.6351 12.6477C43.6351 11.678 43.7942 10.8598 44.1124 10.1932C44.4344 9.52273 44.8681 9.01705 45.4135 8.67614C45.959 8.33144 46.5669 8.15909 47.2374 8.15909C47.7487 8.15909 48.1692 8.24621 48.4987 8.42045C48.8283 8.59091 49.0897 8.79735 49.2828 9.03977C49.476 9.27841 49.6256 9.50379 49.7317 9.71591H49.8169V5.36364H51.8794V17H49.8567V15.625H49.7317C49.6256 15.8371 49.4722 16.0625 49.2715 16.3011C49.0707 16.536 48.8056 16.7367 48.476 16.9034C48.1465 17.0701 47.7317 17.1534 47.2317 17.1534ZM47.8056 15.4659C48.2412 15.4659 48.6124 15.3485 48.9192 15.1136C49.226 14.875 49.459 14.5436 49.6181 14.1193C49.7772 13.6951 49.8567 13.2008 49.8567 12.6364C49.8567 12.072 49.7772 11.5814 49.6181 11.1648C49.4628 10.7481 49.2317 10.4242 48.9249 10.1932C48.6219 9.96212 48.2487 9.84659 47.8056 9.84659C47.3472 9.84659 46.9647 9.96591 46.6578 10.2045C46.351 10.4432 46.12 10.7727 45.9647 11.1932C45.8094 11.6136 45.7317 12.0947 45.7317 12.6364C45.7317 13.1818 45.8094 13.6686 45.9647 14.0966C46.1237 14.5208 46.3567 14.8561 46.6635 15.1023C46.9741 15.3447 47.3548 15.4659 47.8056 15.4659Z" fill="#2C2920"/>
</svg>
