<svg width="25" height="24" viewBox="0 0 25 24" fill="none" xmlns="http://www.w3.org/2000/svg">
<path d="M20.6499 19.5L5.6499 4.5M10.4499 10.4416C10.0765 10.8533 9.8499 11.394 9.8499 11.9863C9.8499 13.2761 10.9244 14.3217 12.2499 14.3217C12.861 14.3217 13.4188 14.0994 13.8426 13.7334M20.6887 14.3217C21.5149 13.0848 21.8499 12.0761 21.8499 12.0761C21.8499 12.0761 19.6653 5.1 12.2499 5.1C11.8336 5.1 11.4338 5.12199 11.0499 5.16349M17.6499 17.3494C16.2725 18.2281 14.4992 18.8495 12.2499 18.8127C4.92683 18.693 2.6499 12.0761 2.6499 12.0761C2.6499 12.0761 3.70776 8.69808 6.8499 6.64332" stroke="#2C2920" stroke-width="1.5" stroke-linecap="square"/>
</svg>
