<svg width="24" height="24" viewBox="0 0 24 24" fill="none" xmlns="http://www.w3.org/2000/svg">
<path d="M8.7999 2.40002H4.53324C3.35503 2.40002 2.3999 3.35515 2.3999 4.53336V15.2V19.4667C2.3999 20.6449 3.35503 21.6 4.53324 21.6H15.1999H19.4666C20.6448 21.6 21.5999 20.6449 21.5999 19.4667V8.80002V4.53336C21.5999 3.35515 20.6448 2.40002 19.4666 2.40002H8.9999M7.7999 9.16526V7.99526M16.1999 9.16526V7.99526M8.65256 15.6002C10.0207 16.6603 13.0888 16.6603 15.0006 15.6002M11.3999 12.6752L11.6484 12.4329C11.8735 12.2135 11.9999 11.9159 11.9999 11.6056V8.58026" stroke="#2C2920" stroke-width="1.5" stroke-linecap="square"/>
</svg>
