<svg width="24" height="24" viewBox="0 0 24 24" fill="none" xmlns="http://www.w3.org/2000/svg">
<path d="M8.70101 9.91767V13.6059C8.70101 15.4284 10.1785 16.9059 12.001 16.9059C13.8236 16.9059 15.301 15.4284 15.301 13.6059V8.94708C15.301 7.98221 14.5188 7.20002 13.554 7.20002C12.5891 7.20002 11.8069 7.98221 11.8069 8.94708V13.4118M6.60004 2.40002H17.4003C18.7258 2.40002 19.8003 3.47457 19.8003 4.80007L19.8 19.2001C19.8 20.5255 18.7254 21.6 17.4 21.6L6.59994 21.6C5.27446 21.6 4.19994 20.5254 4.19995 19.2L4.20004 4.80001C4.20005 3.47453 5.27457 2.40002 6.60004 2.40002Z" stroke="#2C2920" stroke-width="1.5" stroke-linecap="square"/>
</svg>
