<svg width="24" height="24" viewBox="0 0 24 24" fill="none" xmlns="http://www.w3.org/2000/svg">
<path d="M13.2 2.3999V7.1999C13.2 7.86264 13.7373 8.3999 14.4001 8.3999H19.2001M10.4 15.9999L8.40005 13.9999L10.4 11.9999M13.6001 11.9999L15.6001 13.9999L13.6001 15.9999M13.4059 2.3999H7.20005C5.87457 2.3999 4.80005 3.47442 4.80005 4.7999V19.1999C4.80005 20.5254 5.87457 21.5999 7.20005 21.5999H16.8001C18.1255 21.5999 19.2001 20.5254 19.2001 19.1999V8.19401C19.2001 7.55749 18.9472 6.94705 18.4971 6.49696L15.103 3.10285C14.6529 2.65276 14.0425 2.3999 13.4059 2.3999Z" stroke="#2C2920" stroke-width="1.5" stroke-linecap="square" stroke-linejoin="round"/>
</svg>
