<svg width="24" height="24" viewBox="0 0 24 24" fill="none" xmlns="http://www.w3.org/2000/svg">
<path d="M15.0001 2.39995V5.99995C15.0001 6.66269 15.5374 7.19995 16.2001 7.19995H19.8001M15.0001 2.39995H15.6695C16.0075 2.39995 16.3291 2.54229 16.5619 2.78723C16.9118 3.15533 17.466 3.72209 18.0001 4.19995C18.4187 4.57447 19.0763 5.2466 19.4701 5.65508C19.683 5.87599 19.8001 6.17094 19.8001 6.47778L19.8001 7.19995M15.0001 2.39995H5.99972M19.8001 7.19995L19.7999 20.9999M4.19972 8.39995V19.1999C4.19971 20.5254 5.27423 21.5999 6.59971 21.5999H14.3997M20.4001 22.7999L3.6001 1.19995" stroke="#2C2920" stroke-width="1.5" stroke-linecap="square" stroke-linejoin="round"/>
</svg>
