<svg width="24" height="24" viewBox="0 0 24 24" fill="none" xmlns="http://www.w3.org/2000/svg">
<path d="M9.0666 19.9201H9.8166V18.4201H9.0666V19.9201ZM4.26718 15.9702L3.51718 15.9702L4.26718 15.9702ZM5.0166 2.39999L5.01657 1.64999L3.51657 1.65006L3.5166 2.40006L5.0166 2.39999ZM9.0666 8.06689H9.8166V6.56689H9.0666V8.06689ZM18.6666 9.86669L18.6666 9.11669L18.6666 9.86669ZM13.8666 9.86667L13.8666 10.6167H13.8666L13.8666 9.86667ZM19.7334 2.40002L20.4834 2.40004C20.4834 2.20113 20.4044 2.01036 20.2638 1.8697C20.1231 1.72904 19.9323 1.65002 19.7334 1.65002V2.40002ZM19.7333 8.80005L20.4833 8.80007V8.80007L19.7333 8.80005ZM12.7999 8.8L12.0499 8.79999V8.79999L12.7999 8.8ZM12.8 4.53336L12.3017 3.9728C12.1416 4.11513 12.05 4.31913 12.05 4.53335L12.8 4.53336ZM15.1999 2.40002V1.65002C15.0162 1.65002 14.8389 1.71743 14.7017 1.83947L15.1999 2.40002ZM18.6666 21.6L18.6666 20.85L18.6666 21.6ZM13.8666 21.6L13.8666 22.35L13.8666 21.6ZM19.7334 14.1334L20.4834 14.1334C20.4834 13.9345 20.4044 13.7437 20.2638 13.603C20.1231 13.4624 19.9323 13.3834 19.7334 13.3834V14.1334ZM19.7333 20.5334L20.4833 20.5334V20.5334L19.7333 20.5334ZM12.7999 20.5333L12.0499 20.5333V20.5333L12.7999 20.5333ZM12.8 16.2667L12.3017 15.7061C12.1416 15.8485 12.05 16.0525 12.05 16.2667L12.8 16.2667ZM15.1999 14.1334V13.3834C15.0162 13.3834 14.8389 13.4508 14.7017 13.5728L15.1999 14.1334ZM9.0666 19.1701V18.4201H7.46718V19.1701V19.9201H9.0666V19.1701ZM4.26718 15.9702L5.01718 15.9702L5.01681 7.31686L4.26681 7.31689L3.51681 7.31693L3.51718 15.9702L4.26718 15.9702ZM4.26681 7.31689L5.01681 7.31686L5.0166 2.39999L4.2666 2.40002L3.5166 2.40006L3.51681 7.31693L4.26681 7.31689ZM9.0666 7.31689V6.56689H4.26681V7.31689V8.06689H9.0666V7.31689ZM7.46718 19.1701V18.4201C6.11413 18.4201 5.01724 17.3232 5.01718 15.9702L4.26718 15.9702L3.51718 15.9702C3.51728 18.1517 5.28572 19.9201 7.46718 19.9201V19.1701ZM18.6666 9.86669L18.6666 9.11669L13.8666 9.11667L13.8666 9.86667L13.8666 10.6167L18.6666 10.6167L18.6666 9.86669ZM19.7334 2.40002L18.9834 2.40001L18.9833 8.80003L19.7333 8.80005L20.4833 8.80007L20.4834 2.40004L19.7334 2.40002ZM18.6666 9.86669L18.6666 10.6167C19.6699 10.6167 20.4833 9.80337 20.4833 8.80007L19.7333 8.80005L18.9833 8.80003C18.9833 8.97492 18.8415 9.11669 18.6666 9.11669L18.6666 9.86669ZM12.7999 8.8L12.0499 8.79999C12.0499 9.80331 12.8633 10.6167 13.8666 10.6167L13.8666 9.86667L13.8666 9.11667C13.6917 9.11667 13.5499 8.97489 13.5499 8.8L12.7999 8.8ZM12.7999 8.8L13.5499 8.8L13.55 4.53336L12.8 4.53336L12.05 4.53335L12.0499 8.79999L12.7999 8.8ZM15.1999 2.40002V3.15002H19.7334V2.40002V1.65002H15.1999V2.40002ZM15.1999 2.40002L14.7017 1.83947L12.3017 3.9728L12.8 4.53336L13.2982 5.09391L15.6982 2.96058L15.1999 2.40002ZM18.6666 21.6L18.6666 20.85L13.8666 20.85L13.8666 21.6L13.8666 22.35L18.6666 22.35L18.6666 21.6ZM19.7334 14.1334L18.9834 14.1333L18.9833 20.5334L19.7333 20.5334L20.4833 20.5334L20.4834 14.1334L19.7334 14.1334ZM18.6666 21.6L18.6666 22.35C19.6699 22.35 20.4833 21.5367 20.4833 20.5334L19.7333 20.5334L18.9833 20.5334C18.9833 20.7082 18.8415 20.85 18.6666 20.85L18.6666 21.6ZM12.7999 20.5333L12.0499 20.5333C12.0499 21.5366 12.8633 22.35 13.8666 22.35L13.8666 21.6L13.8666 20.85C13.6917 20.85 13.5499 20.7082 13.5499 20.5333L12.7999 20.5333ZM12.7999 20.5333L13.5499 20.5333L13.55 16.2667L12.8 16.2667L12.05 16.2667L12.0499 20.5333L12.7999 20.5333ZM15.1999 14.1334V14.8834H19.7334V14.1334V13.3834H15.1999V14.1334ZM15.1999 14.1334L14.7017 13.5728L12.3017 15.7061L12.8 16.2667L13.2982 16.8272L15.6982 14.6939L15.1999 14.1334Z" fill="#2C2920"/>
</svg>
