<svg width="25" height="22" viewBox="0 0 25 22" fill="none" xmlns="http://www.w3.org/2000/svg">
<path d="M5.72727 8.27273V9.86364H0.568182V8.27273H5.72727ZM1.85795 17V7.44886C1.85795 6.86174 1.97917 6.37311 2.22159 5.98295C2.4678 5.5928 2.79735 5.30114 3.21023 5.10795C3.62311 4.91477 4.08144 4.81818 4.58523 4.81818C4.94129 4.81818 5.25758 4.84659 5.53409 4.90341C5.81061 4.96023 6.01515 5.01136 6.14773 5.05682L5.73864 6.64773C5.65152 6.62121 5.54167 6.5947 5.40909 6.56818C5.27652 6.53788 5.12879 6.52273 4.96591 6.52273C4.58333 6.52273 4.3125 6.61553 4.15341 6.80114C3.99811 6.98295 3.92045 7.24432 3.92045 7.58523V17H1.85795ZM7.15807 17V8.27273H9.21489V17H7.15807ZM8.19216 7.03409C7.8664 7.03409 7.5861 6.92614 7.35125 6.71023C7.1164 6.49053 6.99898 6.22727 6.99898 5.92045C6.99898 5.60985 7.1164 5.34659 7.35125 5.13068C7.5861 4.91098 7.8664 4.80114 8.19216 4.80114C8.5217 4.80114 8.80201 4.91098 9.03307 5.13068C9.26792 5.34659 9.38534 5.60985 9.38534 5.92045C9.38534 6.22727 9.26792 6.49053 9.03307 6.71023C8.80201 6.92614 8.5217 7.03409 8.19216 7.03409ZM13.2068 5.36364V17H11.1499V5.36364H13.2068ZM19.0055 17.1705C18.1305 17.1705 17.3748 16.9886 16.7384 16.625C16.1058 16.2576 15.6191 15.7386 15.2782 15.0682C14.9373 14.3939 14.7668 13.6004 14.7668 12.6875C14.7668 11.7898 14.9373 11.0019 15.2782 10.3239C15.6229 9.64205 16.1039 9.11174 16.7214 8.73295C17.3388 8.35038 18.0642 8.15909 18.8975 8.15909C19.4354 8.15909 19.943 8.24621 20.4202 8.42045C20.9013 8.59091 21.3255 8.85606 21.693 9.21591C22.0642 9.57576 22.3558 10.0341 22.568 10.5909C22.7801 11.1439 22.8861 11.803 22.8861 12.5682V13.1989H15.7327V11.8125H20.9145C20.9108 11.4186 20.8255 11.0682 20.6589 10.7614C20.4922 10.4508 20.2592 10.2064 19.96 10.0284C19.6645 9.85038 19.3198 9.76136 18.9259 9.76136C18.5055 9.76136 18.1361 9.86364 17.818 10.0682C17.4998 10.2689 17.2517 10.5341 17.0736 10.8636C16.8994 11.1894 16.8104 11.5473 16.8066 11.9375V13.1477C16.8066 13.6553 16.8994 14.0909 17.085 14.4545C17.2706 14.8144 17.5301 15.0909 17.8634 15.2841C18.1967 15.4735 18.5869 15.5682 19.0339 15.5682C19.3331 15.5682 19.6039 15.5265 19.8464 15.4432C20.0888 15.3561 20.299 15.2292 20.477 15.0625C20.6551 14.8958 20.7895 14.6894 20.8805 14.4432L22.8009 14.6591C22.6797 15.1667 22.4486 15.6098 22.1077 15.9886C21.7706 16.3636 21.3388 16.6553 20.8123 16.8636C20.2858 17.0682 19.6835 17.1705 19.0055 17.1705Z" fill="#2C2920"/>
</svg>
