<svg width="24" height="24" viewBox="0 0 24 24" fill="none" xmlns="http://www.w3.org/2000/svg">
<path d="M16.5621 2.7873L16.0185 3.304V3.304L16.5621 2.7873ZM18.0003 4.20002L18.5004 3.64109V3.64109L18.0003 4.20002ZM19.4703 5.65516L18.9303 6.17569V6.17569L19.4703 5.65516ZM19.8003 6.47786L19.0503 6.47784V6.47786H19.8003ZM4.19999 4.80001L3.44999 4.80001V4.80001H4.19999ZM2.3999 14.25H1.6499V15.75H2.3999V14.25ZM21.5999 15.75H22.3499V14.25H21.5999V15.75ZM3.44999 10.2V10.95H4.94999V10.2H3.44999ZM19.0503 10.2V10.95H20.5503V10.2H19.0503ZM4.95028 19.2V18.45H3.45028V19.2H4.95028ZM3.45028 21.6V22.35H4.95028V21.6H3.45028ZM13.3503 19.2V18.45H11.8503V19.2H13.3503ZM11.8503 21.6V22.35H13.3503V21.6H11.8503ZM21.7503 19.2V18.45H20.2503V19.2H21.7503ZM20.2503 21.6V22.35H21.7503V21.6H20.2503ZM9.15028 19.2V18.45H7.65028V19.2H9.15028ZM7.65028 20.4V21.15H9.15028V20.4H7.65028ZM17.5503 19.2V18.45H16.0503V19.2H17.5503ZM16.0503 20.4V21.15H17.5503V20.4H16.0503ZM6.59999 2.40002V3.15002H15.0003V2.40002V1.65002H6.59999V2.40002ZM15.0003 2.40002V3.15002H15.6697V2.40002V1.65002H15.0003V2.40002ZM16.5621 2.7873L16.0185 3.304C16.373 3.67694 16.9435 4.26088 17.5002 4.75896L18.0003 4.20002L18.5004 3.64109C17.9889 3.18345 17.451 2.63387 17.1057 2.2706L16.5621 2.7873ZM18.0003 4.20002L17.5002 4.75896C17.8947 5.11191 18.5332 5.7638 18.9303 6.17569L19.4703 5.65516L20.0102 5.13462C19.6197 4.72954 18.943 4.03717 18.5004 3.64109L18.0003 4.20002ZM19.8003 6.47786L20.5503 6.47788C20.5503 5.98015 20.3602 5.49765 20.0102 5.13462L19.4703 5.65516L18.9303 6.17569C19.0062 6.25446 19.0503 6.36188 19.0503 6.47784L19.8003 6.47786ZM15.6697 2.40002V3.15002C15.7957 3.15002 15.9228 3.2033 16.0185 3.304L16.5621 2.7873L17.1057 2.27061C16.7358 1.88142 16.2196 1.65002 15.6697 1.65002V2.40002ZM6.59999 2.40002V1.65002C4.8603 1.65002 3.45001 3.06032 3.44999 4.80001L4.19999 4.80001L4.94999 4.80002C4.95 3.88875 5.68873 3.15002 6.59999 3.15002V2.40002ZM15.0003 2.40002H14.2503V6.00002H15.0003H15.7503V2.40002H15.0003ZM16.2003 7.20002V7.95002H19.8003V7.20002V6.45002H16.2003V7.20002ZM15.0003 6.00002H14.2503C14.2503 7.07698 15.1233 7.95002 16.2003 7.95002V7.20002V6.45002C15.9517 6.45002 15.7503 6.24855 15.7503 6.00002H15.0003ZM2.3999 15V15.75H21.5999V15V14.25H2.3999V15ZM4.19999 4.80001H3.44999V10.2H4.19999H4.94999V4.80001H4.19999ZM19.8003 6.47786H19.0503V7.20002H19.8003H20.5503V6.47786H19.8003ZM19.8003 7.20002H19.0503V10.2H19.8003H20.5503V7.20002H19.8003ZM4.20028 19.2H3.45028V21.6H4.20028H4.95028V19.2H4.20028ZM12.6003 19.2H11.8503V21.6H12.6003H13.3503V19.2H12.6003ZM21.0003 19.2H20.2503V21.6H21.0003H21.7503V19.2H21.0003ZM8.40028 19.2H7.65028V20.4H8.40028H9.15028V19.2H8.40028ZM16.8003 19.2H16.0503V20.4H16.8003H17.5503V19.2H16.8003Z" fill="#2C2920"/>
</svg>
