<svg width="24" height="24" viewBox="0 0 24 24" fill="none" xmlns="http://www.w3.org/2000/svg">
<path d="M10.4999 21.6H4.49984C3.17436 21.6 2.09984 20.5254 2.09985 19.2L2.09995 4.80001C2.09995 3.47453 3.17447 2.40002 4.49995 2.40002H15.3002C16.6257 2.40002 17.7002 3.47454 17.7002 4.80002V9.60002M6.30023 7.20002H13.5002M6.30023 10.8H13.5002M6.30023 14.4H9.90023M15.3428 20.4L12.9002 17.9458M12.9002 17.9458L15.2324 15.6M12.9002 17.9458H20.1274C21.1065 17.9458 21.9002 17.152 21.9002 16.1729C21.9002 15.1938 21.1065 14.4 20.1274 14.4H17.7002" stroke="#2C2920" stroke-width="1.5" stroke-linecap="square" stroke-linejoin="round"/>
</svg>
