<svg width="24" height="24" viewBox="0 0 24 24" fill="none" xmlns="http://www.w3.org/2000/svg">
<path d="M5.72979 6.25888C4.98693 7.45408 4.60011 8.81574 4.60011 10.203C4.60011 10.4805 4.65725 12.2562 4.65725 12.2562C4.65725 13.5922 4.29681 14.907 3.60669 16.068M16.2067 10.203C16.2023 8.39315 15.0067 6.25888 12.5253 6.25888C10.0439 6.25888 8.59115 8.29489 8.58676 10.1005V11.1932C8.58676 13.7928 8.28757 16.2814 6.67875 18.3602M9.53622 21.6C11.4967 18.8596 12.5472 15.6027 12.5472 12.2647V10.0621M14.2946 20.5851C15.0067 19.8 16.2067 16.2 16.2067 13.8M19.4265 18.4839C20.077 16.3624 20.3935 12.2518 20.3935 10.0407C20.3935 5.83193 16.8858 2.41283 12.5472 2.40002H12.5253C11.145 2.40002 9.78677 2.75431 8.58676 3.42447" stroke="#2C2920" stroke-width="1.5" stroke-linecap="square" stroke-linejoin="round"/>
</svg>
