<svg width="24" height="24" viewBox="0 0 24 24" fill="none" xmlns="http://www.w3.org/2000/svg">
<path d="M8.15801 6.5004C7.37399 7.13533 6.74113 7.941 6.30641 8.85762C5.87168 9.77426 5.64625 10.7783 5.64684 11.7953C5.64997 14.2754 5.08714 16.7228 4.00233 18.946M13.3587 22.8C14.9614 19.3593 16.0155 13.3496 15.779 11.7953C15.4864 9.87287 14.5653 8.33671 12.3436 8.33671C9.79791 8.33671 9.0222 10.9233 9.0222 12.0222M22.175 18.3063C22.5895 16.1614 22.7988 13.9809 22.7999 11.7953C22.7999 8.98527 21.6982 6.29027 19.7372 4.30328C17.7762 2.31629 15.1165 1.20001 12.3432 1.20001C9.56991 1.20001 6.9102 2.31629 4.94919 4.30328C2.98818 6.29027 1.8865 8.98521 1.8865 11.7952C1.8876 13.1888 1.65546 14.5725 1.19995 15.8874M6.56599 21.2387C7.62591 19.3958 8.37957 17.3889 8.7968 15.2983M18.8152 15.502C18.967 14.2727 19.042 13.0339 19.0395 11.795C19.0395 9.99557 18.334 8.26986 17.0782 6.99747C15.8225 5.72512 14.1194 5.01017 12.3436 5.01017C12.0639 5.00823 11.7843 5.02442 11.5066 5.05866M18.1191 19.2073C17.9422 19.8884 17.7415 20.5703 17.5295 21.2387M9.81188 22.2963C11.1456 19.8872 12.3487 15.8952 12.3487 11.8321" stroke="#2C2920" stroke-width="1.5" stroke-linecap="square" stroke-linejoin="round"/>
</svg>
