<svg width="24" height="24" viewBox="0 0 24 24" fill="none" xmlns="http://www.w3.org/2000/svg">
<path d="M14.1483 18.3204L12.0933 21.3198C11.7405 21.8284 10.9102 21.6 10.9102 20.9877L10.8998 15.1343C10.8998 14.4597 10.329 13.92 9.6233 13.9096L5.4408 13.8578C4.93226 13.8474 4.63129 13.3181 4.91151 12.9133L6.60319 10.4536M8.35714 7.86941L11.9065 2.68022C12.2594 2.17168 13.0897 2.40001 13.0897 3.01233L13.1 8.86575C13.1 9.54035 13.6709 10.08 14.3766 10.0904L18.5591 10.1423C19.0676 10.1527 19.3686 10.682 19.0884 11.0867L15.8296 15.84M20.4001 20.3997L3.6001 3.59974" stroke="#2C2920" stroke-width="1.5" stroke-linecap="square" stroke-linejoin="round"/>
</svg>
