<svg width="24" height="24" viewBox="0 0 24 24" fill="none" xmlns="http://www.w3.org/2000/svg">
<path d="M5.39974 5.32947V3.52947C5.39974 2.86673 5.937 2.32947 6.59974 2.32947H17.9997C18.6625 2.32947 19.1997 2.86673 19.1997 3.52947V8.32947M2.40068 19.2705L2.40077 10.1462C2.40078 9.23223 2.40044 7.9305 2.40015 6.98795C2.39994 6.32503 2.93728 5.78826 3.60019 5.78826H9.31841L12.0834 8.74189H20.3997C21.0625 8.74189 21.5997 9.27917 21.5997 9.94193L21.5994 19.2706C21.5994 20.5961 20.5249 21.6705 19.1994 21.6705L4.80068 21.6705C3.47519 21.6705 2.40067 20.596 2.40068 19.2705Z" stroke="#2C2920" stroke-width="1.5" stroke-linecap="square" stroke-linejoin="round"/>
</svg>
