<svg width="24" height="24" viewBox="0 0 24 24" fill="none" xmlns="http://www.w3.org/2000/svg">
<path d="M9.87847 8.19995V8.94995H11.3785V8.19995H9.87847ZM9.86957 16.3305L10.3999 16.8608L11.4606 15.8001L10.9302 15.2698L9.86957 16.3305ZM8.3999 13.8001L7.86957 13.2698C7.57668 13.5627 7.57668 14.0376 7.86957 14.3305L8.3999 13.8001ZM10.9302 12.3305L11.4606 11.8001L10.3999 10.7395L9.86957 11.2698L10.9302 12.3305ZM14.1302 11.2698L13.5999 10.7395L12.5392 11.8001L13.0696 12.3305L14.1302 11.2698ZM15.5999 13.8001L16.1302 14.3305C16.4231 14.0376 16.4231 13.5627 16.1302 13.2698L15.5999 13.8001ZM13.0696 15.2698L12.5392 15.8001L13.5999 16.8608L14.1302 16.3305L13.0696 15.2698ZM3.77133 4.19995V4.94995H9.25704V4.19995V3.44995H3.77133V4.19995ZM10.6285 5.59995H9.87847V7.99995H10.6285H11.3785V5.59995H10.6285ZM10.6285 7.99995H9.87847V8.19995H10.6285H11.3785V7.99995H10.6285ZM9.25704 4.19995V4.94995C9.58575 4.94995 9.87847 5.22631 9.87847 5.59995H10.6285H11.3785C11.3785 4.42719 10.4432 3.44995 9.25704 3.44995V4.19995ZM3.77133 4.19995V3.44995C2.58519 3.44995 1.6499 4.42719 1.6499 5.59995H2.3999H3.1499C3.1499 5.22631 3.44263 4.94995 3.77133 4.94995V4.19995ZM2.3999 7.99995V8.74995H10.6285V7.99995V7.24995H2.3999V7.99995ZM10.6285 7.99995V8.74995H20.2285V7.99995V7.24995H10.6285V7.99995ZM21.5999 9.39995H20.8499V18.4H21.5999H22.3499V9.39995H21.5999ZM20.2285 19.8V19.05H3.77133V19.8V20.5499H20.2285V19.8ZM2.3999 18.4H3.1499V7.99995H2.3999H1.6499V18.4H2.3999ZM3.77133 19.8V19.05C3.44263 19.05 3.1499 18.7736 3.1499 18.4H2.3999H1.6499C1.6499 19.5727 2.58519 20.5499 3.77133 20.5499V19.8ZM21.5999 18.4H20.8499C20.8499 18.7736 20.5572 19.05 20.2285 19.05V19.8V20.5499C21.4146 20.5499 22.3499 19.5727 22.3499 18.4H21.5999ZM20.2285 7.99995V8.74995C20.5572 8.74995 20.8499 9.02631 20.8499 9.39995H21.5999H22.3499C22.3499 8.22719 21.4146 7.24995 20.2285 7.24995V7.99995ZM10.3999 15.8001L10.9302 15.2698L8.93023 13.2698L8.3999 13.8001L7.86957 14.3305L9.86957 16.3305L10.3999 15.8001ZM8.3999 13.8001L8.93023 14.3305L10.9302 12.3305L10.3999 11.8001L9.86957 11.2698L7.86957 13.2698L8.3999 13.8001ZM13.5999 11.8001L13.0696 12.3305L15.0696 14.3305L15.5999 13.8001L16.1302 13.2698L14.1302 11.2698L13.5999 11.8001ZM15.5999 13.8001L15.0696 13.2698L13.0696 15.2698L13.5999 15.8001L14.1302 16.3305L16.1302 14.3305L15.5999 13.8001ZM2.3999 7.99995H3.1499V5.59995H2.3999H1.6499V7.99995H2.3999Z" fill="#2C2920"/>
</svg>
