<svg width="24" height="24" viewBox="0 0 24 24" fill="none" xmlns="http://www.w3.org/2000/svg">
<path d="M19.5788 10.4842V7.44207C19.5788 6.88979 19.1311 6.44207 18.5788 6.44207H11.9089C11.6436 6.44207 11.3893 6.33672 11.2017 6.14918L9.76648 4.71391C9.57894 4.52638 9.32459 4.42102 9.05937 4.42102H3.3999C2.84762 4.42102 2.3999 4.86874 2.3999 5.42102V18.5789C2.3999 19.1312 2.84762 19.5789 3.3999 19.5789H4.57607C5.0485 19.5789 5.43148 19.1959 5.43148 18.7235V18.7235C5.43148 18.6209 5.44993 18.5192 5.48595 18.4232L8.21973 11.1331C8.36609 10.7428 8.73922 10.4842 9.15606 10.4842H20.2125C20.895 10.4842 21.377 11.1529 21.1612 11.8004L18.7962 18.8951C18.6601 19.3035 18.278 19.5789 17.8476 19.5789H4.42095" stroke="#2C2920" stroke-width="1.5" stroke-linecap="square" stroke-linejoin="round"/>
</svg>
