<svg width="24" height="24" viewBox="0 0 24 24" fill="none" xmlns="http://www.w3.org/2000/svg">
<path d="M21.5997 9.20002L22.3497 9.19999V9.19998L21.5997 9.20002ZM21.6001 18.7999L20.8501 18.7999V18.7999L21.6001 18.7999ZM2.39966 18.7999L1.64966 18.7998L2.39966 18.7999ZM19.1997 6.80013L19.1997 6.05013L19.1997 6.80013ZM9.97395 3.82368L10.5884 3.39358V3.39358L9.97395 3.82368ZM9.00078 11.2552L8.66537 10.5844C8.41128 10.7114 8.25078 10.9711 8.25078 11.2552H9.00078ZM12.0008 17.7552L11.6003 18.3894C11.8449 18.5438 12.1566 18.5438 12.4013 18.3894L12.0008 17.7552ZM15.0008 11.2552H15.7508C15.7508 10.9711 15.5903 10.7114 15.3362 10.5844L15.0008 11.2552ZM10.3908 10.5602L10.7262 11.231L10.3908 10.5602ZM13.6108 10.5602L13.2753 11.231L13.6108 10.5602ZM3.77165 2.79999V3.54999H8.00779V2.79999V2.04999H3.77165V2.79999ZM2.40023 6.79999H3.15023V4.19999H2.40023H1.65023V6.79999H2.40023ZM3.77165 2.79999V2.04999C2.58552 2.04999 1.65023 3.02723 1.65023 4.19999H2.40023H3.15023C3.15023 3.82635 3.44295 3.54999 3.77165 3.54999V2.79999ZM21.5997 9.20002L20.8497 9.20006L20.8501 18.7999L21.6001 18.7999L22.3501 18.7998L22.3497 9.19999L21.5997 9.20002ZM19.2001 21.2V20.45H4.79966V21.2V21.95H19.2001V21.2ZM2.39966 18.7999L3.14966 18.7999L3.15023 6.80002L2.40023 6.79999L1.65023 6.79995L1.64966 18.7998L2.39966 18.7999ZM19.1997 6.80013L19.1997 6.05013L12.0574 6.04999L12.0574 6.79999L12.0574 7.54999L19.1997 7.55013L19.1997 6.80013ZM9.97395 3.82368L9.35953 4.25377L11.4429 7.23008L12.0574 6.79999L12.6718 6.36989L10.5884 3.39358L9.97395 3.82368ZM21.6001 18.7999L20.8501 18.7999C20.8502 19.7112 20.1114 20.45 19.2001 20.45V21.2V21.95C20.9399 21.95 22.3502 20.5396 22.3501 18.7998L21.6001 18.7999ZM4.79966 21.2V20.45C3.88836 20.45 3.14962 19.7112 3.14966 18.7999L2.39966 18.7999L1.64966 18.7998C1.64958 20.5396 3.0599 21.95 4.79966 21.95V21.2ZM21.5997 9.20002L22.3497 9.19998C22.3496 7.46037 20.9393 6.05017 19.1997 6.05013L19.1997 6.80013L19.1997 7.55013C20.1109 7.55015 20.8496 8.28883 20.8497 9.20006L21.5997 9.20002ZM8.00779 2.79999V3.54999C8.54621 3.54999 9.05076 3.81269 9.35953 4.25378L9.97395 3.82368L10.5884 3.39358C9.99892 2.5515 9.03568 2.04999 8.00779 2.04999V2.79999ZM10.3908 10.5602L10.0554 9.88939L8.66537 10.5844L9.00078 11.2552L9.33619 11.926L10.7262 11.231L10.3908 10.5602ZM9.00078 11.2552H8.25078V14.6002H9.00078H9.75078V11.2552H9.00078ZM9.00078 14.6002H8.25078C8.25078 15.3478 8.68455 16.0125 9.23836 16.5822C9.80752 17.1678 10.6151 17.7672 11.6003 18.3894L12.0008 17.7552L12.4013 17.1211C11.4541 16.5229 10.7617 15.9974 10.314 15.5367C9.85085 15.0603 9.75078 14.7576 9.75078 14.6002H9.00078ZM12.0008 17.7552L12.4013 18.3894C13.357 17.7858 14.1738 17.2466 14.7469 16.6923C15.3404 16.1181 15.7508 15.4525 15.7508 14.6002H15.0008H14.2508C14.2508 14.903 14.1273 15.2047 13.704 15.6142C13.2601 16.0435 12.5769 16.5044 11.6003 17.1211L12.0008 17.7552ZM15.0008 14.6002H15.7508C15.7508 14.598 15.7508 14.5957 15.7508 14.5934C15.7508 14.5912 15.7508 14.5889 15.7508 14.5866C15.7508 14.5844 15.7508 14.5821 15.7508 14.5798C15.7508 14.5775 15.7508 14.5752 15.7508 14.573C15.7508 14.5707 15.7508 14.5684 15.7508 14.5661C15.7508 14.5638 15.7508 14.5615 15.7508 14.5592C15.7508 14.5569 15.7508 14.5546 15.7508 14.5523C15.7508 14.55 15.7508 14.5477 15.7508 14.5453C15.7508 14.543 15.7508 14.5407 15.7508 14.5384C15.7508 14.536 15.7508 14.5337 15.7508 14.5314C15.7508 14.5291 15.7508 14.5267 15.7508 14.5244C15.7508 14.522 15.7508 14.5197 15.7508 14.5173C15.7508 14.515 15.7508 14.5126 15.7508 14.5103C15.7508 14.5079 15.7508 14.5056 15.7508 14.5032C15.7508 14.5009 15.7508 14.4985 15.7508 14.4961C15.7508 14.4938 15.7508 14.4914 15.7508 14.489C15.7508 14.4866 15.7508 14.4843 15.7508 14.4819C15.7508 14.4795 15.7508 14.4771 15.7508 14.4747C15.7508 14.4723 15.7508 14.4699 15.7508 14.4675C15.7508 14.4651 15.7508 14.4627 15.7508 14.4603C15.7508 14.4579 15.7508 14.4555 15.7508 14.4531C15.7508 14.4507 15.7508 14.4483 15.7508 14.4459C15.7508 14.4434 15.7508 14.441 15.7508 14.4386C15.7508 14.4362 15.7508 14.4337 15.7508 14.4313C15.7508 14.4289 15.7508 14.4264 15.7508 14.424C15.7508 14.4216 15.7508 14.4191 15.7508 14.4167C15.7508 14.4142 15.7508 14.4118 15.7508 14.4093C15.7508 14.4069 15.7508 14.4044 15.7508 14.402C15.7508 14.3995 15.7508 14.3971 15.7508 14.3946C15.7508 14.3921 15.7508 14.3897 15.7508 14.3872C15.7508 14.3847 15.7508 14.3822 15.7508 14.3798C15.7508 14.3773 15.7508 14.3748 15.7508 14.3723C15.7508 14.3698 15.7508 14.3673 15.7508 14.3649C15.7508 14.3624 15.7508 14.3599 15.7508 14.3574C15.7508 14.3549 15.7508 14.3524 15.7508 14.3499C15.7508 14.3474 15.7508 14.3449 15.7508 14.3424C15.7508 14.3398 15.7508 14.3373 15.7508 14.3348C15.7508 14.3323 15.7508 14.3298 15.7508 14.3273C15.7508 14.3247 15.7508 14.3222 15.7508 14.3197C15.7508 14.3172 15.7508 14.3146 15.7508 14.3121C15.7508 14.3096 15.7508 14.307 15.7508 14.3045C15.7508 14.302 15.7508 14.2994 15.7508 14.2969C15.7508 14.2943 15.7508 14.2918 15.7508 14.2892C15.7508 14.2867 15.7508 14.2841 15.7508 14.2816C15.7508 14.279 15.7508 14.2764 15.7508 14.2739C15.7508 14.2713 15.7508 14.2688 15.7508 14.2662C15.7508 14.2636 15.7508 14.261 15.7508 14.2585C15.7508 14.2559 15.7508 14.2533 15.7508 14.2507C15.7508 14.2482 15.7508 14.2456 15.7508 14.243C15.7508 14.2404 15.7508 14.2378 15.7508 14.2352C15.7508 14.2326 15.7508 14.2301 15.7508 14.2275C15.7508 14.2249 15.7508 14.2223 15.7508 14.2197C15.7508 14.2171 15.7508 14.2145 15.7508 14.2118C15.7508 14.2092 15.7508 14.2066 15.7508 14.204C15.7508 14.2014 15.7508 14.1988 15.7508 14.1962C15.7508 14.1936 15.7508 14.1909 15.7508 14.1883C15.7508 14.1857 15.7508 14.1831 15.7508 14.1804C15.7508 14.1778 15.7508 14.1752 15.7508 14.1725C15.7508 14.1699 15.7508 14.1673 15.7508 14.1646C15.7508 14.162 15.7508 14.1594 15.7508 14.1567C15.7508 14.1541 15.7508 14.1514 15.7508 14.1488C15.7508 14.1461 15.7508 14.1435 15.7508 14.1408C15.7508 14.1382 15.7508 14.1355 15.7508 14.1329C15.7508 14.1302 15.7508 14.1275 15.7508 14.1249C15.7508 14.1222 15.7508 14.1196 15.7508 14.1169C15.7508 14.1142 15.7508 14.1115 15.7508 14.1089C15.7508 14.1062 15.7508 14.1035 15.7508 14.1009C15.7508 14.0982 15.7508 14.0955 15.7508 14.0928C15.7508 14.0901 15.7508 14.0874 15.7508 14.0848C15.7508 14.0821 15.7508 14.0794 15.7508 14.0767C15.7508 14.074 15.7508 14.0713 15.7508 14.0686C15.7508 14.0659 15.7508 14.0632 15.7508 14.0605C15.7508 14.0578 15.7508 14.0551 15.7508 14.0524C15.7508 14.0497 15.7508 14.047 15.7508 14.0443C15.7508 14.0416 15.7508 14.0389 15.7508 14.0362C15.7508 14.0335 15.7508 14.0307 15.7508 14.028C15.7508 14.0253 15.7508 14.0226 15.7508 14.0199C15.7508 14.0171 15.7508 14.0144 15.7508 14.0117C15.7508 14.009 15.7508 14.0062 15.7508 14.0035C15.7508 14.0008 15.7508 13.998 15.7508 13.9953C15.7508 13.9926 15.7508 13.9898 15.7508 13.9871C15.7508 13.9844 15.7508 13.9816 15.7508 13.9789C15.7508 13.9761 15.7508 13.9734 15.7508 13.9707C15.7508 13.9679 15.7508 13.9652 15.7508 13.9624C15.7508 13.9597 15.7508 13.9569 15.7508 13.9542C15.7508 13.9514 15.7508 13.9486 15.7508 13.9459C15.7508 13.9431 15.7508 13.9404 15.7508 13.9376C15.7508 13.9349 15.7508 13.9321 15.7508 13.9293C15.7508 13.9266 15.7508 13.9238 15.7508 13.921C15.7508 13.9183 15.7508 13.9155 15.7508 13.9127C15.7508 13.9099 15.7508 13.9072 15.7508 13.9044C15.7508 13.9016 15.7508 13.8988 15.7508 13.8961C15.7508 13.8933 15.7508 13.8905 15.7508 13.8877C15.7508 13.8849 15.7508 13.8822 15.7508 13.8794C15.7508 13.8766 15.7508 13.8738 15.7508 13.871C15.7508 13.8682 15.7508 13.8654 15.7508 13.8626C15.7508 13.8598 15.7508 13.857 15.7508 13.8542C15.7508 13.8515 15.7508 13.8487 15.7508 13.8459C15.7508 13.8431 15.7508 13.8403 15.7508 13.8375C15.7508 13.8347 15.7508 13.8319 15.7508 13.829C15.7508 13.8262 15.7508 13.8234 15.7508 13.8206C15.7508 13.8178 15.7508 13.815 15.7508 13.8122C15.7508 13.8094 15.7508 13.8066 15.7508 13.8038C15.7508 13.8009 15.7508 13.7981 15.7508 13.7953C15.7508 13.7925 15.7508 13.7897 15.7508 13.7869C15.7508 13.784 15.7508 13.7812 15.7508 13.7784C15.7508 13.7756 15.7508 13.7727 15.7508 13.7699C15.7508 13.7671 15.7508 13.7643 15.7508 13.7614C15.7508 13.7586 15.7508 13.7558 15.7508 13.7529C15.7508 13.7501 15.7508 13.7473 15.7508 13.7444C15.7508 13.7416 15.7508 13.7388 15.7508 13.7359C15.7508 13.7331 15.7508 13.7303 15.7508 13.7274C15.7508 13.7246 15.7508 13.7218 15.7508 13.7189C15.7508 13.7161 15.7508 13.7132 15.7508 13.7104C15.7508 13.7075 15.7508 13.7047 15.7508 13.7018C15.7508 13.699 15.7508 13.6962 15.7508 13.6933C15.7508 13.6905 15.7508 13.6876 15.7508 13.6848C15.7508 13.6819 15.7508 13.6791 15.7508 13.6762C15.7508 13.6733 15.7508 13.6705 15.7508 13.6676C15.7508 13.6648 15.7508 13.6619 15.7508 13.6591C15.7508 13.6562 15.7508 13.6534 15.7508 13.6505C15.7508 13.6476 15.7508 13.6448 15.7508 13.6419C15.7508 13.6391 15.7508 13.6362 15.7508 13.6333C15.7508 13.6305 15.7508 13.6276 15.7508 13.6247C15.7508 13.6219 15.7508 13.619 15.7508 13.6161C15.7508 13.6133 15.7508 13.6104 15.7508 13.6075C15.7508 13.6047 15.7508 13.6018 15.7508 13.5989C15.7508 13.596 15.7508 13.5932 15.7508 13.5903C15.7508 13.5874 15.7508 13.5846 15.7508 13.5817C15.7508 13.5788 15.7508 13.5759 15.7508 13.5731C15.7508 13.5702 15.7508 13.5673 15.7508 13.5644C15.7508 13.5615 15.7508 13.5587 15.7508 13.5558C15.7508 13.5529 15.7508 13.55 15.7508 13.5471C15.7508 13.5443 15.7508 13.5414 15.7508 13.5385C15.7508 13.5356 15.7508 13.5327 15.7508 13.5298C15.7508 13.527 15.7508 13.5241 15.7508 13.5212C15.7508 13.5183 15.7508 13.5154 15.7508 13.5125C15.7508 13.5096 15.7508 13.5068 15.7508 13.5039C15.7508 13.501 15.7508 13.4981 15.7508 13.4952C15.7508 13.4923 15.7508 13.4894 15.7508 13.4865C15.7508 13.4836 15.7508 13.4808 15.7508 13.4779C15.7508 13.475 15.7508 13.4721 15.7508 13.4692C15.7508 13.4663 15.7508 13.4634 15.7508 13.4605C15.7508 13.4576 15.7508 13.4547 15.7508 13.4518C15.7508 13.4489 15.7508 13.446 15.7508 13.4431C15.7508 13.4402 15.7508 13.4374 15.7508 13.4345C15.7508 13.4316 15.7508 13.4287 15.7508 13.4258C15.7508 13.4229 15.7508 13.42 15.7508 13.4171C15.7508 13.4142 15.7508 13.4113 15.7508 13.4084C15.7508 13.4055 15.7508 13.4026 15.7508 13.3997C15.7508 13.3968 15.7508 13.3939 15.7508 13.391C15.7508 13.3881 15.7508 13.3852 15.7508 13.3823C15.7508 13.3794 15.7508 13.3765 15.7508 13.3736C15.7508 13.3707 15.7508 13.3678 15.7508 13.3649C15.7508 13.362 15.7508 13.3591 15.7508 13.3562C15.7508 13.3533 15.7508 13.3504 15.7508 13.3474C15.7508 13.3445 15.7508 13.3416 15.7508 13.3387C15.7508 13.3358 15.7508 13.3329 15.7508 13.33C15.7508 13.3271 15.7508 13.3242 15.7508 13.3213C15.7508 13.3184 15.7508 13.3155 15.7508 13.3126C15.7508 13.3097 15.7508 13.3068 15.7508 13.3039C15.7508 13.301 15.7508 13.2981 15.7508 13.2952C15.7508 13.2923 15.7508 13.2894 15.7508 13.2865C15.7508 13.2836 15.7508 13.2807 15.7508 13.2778C15.7508 13.2748 15.7508 13.2719 15.7508 13.269C15.7508 13.2661 15.7508 13.2632 15.7508 13.2603C15.7508 13.2574 15.7508 13.2545 15.7508 13.2516C15.7508 13.2487 15.7508 13.2458 15.7508 13.2429C15.7508 13.24 15.7508 13.2371 15.7508 13.2342C15.7508 13.2313 15.7508 13.2284 15.7508 13.2255C15.7508 13.2226 15.7508 13.2197 15.7508 13.2168C15.7508 13.2139 15.7508 13.211 15.7508 13.2081C15.7508 13.2051 15.7508 13.2022 15.7508 13.1993C15.7508 13.1964 15.7508 13.1935 15.7508 13.1906C15.7508 13.1877 15.7508 13.1848 15.7508 13.1819C15.7508 13.179 15.7508 13.1761 15.7508 13.1732C15.7508 13.1703 15.7508 13.1674 15.7508 13.1645C15.7508 13.1616 15.7508 13.1587 15.7508 13.1558C15.7508 13.1529 15.7508 13.15 15.7508 13.1471C15.7508 13.1442 15.7508 13.1413 15.7508 13.1384C15.7508 13.1355 15.7508 13.1326 15.7508 13.1297C15.7508 13.1268 15.7508 13.1239 15.7508 13.121C15.7508 13.1181 15.7508 13.1152 15.7508 13.1123C15.7508 13.1094 15.7508 13.1066 15.7508 13.1037C15.7508 13.1008 15.7508 13.0979 15.7508 13.095C15.7508 13.0921 15.7508 13.0892 15.7508 13.0863C15.7508 13.0834 15.7508 13.0805 15.7508 13.0776C15.7508 13.0747 15.7508 13.0718 15.7508 13.0689C15.7508 13.066 15.7508 13.0632 15.7508 13.0603C15.7508 13.0574 15.7508 13.0545 15.7508 13.0516C15.7508 13.0487 15.7508 13.0458 15.7508 13.0429C15.7508 13.04 15.7508 13.0372 15.7508 13.0343C15.7508 13.0314 15.7508 13.0285 15.7508 13.0256C15.7508 13.0227 15.7508 13.0198 15.7508 13.017C15.7508 13.0141 15.7508 13.0112 15.7508 13.0083C15.7508 13.0054 15.7508 13.0026 15.7508 12.9997C15.7508 12.9968 15.7508 12.9939 15.7508 12.991C15.7508 12.9882 15.7508 12.9853 15.7508 12.9824C15.7508 12.9795 15.7508 12.9766 15.7508 12.9738C15.7508 12.9709 15.7508 12.968 15.7508 12.9651C15.7508 12.9623 15.7508 12.9594 15.7508 12.9565C15.7508 12.9537 15.7508 12.9508 15.7508 12.9479C15.7508 12.945 15.7508 12.9422 15.7508 12.9393C15.7508 12.9364 15.7508 12.9336 15.7508 12.9307C15.7508 12.9278 15.7508 12.925 15.7508 12.9221C15.7508 12.9192 15.7508 12.9164 15.7508 12.9135C15.7508 12.9106 15.7508 12.9078 15.7508 12.9049C15.7508 12.9021 15.7508 12.8992 15.7508 12.8963C15.7508 12.8935 15.7508 12.8906 15.7508 12.8878C15.7508 12.8849 15.7508 12.8821 15.7508 12.8792C15.7508 12.8764 15.7508 12.8735 15.7508 12.8706C15.7508 12.8678 15.7508 12.8649 15.7508 12.8621C15.7508 12.8592 15.7508 12.8564 15.7508 12.8535C15.7508 12.8507 15.7508 12.8479 15.7508 12.845C15.7508 12.8422 15.7508 12.8393 15.7508 12.8365C15.7508 12.8336 15.7508 12.8308 15.7508 12.8279C15.7508 12.8251 15.7508 12.8223 15.7508 12.8194C15.7508 12.8166 15.7508 12.8138 15.7508 12.8109C15.7508 12.8081 15.7508 12.8053 15.7508 12.8024C15.7508 12.7996 15.7508 12.7968 15.7508 12.7939C15.7508 12.7911 15.7508 12.7883 15.7508 12.7854C15.7508 12.7826 15.7508 12.7798 15.7508 12.777C15.7508 12.7741 15.7508 12.7713 15.7508 12.7685C15.7508 12.7657 15.7508 12.7628 15.7508 12.76C15.7508 12.7572 15.7508 12.7544 15.7508 12.7516C15.7508 12.7488 15.7508 12.7459 15.7508 12.7431C15.7508 12.7403 15.7508 12.7375 15.7508 12.7347C15.7508 12.7319 15.7508 12.7291 15.7508 12.7263C15.7508 12.7235 15.7508 12.7207 15.7508 12.7179C15.7508 12.7151 15.7508 12.7122 15.7508 12.7094C15.7508 12.7066 15.7508 12.7038 15.7508 12.701C15.7508 12.6983 15.7508 12.6955 15.7508 12.6927C15.7508 12.6899 15.7508 12.6871 15.7508 12.6843C15.7508 12.6815 15.7508 12.6787 15.7508 12.6759C15.7508 12.6731 15.7508 12.6703 15.7508 12.6676C15.7508 12.6648 15.7508 12.662 15.7508 12.6592C15.7508 12.6564 15.7508 12.6536 15.7508 12.6509C15.7508 12.6481 15.7508 12.6453 15.7508 12.6425C15.7508 12.6398 15.7508 12.637 15.7508 12.6342C15.7508 12.6315 15.7508 12.6287 15.7508 12.6259C15.7508 12.6231 15.7508 12.6204 15.7508 12.6176C15.7508 12.6149 15.7508 12.6121 15.7508 12.6093C15.7508 12.6066 15.7508 12.6038 15.7508 12.6011C15.7508 12.5983 15.7508 12.5956 15.7508 12.5928C15.7508 12.59 15.7508 12.5873 15.7508 12.5846C15.7508 12.5818 15.7508 12.5791 15.7508 12.5763C15.7508 12.5736 15.7508 12.5708 15.7508 12.5681C15.7508 12.5653 15.7508 12.5626 15.7508 12.5599C15.7508 12.5571 15.7508 12.5544 15.7508 12.5517C15.7508 12.5489 15.7508 12.5462 15.7508 12.5435C15.7508 12.5407 15.7508 12.538 15.7508 12.5353C15.7508 12.5326 15.7508 12.5299 15.7508 12.5271C15.7508 12.5244 15.7508 12.5217 15.7508 12.519C15.7508 12.5163 15.7508 12.5135 15.7508 12.5108C15.7508 12.5081 15.7508 12.5054 15.7508 12.5027C15.7508 12.5 15.7508 12.4973 15.7508 12.4946C15.7508 12.4919 15.7508 12.4892 15.7508 12.4865C15.7508 12.4838 15.7508 12.4811 15.7508 12.4784C15.7508 12.4757 15.7508 12.473 15.7508 12.4703C15.7508 12.4676 15.7508 12.465 15.7508 12.4623C15.7508 12.4596 15.7508 12.4569 15.7508 12.4542C15.7508 12.4515 15.7508 12.4489 15.7508 12.4462C15.7508 12.4435 15.7508 12.4408 15.7508 12.4382C15.7508 12.4355 15.7508 12.4328 15.7508 12.4302C15.7508 12.4275 15.7508 12.4248 15.7508 12.4222C15.7508 12.4195 15.7508 12.4169 15.7508 12.4142C15.7508 12.4115 15.7508 12.4089 15.7508 12.4062C15.7508 12.4036 15.7508 12.4009 15.7508 12.3983C15.7508 12.3956 15.7508 12.393 15.7508 12.3904C15.7508 12.3877 15.7508 12.3851 15.7508 12.3824C15.7508 12.3798 15.7508 12.3772 15.7508 12.3745C15.7508 12.3719 15.7508 12.3693 15.7508 12.3667C15.7508 12.364 15.7508 12.3614 15.7508 12.3588C15.7508 12.3562 15.7508 12.3536 15.7508 12.3509C15.7508 12.3483 15.7508 12.3457 15.7508 12.3431C15.7508 12.3405 15.7508 12.3379 15.7508 12.3353C15.7508 12.3327 15.7508 12.3301 15.7508 12.3275C15.7508 12.3249 15.7508 12.3223 15.7508 12.3197C15.7508 12.3171 15.7508 12.3145 15.7508 12.3119C15.7508 12.3093 15.7508 12.3067 15.7508 12.3041C15.7508 12.3016 15.7508 12.299 15.7508 12.2964C15.7508 12.2938 15.7508 12.2913 15.7508 12.2887C15.7508 12.2861 15.7508 12.2835 15.7508 12.281C15.7508 12.2784 15.7508 12.2758 15.7508 12.2733C15.7508 12.2707 15.7508 12.2682 15.7508 12.2656C15.7508 12.2631 15.7508 12.2605 15.7508 12.258C15.7508 12.2554 15.7508 12.2529 15.7508 12.2503C15.7508 12.2478 15.7508 12.2452 15.7508 12.2427C15.7508 12.2402 15.7508 12.2376 15.7508 12.2351C15.7508 12.2326 15.7508 12.23 15.7508 12.2275C15.7508 12.225 15.7508 12.2225 15.7508 12.2199C15.7508 12.2174 15.7508 12.2149 15.7508 12.2124C15.7508 12.2099 15.7508 12.2074 15.7508 12.2049C15.7508 12.2024 15.7508 12.1999 15.7508 12.1974C15.7508 12.1949 15.7508 12.1924 15.7508 12.1899C15.7508 12.1874 15.7508 12.1849 15.7508 12.1824C15.7508 12.1799 15.7508 12.1774 15.7508 12.1749C15.7508 12.1725 15.7508 12.17 15.7508 12.1675C15.7508 12.165 15.7508 12.1626 15.7508 12.1601C15.7508 12.1576 15.7508 12.1552 15.7508 12.1527C15.7508 12.1502 15.7508 12.1478 15.7508 12.1453C15.7508 12.1429 15.7508 12.1404 15.7508 12.138C15.7508 12.1355 15.7508 12.1331 15.7508 12.1306C15.7508 12.1282 15.7508 12.1257 15.7508 12.1233C15.7508 12.1209 15.7508 12.1184 15.7508 12.116C15.7508 12.1136 15.7508 12.1111 15.7508 12.1087C15.7508 12.1063 15.7508 12.1039 15.7508 12.1015C15.7508 12.0991 15.7508 12.0966 15.7508 12.0942C15.7508 12.0918 15.7508 12.0894 15.7508 12.087C15.7508 12.0846 15.7508 12.0822 15.7508 12.0798C15.7508 12.0774 15.7508 12.075 15.7508 12.0727C15.7508 12.0703 15.7508 12.0679 15.7508 12.0655C15.7508 12.0631 15.7508 12.0607 15.7508 12.0584C15.7508 12.056 15.7508 12.0536 15.7508 12.0513C15.7508 12.0489 15.7508 12.0465 15.7508 12.0442C15.7508 12.0418 15.7508 12.0395 15.7508 12.0371C15.7508 12.0348 15.7508 12.0324 15.7508 12.0301C15.7508 12.0277 15.7508 12.0254 15.7508 12.023C15.7508 12.0207 15.7508 12.0184 15.7508 12.016C15.7508 12.0137 15.7508 12.0114 15.7508 12.0091C15.7508 12.0067 15.7508 12.0044 15.7508 12.0021C15.7508 11.9998 15.7508 11.9975 15.7508 11.9952C15.7508 11.9929 15.7508 11.9906 15.7508 11.9883C15.7508 11.986 15.7508 11.9837 15.7508 11.9814C15.7508 11.9791 15.7508 11.9768 15.7508 11.9745C15.7508 11.9722 15.7508 11.9699 15.7508 11.9677C15.7508 11.9654 15.7508 11.9631 15.7508 11.9609C15.7508 11.9586 15.7508 11.9563 15.7508 11.9541C15.7508 11.9518 15.7508 11.9495 15.7508 11.9473C15.7508 11.945 15.7508 11.9428 15.7508 11.9405C15.7508 11.9383 15.7508 11.9361 15.7508 11.9338C15.7508 11.9316 15.7508 11.9293 15.7508 11.9271C15.7508 11.9249 15.7508 11.9227 15.7508 11.9204C15.7508 11.9182 15.7508 11.916 15.7508 11.9138C15.7508 11.9116 15.7508 11.9094 15.7508 11.9072C15.7508 11.905 15.7508 11.9028 15.7508 11.9006C15.7508 11.8984 15.7508 11.8962 15.7508 11.894C15.7508 11.8918 15.7508 11.8896 15.7508 11.8874C15.7508 11.8853 15.7508 11.8831 15.7508 11.8809C15.7508 11.8787 15.7508 11.8766 15.7508 11.8744C15.7508 11.8722 15.7508 11.8701 15.7508 11.8679C15.7508 11.8658 15.7508 11.8636 15.7508 11.8615C15.7508 11.8593 15.7508 11.8572 15.7508 11.8551C15.7508 11.8529 15.7508 11.8508 15.7508 11.8487C15.7508 11.8465 15.7508 11.8444 15.7508 11.8423C15.7508 11.8402 15.7508 11.838 15.7508 11.8359C15.7508 11.8338 15.7508 11.8317 15.7508 11.8296C15.7508 11.8275 15.7508 11.8254 15.7508 11.8233C15.7508 11.8212 15.7508 11.8191 15.7508 11.817C15.7508 11.815 15.7508 11.8129 15.7508 11.8108C15.7508 11.8087 15.7508 11.8067 15.7508 11.8046C15.7508 11.8025 15.7508 11.8005 15.7508 11.7984C15.7508 11.7963 15.7508 11.7943 15.7508 11.7922C15.7508 11.7902 15.7508 11.7881 15.7508 11.7861C15.7508 11.7841 15.7508 11.782 15.7508 11.78C15.7508 11.778 15.7508 11.7759 15.7508 11.7739C15.7508 11.7719 15.7508 11.7699 15.7508 11.7679C15.7508 11.7659 15.7508 11.7639 15.7508 11.7618C15.7508 11.7598 15.7508 11.7578 15.7508 11.7559C15.7508 11.7539 15.7508 11.7519 15.7508 11.7499C15.7508 11.7479 15.7508 11.7459 15.7508 11.7439C15.7508 11.742 15.7508 11.74 15.7508 11.738C15.7508 11.7361 15.7508 11.7341 15.7508 11.7322C15.7508 11.7302 15.7508 11.7282 15.7508 11.7263C15.7508 11.7244 15.7508 11.7224 15.7508 11.7205C15.7508 11.7185 15.7508 11.7166 15.7508 11.7147C15.7508 11.7127 15.7508 11.7108 15.7508 11.7089C15.7508 11.707 15.7508 11.7051 15.7508 11.7032C15.7508 11.7013 15.7508 11.6994 15.7508 11.6975C15.7508 11.6956 15.7508 11.6937 15.7508 11.6918C15.7508 11.6899 15.7508 11.688 15.7508 11.6861C15.7508 11.6843 15.7508 11.6824 15.7508 11.6805C15.7508 11.6786 15.7508 11.6768 15.7508 11.6749C15.7508 11.6731 15.7508 11.6712 15.7508 11.6694C15.7508 11.6675 15.7508 11.6657 15.7508 11.6638C15.7508 11.662 15.7508 11.6602 15.7508 11.6583C15.7508 11.6565 15.7508 11.6547 15.7508 11.6529C15.7508 11.6511 15.7508 11.6492 15.7508 11.6474C15.7508 11.6456 15.7508 11.6438 15.7508 11.642C15.7508 11.6402 15.7508 11.6384 15.7508 11.6366C15.7508 11.6349 15.7508 11.6331 15.7508 11.6313C15.7508 11.6295 15.7508 11.6278 15.7508 11.626C15.7508 11.6242 15.7508 11.6225 15.7508 11.6207C15.7508 11.619 15.7508 11.6172 15.7508 11.6155C15.7508 11.6137 15.7508 11.612 15.7508 11.6102C15.7508 11.6085 15.7508 11.6068 15.7508 11.605C15.7508 11.6033 15.7508 11.6016 15.7508 11.5999C15.7508 11.5982 15.7508 11.5965 15.7508 11.5948C15.7508 11.5931 15.7508 11.5914 15.7508 11.5897C15.7508 11.588 15.7508 11.5863 15.7508 11.5846C15.7508 11.5829 15.7508 11.5813 15.7508 11.5796C15.7508 11.5779 15.7508 11.5763 15.7508 11.5746C15.7508 11.5729 15.7508 11.5713 15.7508 11.5696C15.7508 11.568 15.7508 11.5663 15.7508 11.5647C15.7508 11.5631 15.7508 11.5614 15.7508 11.5598C15.7508 11.5582 15.7508 11.5566 15.7508 11.555C15.7508 11.5533 15.7508 11.5517 15.7508 11.5501C15.7508 11.5485 15.7508 11.5469 15.7508 11.5453C15.7508 11.5437 15.7508 11.5422 15.7508 11.5406C15.7508 11.539 15.7508 11.5374 15.7508 11.5358C15.7508 11.5343 15.7508 11.5327 15.7508 11.5312C15.7508 11.5296 15.7508 11.528 15.7508 11.5265C15.7508 11.5249 15.7508 11.5234 15.7508 11.5219C15.7508 11.5203 15.7508 11.5188 15.7508 11.5173C15.7508 11.5158 15.7508 11.5142 15.7508 11.5127C15.7508 11.5112 15.7508 11.5097 15.7508 11.5082C15.7508 11.5067 15.7508 11.5052 15.7508 11.5037C15.7508 11.5022 15.7508 11.5007 15.7508 11.4993C15.7508 11.4978 15.7508 11.4963 15.7508 11.4949C15.7508 11.4934 15.7508 11.4919 15.7508 11.4905C15.7508 11.489 15.7508 11.4876 15.7508 11.4861C15.7508 11.4847 15.7508 11.4832 15.7508 11.4818C15.7508 11.4804 15.7508 11.479 15.7508 11.4775C15.7508 11.4761 15.7508 11.4747 15.7508 11.4733C15.7508 11.4719 15.7508 11.4705 15.7508 11.4691C15.7508 11.4677 15.7508 11.4663 15.7508 11.4649C15.7508 11.4636 15.7508 11.4622 15.7508 11.4608C15.7508 11.4594 15.7508 11.4581 15.7508 11.4567C15.7508 11.4554 15.7508 11.454 15.7508 11.4527C15.7508 11.4513 15.7508 11.45 15.7508 11.4486C15.7508 11.4473 15.7508 11.446 15.7508 11.4447C15.7508 11.4433 15.7508 11.442 15.7508 11.4407C15.7508 11.4394 15.7508 11.4381 15.7508 11.4368C15.7508 11.4355 15.7508 11.4342 15.7508 11.4329C15.7508 11.4316 15.7508 11.4304 15.7508 11.4291C15.7508 11.4278 15.7508 11.4266 15.7508 11.4253C15.7508 11.424 15.7508 11.4228 15.7508 11.4215C15.7508 11.4203 15.7508 11.4191 15.7508 11.4178C15.7508 11.4166 15.7508 11.4154 15.7508 11.4141C15.7508 11.4129 15.7508 11.4117 15.7508 11.4105C15.7508 11.4093 15.7508 11.4081 15.7508 11.4069C15.7508 11.4057 15.7508 11.4045 15.7508 11.4033C15.7508 11.4021 15.7508 11.401 15.7508 11.3998C15.7508 11.3986 15.7508 11.3975 15.7508 11.3963C15.7508 11.3951 15.7508 11.394 15.7508 11.3928C15.7508 11.3917 15.7508 11.3906 15.7508 11.3894C15.7508 11.3883 15.7508 11.3872 15.7508 11.3861C15.7508 11.3849 15.7508 11.3838 15.7508 11.3827C15.7508 11.3816 15.7508 11.3805 15.7508 11.3794C15.7508 11.3783 15.7508 11.3773 15.7508 11.3762C15.7508 11.3751 15.7508 11.374 15.7508 11.373C15.7508 11.3719 15.7508 11.3708 15.7508 11.3698C15.7508 11.3687 15.7508 11.3677 15.7508 11.3667C15.7508 11.3656 15.7508 11.3646 15.7508 11.3636C15.7508 11.3625 15.7508 11.3615 15.7508 11.3605C15.7508 11.3595 15.7508 11.3585 15.7508 11.3575C15.7508 11.3565 15.7508 11.3555 15.7508 11.3545C15.7508 11.3535 15.7508 11.3525 15.7508 11.3516C15.7508 11.3506 15.7508 11.3496 15.7508 11.3487C15.7508 11.3477 15.7508 11.3468 15.7508 11.3458C15.7508 11.3449 15.7508 11.344 15.7508 11.343C15.7508 11.3421 15.7508 11.3412 15.7508 11.3403C15.7508 11.3393 15.7508 11.3384 15.7508 11.3375C15.7508 11.3366 15.7508 11.3357 15.7508 11.3348C15.7508 11.334 15.7508 11.3331 15.7508 11.3322C15.7508 11.3313 15.7508 11.3305 15.7508 11.3296C15.7508 11.3287 15.7508 11.3279 15.7508 11.327C15.7508 11.3262 15.7508 11.3254 15.7508 11.3245C15.7508 11.3237 15.7508 11.3229 15.7508 11.322C15.7508 11.3212 15.7508 11.3204 15.7508 11.3196C15.7508 11.3188 15.7508 11.318 15.7508 11.3172C15.7508 11.3164 15.7508 11.3156 15.7508 11.3149C15.7508 11.3141 15.7508 11.3133 15.7508 11.3126C15.7508 11.3118 15.7508 11.3111 15.7508 11.3103C15.7508 11.3096 15.7508 11.3088 15.7508 11.3081C15.7508 11.3074 15.7508 11.3066 15.7508 11.3059C15.7508 11.3052 15.7508 11.3045 15.7508 11.3038C15.7508 11.3031 15.7508 11.3024 15.7508 11.3017C15.7508 11.301 15.7508 11.3003 15.7508 11.2997C15.7508 11.299 15.7508 11.2983 15.7508 11.2977C15.7508 11.297 15.7508 11.2963 15.7508 11.2957C15.7508 11.2951 15.7508 11.2944 15.7508 11.2938C15.7508 11.2932 15.7508 11.2925 15.7508 11.2919C15.7508 11.2913 15.7508 11.2907 15.7508 11.2901C15.7508 11.2895 15.7508 11.2889 15.7508 11.2883C15.7508 11.2877 15.7508 11.2872 15.7508 11.2866C15.7508 11.286 15.7508 11.2854 15.7508 11.2849C15.7508 11.2843 15.7508 11.2838 15.7508 11.2832C15.7508 11.2827 15.7508 11.2822 15.7508 11.2817C15.7508 11.2811 15.7508 11.2806 15.7508 11.2801C15.7508 11.2796 15.7508 11.2791 15.7508 11.2786C15.7508 11.2781 15.7508 11.2776 15.7508 11.2771C15.7508 11.2766 15.7508 11.2762 15.7508 11.2757C15.7508 11.2752 15.7508 11.2748 15.7508 11.2743C15.7508 11.2739 15.7508 11.2735 15.7508 11.273C15.7508 11.2726 15.7508 11.2722 15.7508 11.2717C15.7508 11.2713 15.7508 11.2709 15.7508 11.2705C15.7508 11.2701 15.7508 11.2697 15.7508 11.2693C15.7508 11.2689 15.7508 11.2686 15.7508 11.2682C15.7508 11.2678 15.7508 11.2675 15.7508 11.2671C15.7508 11.2667 15.7508 11.2664 15.7508 11.2661C15.7508 11.2657 15.7508 11.2654 15.7508 11.2651C15.7508 11.2647 15.7508 11.2644 15.7508 11.2641C15.7508 11.2638 15.7508 11.2635 15.7508 11.2632C15.7508 11.2629 15.7508 11.2626 15.7508 11.2623C15.7508 11.2621 15.7508 11.2618 15.7508 11.2615C15.7508 11.2613 15.7508 11.261 15.7508 11.2608C15.7508 11.2605 15.7508 11.2603 15.7508 11.2601C15.7508 11.2598 15.7508 11.2596 15.7508 11.2594C15.7508 11.2592 15.7508 11.259 15.7508 11.2588C15.7508 11.2586 15.7508 11.2584 15.7508 11.2582C15.7508 11.258 15.7508 11.2579 15.7508 11.2577C15.7508 11.2575 15.7508 11.2574 15.7508 11.2572C15.7508 11.2571 15.7508 11.2569 15.7508 11.2568C15.7508 11.2567 15.7508 11.2566 15.7508 11.2564C15.7508 11.2563 15.7508 11.2562 15.7508 11.2561C15.7508 11.256 15.7508 11.2559 15.7508 11.2558C15.7508 11.2558 15.7508 11.2557 15.7508 11.2556C15.7508 11.2556 15.7508 11.2555 15.7508 11.2554C15.7508 11.2554 15.7508 11.2554 15.7508 11.2553C15.7508 11.2553 15.7508 11.2553 15.7508 11.2552C15.7508 11.2552 15.7508 11.2552 15.0008 11.2552C14.2508 11.2552 14.2508 11.2552 14.2508 11.2552C14.2508 11.2553 14.2508 11.2553 14.2508 11.2553C14.2508 11.2554 14.2508 11.2554 14.2508 11.2554C14.2508 11.2555 14.2508 11.2556 14.2508 11.2556C14.2508 11.2557 14.2508 11.2558 14.2508 11.2558C14.2508 11.2559 14.2508 11.256 14.2508 11.2561C14.2508 11.2562 14.2508 11.2563 14.2508 11.2564C14.2508 11.2566 14.2508 11.2567 14.2508 11.2568C14.2508 11.2569 14.2508 11.2571 14.2508 11.2572C14.2508 11.2574 14.2508 11.2575 14.2508 11.2577C14.2508 11.2579 14.2508 11.258 14.2508 11.2582C14.2508 11.2584 14.2508 11.2586 14.2508 11.2588C14.2508 11.259 14.2508 11.2592 14.2508 11.2594C14.2508 11.2596 14.2508 11.2598 14.2508 11.2601C14.2508 11.2603 14.2508 11.2605 14.2508 11.2608C14.2508 11.261 14.2508 11.2613 14.2508 11.2615C14.2508 11.2618 14.2508 11.2621 14.2508 11.2623C14.2508 11.2626 14.2508 11.2629 14.2508 11.2632C14.2508 11.2635 14.2508 11.2638 14.2508 11.2641C14.2508 11.2644 14.2508 11.2647 14.2508 11.2651C14.2508 11.2654 14.2508 11.2657 14.2508 11.2661C14.2508 11.2664 14.2508 11.2667 14.2508 11.2671C14.2508 11.2675 14.2508 11.2678 14.2508 11.2682C14.2508 11.2686 14.2508 11.2689 14.2508 11.2693C14.2508 11.2697 14.2508 11.2701 14.2508 11.2705C14.2508 11.2709 14.2508 11.2713 14.2508 11.2717C14.2508 11.2722 14.2508 11.2726 14.2508 11.273C14.2508 11.2735 14.2508 11.2739 14.2508 11.2743C14.2508 11.2748 14.2508 11.2752 14.2508 11.2757C14.2508 11.2762 14.2508 11.2766 14.2508 11.2771C14.2508 11.2776 14.2508 11.2781 14.2508 11.2786C14.2508 11.2791 14.2508 11.2796 14.2508 11.2801C14.2508 11.2806 14.2508 11.2811 14.2508 11.2817C14.2508 11.2822 14.2508 11.2827 14.2508 11.2832C14.2508 11.2838 14.2508 11.2843 14.2508 11.2849C14.2508 11.2854 14.2508 11.286 14.2508 11.2866C14.2508 11.2872 14.2508 11.2877 14.2508 11.2883C14.2508 11.2889 14.2508 11.2895 14.2508 11.2901C14.2508 11.2907 14.2508 11.2913 14.2508 11.2919C14.2508 11.2925 14.2508 11.2932 14.2508 11.2938C14.2508 11.2944 14.2508 11.2951 14.2508 11.2957C14.2508 11.2963 14.2508 11.297 14.2508 11.2977C14.2508 11.2983 14.2508 11.299 14.2508 11.2997C14.2508 11.3003 14.2508 11.301 14.2508 11.3017C14.2508 11.3024 14.2508 11.3031 14.2508 11.3038C14.2508 11.3045 14.2508 11.3052 14.2508 11.3059C14.2508 11.3066 14.2508 11.3074 14.2508 11.3081C14.2508 11.3088 14.2508 11.3096 14.2508 11.3103C14.2508 11.3111 14.2508 11.3118 14.2508 11.3126C14.2508 11.3133 14.2508 11.3141 14.2508 11.3149C14.2508 11.3156 14.2508 11.3164 14.2508 11.3172C14.2508 11.318 14.2508 11.3188 14.2508 11.3196C14.2508 11.3204 14.2508 11.3212 14.2508 11.322C14.2508 11.3229 14.2508 11.3237 14.2508 11.3245C14.2508 11.3254 14.2508 11.3262 14.2508 11.327C14.2508 11.3279 14.2508 11.3287 14.2508 11.3296C14.2508 11.3305 14.2508 11.3313 14.2508 11.3322C14.2508 11.3331 14.2508 11.334 14.2508 11.3348C14.2508 11.3357 14.2508 11.3366 14.2508 11.3375C14.2508 11.3384 14.2508 11.3393 14.2508 11.3403C14.2508 11.3412 14.2508 11.3421 14.2508 11.343C14.2508 11.344 14.2508 11.3449 14.2508 11.3458C14.2508 11.3468 14.2508 11.3477 14.2508 11.3487C14.2508 11.3496 14.2508 11.3506 14.2508 11.3516C14.2508 11.3525 14.2508 11.3535 14.2508 11.3545C14.2508 11.3555 14.2508 11.3565 14.2508 11.3575C14.2508 11.3585 14.2508 11.3595 14.2508 11.3605C14.2508 11.3615 14.2508 11.3625 14.2508 11.3636C14.2508 11.3646 14.2508 11.3656 14.2508 11.3667C14.2508 11.3677 14.2508 11.3687 14.2508 11.3698C14.2508 11.3708 14.2508 11.3719 14.2508 11.373C14.2508 11.374 14.2508 11.3751 14.2508 11.3762C14.2508 11.3773 14.2508 11.3783 14.2508 11.3794C14.2508 11.3805 14.2508 11.3816 14.2508 11.3827C14.2508 11.3838 14.2508 11.3849 14.2508 11.3861C14.2508 11.3872 14.2508 11.3883 14.2508 11.3894C14.2508 11.3906 14.2508 11.3917 14.2508 11.3928C14.2508 11.394 14.2508 11.3951 14.2508 11.3963C14.2508 11.3975 14.2508 11.3986 14.2508 11.3998C14.2508 11.401 14.2508 11.4021 14.2508 11.4033C14.2508 11.4045 14.2508 11.4057 14.2508 11.4069C14.2508 11.4081 14.2508 11.4093 14.2508 11.4105C14.2508 11.4117 14.2508 11.4129 14.2508 11.4141C14.2508 11.4154 14.2508 11.4166 14.2508 11.4178C14.2508 11.4191 14.2508 11.4203 14.2508 11.4215C14.2508 11.4228 14.2508 11.424 14.2508 11.4253C14.2508 11.4266 14.2508 11.4278 14.2508 11.4291C14.2508 11.4304 14.2508 11.4316 14.2508 11.4329C14.2508 11.4342 14.2508 11.4355 14.2508 11.4368C14.2508 11.4381 14.2508 11.4394 14.2508 11.4407C14.2508 11.442 14.2508 11.4433 14.2508 11.4447C14.2508 11.446 14.2508 11.4473 14.2508 11.4486C14.2508 11.45 14.2508 11.4513 14.2508 11.4527C14.2508 11.454 14.2508 11.4554 14.2508 11.4567C14.2508 11.4581 14.2508 11.4594 14.2508 11.4608C14.2508 11.4622 14.2508 11.4636 14.2508 11.4649C14.2508 11.4663 14.2508 11.4677 14.2508 11.4691C14.2508 11.4705 14.2508 11.4719 14.2508 11.4733C14.2508 11.4747 14.2508 11.4761 14.2508 11.4775C14.2508 11.479 14.2508 11.4804 14.2508 11.4818C14.2508 11.4832 14.2508 11.4847 14.2508 11.4861C14.2508 11.4876 14.2508 11.489 14.2508 11.4905C14.2508 11.4919 14.2508 11.4934 14.2508 11.4949C14.2508 11.4963 14.2508 11.4978 14.2508 11.4993C14.2508 11.5007 14.2508 11.5022 14.2508 11.5037C14.2508 11.5052 14.2508 11.5067 14.2508 11.5082C14.2508 11.5097 14.2508 11.5112 14.2508 11.5127C14.2508 11.5142 14.2508 11.5158 14.2508 11.5173C14.2508 11.5188 14.2508 11.5203 14.2508 11.5219C14.2508 11.5234 14.2508 11.5249 14.2508 11.5265C14.2508 11.528 14.2508 11.5296 14.2508 11.5312C14.2508 11.5327 14.2508 11.5343 14.2508 11.5358C14.2508 11.5374 14.2508 11.539 14.2508 11.5406C14.2508 11.5422 14.2508 11.5437 14.2508 11.5453C14.2508 11.5469 14.2508 11.5485 14.2508 11.5501C14.2508 11.5517 14.2508 11.5533 14.2508 11.555C14.2508 11.5566 14.2508 11.5582 14.2508 11.5598C14.2508 11.5614 14.2508 11.5631 14.2508 11.5647C14.2508 11.5663 14.2508 11.568 14.2508 11.5696C14.2508 11.5713 14.2508 11.5729 14.2508 11.5746C14.2508 11.5763 14.2508 11.5779 14.2508 11.5796C14.2508 11.5813 14.2508 11.5829 14.2508 11.5846C14.2508 11.5863 14.2508 11.588 14.2508 11.5897C14.2508 11.5914 14.2508 11.5931 14.2508 11.5948C14.2508 11.5965 14.2508 11.5982 14.2508 11.5999C14.2508 11.6016 14.2508 11.6033 14.2508 11.605C14.2508 11.6068 14.2508 11.6085 14.2508 11.6102C14.2508 11.612 14.2508 11.6137 14.2508 11.6155C14.2508 11.6172 14.2508 11.619 14.2508 11.6207C14.2508 11.6225 14.2508 11.6242 14.2508 11.626C14.2508 11.6278 14.2508 11.6295 14.2508 11.6313C14.2508 11.6331 14.2508 11.6349 14.2508 11.6366C14.2508 11.6384 14.2508 11.6402 14.2508 11.642C14.2508 11.6438 14.2508 11.6456 14.2508 11.6474C14.2508 11.6492 14.2508 11.6511 14.2508 11.6529C14.2508 11.6547 14.2508 11.6565 14.2508 11.6583C14.2508 11.6602 14.2508 11.662 14.2508 11.6638C14.2508 11.6657 14.2508 11.6675 14.2508 11.6694C14.2508 11.6712 14.2508 11.6731 14.2508 11.6749C14.2508 11.6768 14.2508 11.6786 14.2508 11.6805C14.2508 11.6824 14.2508 11.6843 14.2508 11.6861C14.2508 11.688 14.2508 11.6899 14.2508 11.6918C14.2508 11.6937 14.2508 11.6956 14.2508 11.6975C14.2508 11.6994 14.2508 11.7013 14.2508 11.7032C14.2508 11.7051 14.2508 11.707 14.2508 11.7089C14.2508 11.7108 14.2508 11.7127 14.2508 11.7147C14.2508 11.7166 14.2508 11.7185 14.2508 11.7205C14.2508 11.7224 14.2508 11.7244 14.2508 11.7263C14.2508 11.7282 14.2508 11.7302 14.2508 11.7322C14.2508 11.7341 14.2508 11.7361 14.2508 11.738C14.2508 11.74 14.2508 11.742 14.2508 11.7439C14.2508 11.7459 14.2508 11.7479 14.2508 11.7499C14.2508 11.7519 14.2508 11.7539 14.2508 11.7559C14.2508 11.7578 14.2508 11.7598 14.2508 11.7618C14.2508 11.7639 14.2508 11.7659 14.2508 11.7679C14.2508 11.7699 14.2508 11.7719 14.2508 11.7739C14.2508 11.7759 14.2508 11.778 14.2508 11.78C14.2508 11.782 14.2508 11.7841 14.2508 11.7861C14.2508 11.7881 14.2508 11.7902 14.2508 11.7922C14.2508 11.7943 14.2508 11.7963 14.2508 11.7984C14.2508 11.8005 14.2508 11.8025 14.2508 11.8046C14.2508 11.8067 14.2508 11.8087 14.2508 11.8108C14.2508 11.8129 14.2508 11.815 14.2508 11.817C14.2508 11.8191 14.2508 11.8212 14.2508 11.8233C14.2508 11.8254 14.2508 11.8275 14.2508 11.8296C14.2508 11.8317 14.2508 11.8338 14.2508 11.8359C14.2508 11.838 14.2508 11.8402 14.2508 11.8423C14.2508 11.8444 14.2508 11.8465 14.2508 11.8487C14.2508 11.8508 14.2508 11.8529 14.2508 11.8551C14.2508 11.8572 14.2508 11.8593 14.2508 11.8615C14.2508 11.8636 14.2508 11.8658 14.2508 11.8679C14.2508 11.8701 14.2508 11.8722 14.2508 11.8744C14.2508 11.8766 14.2508 11.8787 14.2508 11.8809C14.2508 11.8831 14.2508 11.8853 14.2508 11.8874C14.2508 11.8896 14.2508 11.8918 14.2508 11.894C14.2508 11.8962 14.2508 11.8984 14.2508 11.9006C14.2508 11.9028 14.2508 11.905 14.2508 11.9072C14.2508 11.9094 14.2508 11.9116 14.2508 11.9138C14.2508 11.916 14.2508 11.9182 14.2508 11.9204C14.2508 11.9227 14.2508 11.9249 14.2508 11.9271C14.2508 11.9293 14.2508 11.9316 14.2508 11.9338C14.2508 11.9361 14.2508 11.9383 14.2508 11.9405C14.2508 11.9428 14.2508 11.945 14.2508 11.9473C14.2508 11.9495 14.2508 11.9518 14.2508 11.9541C14.2508 11.9563 14.2508 11.9586 14.2508 11.9609C14.2508 11.9631 14.2508 11.9654 14.2508 11.9677C14.2508 11.9699 14.2508 11.9722 14.2508 11.9745C14.2508 11.9768 14.2508 11.9791 14.2508 11.9814C14.2508 11.9837 14.2508 11.986 14.2508 11.9883C14.2508 11.9906 14.2508 11.9929 14.2508 11.9952C14.2508 11.9975 14.2508 11.9998 14.2508 12.0021C14.2508 12.0044 14.2508 12.0067 14.2508 12.0091C14.2508 12.0114 14.2508 12.0137 14.2508 12.016C14.2508 12.0184 14.2508 12.0207 14.2508 12.023C14.2508 12.0254 14.2508 12.0277 14.2508 12.0301C14.2508 12.0324 14.2508 12.0348 14.2508 12.0371C14.2508 12.0395 14.2508 12.0418 14.2508 12.0442C14.2508 12.0465 14.2508 12.0489 14.2508 12.0513C14.2508 12.0536 14.2508 12.056 14.2508 12.0584C14.2508 12.0607 14.2508 12.0631 14.2508 12.0655C14.2508 12.0679 14.2508 12.0703 14.2508 12.0727C14.2508 12.075 14.2508 12.0774 14.2508 12.0798C14.2508 12.0822 14.2508 12.0846 14.2508 12.087C14.2508 12.0894 14.2508 12.0918 14.2508 12.0942C14.2508 12.0966 14.2508 12.0991 14.2508 12.1015C14.2508 12.1039 14.2508 12.1063 14.2508 12.1087C14.2508 12.1111 14.2508 12.1136 14.2508 12.116C14.2508 12.1184 14.2508 12.1209 14.2508 12.1233C14.2508 12.1257 14.2508 12.1282 14.2508 12.1306C14.2508 12.1331 14.2508 12.1355 14.2508 12.138C14.2508 12.1404 14.2508 12.1429 14.2508 12.1453C14.2508 12.1478 14.2508 12.1502 14.2508 12.1527C14.2508 12.1552 14.2508 12.1576 14.2508 12.1601C14.2508 12.1626 14.2508 12.165 14.2508 12.1675C14.2508 12.17 14.2508 12.1725 14.2508 12.1749C14.2508 12.1774 14.2508 12.1799 14.2508 12.1824C14.2508 12.1849 14.2508 12.1874 14.2508 12.1899C14.2508 12.1924 14.2508 12.1949 14.2508 12.1974C14.2508 12.1999 14.2508 12.2024 14.2508 12.2049C14.2508 12.2074 14.2508 12.2099 14.2508 12.2124C14.2508 12.2149 14.2508 12.2174 14.2508 12.2199C14.2508 12.2225 14.2508 12.225 14.2508 12.2275C14.2508 12.23 14.2508 12.2326 14.2508 12.2351C14.2508 12.2376 14.2508 12.2402 14.2508 12.2427C14.2508 12.2452 14.2508 12.2478 14.2508 12.2503C14.2508 12.2529 14.2508 12.2554 14.2508 12.258C14.2508 12.2605 14.2508 12.2631 14.2508 12.2656C14.2508 12.2682 14.2508 12.2707 14.2508 12.2733C14.2508 12.2758 14.2508 12.2784 14.2508 12.281C14.2508 12.2835 14.2508 12.2861 14.2508 12.2887C14.2508 12.2913 14.2508 12.2938 14.2508 12.2964C14.2508 12.299 14.2508 12.3016 14.2508 12.3041C14.2508 12.3067 14.2508 12.3093 14.2508 12.3119C14.2508 12.3145 14.2508 12.3171 14.2508 12.3197C14.2508 12.3223 14.2508 12.3249 14.2508 12.3275C14.2508 12.3301 14.2508 12.3327 14.2508 12.3353C14.2508 12.3379 14.2508 12.3405 14.2508 12.3431C14.2508 12.3457 14.2508 12.3483 14.2508 12.3509C14.2508 12.3536 14.2508 12.3562 14.2508 12.3588C14.2508 12.3614 14.2508 12.364 14.2508 12.3667C14.2508 12.3693 14.2508 12.3719 14.2508 12.3745C14.2508 12.3772 14.2508 12.3798 14.2508 12.3824C14.2508 12.3851 14.2508 12.3877 14.2508 12.3904C14.2508 12.393 14.2508 12.3956 14.2508 12.3983C14.2508 12.4009 14.2508 12.4036 14.2508 12.4062C14.2508 12.4089 14.2508 12.4115 14.2508 12.4142C14.2508 12.4169 14.2508 12.4195 14.2508 12.4222C14.2508 12.4248 14.2508 12.4275 14.2508 12.4302C14.2508 12.4328 14.2508 12.4355 14.2508 12.4382C14.2508 12.4408 14.2508 12.4435 14.2508 12.4462C14.2508 12.4489 14.2508 12.4515 14.2508 12.4542C14.2508 12.4569 14.2508 12.4596 14.2508 12.4623C14.2508 12.465 14.2508 12.4676 14.2508 12.4703C14.2508 12.473 14.2508 12.4757 14.2508 12.4784C14.2508 12.4811 14.2508 12.4838 14.2508 12.4865C14.2508 12.4892 14.2508 12.4919 14.2508 12.4946C14.2508 12.4973 14.2508 12.5 14.2508 12.5027C14.2508 12.5054 14.2508 12.5081 14.2508 12.5108C14.2508 12.5135 14.2508 12.5163 14.2508 12.519C14.2508 12.5217 14.2508 12.5244 14.2508 12.5271C14.2508 12.5299 14.2508 12.5326 14.2508 12.5353C14.2508 12.538 14.2508 12.5407 14.2508 12.5435C14.2508 12.5462 14.2508 12.5489 14.2508 12.5517C14.2508 12.5544 14.2508 12.5571 14.2508 12.5599C14.2508 12.5626 14.2508 12.5653 14.2508 12.5681C14.2508 12.5708 14.2508 12.5736 14.2508 12.5763C14.2508 12.5791 14.2508 12.5818 14.2508 12.5846C14.2508 12.5873 14.2508 12.59 14.2508 12.5928C14.2508 12.5956 14.2508 12.5983 14.2508 12.6011C14.2508 12.6038 14.2508 12.6066 14.2508 12.6093C14.2508 12.6121 14.2508 12.6149 14.2508 12.6176C14.2508 12.6204 14.2508 12.6231 14.2508 12.6259C14.2508 12.6287 14.2508 12.6315 14.2508 12.6342C14.2508 12.637 14.2508 12.6398 14.2508 12.6425C14.2508 12.6453 14.2508 12.6481 14.2508 12.6509C14.2508 12.6536 14.2508 12.6564 14.2508 12.6592C14.2508 12.662 14.2508 12.6648 14.2508 12.6676C14.2508 12.6703 14.2508 12.6731 14.2508 12.6759C14.2508 12.6787 14.2508 12.6815 14.2508 12.6843C14.2508 12.6871 14.2508 12.6899 14.2508 12.6927C14.2508 12.6955 14.2508 12.6983 14.2508 12.701C14.2508 12.7038 14.2508 12.7066 14.2508 12.7094C14.2508 12.7122 14.2508 12.7151 14.2508 12.7179C14.2508 12.7207 14.2508 12.7235 14.2508 12.7263C14.2508 12.7291 14.2508 12.7319 14.2508 12.7347C14.2508 12.7375 14.2508 12.7403 14.2508 12.7431C14.2508 12.7459 14.2508 12.7488 14.2508 12.7516C14.2508 12.7544 14.2508 12.7572 14.2508 12.76C14.2508 12.7628 14.2508 12.7657 14.2508 12.7685C14.2508 12.7713 14.2508 12.7741 14.2508 12.777C14.2508 12.7798 14.2508 12.7826 14.2508 12.7854C14.2508 12.7883 14.2508 12.7911 14.2508 12.7939C14.2508 12.7968 14.2508 12.7996 14.2508 12.8024C14.2508 12.8053 14.2508 12.8081 14.2508 12.8109C14.2508 12.8138 14.2508 12.8166 14.2508 12.8194C14.2508 12.8223 14.2508 12.8251 14.2508 12.8279C14.2508 12.8308 14.2508 12.8336 14.2508 12.8365C14.2508 12.8393 14.2508 12.8422 14.2508 12.845C14.2508 12.8479 14.2508 12.8507 14.2508 12.8535C14.2508 12.8564 14.2508 12.8592 14.2508 12.8621C14.2508 12.8649 14.2508 12.8678 14.2508 12.8706C14.2508 12.8735 14.2508 12.8764 14.2508 12.8792C14.2508 12.8821 14.2508 12.8849 14.2508 12.8878C14.2508 12.8906 14.2508 12.8935 14.2508 12.8963C14.2508 12.8992 14.2508 12.9021 14.2508 12.9049C14.2508 12.9078 14.2508 12.9106 14.2508 12.9135C14.2508 12.9164 14.2508 12.9192 14.2508 12.9221C14.2508 12.925 14.2508 12.9278 14.2508 12.9307C14.2508 12.9336 14.2508 12.9364 14.2508 12.9393C14.2508 12.9422 14.2508 12.945 14.2508 12.9479C14.2508 12.9508 14.2508 12.9537 14.2508 12.9565C14.2508 12.9594 14.2508 12.9623 14.2508 12.9651C14.2508 12.968 14.2508 12.9709 14.2508 12.9738C14.2508 12.9766 14.2508 12.9795 14.2508 12.9824C14.2508 12.9853 14.2508 12.9882 14.2508 12.991C14.2508 12.9939 14.2508 12.9968 14.2508 12.9997C14.2508 13.0026 14.2508 13.0054 14.2508 13.0083C14.2508 13.0112 14.2508 13.0141 14.2508 13.017C14.2508 13.0198 14.2508 13.0227 14.2508 13.0256C14.2508 13.0285 14.2508 13.0314 14.2508 13.0343C14.2508 13.0372 14.2508 13.04 14.2508 13.0429C14.2508 13.0458 14.2508 13.0487 14.2508 13.0516C14.2508 13.0545 14.2508 13.0574 14.2508 13.0603C14.2508 13.0632 14.2508 13.066 14.2508 13.0689C14.2508 13.0718 14.2508 13.0747 14.2508 13.0776C14.2508 13.0805 14.2508 13.0834 14.2508 13.0863C14.2508 13.0892 14.2508 13.0921 14.2508 13.095C14.2508 13.0979 14.2508 13.1008 14.2508 13.1037C14.2508 13.1066 14.2508 13.1094 14.2508 13.1123C14.2508 13.1152 14.2508 13.1181 14.2508 13.121C14.2508 13.1239 14.2508 13.1268 14.2508 13.1297C14.2508 13.1326 14.2508 13.1355 14.2508 13.1384C14.2508 13.1413 14.2508 13.1442 14.2508 13.1471C14.2508 13.15 14.2508 13.1529 14.2508 13.1558C14.2508 13.1587 14.2508 13.1616 14.2508 13.1645C14.2508 13.1674 14.2508 13.1703 14.2508 13.1732C14.2508 13.1761 14.2508 13.179 14.2508 13.1819C14.2508 13.1848 14.2508 13.1877 14.2508 13.1906C14.2508 13.1935 14.2508 13.1964 14.2508 13.1993C14.2508 13.2022 14.2508 13.2051 14.2508 13.2081C14.2508 13.211 14.2508 13.2139 14.2508 13.2168C14.2508 13.2197 14.2508 13.2226 14.2508 13.2255C14.2508 13.2284 14.2508 13.2313 14.2508 13.2342C14.2508 13.2371 14.2508 13.24 14.2508 13.2429C14.2508 13.2458 14.2508 13.2487 14.2508 13.2516C14.2508 13.2545 14.2508 13.2574 14.2508 13.2603C14.2508 13.2632 14.2508 13.2661 14.2508 13.269C14.2508 13.2719 14.2508 13.2748 14.2508 13.2778C14.2508 13.2807 14.2508 13.2836 14.2508 13.2865C14.2508 13.2894 14.2508 13.2923 14.2508 13.2952C14.2508 13.2981 14.2508 13.301 14.2508 13.3039C14.2508 13.3068 14.2508 13.3097 14.2508 13.3126C14.2508 13.3155 14.2508 13.3184 14.2508 13.3213C14.2508 13.3242 14.2508 13.3271 14.2508 13.33C14.2508 13.3329 14.2508 13.3358 14.2508 13.3387C14.2508 13.3416 14.2508 13.3445 14.2508 13.3474C14.2508 13.3504 14.2508 13.3533 14.2508 13.3562C14.2508 13.3591 14.2508 13.362 14.2508 13.3649C14.2508 13.3678 14.2508 13.3707 14.2508 13.3736C14.2508 13.3765 14.2508 13.3794 14.2508 13.3823C14.2508 13.3852 14.2508 13.3881 14.2508 13.391C14.2508 13.3939 14.2508 13.3968 14.2508 13.3997C14.2508 13.4026 14.2508 13.4055 14.2508 13.4084C14.2508 13.4113 14.2508 13.4142 14.2508 13.4171C14.2508 13.42 14.2508 13.4229 14.2508 13.4258C14.2508 13.4287 14.2508 13.4316 14.2508 13.4345C14.2508 13.4374 14.2508 13.4402 14.2508 13.4431C14.2508 13.446 14.2508 13.4489 14.2508 13.4518C14.2508 13.4547 14.2508 13.4576 14.2508 13.4605C14.2508 13.4634 14.2508 13.4663 14.2508 13.4692C14.2508 13.4721 14.2508 13.475 14.2508 13.4779C14.2508 13.4808 14.2508 13.4836 14.2508 13.4865C14.2508 13.4894 14.2508 13.4923 14.2508 13.4952C14.2508 13.4981 14.2508 13.501 14.2508 13.5039C14.2508 13.5068 14.2508 13.5096 14.2508 13.5125C14.2508 13.5154 14.2508 13.5183 14.2508 13.5212C14.2508 13.5241 14.2508 13.527 14.2508 13.5298C14.2508 13.5327 14.2508 13.5356 14.2508 13.5385C14.2508 13.5414 14.2508 13.5443 14.2508 13.5471C14.2508 13.55 14.2508 13.5529 14.2508 13.5558C14.2508 13.5587 14.2508 13.5615 14.2508 13.5644C14.2508 13.5673 14.2508 13.5702 14.2508 13.5731C14.2508 13.5759 14.2508 13.5788 14.2508 13.5817C14.2508 13.5846 14.2508 13.5874 14.2508 13.5903C14.2508 13.5932 14.2508 13.596 14.2508 13.5989C14.2508 13.6018 14.2508 13.6047 14.2508 13.6075C14.2508 13.6104 14.2508 13.6133 14.2508 13.6161C14.2508 13.619 14.2508 13.6219 14.2508 13.6247C14.2508 13.6276 14.2508 13.6305 14.2508 13.6333C14.2508 13.6362 14.2508 13.6391 14.2508 13.6419C14.2508 13.6448 14.2508 13.6476 14.2508 13.6505C14.2508 13.6534 14.2508 13.6562 14.2508 13.6591C14.2508 13.6619 14.2508 13.6648 14.2508 13.6676C14.2508 13.6705 14.2508 13.6733 14.2508 13.6762C14.2508 13.6791 14.2508 13.6819 14.2508 13.6848C14.2508 13.6876 14.2508 13.6905 14.2508 13.6933C14.2508 13.6962 14.2508 13.699 14.2508 13.7018C14.2508 13.7047 14.2508 13.7075 14.2508 13.7104C14.2508 13.7132 14.2508 13.7161 14.2508 13.7189C14.2508 13.7218 14.2508 13.7246 14.2508 13.7274C14.2508 13.7303 14.2508 13.7331 14.2508 13.7359C14.2508 13.7388 14.2508 13.7416 14.2508 13.7444C14.2508 13.7473 14.2508 13.7501 14.2508 13.7529C14.2508 13.7558 14.2508 13.7586 14.2508 13.7614C14.2508 13.7643 14.2508 13.7671 14.2508 13.7699C14.2508 13.7727 14.2508 13.7756 14.2508 13.7784C14.2508 13.7812 14.2508 13.784 14.2508 13.7869C14.2508 13.7897 14.2508 13.7925 14.2508 13.7953C14.2508 13.7981 14.2508 13.8009 14.2508 13.8038C14.2508 13.8066 14.2508 13.8094 14.2508 13.8122C14.2508 13.815 14.2508 13.8178 14.2508 13.8206C14.2508 13.8234 14.2508 13.8262 14.2508 13.829C14.2508 13.8319 14.2508 13.8347 14.2508 13.8375C14.2508 13.8403 14.2508 13.8431 14.2508 13.8459C14.2508 13.8487 14.2508 13.8515 14.2508 13.8542C14.2508 13.857 14.2508 13.8598 14.2508 13.8626C14.2508 13.8654 14.2508 13.8682 14.2508 13.871C14.2508 13.8738 14.2508 13.8766 14.2508 13.8794C14.2508 13.8822 14.2508 13.8849 14.2508 13.8877C14.2508 13.8905 14.2508 13.8933 14.2508 13.8961C14.2508 13.8988 14.2508 13.9016 14.2508 13.9044C14.2508 13.9072 14.2508 13.9099 14.2508 13.9127C14.2508 13.9155 14.2508 13.9183 14.2508 13.921C14.2508 13.9238 14.2508 13.9266 14.2508 13.9293C14.2508 13.9321 14.2508 13.9349 14.2508 13.9376C14.2508 13.9404 14.2508 13.9431 14.2508 13.9459C14.2508 13.9486 14.2508 13.9514 14.2508 13.9542C14.2508 13.9569 14.2508 13.9597 14.2508 13.9624C14.2508 13.9652 14.2508 13.9679 14.2508 13.9707C14.2508 13.9734 14.2508 13.9761 14.2508 13.9789C14.2508 13.9816 14.2508 13.9844 14.2508 13.9871C14.2508 13.9898 14.2508 13.9926 14.2508 13.9953C14.2508 13.998 14.2508 14.0008 14.2508 14.0035C14.2508 14.0062 14.2508 14.009 14.2508 14.0117C14.2508 14.0144 14.2508 14.0171 14.2508 14.0199C14.2508 14.0226 14.2508 14.0253 14.2508 14.028C14.2508 14.0307 14.2508 14.0335 14.2508 14.0362C14.2508 14.0389 14.2508 14.0416 14.2508 14.0443C14.2508 14.047 14.2508 14.0497 14.2508 14.0524C14.2508 14.0551 14.2508 14.0578 14.2508 14.0605C14.2508 14.0632 14.2508 14.0659 14.2508 14.0686C14.2508 14.0713 14.2508 14.074 14.2508 14.0767C14.2508 14.0794 14.2508 14.0821 14.2508 14.0848C14.2508 14.0874 14.2508 14.0901 14.2508 14.0928C14.2508 14.0955 14.2508 14.0982 14.2508 14.1009C14.2508 14.1035 14.2508 14.1062 14.2508 14.1089C14.2508 14.1115 14.2508 14.1142 14.2508 14.1169C14.2508 14.1196 14.2508 14.1222 14.2508 14.1249C14.2508 14.1275 14.2508 14.1302 14.2508 14.1329C14.2508 14.1355 14.2508 14.1382 14.2508 14.1408C14.2508 14.1435 14.2508 14.1461 14.2508 14.1488C14.2508 14.1514 14.2508 14.1541 14.2508 14.1567C14.2508 14.1594 14.2508 14.162 14.2508 14.1646C14.2508 14.1673 14.2508 14.1699 14.2508 14.1725C14.2508 14.1752 14.2508 14.1778 14.2508 14.1804C14.2508 14.1831 14.2508 14.1857 14.2508 14.1883C14.2508 14.1909 14.2508 14.1936 14.2508 14.1962C14.2508 14.1988 14.2508 14.2014 14.2508 14.204C14.2508 14.2066 14.2508 14.2092 14.2508 14.2118C14.2508 14.2145 14.2508 14.2171 14.2508 14.2197C14.2508 14.2223 14.2508 14.2249 14.2508 14.2275C14.2508 14.2301 14.2508 14.2326 14.2508 14.2352C14.2508 14.2378 14.2508 14.2404 14.2508 14.243C14.2508 14.2456 14.2508 14.2482 14.2508 14.2507C14.2508 14.2533 14.2508 14.2559 14.2508 14.2585C14.2508 14.261 14.2508 14.2636 14.2508 14.2662C14.2508 14.2688 14.2508 14.2713 14.2508 14.2739C14.2508 14.2764 14.2508 14.279 14.2508 14.2816C14.2508 14.2841 14.2508 14.2867 14.2508 14.2892C14.2508 14.2918 14.2508 14.2943 14.2508 14.2969C14.2508 14.2994 14.2508 14.302 14.2508 14.3045C14.2508 14.307 14.2508 14.3096 14.2508 14.3121C14.2508 14.3146 14.2508 14.3172 14.2508 14.3197C14.2508 14.3222 14.2508 14.3247 14.2508 14.3273C14.2508 14.3298 14.2508 14.3323 14.2508 14.3348C14.2508 14.3373 14.2508 14.3398 14.2508 14.3424C14.2508 14.3449 14.2508 14.3474 14.2508 14.3499C14.2508 14.3524 14.2508 14.3549 14.2508 14.3574C14.2508 14.3599 14.2508 14.3624 14.2508 14.3649C14.2508 14.3673 14.2508 14.3698 14.2508 14.3723C14.2508 14.3748 14.2508 14.3773 14.2508 14.3798C14.2508 14.3822 14.2508 14.3847 14.2508 14.3872C14.2508 14.3897 14.2508 14.3921 14.2508 14.3946C14.2508 14.3971 14.2508 14.3995 14.2508 14.402C14.2508 14.4044 14.2508 14.4069 14.2508 14.4093C14.2508 14.4118 14.2508 14.4142 14.2508 14.4167C14.2508 14.4191 14.2508 14.4216 14.2508 14.424C14.2508 14.4264 14.2508 14.4289 14.2508 14.4313C14.2508 14.4337 14.2508 14.4362 14.2508 14.4386C14.2508 14.441 14.2508 14.4434 14.2508 14.4459C14.2508 14.4483 14.2508 14.4507 14.2508 14.4531C14.2508 14.4555 14.2508 14.4579 14.2508 14.4603C14.2508 14.4627 14.2508 14.4651 14.2508 14.4675C14.2508 14.4699 14.2508 14.4723 14.2508 14.4747C14.2508 14.4771 14.2508 14.4795 14.2508 14.4819C14.2508 14.4843 14.2508 14.4866 14.2508 14.489C14.2508 14.4914 14.2508 14.4938 14.2508 14.4961C14.2508 14.4985 14.2508 14.5009 14.2508 14.5032C14.2508 14.5056 14.2508 14.5079 14.2508 14.5103C14.2508 14.5126 14.2508 14.515 14.2508 14.5173C14.2508 14.5197 14.2508 14.522 14.2508 14.5244C14.2508 14.5267 14.2508 14.5291 14.2508 14.5314C14.2508 14.5337 14.2508 14.536 14.2508 14.5384C14.2508 14.5407 14.2508 14.543 14.2508 14.5453C14.2508 14.5477 14.2508 14.55 14.2508 14.5523C14.2508 14.5546 14.2508 14.5569 14.2508 14.5592C14.2508 14.5615 14.2508 14.5638 14.2508 14.5661C14.2508 14.5684 14.2508 14.5707 14.2508 14.573C14.2508 14.5752 14.2508 14.5775 14.2508 14.5798C14.2508 14.5821 14.2508 14.5844 14.2508 14.5866C14.2508 14.5889 14.2508 14.5912 14.2508 14.5934C14.2508 14.5957 14.2508 14.598 14.2508 14.6002H15.0008ZM15.0008 11.2552L15.3362 10.5844L13.9462 9.88939L13.6108 10.5602L13.2753 11.231L14.6654 11.926L15.0008 11.2552ZM10.3908 10.5602L10.7262 11.231C11.5286 10.8298 12.473 10.8299 13.2753 11.231L13.6108 10.5602L13.9462 9.88939C12.7215 9.27706 11.28 9.27706 10.0554 9.88939L10.3908 10.5602ZM12.0574 6.79999V6.04999H2.40023V6.79999V7.54999H12.0574V6.79999Z" fill="#2C2920"/>
</svg>
