<svg width="24" height="24" viewBox="0 0 24 24" fill="none" xmlns="http://www.w3.org/2000/svg">
<path d="M12.1744 21.6538V7.69012M10.5495 6.85244C10.7223 6.89123 10.9045 6.84368 11.0289 6.71922C11.1534 6.59476 11.2009 6.41253 11.1622 6.23973C11.007 5.60595 10.4355 3.4837 9.84861 2.89684C9.11745 2.16568 7.92745 2.16263 7.1999 2.89017C6.47241 3.61767 6.47535 4.80767 7.20656 5.53888C7.80303 6.13535 9.91569 6.6973 10.5495 6.85244ZM12.324 6.23968C12.2852 6.41255 12.3328 6.59471 12.4572 6.71917C12.5817 6.84363 12.7639 6.89111 12.9367 6.85239C13.5705 6.69723 15.6928 6.12569 16.2796 5.53883C17.0108 4.80767 17.0138 3.61767 16.2863 2.89012C15.5588 2.16263 14.3688 2.16557 13.6376 2.89679C13.0411 3.49326 12.4792 5.60591 12.324 6.23968ZM3.09808 12.5774H20.9017C21.2873 12.5774 21.5999 12.2648 21.5999 11.8792V8.38831C21.5999 8.00271 21.2873 7.69012 20.9017 7.69012H3.09808C2.71249 7.69012 2.3999 8.00271 2.3999 8.38831V11.8792C2.3999 12.2648 2.71249 12.5774 3.09808 12.5774ZM19.8544 12.5774V20.9556C19.8544 21.3412 19.5419 21.6538 19.1563 21.6538H4.84354C4.45794 21.6538 4.14536 21.3412 4.14536 20.9556V12.5774H19.8544Z" stroke="#2C2920" stroke-width="1.5" stroke-linecap="square" stroke-linejoin="round"/>
</svg>
