<svg width="24" height="24" viewBox="0 0 24 24" fill="none" xmlns="http://www.w3.org/2000/svg">
<path d="M6.66667 8.34197C8.13943 8.34197 9.33333 7.14613 9.33333 5.67098C9.33333 4.19584 8.13943 3 6.66667 3C5.19391 3 4 4.19584 4 5.67098C4 7.14613 5.19391 8.34197 6.66667 8.34197ZM6.66667 8.34197V20.0667M17.3333 14.7247C18.8061 14.7247 20 15.9205 20 17.3957C20 18.8708 18.8061 20.0667 17.3333 20.0667C15.8606 20.0667 14.6667 18.8708 14.6667 17.3957C14.6667 15.9205 15.8606 14.7247 17.3333 14.7247ZM17.3333 14.7247V8.37757C17.3333 6.90481 16.1394 5.7109 14.6667 5.7109H13.0667" stroke="#2C2920" stroke-width="1.5" stroke-linecap="square" stroke-linejoin="round"/>
</svg>
