<svg width="24" height="24" viewBox="0 0 24 24" fill="none" xmlns="http://www.w3.org/2000/svg">
<path d="M8.44023 10.9046L8.06468 11.5538L9.36309 12.3049L9.73864 11.6557L8.44023 10.9046ZM14.2612 11.6557L14.6368 12.3049L15.9352 11.5538L15.5596 10.9046L14.2612 11.6557ZM9.1199 12.0001H8.3699C8.3699 13.4416 7.20136 14.6101 5.7599 14.6101V15.3601V16.1101C8.02979 16.1101 9.8699 14.27 9.8699 12.0001H9.1199ZM5.7599 15.3601V14.6101C4.31844 14.6101 3.1499 13.4416 3.1499 12.0001H2.3999H1.6499C1.6499 14.27 3.49001 16.1101 5.7599 16.1101V15.3601ZM2.3999 12.0001H3.1499C3.1499 10.5587 4.31844 9.39014 5.7599 9.39014V8.64014V7.89014C3.49001 7.89014 1.6499 9.73025 1.6499 12.0001H2.3999ZM5.7599 8.64014V9.39014C7.20136 9.39014 8.3699 10.5587 8.3699 12.0001H9.1199H9.8699C9.8699 9.73025 8.02979 7.89014 5.7599 7.89014V8.64014ZM9.08943 11.2801L9.73864 11.6557C10.1911 10.8736 11.0348 10.3501 11.9999 10.3501V9.60014V8.85014C10.4777 8.85014 9.14973 9.67807 8.44023 10.9046L9.08943 11.2801ZM11.9999 9.60014V10.3501C12.965 10.3501 13.8088 10.8736 14.2612 11.6557L14.9104 11.2801L15.5596 10.9046C14.8501 9.67807 13.5221 8.85014 11.9999 8.85014V9.60014ZM21.5999 12.0001H20.8499C20.8499 13.4416 19.6814 14.6101 18.2399 14.6101V15.3601V16.1101C20.5098 16.1101 22.3499 14.27 22.3499 12.0001H21.5999ZM18.2399 15.3601V14.6101C16.7984 14.6101 15.6299 13.4416 15.6299 12.0001H14.8799H14.1299C14.1299 14.27 15.97 16.1101 18.2399 16.1101V15.3601ZM14.8799 12.0001H15.6299C15.6299 10.5587 16.7984 9.39014 18.2399 9.39014V8.64014V7.89014C15.97 7.89014 14.1299 9.73025 14.1299 12.0001H14.8799ZM18.2399 8.64014V9.39014C19.6814 9.39014 20.8499 10.5587 20.8499 12.0001H21.5999H22.3499C22.3499 9.73025 20.5098 7.89014 18.2399 7.89014V8.64014Z" fill="#2C2920"/>
</svg>
