<svg width="24" height="24" viewBox="0 0 24 24" fill="none" xmlns="http://www.w3.org/2000/svg">
<path d="M8.44023 15.2243L8.06468 15.8735L9.36309 16.6246L9.73864 15.9754L8.44023 15.2243ZM14.2612 15.9754L14.6368 16.6246L15.9352 15.8735L15.5596 15.2243L14.2612 15.9754ZM1.65467 15.9954L1.5702 16.7406L3.06066 16.9095L3.14513 16.1643L1.65467 15.9954ZM3.5199 6.19897L3.03788 5.62439C2.89056 5.74797 2.79633 5.92343 2.77467 6.1145L3.5199 6.19897ZM6.24193 4.89441L6.81652 4.41239L5.85246 3.26321L5.27788 3.74524L6.24193 4.89441ZM20.8547 16.1643L20.9391 16.9095L22.4296 16.7406L22.3451 15.9954L20.8547 16.1643ZM20.4799 6.19897L21.2251 6.1145C21.2035 5.92343 21.1092 5.74797 20.9619 5.62439L20.4799 6.19897ZM18.7219 3.74524L18.1473 3.26321L17.1833 4.41239L17.7579 4.89441L18.7219 3.74524ZM9.1199 16.3198H8.3699C8.3699 17.7613 7.20136 18.9298 5.7599 18.9298V19.6798V20.4298C8.02979 20.4298 9.8699 18.5897 9.8699 16.3198H9.1199ZM5.7599 19.6798V18.9298C4.31844 18.9298 3.1499 17.7613 3.1499 16.3198H2.3999H1.6499C1.6499 18.5897 3.49001 20.4298 5.7599 20.4298V19.6798ZM2.3999 16.3198H3.1499C3.1499 14.8784 4.31844 13.7098 5.7599 13.7098V12.9598V12.2098C3.49001 12.2098 1.6499 14.0499 1.6499 16.3198H2.3999ZM5.7599 12.9598V13.7098C7.20136 13.7098 8.3699 14.8784 8.3699 16.3198H9.1199H9.8699C9.8699 14.0499 8.02979 12.2098 5.7599 12.2098V12.9598ZM9.08943 15.5998L9.73864 15.9754C10.1911 15.1933 11.0348 14.6698 11.9999 14.6698V13.9198V13.1698C10.4777 13.1698 9.14973 13.9978 8.44023 15.2243L9.08943 15.5998ZM11.9999 13.9198V14.6698C12.965 14.6698 13.8088 15.1933 14.2612 15.9754L14.9104 15.5998L15.5596 15.2243C14.8501 13.9978 13.5221 13.1698 11.9999 13.1698V13.9198ZM21.5999 16.3198H20.8499C20.8499 17.7613 19.6814 18.9298 18.2399 18.9298V19.6798V20.4298C20.5098 20.4298 22.3499 18.5897 22.3499 16.3198H21.5999ZM18.2399 19.6798V18.9298C16.7984 18.9298 15.6299 17.7613 15.6299 16.3198H14.8799H14.1299C14.1299 18.5897 15.97 20.4298 18.2399 20.4298V19.6798ZM14.8799 16.3198H15.6299C15.6299 14.8784 16.7984 13.7098 18.2399 13.7098V12.9598V12.2098C15.97 12.2098 14.1299 14.0499 14.1299 16.3198H14.8799ZM18.2399 12.9598V13.7098C19.6814 13.7098 20.8499 14.8784 20.8499 16.3198H21.5999H22.3499C22.3499 14.0499 20.5098 12.2098 18.2399 12.2098V12.9598ZM2.3999 16.0798L3.14513 16.1643L4.26513 6.28345L3.5199 6.19897L2.77467 6.1145L1.65467 15.9954L2.3999 16.0798ZM3.5199 6.19897L4.00193 6.77356L6.24193 4.89441L5.7599 4.31982L5.27788 3.74524L3.03788 5.62439L3.5199 6.19897ZM21.5999 16.0798L22.3451 15.9954L21.2251 6.1145L20.4799 6.19897L19.7347 6.28345L20.8547 16.1643L21.5999 16.0798ZM20.4799 6.19897L20.9619 5.62439L18.7219 3.74524L18.2399 4.31982L17.7579 4.89441L19.9979 6.77356L20.4799 6.19897Z" fill="#2C2920"/>
</svg>
