<svg width="24" height="24" viewBox="0 0 24 24" fill="none" xmlns="http://www.w3.org/2000/svg">
<path d="M8.44023 15.2244L8.06468 15.8736L9.36309 16.6247L9.73864 15.9755L8.44023 15.2244ZM14.2612 15.9755L14.6368 16.6247L15.9352 15.8736L15.5596 15.2244L14.2612 15.9755ZM1.65467 15.9955L1.5702 16.7407L3.06066 16.9096L3.14513 16.1644L1.65467 15.9955ZM3.5199 6.1991L3.03788 5.62451C2.89056 5.7481 2.79633 5.92355 2.77467 6.11462L3.5199 6.1991ZM6.24193 4.89453L6.81652 4.41251L5.85246 3.26333L5.27788 3.74536L6.24193 4.89453ZM20.8547 16.1644L20.9391 16.9096L22.4296 16.7407L22.3451 15.9955L20.8547 16.1644ZM20.4799 6.1991L21.2251 6.11462C21.2035 5.92355 21.1092 5.7481 20.9619 5.62451L20.4799 6.1991ZM18.7219 3.74536L18.1473 3.26333L17.1833 4.41251L17.7579 4.89453L18.7219 3.74536ZM9.1199 16.3199H8.3699C8.3699 17.7614 7.20136 18.9299 5.7599 18.9299V19.6799V20.4299C8.02979 20.4299 9.8699 18.5898 9.8699 16.3199H9.1199ZM5.7599 19.6799V18.9299C4.31844 18.9299 3.1499 17.7614 3.1499 16.3199H2.3999H1.6499C1.6499 18.5898 3.49001 20.4299 5.7599 20.4299V19.6799ZM2.3999 16.3199H3.1499C3.1499 14.8785 4.31844 13.7099 5.7599 13.7099V12.9599V12.2099C3.49001 12.2099 1.6499 14.0501 1.6499 16.3199H2.3999ZM5.7599 12.9599V13.7099C7.20136 13.7099 8.3699 14.8785 8.3699 16.3199H9.1199H9.8699C9.8699 14.0501 8.02979 12.2099 5.7599 12.2099V12.9599ZM9.08943 15.5999L9.73864 15.9755C10.1911 15.1934 11.0348 14.6699 11.9999 14.6699V13.9199V13.1699C10.4777 13.1699 9.14973 13.9979 8.44023 15.2244L9.08943 15.5999ZM11.9999 13.9199V14.6699C12.965 14.6699 13.8088 15.1934 14.2612 15.9755L14.9104 15.5999L15.5596 15.2244C14.8501 13.9979 13.5221 13.1699 11.9999 13.1699V13.9199ZM21.5999 16.3199H20.8499C20.8499 17.7614 19.6814 18.9299 18.2399 18.9299V19.6799V20.4299C20.5098 20.4299 22.3499 18.5898 22.3499 16.3199H21.5999ZM18.2399 19.6799V18.9299C16.7984 18.9299 15.6299 17.7614 15.6299 16.3199H14.8799H14.1299C14.1299 18.5898 15.97 20.4299 18.2399 20.4299V19.6799ZM14.8799 16.3199H15.6299C15.6299 14.8785 16.7984 13.7099 18.2399 13.7099V12.9599V12.2099C15.97 12.2099 14.1299 14.0501 14.1299 16.3199H14.8799ZM18.2399 12.9599V13.7099C19.6814 13.7099 20.8499 14.8785 20.8499 16.3199H21.5999H22.3499C22.3499 14.0501 20.5098 12.2099 18.2399 12.2099V12.9599ZM2.3999 16.0799L3.14513 16.1644L4.26513 6.28357L3.5199 6.1991L2.77467 6.11462L1.65467 15.9955L2.3999 16.0799ZM3.5199 6.1991L4.00193 6.77368L6.24193 4.89453L5.7599 4.31995L5.27788 3.74536L3.03788 5.62451L3.5199 6.1991ZM21.5999 16.0799L22.3451 15.9955L21.2251 6.11462L20.4799 6.1991L19.7347 6.28357L20.8547 16.1644L21.5999 16.0799ZM20.4799 6.1991L20.9619 5.62451L18.7219 3.74536L18.2399 4.31995L17.7579 4.89453L19.9979 6.77368L20.4799 6.1991Z" fill="#2C2920"/>
</svg>
