<svg width="24" height="24" viewBox="0 0 24 24" fill="none" xmlns="http://www.w3.org/2000/svg">
<path d="M8.44023 10.9045L8.06468 11.5537L9.36309 12.3048L9.73864 11.6556L8.44023 10.9045ZM14.2612 11.6556L14.6368 12.3048L15.9352 11.5537L15.5596 10.9045L14.2612 11.6556ZM9.1199 12H8.3699C8.3699 13.4415 7.20136 14.61 5.7599 14.61V15.36V16.11C8.02979 16.11 9.8699 14.2699 9.8699 12H9.1199ZM5.7599 15.36V14.61C4.31844 14.61 3.1499 13.4415 3.1499 12H2.3999H1.6499C1.6499 14.2699 3.49001 16.11 5.7599 16.11V15.36ZM2.3999 12H3.1499C3.1499 10.5586 4.31844 9.39001 5.7599 9.39001V8.64001V7.89001C3.49001 7.89001 1.6499 9.73012 1.6499 12H2.3999ZM5.7599 8.64001V9.39001C7.20136 9.39001 8.3699 10.5586 8.3699 12H9.1199H9.8699C9.8699 9.73012 8.02979 7.89001 5.7599 7.89001V8.64001ZM9.08943 11.28L9.73864 11.6556C10.1911 10.8735 11.0348 10.35 11.9999 10.35V9.60001V8.85001C10.4777 8.85001 9.14973 9.67795 8.44023 10.9045L9.08943 11.28ZM11.9999 9.60001V10.35C12.965 10.35 13.8088 10.8735 14.2612 11.6556L14.9104 11.28L15.5596 10.9045C14.8501 9.67795 13.5221 8.85001 11.9999 8.85001V9.60001ZM21.5999 12H20.8499C20.8499 13.4415 19.6814 14.61 18.2399 14.61V15.36V16.11C20.5098 16.11 22.3499 14.2699 22.3499 12H21.5999ZM18.2399 15.36V14.61C16.7984 14.61 15.6299 13.4415 15.6299 12H14.8799H14.1299C14.1299 14.2699 15.97 16.11 18.2399 16.11V15.36ZM14.8799 12H15.6299C15.6299 10.5586 16.7984 9.39001 18.2399 9.39001V8.64001V7.89001C15.97 7.89001 14.1299 9.73012 14.1299 12H14.8799ZM18.2399 8.64001V9.39001C19.6814 9.39001 20.8499 10.5586 20.8499 12H21.5999H22.3499C22.3499 9.73012 20.5098 7.89001 18.2399 7.89001V8.64001Z" fill="#2C2920"/>
</svg>
