<svg width="25" height="24" viewBox="0 0 25 24" fill="none" xmlns="http://www.w3.org/2000/svg">
<path d="M12.25 21C17.2206 21 21.25 16.9706 21.25 12C21.25 7.02944 17.2206 3 12.25 3M12.25 21C7.27944 21 3.25 16.9706 3.25 12C3.25 7.02944 7.27944 3 12.25 3M12.25 21C10.0754 21 8.3125 16.9706 8.3125 12C8.3125 7.02944 10.0754 3 12.25 3M12.25 21C14.4246 21 16.1875 16.9706 16.1875 12C16.1875 7.02944 14.4246 3 12.25 3M4.9375 16.3744C6.58632 15.4302 9.32573 14.8125 12.4264 14.8125C15.6624 14.8125 18.505 15.4854 20.125 16.5M4.9375 7.62558C6.58632 8.56975 9.32573 9.1875 12.4264 9.1875C15.6624 9.1875 18.505 8.5146 20.125 7.5" stroke="#2C2920" stroke-width="1.5" stroke-linecap="square"/>
</svg>
