<svg width="24" height="24" viewBox="0 0 24 24" fill="none" xmlns="http://www.w3.org/2000/svg">
<path d="M5.43098 11.9682L11.365 15.5045C11.6804 15.6925 12.0735 15.6925 12.3889 15.5045L21.9729 9.79303C22.2982 9.59913 22.2982 9.12791 21.9729 8.93401L12.3889 3.22254C12.0735 3.03457 11.6804 3.03457 11.365 3.22254L1.78104 8.934C1.45566 9.12791 1.45566 9.59913 1.78104 9.79303L5.43098 11.9682ZM5.43098 11.9682L5.43098 18.2116C5.43098 18.5536 5.60584 18.872 5.89453 19.0555L10.8425 22.2007C11.4773 22.6042 12.2847 22.6175 12.9324 22.235L18.3244 19.0511C18.629 18.8712 18.8159 18.5438 18.8159 18.19L18.8159 11.9682" stroke="#2C2920" stroke-width="1.5" stroke-linecap="square"/>
</svg>
