<svg width="24" height="24" viewBox="0 0 24 24" fill="none" xmlns="http://www.w3.org/2000/svg">
<path d="M5.55413 11.1708L11.4882 14.7071C11.8036 14.8951 12.1966 14.8951 12.512 14.7071L22.096 8.99565C22.4214 8.80174 22.4214 8.33053 22.096 8.13662L12.512 2.42515C12.1966 2.23719 11.8036 2.23719 11.4882 2.42515L1.90419 8.13662C1.57881 8.33053 1.57881 8.80174 1.90419 8.99565L5.55413 11.1708ZM5.55413 11.1708V17.4142C5.55413 17.7562 5.72899 18.0746 6.01768 18.2581L10.9657 21.4033C11.6004 21.8068 12.4079 21.8201 13.0555 21.4376L18.4475 18.2537C18.7521 18.0738 18.939 17.7464 18.939 17.3926L18.939 11.1708M22.2001 8.54949V13.9495" stroke="#2C2920" stroke-width="1.5" stroke-linecap="square" stroke-linejoin="round"/>
</svg>
