<svg width="24" height="24" viewBox="0 0 24 24" fill="none" xmlns="http://www.w3.org/2000/svg">
<path d="M8.7999 2.3999H4.53324C3.35503 2.3999 2.3999 3.35503 2.3999 4.53324V8.7999M8.7999 21.5999H4.53324C3.35503 21.5999 2.3999 20.6448 2.3999 19.4666V15.1999M15.1999 2.3999H19.4666C20.6448 2.3999 21.5999 3.35503 21.5999 4.53324V8.7999M21.5999 15.1999V19.4666C21.5999 20.6448 20.6448 21.5999 19.4666 21.5999H15.1999M15.5999 12.0002C15.5999 13.9884 13.9881 15.6002 11.9999 15.6002C10.0117 15.6002 8.3999 13.9884 8.3999 12.0002C8.3999 10.012 10.0117 8.40019 11.9999 8.40019C13.9881 8.40019 15.5999 10.012 15.5999 12.0002Z" stroke="#2C2920" stroke-width="1.5" stroke-linecap="square"/>
</svg>
