<svg width="24" height="24" viewBox="0 0 24 24" fill="none" xmlns="http://www.w3.org/2000/svg">
<path d="M2.3999 3.5999C2.3999 2.93716 2.93716 2.3999 3.5999 2.3999H5.9999C6.66264 2.3999 7.1999 2.93716 7.1999 3.5999V5.9999C7.1999 6.66264 6.66264 7.1999 5.9999 7.1999H3.5999C2.93716 7.1999 2.3999 6.66264 2.3999 5.9999V3.5999Z" stroke="#2C2920" stroke-width="1.5" stroke-linecap="square"/>
<path d="M9.5999 3.5999C9.5999 2.93716 10.1372 2.3999 10.7999 2.3999H13.1999C13.8626 2.3999 14.3999 2.93716 14.3999 3.5999V5.9999C14.3999 6.66264 13.8626 7.1999 13.1999 7.1999H10.7999C10.1372 7.1999 9.5999 6.66264 9.5999 5.9999V3.5999Z" stroke="#2C2920" stroke-width="1.5" stroke-linecap="square"/>
<path d="M16.7999 3.5999C16.7999 2.93716 17.3372 2.3999 17.9999 2.3999H20.3999C21.0626 2.3999 21.5999 2.93716 21.5999 3.5999V5.9999C21.5999 6.66264 21.0626 7.1999 20.3999 7.1999H17.9999C17.3372 7.1999 16.7999 6.66264 16.7999 5.9999V3.5999Z" stroke="#2C2920" stroke-width="1.5" stroke-linecap="square"/>
<path d="M2.3999 10.7999C2.3999 10.1372 2.93716 9.5999 3.5999 9.5999H5.9999C6.66264 9.5999 7.1999 10.1372 7.1999 10.7999V13.1999C7.1999 13.8626 6.66264 14.3999 5.9999 14.3999H3.5999C2.93716 14.3999 2.3999 13.8626 2.3999 13.1999V10.7999Z" stroke="#2C2920" stroke-width="1.5" stroke-linecap="square"/>
<path d="M9.5999 10.7999C9.5999 10.1372 10.1372 9.5999 10.7999 9.5999H13.1999C13.8626 9.5999 14.3999 10.1372 14.3999 10.7999V13.1999C14.3999 13.8626 13.8626 14.3999 13.1999 14.3999H10.7999C10.1372 14.3999 9.5999 13.8626 9.5999 13.1999V10.7999Z" stroke="#2C2920" stroke-width="1.5" stroke-linecap="square"/>
<path d="M16.7999 10.7999C16.7999 10.1372 17.3372 9.5999 17.9999 9.5999H20.3999C21.0626 9.5999 21.5999 10.1372 21.5999 10.7999V13.1999C21.5999 13.8626 21.0626 14.3999 20.3999 14.3999H17.9999C17.3372 14.3999 16.7999 13.8626 16.7999 13.1999V10.7999Z" stroke="#2C2920" stroke-width="1.5" stroke-linecap="square"/>
<path d="M2.3999 17.9999C2.3999 17.3372 2.93716 16.7999 3.5999 16.7999H5.9999C6.66264 16.7999 7.1999 17.3372 7.1999 17.9999V20.3999C7.1999 21.0626 6.66264 21.5999 5.9999 21.5999H3.5999C2.93716 21.5999 2.3999 21.0626 2.3999 20.3999V17.9999Z" stroke="#2C2920" stroke-width="1.5" stroke-linecap="square"/>
<path d="M9.5999 17.9999C9.5999 17.3372 10.1372 16.7999 10.7999 16.7999H13.1999C13.8626 16.7999 14.3999 17.3372 14.3999 17.9999V20.3999C14.3999 21.0626 13.8626 21.5999 13.1999 21.5999H10.7999C10.1372 21.5999 9.5999 21.0626 9.5999 20.3999V17.9999Z" stroke="#2C2920" stroke-width="1.5" stroke-linecap="square"/>
<path d="M16.7999 17.9999C16.7999 17.3372 17.3372 16.7999 17.9999 16.7999H20.3999C21.0626 16.7999 21.5999 17.3372 21.5999 17.9999V20.3999C21.5999 21.0626 21.0626 21.5999 20.3999 21.5999H17.9999C17.3372 21.5999 16.7999 21.0626 16.7999 20.3999V17.9999Z" stroke="#2C2920" stroke-width="1.5" stroke-linecap="square"/>
</svg>
