<svg width="25" height="24" viewBox="0 0 25 24" fill="none" xmlns="http://www.w3.org/2000/svg">
<path d="M8.51133 16.7997V11.8151M8.51133 16.7997H6.84979M8.51133 16.7997H10.1729M8.51133 11.8151V6.83049M8.51133 11.8151H15.9883M8.51133 6.83049H6.84979M8.51133 6.83049H10.1729M15.9883 11.8151V16.7997M15.9883 11.8151V6.83049M15.9883 16.7997H14.3267M15.9883 16.7997H17.6498M15.9883 6.83049H14.3267M15.9883 6.83049H17.6498M5.0499 21.5999H19.4499C20.7754 21.5999 21.8499 20.5254 21.8499 19.1999V4.7999C21.8499 3.47442 20.7754 2.3999 19.4499 2.3999H5.0499C3.72442 2.3999 2.6499 3.47442 2.6499 4.7999V19.1999C2.6499 20.5254 3.72442 21.5999 5.0499 21.5999Z" stroke="#2C2920" stroke-width="1.5" stroke-linecap="square" stroke-linejoin="round"/>
</svg>
