<svg width="25" height="24" viewBox="0 0 25 24" fill="none" xmlns="http://www.w3.org/2000/svg">
<path fill-rule="evenodd" clip-rule="evenodd" d="M4.0565 6.20635C4.95663 5.30649 6.17731 4.80097 7.4501 4.80097C8.72288 4.80097 9.94356 5.30649 10.8437 6.20635L12.2501 7.61155L13.6565 6.20635C14.0993 5.7479 14.6289 5.38223 15.2146 5.13066C15.8002 4.8791 16.43 4.74669 17.0674 4.74115C17.7047 4.73561 18.3368 4.85706 18.9267 5.09841C19.5166 5.33975 20.0525 5.69617 20.5032 6.14685C20.9539 6.59754 21.3103 7.13347 21.5516 7.72337C21.793 8.31327 21.9144 8.94533 21.9089 9.58268C21.9034 10.22 21.7709 10.8499 21.5194 11.4355C21.2678 12.0211 20.9021 12.5508 20.4437 12.9935L12.2501 21.1883L4.0565 12.9935C3.15664 12.0934 2.65112 10.8727 2.65112 9.59995C2.65112 8.32716 3.15664 7.10648 4.0565 6.20635V6.20635Z" stroke="#2C2920" stroke-width="1.5" stroke-linecap="square" stroke-linejoin="round"/>
</svg>
