<svg width="25" height="24" viewBox="0 0 25 24" fill="none" xmlns="http://www.w3.org/2000/svg">
<path d="M12.25 16.4999V16.5395M10.001 9.22996C10.001 7.96386 11.0083 6.93748 12.251 6.93748C13.4936 6.93748 14.501 7.96386 14.501 9.22996C14.501 10.4961 13.4936 11.5224 12.251 11.5224C12.251 11.5224 12.25 12.2067 12.25 13.0508M21.25 6.37498L21.25 17.625C21.25 19.489 19.739 21 17.875 21H6.625C4.76104 21 3.25 19.489 3.25 17.625V6.37498C3.25 4.51103 4.76104 3 6.625 3H17.875C19.739 3 21.25 4.51103 21.25 6.37498Z" stroke="#2C2920" stroke-width="1.5" stroke-linecap="square" stroke-linejoin="round"/>
</svg>
