<svg width="25" height="24" viewBox="0 0 25 24" fill="none" xmlns="http://www.w3.org/2000/svg">
<path d="M14.6365 14.3865C13.3185 15.7045 11.1815 15.7045 9.86351 14.3865M14.6365 14.3865C15.9545 13.0685 15.9545 10.9315 14.6365 9.61351M14.6365 14.3865L18.2162 17.9662M9.86351 14.3865C8.5455 13.0685 8.5455 10.9315 9.86351 9.61351M9.86351 14.3865L6.28379 17.9662M9.86351 9.61351C11.1815 8.2955 13.3185 8.2955 14.6365 9.61351M9.86351 9.61351L6.28379 6.03379M14.6365 9.61351L18.2162 6.03379M18.614 18.364C15.0992 21.8787 9.40076 21.8787 5.88604 18.364C2.37132 14.8492 2.37132 9.15076 5.88604 5.63604C9.40076 2.12132 15.0992 2.12132 18.614 5.63604C22.1287 9.15076 22.1287 14.8492 18.614 18.364Z" stroke="#2C2920" stroke-width="1.5" stroke-linecap="square" stroke-linejoin="round"/>
</svg>
