<svg width="25" height="24" viewBox="0 0 25 24" fill="none" xmlns="http://www.w3.org/2000/svg">
<path d="M3.25 9.41605C3.25 9.04666 3.43802 8.7001 3.75457 8.48603L11.5546 3.21117C11.9709 2.92961 12.5291 2.92961 12.9454 3.21117L20.7454 8.48603C21.062 8.7001 21.25 9.04665 21.25 9.41605V19.2882C21.25 20.2336 20.4441 21 19.45 21H5.05C4.05589 21 3.25 20.2336 3.25 19.2882V9.41605Z" stroke="#2C2920" stroke-width="1.5" stroke-linecap="square"/>
<path d="M14.5 13.125C14.5 14.3676 13.4926 15.375 12.25 15.375C11.0074 15.375 10 14.3676 10 13.125C10 11.8824 11.0074 10.875 12.25 10.875C13.4926 10.875 14.5 11.8824 14.5 13.125Z" stroke="#2C2920" stroke-width="1.5" stroke-linecap="square"/>
</svg>
