<svg width="24" height="24" viewBox="0 0 24 24" fill="none" xmlns="http://www.w3.org/2000/svg">
<path d="M3 14.3548H7.17801M3 14.3548L7.1196 14.3537C7.13918 14.3537 7.15866 14.3541 7.17801 14.3548M3 14.3548L3 18.24C3 18.7702 3.53726 19.2 4.2 19.2H7.12C7.78274 19.2 8.32 18.7702 8.32 18.24V15.3137C8.32 14.7991 7.81379 14.3791 7.17801 14.3548M3 14.3548L3 9.50825M7.17801 14.3548H12.776C13.4387 14.3548 13.976 13.925 13.976 13.3948V10.4682C13.976 9.93806 13.4387 9.50825 12.776 9.50825M3 9.50825H12.776M3 9.50825L3 5.76002C3 5.22983 3.53726 4.80002 4.2 4.80002L19.8 4.80002C20.4627 4.80002 21 5.22983 21 5.76002V8.54825C21 9.07844 20.4627 9.50825 19.8 9.50825L12.776 9.50825M3 21.6V2.40002" stroke="#2C2920" stroke-width="1.5" stroke-linecap="square" stroke-linejoin="round"/>
</svg>
