<svg width="24" height="24" viewBox="0 0 24 24" fill="none" xmlns="http://www.w3.org/2000/svg">
<path d="M3 9.6452H7.17801M3 9.6452L7.1196 9.6463C7.13918 9.64631 7.15866 9.64594 7.17801 9.6452M3 9.6452L3 5.76002C3 5.22983 3.53726 4.80002 4.2 4.80002H7.12C7.78274 4.80002 8.32 5.22983 8.32 5.76002V8.6863C8.32 9.20095 7.81379 9.62099 7.17801 9.6452M3 9.6452L3 14.4918M7.17801 9.6452L12.776 9.6452C13.4387 9.6452 13.976 10.075 13.976 10.6052V13.5318C13.976 14.062 13.4387 14.4918 12.776 14.4918M3 14.4918H12.776M3 14.4918L3 18.24C3 18.7702 3.53726 19.2 4.2 19.2L19.8 19.2C20.4627 19.2 21 18.7702 21 18.24V15.4518C21 14.9216 20.4627 14.4918 19.8 14.4918L12.776 14.4918M3 21.6V2.40002" stroke="#2C2920" stroke-width="1.5" stroke-linecap="square" stroke-linejoin="round"/>
</svg>
