<svg width="25" height="24" viewBox="0 0 25 24" fill="none" xmlns="http://www.w3.org/2000/svg">
<path d="M8.02128 21H17.9787C18.5428 21 19 20.5395 19 19.9714V17.2237C19 17.0042 18.9302 16.7904 18.8009 16.6136L15.8558 12.5881C15.5981 12.2359 15.5898 11.7581 15.8351 11.3971L18.5663 7.3769C18.6825 7.20582 18.7447 7.00337 18.7447 6.79608V4.02857C18.7447 3.46051 18.2874 3 17.7234 3H8.02128C7.45724 3 7 3.46051 7 4.02857V6.77626C7 6.99584 7.06977 7.20964 7.19909 7.38641L10.1281 11.3899C10.3935 11.7527 10.3935 12.2473 10.1281 12.6101L7.19909 16.6136C7.06977 16.7904 7 17.0042 7 17.2237V19.9714C7 20.5395 7.45724 21 8.02128 21Z" stroke="#2C2920" stroke-width="1.5" stroke-linecap="square" stroke-linejoin="round"/>
</svg>
