<svg width="25" height="24" viewBox="0 0 25 24" fill="none" xmlns="http://www.w3.org/2000/svg">
<path d="M6 3H20M6 21H20M18.25 3V5.64723C18.25 6.33742 18.012 7.0065 17.5762 7.54167L14.7011 11.072C14.1922 11.6969 14.2043 12.5794 14.7301 13.1912L17.525 16.4423C17.9928 16.9865 18.25 17.6803 18.25 18.3979V21M7.75 3V5.64723C7.75 6.33742 7.98798 7.0065 8.42383 7.54167L11.2989 11.072C11.8078 11.6969 11.7957 12.5794 11.2699 13.1912L8.47505 16.4423C8.00724 16.9865 7.75 17.6803 7.75 18.3979V21" stroke="#2C2920" stroke-width="1.5" stroke-linecap="square" stroke-linejoin="round"/>
</svg>
