<svg width="24" height="24" viewBox="0 0 24 24" fill="none" xmlns="http://www.w3.org/2000/svg">
<path d="M5.28217 17.0947L4.75184 17.625L5.8125 18.6857L6.34283 18.1553L5.28217 17.0947ZM8.625 14.8125L9.15533 14.2822C8.86244 13.9893 8.38756 13.9893 8.09467 14.2822L8.625 14.8125ZM10.875 17.0625L10.3447 17.5928C10.6376 17.8857 11.1124 17.8857 11.4053 17.5928L10.875 17.0625ZM15.9375 12L16.4678 11.4697C16.1749 11.1768 15.7001 11.1768 15.4072 11.4697L15.9375 12ZM19.3447 16.4678L19.875 16.9982L20.9357 15.9375L20.4053 15.4072L19.3447 16.4678ZM5.8125 17.625L6.34283 18.1553L9.15533 15.3428L8.625 14.8125L8.09467 14.2822L5.28217 17.0947L5.8125 17.625ZM8.625 14.8125L8.09467 15.3428L10.3447 17.5928L10.875 17.0625L11.4053 16.5322L9.15533 14.2822L8.625 14.8125ZM10.875 17.0625L11.4053 17.5928L16.4678 12.5303L15.9375 12L15.4072 11.4697L10.3447 16.5322L10.875 17.0625ZM15.9375 12L15.4072 12.5303L19.3447 16.4678L19.875 15.9375L20.4053 15.4072L16.4678 11.4697L15.9375 12ZM12 21V20.25C7.44365 20.25 3.75 16.5563 3.75 12H3H2.25C2.25 17.3848 6.61522 21.75 12 21.75V21ZM21 12H20.25C20.25 16.5563 16.5563 20.25 12 20.25V21V21.75C17.3848 21.75 21.75 17.3848 21.75 12H21ZM12 3V3.75C16.5563 3.75 20.25 7.44365 20.25 12H21H21.75C21.75 6.61522 17.3848 2.25 12 2.25V3ZM12 3V2.25C6.61522 2.25 2.25 6.61522 2.25 12H3H3.75C3.75 7.44365 7.44365 3.75 12 3.75V3ZM10.875 9.1875H10.125C10.125 9.70527 9.70527 10.125 9.1875 10.125V10.875V11.625C10.5337 11.625 11.625 10.5337 11.625 9.1875H10.875ZM9.1875 10.875V10.125C8.66973 10.125 8.25 9.70527 8.25 9.1875H7.5H6.75C6.75 10.5337 7.84131 11.625 9.1875 11.625V10.875ZM7.5 9.1875H8.25C8.25 8.66973 8.66973 8.25 9.1875 8.25V7.5V6.75C7.84131 6.75 6.75 7.84131 6.75 9.1875H7.5ZM9.1875 7.5V8.25C9.70527 8.25 10.125 8.66973 10.125 9.1875H10.875H11.625C11.625 7.84131 10.5337 6.75 9.1875 6.75V7.5Z" fill="#2C2920"/>
</svg>
