<svg width="24" height="24" viewBox="0 0 24 24" fill="none" xmlns="http://www.w3.org/2000/svg">
<path d="M8.68771 12.8273L8.20288 12.2551L8.20287 12.2551L8.68771 12.8273ZM8.73722 12.7799L8.20286 12.2536L8.20227 12.2542L8.73722 12.7799ZM6.65437 14.5501L6.16953 13.9779L6.16952 13.9779L6.65437 14.5501ZM6.54298 14.6674L7.15859 15.0958L7.15859 15.0958L6.54298 14.6674ZM17.3367 12.8993L16.8173 13.4403L17.3367 12.8993ZM15.6013 11.2333L15.0819 11.7743L15.0819 11.7743L15.6013 11.2333ZM14.9569 11.2287L14.4451 10.6804L14.4432 10.6822L14.9569 11.2287ZM11.7424 14.2498L12.2542 14.7981L12.2561 14.7963L11.7424 14.2498ZM11.0881 14.2355L10.5511 14.7591L10.5522 14.7602L11.0881 14.2355ZM11.0796 14.2269L10.5421 14.75L10.5426 14.7505L11.0796 14.2269ZM11.0337 14.1823L11.5247 13.6154L11.5247 13.6154L11.0337 14.1823ZM9.46776 12.8259L9.9588 12.259L9.9588 12.259L9.46776 12.8259ZM9.42164 12.7811L9.95931 12.2583L9.9588 12.2577L9.42164 12.7811ZM9.41339 12.7727L9.95055 12.2493L9.94954 12.2482L9.41339 12.7727ZM8.74612 12.7708L8.21282 12.2435L8.21176 12.2446L8.74612 12.7708ZM16.0496 6.93731V6.18731C15.6353 6.18731 15.2996 6.5231 15.2996 6.93731H16.0496ZM16.3713 6.93731H17.1213C17.1213 6.5231 16.7855 6.18731 16.3713 6.18731V6.93731ZM16.3713 7.20977V7.95977C16.7855 7.95977 17.1213 7.62399 17.1213 7.20977H16.3713ZM16.0496 7.20977H15.2996C15.2996 7.62399 15.6353 7.95977 16.0496 7.95977V7.20977ZM3 6.375H2.25V17.625H3H3.75V6.375H3ZM6.375 21V21.75H17.625V21V20.25H6.375V21ZM21 17.625H21.75V6.375H21H20.25V17.625H21ZM17.625 3V2.25H6.375V3V3.75H17.625V3ZM21 6.375H21.75C21.75 4.09683 19.9032 2.25 17.625 2.25V3V3.75C19.0747 3.75 20.25 4.92525 20.25 6.375H21ZM17.625 21V21.75C19.9032 21.75 21.75 19.9032 21.75 17.625H21H20.25C20.25 19.0747 19.0747 20.25 17.625 20.25V21ZM3 17.625H2.25C2.25 19.9032 4.09683 21.75 6.375 21.75V21V20.25C4.92525 20.25 3.75 19.0747 3.75 17.625H3ZM3 6.375H3.75C3.75 4.92525 4.92525 3.75 6.375 3.75V3V2.25C4.09683 2.25 2.25 4.09683 2.25 6.375H3ZM8.68771 12.8273L9.17254 13.3995C9.22046 13.3589 9.26019 13.3177 9.27217 13.3055L8.73722 12.7799L8.20227 12.2542C8.19802 12.2585 8.1955 12.2611 8.19323 12.2634C8.19112 12.2655 8.19025 12.2663 8.19015 12.2664C8.18978 12.2668 8.19453 12.2621 8.20288 12.2551L8.68771 12.8273ZM6.65437 14.5501L7.1392 15.1224L9.17255 13.3995L8.68771 12.8273L8.20287 12.2551L6.16953 13.9779L6.65437 14.5501ZM6.54298 14.6674L7.15859 15.0958C7.14642 15.1133 7.13652 15.1239 7.13299 15.1276C7.12972 15.1309 7.13053 15.1297 7.13921 15.1224L6.65437 14.5501L6.16952 13.9779C6.10669 14.0312 6.01185 14.1176 5.92737 14.239L6.54298 14.6674ZM6.375 15.2029H7.125C7.125 15.1645 7.1368 15.1271 7.15859 15.0958L6.54298 14.6674L5.92737 14.239C5.73119 14.5209 5.625 14.8571 5.625 15.2029H6.375ZM6.375 17.1563H7.125V15.2029H6.375H5.625V17.1563H6.375ZM6.84375 17.625V16.875C6.99908 16.875 7.125 17.0009 7.125 17.1563H6.375H5.625C5.625 17.8294 6.17066 18.375 6.84375 18.375V17.625ZM17.1562 17.625V16.875H6.84375V17.625V18.375H17.1562V17.625ZM17.625 17.1563H16.875C16.875 17.0009 17.0009 16.875 17.1562 16.875V17.625V18.375C17.8293 18.375 18.375 17.8294 18.375 17.1563H17.625ZM17.625 13.5756H16.875V17.1563H17.625H18.375V13.5756H17.625ZM17.3367 12.8993L16.8173 13.4403C16.8542 13.4757 16.875 13.5245 16.875 13.5756H17.625H18.375C18.375 13.1161 18.1876 12.6764 17.8561 12.3582L17.3367 12.8993ZM15.6013 11.2333L15.0819 11.7743L16.8173 13.4403L17.3367 12.8993L17.8561 12.3582L16.1207 10.6922L15.6013 11.2333ZM14.9569 11.2287L15.4686 11.777C15.3594 11.8789 15.1897 11.8777 15.0819 11.7743L15.6013 11.2333L16.1207 10.6922C15.6539 10.2441 14.9182 10.2389 14.4451 10.6804L14.9569 11.2287ZM11.7424 14.2498L12.2561 14.7963L15.4705 11.7753L14.9569 11.2287L14.4432 10.6822L11.2288 13.7033L11.7424 14.2498ZM11.0881 14.2355L10.5522 14.7602C11.0108 15.2287 11.7665 15.2533 12.2542 14.7981L11.7424 14.2498L11.2307 13.7015C11.3435 13.5963 11.5176 13.6022 11.624 13.7108L11.0881 14.2355ZM11.0796 14.2269L10.5426 14.7505L10.5511 14.7591L11.0881 14.2355L11.625 13.7119L11.6166 13.7033L11.0796 14.2269ZM11.0337 14.1823L10.5426 14.7492C10.5349 14.7425 10.5305 14.7381 10.5309 14.7385C10.531 14.7386 10.5318 14.7394 10.5337 14.7414C10.5359 14.7435 10.5382 14.7459 10.5421 14.75L11.0796 14.2269L11.6171 13.7038C11.606 13.6924 11.569 13.6538 11.5247 13.6154L11.0337 14.1823ZM9.46776 12.8259L8.97673 13.3929L10.5427 14.7492L11.0337 14.1823L11.5247 13.6154L9.9588 12.259L9.46776 12.8259ZM9.42164 12.7811L8.88398 13.304C8.89516 13.3155 8.93223 13.3543 8.97673 13.3929L9.46776 12.8259L9.9588 12.259C9.96655 12.2657 9.97097 12.2701 9.97062 12.2698C9.97052 12.2697 9.96971 12.2689 9.96775 12.2669C9.96562 12.2647 9.96328 12.2623 9.95931 12.2583L9.42164 12.7811ZM9.41339 12.7727L8.87623 13.2961L8.88449 13.3046L9.42164 12.7811L9.9588 12.2577L9.95055 12.2493L9.41339 12.7727ZM8.74612 12.7708L9.27941 13.2982C9.16816 13.4107 8.98804 13.4104 8.87725 13.2971L9.41339 12.7727L9.94954 12.2482C9.47384 11.7619 8.69054 11.7604 8.21282 12.2435L8.74612 12.7708ZM8.73722 12.7799L9.27158 13.3061L9.28048 13.2971L8.74612 12.7708L8.21176 12.2446L8.20286 12.2536L8.73722 12.7799ZM16.0496 6.93731V7.68731H16.3713V6.93731V6.18731H16.0496V6.93731ZM16.3713 6.93731H15.6213V7.20977H16.3713H17.1213V6.93731H16.3713ZM16.3713 7.20977V6.45977H16.0496V7.20977V7.95977H16.3713V7.20977ZM16.0496 7.20977H16.7996V6.93731H16.0496H15.2996V7.20977H16.0496Z" fill="#2C2920"/>
</svg>
