<svg width="24" height="24" viewBox="0 0 24 24" fill="none" xmlns="http://www.w3.org/2000/svg">
<path d="M2.3999 20.4L1.81425 19.9315C1.63415 20.1566 1.59903 20.465 1.72392 20.7249C1.84881 20.9847 2.1116 21.15 2.3999 21.15V20.4ZM7.6799 13.8L8.26555 13.3315C8.12322 13.1536 7.90774 13.05 7.6799 13.05C7.45206 13.05 7.23658 13.1536 7.09425 13.3315L7.6799 13.8ZM9.5999 16.2L9.01425 16.6685C9.15658 16.8464 9.37206 16.95 9.5999 16.95C9.82774 16.95 10.0432 16.8464 10.1856 16.6685L9.5999 16.2ZM13.9199 10.8L14.5056 10.3315C14.3632 10.1536 14.1477 10.05 13.9199 10.05C13.6921 10.05 13.4766 10.1536 13.3342 10.3315L13.9199 10.8ZM21.5999 20.4V21.15C21.8882 21.15 22.151 20.9847 22.2759 20.7249C22.4008 20.465 22.3657 20.1566 22.1856 19.9315L21.5999 20.4ZM8.3999 5.40001H7.6499C7.6499 5.97991 7.1798 6.45001 6.5999 6.45001V7.20001V7.95001C8.00823 7.95001 9.1499 6.80833 9.1499 5.40001H8.3999ZM6.5999 7.20001V6.45001C6.02 6.45001 5.5499 5.97991 5.5499 5.40001H4.7999H4.0499C4.0499 6.80833 5.19158 7.95001 6.5999 7.95001V7.20001ZM4.7999 5.40001H5.5499C5.5499 4.82011 6.02 4.35001 6.5999 4.35001V3.60001V2.85001C5.19158 2.85001 4.0499 3.99168 4.0499 5.40001H4.7999ZM6.5999 3.60001V4.35001C7.1798 4.35001 7.6499 4.82011 7.6499 5.40001H8.3999H9.1499C9.1499 3.99168 8.00823 2.85001 6.5999 2.85001V3.60001ZM2.3999 20.4L2.98555 20.8685L8.26555 14.2685L7.6799 13.8L7.09425 13.3315L1.81425 19.9315L2.3999 20.4ZM7.6799 13.8L7.09425 14.2685L9.01425 16.6685L9.5999 16.2L10.1856 15.7315L8.26555 13.3315L7.6799 13.8ZM9.5999 16.2L10.1856 16.6685L14.5056 11.2685L13.9199 10.8L13.3342 10.3315L9.01425 15.7315L9.5999 16.2ZM13.9199 10.8L13.3342 11.2685L21.0142 20.8685L21.5999 20.4L22.1856 19.9315L14.5056 10.3315L13.9199 10.8ZM21.5999 20.4V19.65H2.3999V20.4V21.15H21.5999V20.4Z" fill="#2C2920"/>
</svg>
