<svg width="24" height="24" viewBox="0 0 24 24" fill="none" xmlns="http://www.w3.org/2000/svg">
<path d="M15.1999 19.1999C15.1999 20.5254 14.1254 21.5999 12.7999 21.5999C11.4744 21.5999 4.7999 21.5999 4.7999 21.5999C3.47442 21.5999 2.3999 20.5254 2.3999 19.1999C2.3999 17.8744 2.3999 12.5254 2.3999 11.1999C2.3999 9.87442 3.47442 8.7999 4.7999 8.7999L12.7999 8.7999C14.1254 8.7999 15.1999 9.87442 15.1999 11.1999V19.1999Z" stroke="#2C2920" stroke-width="1.5" stroke-linecap="square" stroke-linejoin="round"/>
<path d="M21.5999 12.7999C21.5999 14.1254 20.5254 15.1999 19.1999 15.1999C17.8744 15.1999 11.1999 15.1999 11.1999 15.1999C9.87442 15.1999 8.7999 14.1254 8.7999 12.7999C8.7999 11.4744 8.7999 6.12539 8.7999 4.7999C8.7999 3.47442 9.87442 2.3999 11.1999 2.3999L19.1999 2.3999C20.5254 2.3999 21.5999 3.47442 21.5999 4.7999V12.7999Z" stroke="#2C2920" stroke-width="1.5" stroke-linecap="square" stroke-linejoin="round"/>
</svg>
