<svg width="25" height="24" viewBox="0 0 25 24" fill="none" xmlns="http://www.w3.org/2000/svg">
<path d="M20.1499 15.6V16.35H21.6499V15.6H20.1499ZM3.3499 15.6V16.35H4.8499V15.6H3.3499ZM6.1999 4.19995V4.94995H18.7999V4.19995V3.44995H6.1999V4.19995ZM20.8999 6.23072H20.1499V15.6H20.8999H21.6499V6.23072H20.8999ZM4.0999 15.6H4.8499V6.23072H4.0999H3.3499V15.6H4.0999ZM18.7999 4.19995V4.94995C19.5694 4.94995 20.1499 5.54687 20.1499 6.23072H20.8999H21.6499C21.6499 4.67144 20.35 3.44995 18.7999 3.44995V4.19995ZM6.1999 4.19995V3.44995C4.64979 3.44995 3.3499 4.67144 3.3499 6.23072H4.0999H4.8499C4.8499 5.54687 5.43042 4.94995 6.1999 4.94995V4.19995ZM4.0999 16.2V16.95H20.8999V16.2V15.45H4.0999V16.2ZM22.0999 17.4H21.3499V18.6H22.0999H22.8499V17.4H22.0999ZM20.8999 19.8V19.05H4.0999V19.8V20.5499H20.8999V19.8ZM2.8999 18.6H3.6499V17.4H2.8999H2.1499V18.6H2.8999ZM4.0999 19.8V19.05C3.85137 19.05 3.6499 18.8485 3.6499 18.6H2.8999H2.1499C2.1499 19.6769 3.02295 20.5499 4.0999 20.5499V19.8ZM22.0999 18.6H21.3499C21.3499 18.8485 21.1484 19.05 20.8999 19.05V19.8V20.5499C21.9769 20.5499 22.8499 19.6769 22.8499 18.6H22.0999ZM20.8999 16.2V16.95C21.1484 16.95 21.3499 17.1514 21.3499 17.4H22.0999H22.8499C22.8499 16.323 21.9769 15.45 20.8999 15.45V16.2ZM4.0999 16.2V15.45C3.02295 15.45 2.1499 16.323 2.1499 17.4H2.8999H3.6499C3.6499 17.1514 3.85137 16.95 4.0999 16.95V16.2Z" fill="#2C2920"/>
</svg>
