<svg width="24" height="24" viewBox="0 0 24 24" fill="none" xmlns="http://www.w3.org/2000/svg">
<path d="M5.9999 21.5999C4.01167 21.5999 2.3999 19.9881 2.3999 17.9999L2.3999 5.9999C2.3999 4.01168 4.01168 2.3999 5.9999 2.3999L17.9999 2.3999C19.9881 2.3999 21.5999 4.01168 21.5999 5.9999L21.5999 17.9999C21.5999 19.9881 19.9881 21.5999 17.9999 21.5999H5.9999Z" stroke="#2C2920" stroke-width="1.5" stroke-linecap="square"/>
<path d="M8 5.75H9C10.2426 5.75 11.25 6.75736 11.25 8V16C11.25 17.2426 10.2426 18.25 9 18.25H8C6.75736 18.25 5.75 17.2426 5.75 16V8C5.75 6.75736 6.75736 5.75 8 5.75Z" stroke="#2C2920" stroke-width="1.5"/>
</svg>
