<svg width="24" height="24" viewBox="0 0 24 24" fill="none" xmlns="http://www.w3.org/2000/svg">
<path d="M7.4712 10.2831L5.23775 12.5166C4.40361 13.3507 3.92393 14.4857 3.9327 15.6785C3.94146 16.8713 4.41065 18.0132 5.28436 18.8599C6.13105 19.7337 7.27318 20.2028 8.4658 20.2116C9.68562 20.2206 10.7937 19.7679 11.6279 18.9338L13.8614 16.7003M16.7142 13.9021L18.9476 11.6686C19.7818 10.8345 20.2614 9.69951 20.2527 8.5067C20.2439 7.31389 19.7747 6.172 18.901 5.32527C18.0545 4.47878 16.9126 4.00957 15.7198 4.00081C14.527 3.99204 13.3919 4.44449 12.5577 5.27865L10.3242 7.5121M8.70579 15.4198L15.4062 8.71941M5.33635 5.2171L4.23005 4.11079M9.17786 3.26835L9.35884 1.44482M1.72192 9.08141L3.61258 8.89376M18.941 18.5057L20.0473 19.612M15.0995 20.4545L14.9185 22.278M22.5554 14.6414L20.6648 14.8291" stroke="#2C2920" stroke-width="1.5" stroke-linecap="square" stroke-linejoin="round"/>
</svg>
