<svg width="24" height="24" viewBox="0 0 24 24" fill="none" xmlns="http://www.w3.org/2000/svg">
<path d="M8.66667 19.3636V18.6136H7.16667V19.3636H8.66667ZM7.16667 21V21.75H8.66667V21H7.16667ZM15.9167 21V21.75H17.4167V21H15.9167ZM10.4167 6.27273V5.52273L8.91667 5.52273V6.27273L10.4167 6.27273ZM8.91667 16.0909L8.91667 16.8409L10.4167 16.8409V16.0909L8.91667 16.0909ZM15.0833 6.27273V5.52273H13.5833V6.27273H15.0833ZM13.5833 16.0909V16.8409H15.0833V16.0909H13.5833ZM7.91667 19.3636H7.16667V21H7.91667H8.66667V19.3636H7.91667ZM16.6667 19.3636H15.9167V21H16.6667H17.4167V19.3636H16.6667ZM9.66667 6.27273H8.91667L8.91667 16.0909H9.66667L10.4167 16.0909L10.4167 6.27273L9.66667 6.27273ZM14.3333 6.27273H13.5833V16.0909H14.3333H15.0833V6.27273H14.3333ZM7.33333 3V3.75H16.6667V3V2.25H7.33333V3ZM19 5.18182H18.25V17.1818H19H19.75V5.18182H19ZM16.6667 19.3636V18.6136H7.33333V19.3636V20.1136H16.6667V19.3636ZM5 17.1818H5.75V5.18182H5H4.25V17.1818H5ZM7.33333 19.3636V18.6136C6.41066 18.6136 5.75 17.926 5.75 17.1818H5H4.25C4.25 18.8477 5.67868 20.1136 7.33333 20.1136V19.3636ZM19 17.1818H18.25C18.25 17.926 17.5893 18.6136 16.6667 18.6136V19.3636V20.1136C18.3213 20.1136 19.75 18.8477 19.75 17.1818H19ZM16.6667 3V3.75C17.5893 3.75 18.25 4.43768 18.25 5.18182H19H19.75C19.75 3.51599 18.3213 2.25 16.6667 2.25V3ZM7.33333 3V2.25C5.67868 2.25 4.25 3.51599 4.25 5.18182H5H5.75C5.75 4.43768 6.41066 3.75 7.33333 3.75V3Z" fill="#2C2920"/>
</svg>
