<svg width="24" height="24" viewBox="0 0 24 24" fill="none" xmlns="http://www.w3.org/2000/svg">
<path d="M11.9999 14.4L11.5078 14.966C11.79 15.2114 12.2098 15.2114 12.492 14.966L11.9999 14.4ZM6.80479 15.0138L7.52626 14.809L7.11649 13.366L6.39502 13.5709L6.80479 15.0138ZM17.6048 13.5709L16.8833 13.366L16.4735 14.809L17.195 15.0138L17.6048 13.5709ZM16.7999 7.09568H16.0499C16.0499 7.69976 15.8134 8.41885 15.3903 9.20067C14.9726 9.97245 14.4063 10.7451 13.8246 11.4406C13.245 12.1336 12.6632 12.7345 12.2254 13.1628C12.007 13.3765 11.8255 13.5461 11.6995 13.6616C11.6366 13.7192 11.5875 13.7633 11.5548 13.7925C11.5384 13.8071 11.5261 13.818 11.5182 13.8249C11.5142 13.8284 11.5113 13.831 11.5096 13.8325C11.5087 13.8332 11.5081 13.8338 11.5078 13.834C11.5077 13.8342 11.5076 13.8342 11.5076 13.8342C11.5076 13.8342 11.5076 13.8342 11.5076 13.8342C11.5077 13.8341 11.5078 13.8341 11.9999 14.4C12.492 14.966 12.4922 14.9659 12.4923 14.9658C12.4924 14.9657 12.4925 14.9656 12.4927 14.9654C12.493 14.9652 12.4933 14.9649 12.4937 14.9645C12.4946 14.9637 12.4957 14.9627 12.4972 14.9615C12.5 14.959 12.5041 14.9555 12.5092 14.951C12.5194 14.942 12.5341 14.929 12.5528 14.9123C12.5904 14.8788 12.6445 14.8301 12.7128 14.7676C12.8493 14.6425 13.0428 14.4616 13.2744 14.2351C13.7366 13.7829 14.3548 13.1447 14.9752 12.4029C15.5935 11.6636 16.2272 10.8059 16.7095 9.9146C17.1864 9.03337 17.5499 8.05681 17.5499 7.09568H16.7999ZM11.9999 14.4C12.492 13.8341 12.4921 13.8341 12.4922 13.8342C12.4922 13.8342 12.4922 13.8342 12.4922 13.8342C12.4922 13.8342 12.4921 13.8342 12.492 13.834C12.4917 13.8338 12.4911 13.8332 12.4902 13.8325C12.4885 13.831 12.4856 13.8284 12.4816 13.8249C12.4737 13.818 12.4614 13.8071 12.445 13.7925C12.4123 13.7633 12.3633 13.7192 12.3003 13.6616C12.1743 13.5461 11.9928 13.3765 11.7744 13.1628C11.3366 12.7345 10.7548 12.1336 10.1752 11.4406C9.59353 10.7451 9.02718 9.97245 8.60951 9.20067C8.1864 8.41885 7.9499 7.69976 7.9499 7.09568H7.1999H6.4499C6.4499 8.05681 6.8134 9.03337 7.2903 9.9146C7.77263 10.8059 8.40627 11.6636 9.0246 12.4029C9.645 13.1447 10.2632 13.7829 10.7254 14.2351C10.957 14.4616 11.1505 14.6425 11.287 14.7676C11.3553 14.8301 11.4094 14.8788 11.447 14.9123C11.4658 14.929 11.4804 14.942 11.4906 14.951C11.4958 14.9555 11.4998 14.959 11.5026 14.9615C11.5041 14.9627 11.5052 14.9637 11.5061 14.9645C11.5065 14.9649 11.5069 14.9652 11.5071 14.9654C11.5073 14.9656 11.5074 14.9657 11.5075 14.9658C11.5076 14.9659 11.5078 14.966 11.9999 14.4ZM7.1999 7.09568H7.9499C7.9499 4.93201 9.74752 3.15002 11.9999 3.15002V2.40002V1.65002C8.95035 1.65002 6.4499 4.07267 6.4499 7.09568H7.1999ZM11.9999 2.40002V3.15002C14.2523 3.15002 16.0499 4.93201 16.0499 7.09568H16.7999H17.5499C17.5499 4.07267 15.0495 1.65002 11.9999 1.65002V2.40002ZM21.5999 17.6H20.8499C20.8499 17.891 20.7115 18.2362 20.3191 18.6227C19.9241 19.0119 19.314 19.3968 18.4997 19.7361C16.8742 20.4134 14.5766 20.85 11.9999 20.85V21.6V22.35C14.7251 22.35 17.2276 21.8912 19.0766 21.1208C19.9995 20.7362 20.7953 20.2593 21.3718 19.6913C21.951 19.1207 22.3499 18.4136 22.3499 17.6H21.5999ZM11.9999 21.6V20.85C9.42321 20.85 7.12563 20.4134 5.50014 19.7361C4.68575 19.3968 4.07568 19.0119 3.68066 18.6227C3.28828 18.2362 3.1499 17.891 3.1499 17.6H2.3999H1.6499C1.6499 18.4136 2.04879 19.1207 2.62798 19.6913C3.20453 20.2593 4.00034 20.7362 4.92322 21.1208C6.77224 21.8912 9.27466 22.35 11.9999 22.35V21.6ZM2.3999 17.6H3.1499C3.1499 17.2399 3.36723 16.7878 4.00702 16.2946C4.6393 15.8073 5.59194 15.3583 6.80479 15.0138L6.5999 14.2924L6.39502 13.5709C5.07254 13.9465 3.92517 14.4638 3.09129 15.1066C2.26492 15.7436 1.6499 16.5853 1.6499 17.6H2.3999ZM17.3999 14.2924L17.195 15.0138C18.4079 15.3583 19.3605 15.8073 19.9928 16.2946C20.6326 16.7878 20.8499 17.2399 20.8499 17.6H21.5999H22.3499C22.3499 16.5853 21.7349 15.7436 20.9085 15.1066C20.0746 14.4638 18.9273 13.9465 17.6048 13.5709L17.3999 14.2924Z" fill="#2C2920"/>
</svg>
