<svg width="25" height="24" viewBox="0 0 25 24" fill="none" xmlns="http://www.w3.org/2000/svg">
<path d="M3.5001 7.1999L21.5001 7.1999M3.5001 16.7999L21.5001 16.7999M12.5001 2.3999L12.5001 21.5999M17.3001 2.3999L17.3001 7.1999M17.3001 16.7999L17.3001 21.5999M7.7001 2.3999L7.7001 7.1999M7.7001 16.7999L7.7001 21.5999M6.49999 2.3999L18.5001 2.3999C20.4883 2.39991 22.1001 4.01168 22.1001 5.99991L22.1001 17.9999C22.1001 19.9881 20.4883 21.5999 18.5001 21.5999L6.49999 21.5999C4.51176 21.5999 2.89999 19.9881 2.89999 17.9999L2.89999 5.9999C2.89999 4.01168 4.51176 2.3999 6.49999 2.3999Z" stroke="#2C2920" stroke-width="1.5" stroke-linecap="square" stroke-linejoin="round"/>
</svg>
