<svg width="24" height="24" viewBox="0 0 24 24" fill="none" xmlns="http://www.w3.org/2000/svg">
<path d="M18.1934 2.97925C20.1746 3.07988 21.75 4.71815 21.75 6.72437V15.0085C21.75 17.0796 20.0711 18.7585 18 18.7585H14.6025C14.5157 18.7586 14.4351 18.8037 14.3896 18.8777L13.4912 20.3416C12.8082 21.4543 11.1918 21.4543 10.5088 20.3416L9.61035 18.8777C9.5649 18.8037 9.4843 18.7586 9.39746 18.7585H6C3.92893 18.7585 2.25 17.0796 2.25 15.0085V6.72437C2.25 4.6533 3.92893 2.97437 6 2.97437H18L18.1934 2.97925ZM12.001 7.76831C11.5868 7.76831 11.251 8.1041 11.251 8.51831V10.1687H9.60059C9.18637 10.1687 8.85059 10.5045 8.85059 10.9187C8.85106 11.3325 9.18667 11.6687 9.60059 11.6687H11.251V13.3181C11.2512 13.7321 11.5869 14.0681 12.001 14.0681C12.4146 14.0676 12.7507 13.7318 12.751 13.3181V11.6687H14.4004L14.4775 11.6648C14.8551 11.6261 15.1499 11.3064 15.1504 10.9187C15.1504 10.5307 14.8553 10.2114 14.4775 10.1726L14.4004 10.1687H12.751V8.51831C12.751 8.10439 12.4148 7.76879 12.001 7.76831Z" fill="#DB571F"/>
</svg>
