<svg width="24" height="24" viewBox="0 0 24 24" fill="none" xmlns="http://www.w3.org/2000/svg">
<path d="M22.3492 12.6V11.85H20.8492V12.6H22.3492ZM20.7837 16.478L20.0977 16.1747C20.0409 16.3032 20.0214 16.445 20.0412 16.5841L20.7837 16.478ZM16.6981 20.9734L16.88 20.2458C16.6941 20.1993 16.4974 20.2258 16.3304 20.3197L16.6981 20.9734ZM21.601 22.1991L21.4191 22.9267C21.6613 22.9873 21.9179 22.9233 22.1033 22.7561C22.2887 22.5888 22.3788 22.3403 22.3435 22.0931L21.601 22.1991ZM10.3389 3.90538L11.0758 3.76561L10.7963 2.29189L10.0594 2.43166L10.3389 3.90538ZM21.5992 12.6H20.8492C20.8492 13.8736 20.5806 15.0825 20.0977 16.1747L20.7837 16.478L21.4696 16.7813C22.0354 15.5017 22.3492 14.0865 22.3492 12.6H21.5992ZM11.9992 22.2001V21.4501C7.11145 21.4501 3.14917 17.4878 3.14917 12.6H2.39917H1.64917C1.64917 18.3162 6.28302 22.9501 11.9992 22.9501V22.2001ZM16.6981 20.9734L16.3304 20.3197C15.0508 21.0393 13.5741 21.4501 11.9992 21.4501V22.2001V22.9501C13.8383 22.9501 15.5674 22.4697 17.0657 21.6271L16.6981 20.9734ZM21.601 22.1991L21.7829 21.4715L16.88 20.2458L16.6981 20.9734L16.5162 21.701L21.4191 22.9267L21.601 22.1991ZM20.7837 16.478L20.0412 16.5841L20.8585 22.3052L21.601 22.1991L22.3435 22.0931L21.5261 16.3719L20.7837 16.478ZM2.39917 12.6H3.14917C3.14917 8.28032 6.24481 4.68201 10.3389 3.90538L10.1992 3.16852L10.0594 2.43166C5.27043 3.3401 1.64917 7.54637 1.64917 12.6H2.39917ZM21.5992 5.40005H20.8492C20.8492 6.97406 19.5732 8.25005 17.9992 8.25005V9.00005V9.75005C20.4016 9.75005 22.3492 7.80249 22.3492 5.40005H21.5992ZM17.9992 9.00005V8.25005C16.4252 8.25005 15.1492 6.97406 15.1492 5.40005H14.3992H13.6492C13.6492 7.80249 15.5967 9.75005 17.9992 9.75005V9.00005ZM14.3992 5.40005H15.1492C15.1492 3.82604 16.4252 2.55005 17.9992 2.55005V1.80005V1.05005C15.5967 1.05005 13.6492 2.99761 13.6492 5.40005H14.3992ZM17.9992 1.80005V2.55005C19.5732 2.55005 20.8492 3.82604 20.8492 5.40005H21.5992H22.3492C22.3492 2.99761 20.4016 1.05005 17.9992 1.05005V1.80005Z" fill="#2C2920"/>
</svg>
