<svg width="24" height="24" viewBox="0 0 24 24" fill="none" xmlns="http://www.w3.org/2000/svg">
<path d="M11.6869 17.1914V16.4414C11.4879 16.4414 11.2972 16.5204 11.1565 16.661L11.6869 17.1914ZM6.67816 22.2001H5.92816C5.92816 22.5034 6.11089 22.7769 6.39115 22.893C6.67141 23.009 6.99399 22.9449 7.20849 22.7304L6.67816 22.2001ZM6.67816 17.1914H7.42816C7.42816 16.7771 7.09238 16.4414 6.67816 16.4414V17.1914ZM10.7999 3.75005H11.5499V2.25005H10.7999V3.75005ZM22.3499 12V11.25H20.8499V12H22.3499ZM11.6869 17.1914L11.1565 16.661L6.14783 21.6697L6.67816 22.2001L7.20849 22.7304L12.2172 17.7217L11.6869 17.1914ZM6.67816 22.2001H7.42816V17.1914H6.67816H5.92816V22.2001H6.67816ZM6.67816 17.1914V16.4414H4.7999V17.1914V17.9414H6.67816V17.1914ZM2.3999 14.7914H3.1499V5.40005H2.3999H1.6499V14.7914H2.3999ZM19.1999 17.1914V16.4414H11.6869V17.1914V17.9414H19.1999V17.1914ZM4.7999 3.00005V3.75005H10.7999V3.00005V2.25005H4.7999V3.00005ZM21.5999 12H20.8499V14.7914H21.5999H22.3499V12H21.5999ZM19.1999 17.1914V17.9414C20.9396 17.9414 22.3499 16.5311 22.3499 14.7914H21.5999H20.8499C20.8499 15.7026 20.1112 16.4414 19.1999 16.4414V17.1914ZM2.3999 5.40005H3.1499C3.1499 4.48878 3.88863 3.75005 4.7999 3.75005V3.00005V2.25005C3.0602 2.25005 1.6499 3.66035 1.6499 5.40005H2.3999ZM4.7999 17.1914V16.4414C3.88863 16.4414 3.1499 15.7026 3.1499 14.7914H2.3999H1.6499C1.6499 16.5311 3.06021 17.9414 4.7999 17.9414V17.1914ZM21.5999 5.40005H20.8499C20.8499 6.97406 19.5739 8.25005 17.9999 8.25005V9.00005V9.75005C20.4023 9.75005 22.3499 7.80249 22.3499 5.40005H21.5999ZM17.9999 9.00005V8.25005C16.4259 8.25005 15.1499 6.97406 15.1499 5.40005H14.3999H13.6499C13.6499 7.80249 15.5975 9.75005 17.9999 9.75005V9.00005ZM14.3999 5.40005H15.1499C15.1499 3.82604 16.4259 2.55005 17.9999 2.55005V1.80005V1.05005C15.5975 1.05005 13.6499 2.99761 13.6499 5.40005H14.3999ZM17.9999 1.80005V2.55005C19.5739 2.55005 20.8499 3.82604 20.8499 5.40005H21.5999H22.3499C22.3499 2.99761 20.4023 1.05005 17.9999 1.05005V1.80005Z" fill="#2C2920"/>
</svg>
