<svg width="24" height="24" viewBox="0 0 24 24" fill="none" xmlns="http://www.w3.org/2000/svg">
<path d="M18 3.72437V2.97437V3.72437ZM18 18.0085V18.7585V18.0085ZM6 18.0085V18.7585V18.0085ZM3 6.72437L2.25 6.72436V6.72437H3ZM6 3.72437V2.97437V3.72437ZM10.2497 18.4856L9.61043 18.8778L10.2497 18.4856ZM12.8524 19.9492L12.2131 19.557L12.8524 19.9492ZM11.1476 19.9492L10.5083 20.3414L11.1476 19.9492ZM18 3.72437V4.47437C19.2426 4.47437 20.25 5.48172 20.25 6.72437H21H21.75C21.75 4.6533 20.0711 2.97437 18 2.97437V3.72437ZM21 6.72437H20.25V15.0085H21H21.75V6.72437H21ZM21 15.0085H20.25C20.25 16.2512 19.2426 17.2585 18 17.2585V18.0085V18.7585C20.0711 18.7585 21.75 17.0796 21.75 15.0085H21ZM18 18.0085V17.2585H14.6027V18.0085V18.7585H18V18.0085ZM13.7503 18.4856L13.111 18.0934L12.2131 19.557L12.8524 19.9492L13.4917 20.3414L14.3896 18.8778L13.7503 18.4856ZM11.1476 19.9492L11.7869 19.557L10.889 18.0934L10.2497 18.4856L9.61043 18.8778L10.5083 20.3414L11.1476 19.9492ZM9.39733 18.0085V17.2585H6V18.0085V18.7585H9.39733V18.0085ZM6 18.0085V17.2585C4.75736 17.2585 3.75 16.2512 3.75 15.0085H3H2.25C2.25 17.0796 3.92893 18.7585 6 18.7585V18.0085ZM3 15.0085H3.75V6.72437H3H2.25V15.0085H3ZM3 6.72437L3.75 6.72437C3.75 5.48172 4.75736 4.47437 6 4.47437V3.72437V2.97437C3.92893 2.97437 2.25 4.6533 2.25 6.72436L3 6.72437ZM6 3.72437V4.47437H18V3.72437V2.97437H6V3.72437ZM10.2497 18.4856L10.889 18.0934C10.5708 17.5747 10.0059 17.2585 9.39733 17.2585V18.0085V18.7585C9.48427 18.7585 9.56497 18.8037 9.61043 18.8778L10.2497 18.4856ZM12.8524 19.9492L12.2131 19.557C12.1155 19.7161 11.8845 19.7161 11.7869 19.557L11.1476 19.9492L10.5083 20.3414C11.1913 21.4546 12.8087 21.4546 13.4917 20.3414L12.8524 19.9492ZM14.6027 18.0085V17.2585C13.9941 17.2585 13.4292 17.5747 13.111 18.0934L13.7503 18.4856L14.3896 18.8778C14.435 18.8037 14.5157 18.7585 14.6027 18.7585V18.0085Z" fill="#2C2920"/>
<path d="M12.0001 13.3178V10.9178M12.0001 10.9178V8.51782M12.0001 10.9178H9.6001M12.0001 10.9178H14.4001" stroke="#2C2920" stroke-width="1.5" stroke-linecap="round" stroke-linejoin="round"/>
</svg>
