<svg width="20" height="20" viewBox="0 0 20 20" fill="none" xmlns="http://www.w3.org/2000/svg">
<path d="M16 1.72437V0.974365V1.72437ZM16 16.0085V16.7585V16.0085ZM4 16.0085V16.7585V16.0085ZM1 4.72437L0.25 4.72436V4.72437H1ZM4 1.72437V0.974365V1.72437ZM8.24971 16.4856L7.61043 16.8778L8.24971 16.4856ZM10.8524 17.9492L10.2131 17.557L10.8524 17.9492ZM9.14762 17.9492L8.50834 18.3414L9.14762 17.9492ZM16 1.72437V2.47437C17.2426 2.47437 18.25 3.48172 18.25 4.72437H19H19.75C19.75 2.6533 18.0711 0.974365 16 0.974365V1.72437ZM19 4.72437H18.25V13.0085H19H19.75V4.72437H19ZM19 13.0085H18.25C18.25 14.2512 17.2426 15.2585 16 15.2585V16.0085V16.7585C18.0711 16.7585 19.75 15.0796 19.75 13.0085H19ZM16 16.0085V15.2585H12.6027V16.0085V16.7585H16V16.0085ZM11.7503 16.4856L11.111 16.0934L10.2131 17.557L10.8524 17.9492L11.4917 18.3414L12.3896 16.8778L11.7503 16.4856ZM9.14762 17.9492L9.78691 17.557L8.889 16.0934L8.24971 16.4856L7.61043 16.8778L8.50834 18.3414L9.14762 17.9492ZM7.39733 16.0085V15.2585H4V16.0085V16.7585H7.39733V16.0085ZM4 16.0085V15.2585C2.75736 15.2585 1.75 14.2512 1.75 13.0085H1H0.25C0.25 15.0796 1.92893 16.7585 4 16.7585V16.0085ZM1 13.0085H1.75V4.72437H1H0.25V13.0085H1ZM1 4.72437L1.75 4.72437C1.75 3.48172 2.75736 2.47437 4 2.47437V1.72437V0.974365C1.92893 0.974365 0.250001 2.6533 0.25 4.72436L1 4.72437ZM4 1.72437V2.47437H16V1.72437V0.974365H4V1.72437ZM8.24971 16.4856L8.889 16.0934C8.57076 15.5747 8.0059 15.2585 7.39733 15.2585V16.0085V16.7585C7.48427 16.7585 7.56497 16.8037 7.61043 16.8778L8.24971 16.4856ZM10.8524 17.9492L10.2131 17.557C10.1155 17.7161 9.88447 17.7161 9.78691 17.557L9.14762 17.9492L8.50834 18.3414C9.19126 19.4546 10.8087 19.4546 11.4917 18.3414L10.8524 17.9492ZM12.6027 16.0085V15.2585C11.9941 15.2585 11.4292 15.5747 11.111 16.0934L11.7503 16.4856L12.3896 16.8778C12.435 16.8037 12.5157 16.7585 12.6027 16.7585V16.0085Z" fill="#2C2920"/>
<path d="M6.25952 7.02124H13.7404M6.25952 10.4496H10.6234" stroke="#2C2920" stroke-width="1.5" stroke-linecap="round"/>
</svg>
