<svg width="25" height="24" viewBox="0 0 25 24" fill="none" xmlns="http://www.w3.org/2000/svg">
<path d="M2.99292 13.3764C3.32536 15.6606 4.46908 17.7487 6.21484 19.2588C7.9606 20.7688 10.1917 21.5999 12.4999 21.5999C14.8082 21.5999 17.0393 20.7688 18.785 19.2588C20.5308 17.7487 21.6745 15.6606 22.0069 13.3764M12.5013 2.3999C11.4096 2.3999 10.3627 2.83357 9.59072 3.6055C8.81878 4.37744 8.38512 5.4244 8.38512 6.51608V12.0043C8.38512 13.096 8.81878 14.143 9.59072 14.9149C10.3627 15.6868 11.4096 16.1205 12.5013 16.1205C13.593 16.1205 14.6399 15.6868 15.4119 14.9149C16.1838 14.143 16.6175 13.096 16.6175 12.0043V6.51608C16.6175 5.4244 16.1838 4.37744 15.4119 3.6055C14.6399 2.83357 13.593 2.3999 12.5013 2.3999Z" stroke="#2C2920" stroke-width="1.5" stroke-linecap="square" stroke-linejoin="round"/>
</svg>
