<svg width="25" height="24" viewBox="0 0 25 24" fill="none" xmlns="http://www.w3.org/2000/svg">
<path d="M4.89795 11.177C5.16378 13.0035 6.07833 14.6733 7.4743 15.8808C8.87026 17.0883 10.6543 17.7528 12.5001 17.7528M12.5001 17.7528C14.3458 17.7528 16.1298 17.0883 17.5258 15.8808C18.9218 14.6733 19.8363 13.0035 20.1022 11.177M12.5001 17.7528V21.5999M12.5011 2.3999C11.6282 2.3999 10.791 2.74668 10.1738 3.36394C9.55649 3.9812 9.20972 4.81839 9.20972 5.69133V10.0799C9.20972 10.9528 9.55649 11.79 10.1738 12.4073C10.791 13.0246 11.6282 13.3713 12.5011 13.3713C13.3741 13.3713 14.2113 13.0246 14.8285 12.4073C15.4458 11.79 15.7926 10.9528 15.7926 10.0799V5.69133C15.7926 4.81839 15.4458 3.9812 14.8285 3.36394C14.2113 2.74668 13.3741 2.3999 12.5011 2.3999Z" stroke="#2C2920" stroke-width="1.5" stroke-linecap="square" stroke-linejoin="round"/>
</svg>
