<svg width="25" height="24" viewBox="0 0 25 24" fill="none" xmlns="http://www.w3.org/2000/svg">
<path d="M18.4133 11.3593C18.427 11.8873 18.2323 12.4197 17.8294 12.8227L12.6684 17.9837C11.8889 18.7631 10.6252 18.7631 9.84571 17.9837L4.68469 12.8227C4.28174 12.4197 4.0871 11.8873 4.10077 11.3593M18.4133 11.3593C18.4017 10.9103 18.2394 10.4644 17.9264 10.104C17.8902 10.0245 17.8395 9.95004 17.7741 9.88464L11.3478 3.4584M18.4133 11.3593H4.10077M4.10077 11.3593C4.11355 10.866 4.30819 10.3765 4.68469 10C4.81739 9.8673 11.3478 3.4584 11.3478 3.4584M11.3478 3.4584L10.2893 2.3999M5.11062 21.5999H15.7211M20.0496 15.1936C19.9868 15.0944 19.8792 15.0313 19.7626 15.0313C19.6459 15.0313 19.5383 15.0945 19.4755 15.1936C19.2512 15.5632 18.5247 16.8254 18.5247 17.3753C18.5247 18.0604 19.0808 18.6194 19.7626 18.6194C20.4443 18.6194 21.0004 18.0605 21.0004 17.3753C21.0004 16.8164 20.2739 15.5632 20.0496 15.1936Z" stroke="#2C2920" stroke-width="1.5" stroke-linecap="square" stroke-linejoin="round"/>
</svg>
