<svg width="25" height="24" viewBox="0 0 25 24" fill="none" xmlns="http://www.w3.org/2000/svg">
<path d="M12.7502 5.9999V6.03313M6.78313 12.0002H6.7499M16.9929 7.75745L16.9694 7.78095M8.53108 16.2192L8.50758 16.2427M8.53108 7.78057L8.50758 7.75707M12.7499 21.5999C7.44797 21.5999 3.1499 17.3018 3.1499 11.9999C3.1499 6.69797 7.44797 2.3999 12.7499 2.3999C18.0518 2.3999 22.3499 6.69797 22.3499 11.9999C22.3499 13.614 20.8585 14.6879 19.2445 14.6879H18.6179C18.2943 14.6879 17.9752 14.7632 17.6859 14.9079C16.6564 15.4226 16.2392 16.6744 16.7539 17.7039C16.8986 17.9932 16.9739 18.3123 16.9739 18.6359V18.825C16.9739 19.9256 16.3563 20.9678 15.2949 21.2589C14.4844 21.4812 13.631 21.5999 12.7499 21.5999Z" stroke="#2C2920" stroke-width="1.5" stroke-linecap="square" stroke-linejoin="round"/>
</svg>
