<svg width="24" height="24" viewBox="0 0 24 24" fill="none" xmlns="http://www.w3.org/2000/svg">
<path d="M9.60005 16.8H14.4M6.80005 21.6H17.2001C18.3046 21.6 19.2001 20.7046 19.2001 19.6V4.39999C19.2001 3.29542 18.3046 2.39999 17.2 2.39999H6.80005C5.69548 2.39999 4.80005 3.29542 4.80005 4.39999V19.6C4.80005 20.7046 5.69548 21.6 6.80005 21.6ZM14.4 8.39999C14.4 9.72548 13.3255 10.8 12 10.8C10.6746 10.8 9.60005 9.72548 9.60005 8.39999C9.60005 7.07451 10.6746 5.99999 12 5.99999C13.3255 5.99999 14.4 7.07451 14.4 8.39999Z" stroke="#2C2920" stroke-width="1.5" stroke-linecap="square" stroke-linejoin="round"/>
</svg>
