<svg width="25" height="24" viewBox="0 0 25 24" fill="none" xmlns="http://www.w3.org/2000/svg">
<path d="M7.12973 11.5371L6.87893 12.2439L8.29257 12.7455L8.54338 12.0387L7.12973 11.5371ZM9.87001 6.05725L9.16319 5.80644V5.80644L9.87001 6.05725ZM11.2414 4.86984L11.0944 4.1344L11.2414 4.86984ZM23.2127 2.47559L23.9508 2.60869C23.9948 2.36438 23.9152 2.11411 23.738 1.94025C23.5608 1.76638 23.309 1.69147 23.0656 1.74015L23.2127 2.47559ZM21.0281 14.5903L20.29 14.4572L21.0281 14.5903ZM19.7677 16.0182L19.544 15.3023H19.544L19.7677 16.0182ZM13.6767 17.1359L12.9608 17.3596L13.4082 18.7913L14.1241 18.5676L13.6767 17.1359ZM23.5265 3.22248L24.0568 2.69215L22.9961 1.63149L22.4658 2.16182L23.5265 3.22248ZM17.2682 7.35939L16.7379 7.88972L17.7986 8.95038L18.3289 8.42005L17.2682 7.35939ZM4.37151 16.1192L3.84118 16.6495H3.84118L4.37151 16.1192ZM4.37151 14.3867L4.90184 14.917H4.90184L4.37151 14.3867ZM11.3016 21.3168L11.8319 21.8471L11.3016 21.3168ZM9.56908 21.3168L10.0994 20.7864L9.56908 21.3168ZM13.4673 17.4186L12.9369 17.9489L13.4673 17.4186ZM13.4673 19.1511L12.9369 18.6208L13.4673 19.1511ZM8.26969 12.221L8.80002 11.6907L8.26969 12.221ZM6.53717 12.221L6.00684 11.6907H6.00684L6.53717 12.221ZM7.83656 11.7879L8.54338 12.0387L10.5768 6.30806L9.87001 6.05725L9.16319 5.80644L7.12973 11.5371L7.83656 11.7879ZM11.2414 4.86984L11.3885 5.60527L23.3598 3.21102L23.2127 2.47559L23.0656 1.74015L11.0944 4.1344L11.2414 4.86984ZM23.2127 2.47559L22.4746 2.34249L20.29 14.4572L21.0281 14.5903L21.7662 14.7234L23.9508 2.60869L23.2127 2.47559ZM19.7677 16.0182L19.544 15.3023L13.6767 17.1359L13.9004 17.8517L14.1241 18.5676L19.9914 16.734L19.7677 16.0182ZM21.0281 14.5903L20.29 14.4572C20.2181 14.8558 19.9306 15.1815 19.544 15.3023L19.7677 16.0182L19.9914 16.734C20.9113 16.4466 21.5951 15.6718 21.7662 14.7234L21.0281 14.5903ZM9.87001 6.05725L10.5768 6.30806C10.7049 5.94727 11.0131 5.68035 11.3885 5.60527L11.2414 4.86984L11.0944 4.1344C10.2012 4.31303 9.46778 4.94806 9.16319 5.80644L9.87001 6.05725ZM22.9961 2.69215L22.4658 2.16182L17.2682 7.35939L17.7986 7.88972L18.3289 8.42005L23.5265 3.22248L22.9961 2.69215ZM8.26969 12.221L7.73936 12.7514L12.9369 17.9489L13.4673 17.4186L13.9976 16.8883L8.80002 11.6907L8.26969 12.221ZM13.4673 19.1511L12.9369 18.6208L10.7713 20.7864L11.3016 21.3168L11.8319 21.8471L13.9976 19.6814L13.4673 19.1511ZM9.56908 21.3168L10.0994 20.7864L4.90184 15.5889L4.37151 16.1192L3.84118 16.6495L9.03875 21.8471L9.56908 21.3168ZM4.37151 14.3867L4.90184 14.917L7.0675 12.7514L6.53717 12.221L6.00684 11.6907L3.84118 13.8563L4.37151 14.3867ZM4.37151 16.1192L4.90184 15.5889C4.71631 15.4033 4.71631 15.1025 4.90184 14.917L4.37151 14.3867L3.84118 13.8563C3.06987 14.6277 3.06987 15.8782 3.84118 16.6495L4.37151 16.1192ZM11.3016 21.3168L10.7713 20.7864C10.5857 20.972 10.2849 20.972 10.0994 20.7864L9.56908 21.3168L9.03875 21.8471C9.81007 22.6184 11.0606 22.6184 11.8319 21.8471L11.3016 21.3168ZM13.4673 17.4186L12.9369 17.9489C13.1225 18.1345 13.1225 18.4353 12.9369 18.6208L13.4673 19.1511L13.9976 19.6814C14.7689 18.9101 14.7689 17.6596 13.9976 16.8883L13.4673 17.4186ZM8.26969 12.221L8.80002 11.6907C8.0287 10.9194 6.77815 10.9194 6.00684 11.6907L6.53717 12.221L7.0675 12.7514C7.25303 12.5658 7.55383 12.5658 7.73936 12.7514L8.26969 12.221ZM17.3654 11.7879L16.8351 11.2576C16.1711 11.9215 15.0947 11.9215 14.4307 11.2576L13.9004 11.7879L13.3701 12.3182C14.6198 13.568 16.646 13.568 17.8958 12.3182L17.3654 11.7879ZM13.9004 11.7879L14.4307 11.2576C13.7668 10.5936 13.7668 9.51713 14.4307 8.85318L13.9004 8.32285L13.3701 7.79252C12.1203 9.04226 12.1203 11.0685 13.3701 12.3182L13.9004 11.7879ZM13.9004 8.32285L14.4307 8.85318C15.0947 8.18923 16.1711 8.18923 16.8351 8.85318L17.3654 8.32285L17.8958 7.79252C16.646 6.54278 14.6198 6.54278 13.3701 7.79252L13.9004 8.32285ZM17.3654 8.32285L16.8351 8.85318C17.4991 9.51713 17.4991 10.5936 16.8351 11.2576L17.3654 11.7879L17.8958 12.3182C19.1455 11.0685 19.1455 9.04226 17.8958 7.79252L17.3654 8.32285Z" fill="#2C2920"/>
</svg>
