<svg width="25" height="24" viewBox="0 0 25 24" fill="none" xmlns="http://www.w3.org/2000/svg">
<path d="M20.0968 13.8142L20.3476 13.1074L18.934 12.6057L18.6832 13.3126L20.0968 13.8142ZM17.3565 19.294L18.0634 19.5448L17.3565 19.294ZM15.9851 20.4814L16.1322 21.2169H16.1322L15.9851 20.4814ZM4.01387 22.8757L3.27577 22.7426C3.23172 22.9869 3.3114 23.2372 3.4886 23.411C3.66579 23.5849 3.91753 23.6598 4.16095 23.6111L4.01387 22.8757ZM6.19849 10.761L6.93659 10.894L6.19849 10.761ZM7.45882 9.33309L7.68253 10.049H7.68253L7.45882 9.33309ZM13.5499 8.21541L14.2657 7.9917L13.8183 6.55998L13.1025 6.78369L13.5499 8.21541ZM3.7001 22.1288L3.16977 22.6591L4.23043 23.7198L4.76076 23.1895L3.7001 22.1288ZM9.95833 17.9919L10.4887 17.4616L9.428 16.4009L8.89767 16.9312L9.95833 17.9919ZM22.855 9.23207L23.3854 8.70174L22.855 9.23207ZM22.855 10.9646L23.3854 11.4949L22.855 10.9646ZM15.925 4.0345L15.3946 3.50417H15.3946L15.925 4.0345ZM17.6575 4.0345L17.1271 4.56483L17.6575 4.0345ZM13.7593 7.93268L13.229 8.46301L13.7593 7.93268ZM13.7593 6.20015L14.2896 6.73048L13.7593 6.20015ZM18.9569 13.1302L19.4872 12.5999L18.9569 13.1302ZM20.6894 13.1302L20.1591 12.5999L20.6894 13.1302ZM3.84438 6.60038L3.84438 7.35038L5.34438 7.35038L5.34438 6.60038L3.84438 6.60038ZM5.34438 1.31201V0.562012L3.84438 0.562012L3.84438 1.31201L5.34438 1.31201ZM1.9502 3.20619L1.2002 3.20619L1.2002 4.70619H1.9502L1.9502 3.20619ZM7.23856 4.70619H7.98856V3.20619H7.23856V4.70619ZM19.39 13.5634L18.6832 13.3126L16.6497 19.0432L17.3565 19.294L18.0634 19.5448L20.0968 13.8142L19.39 13.5634ZM15.9851 20.4814L15.838 19.746L3.86678 22.1403L4.01387 22.8757L4.16095 23.6111L16.1322 21.2169L15.9851 20.4814ZM4.01387 22.8757L4.75196 23.0088L6.93659 10.894L6.19849 10.761L5.46039 10.6279L3.27577 22.7426L4.01387 22.8757ZM7.45882 9.33309L7.68253 10.049L13.5499 8.21541L13.3262 7.49955L13.1025 6.78369L7.23512 8.61723L7.45882 9.33309ZM6.19849 10.761L6.93659 10.894C7.00847 10.4954 7.29591 10.1698 7.68253 10.049L7.45882 9.33309L7.23512 8.61723C6.3153 8.90468 5.63142 9.67946 5.46039 10.6279L6.19849 10.761ZM17.3565 19.294L16.6497 19.0432C16.5217 19.404 16.2134 19.6709 15.838 19.746L15.9851 20.4814L16.1322 21.2169C17.0253 21.0382 17.7588 20.4032 18.0634 19.5448L17.3565 19.294ZM4.23043 22.6591L4.76076 23.1895L9.95833 17.9919L9.428 17.4616L8.89767 16.9312L3.7001 22.1288L4.23043 22.6591ZM18.9569 13.1302L19.4872 12.5999L14.2896 7.40235L13.7593 7.93268L13.229 8.46301L18.4265 13.6606L18.9569 13.1302ZM13.7593 6.20015L14.2896 6.73048L16.4553 4.56483L15.925 4.0345L15.3946 3.50417L13.229 5.66983L13.7593 6.20015ZM17.6575 4.0345L17.1271 4.56483L22.3247 9.7624L22.855 9.23207L23.3854 8.70174L18.1878 3.50417L17.6575 4.0345ZM22.855 10.9646L22.3247 10.4343L20.1591 12.5999L20.6894 13.1302L21.2197 13.6606L23.3854 11.4949L22.855 10.9646ZM22.855 9.23207L22.3247 9.7624C22.5102 9.94793 22.5102 10.2487 22.3247 10.4343L22.855 10.9646L23.3854 11.4949C24.1567 10.7236 24.1567 9.47305 23.3854 8.70174L22.855 9.23207ZM15.925 4.0345L16.4553 4.56483C16.6408 4.3793 16.9416 4.3793 17.1271 4.56483L17.6575 4.0345L18.1878 3.50417C17.4165 2.73285 16.1659 2.73286 15.3946 3.50417L15.925 4.0345ZM13.7593 7.93268L14.2896 7.40235C14.1041 7.21682 14.1041 6.91601 14.2896 6.73048L13.7593 6.20015L13.229 5.66982C12.4577 6.44114 12.4577 7.69169 13.229 8.46301L13.7593 7.93268ZM18.9569 13.1302L18.4265 13.6606C19.1979 14.4319 20.4484 14.4319 21.2197 13.6606L20.6894 13.1302L20.1591 12.5999C19.9735 12.7854 19.6727 12.7854 19.4872 12.5999L18.9569 13.1302ZM9.86113 13.5634L10.3915 14.0937C11.0554 13.4298 12.1319 13.4298 12.7958 14.0937L13.3262 13.5634L13.8565 13.033C12.6068 11.7833 10.5805 11.7833 9.3308 13.033L9.86113 13.5634ZM13.3262 13.5634L12.7958 14.0937C13.4598 14.7577 13.4598 15.8341 12.7958 16.4981L13.3262 17.0284L13.8565 17.5588C15.1062 16.309 15.1062 14.2828 13.8565 13.033L13.3262 13.5634ZM13.3262 17.0284L12.7958 16.4981C12.1319 17.162 11.0554 17.162 10.3915 16.4981L9.86113 17.0284L9.3308 17.5588C10.5805 18.8085 12.6068 18.8085 13.8565 17.5588L13.3262 17.0284ZM9.86113 17.0284L10.3915 16.4981C9.72751 15.8341 9.72751 14.7577 10.3915 14.0937L9.86113 13.5634L9.3308 13.033C8.08106 14.2828 8.08106 16.309 9.3308 17.5588L9.86113 17.0284ZM4.59438 6.60038H5.34438L5.34438 3.95619H4.59438L3.84438 3.95619L3.84438 6.60038L4.59438 6.60038ZM4.59438 3.95619H5.34438L5.34438 1.31201L4.59438 1.31201L3.84438 1.31201L3.84438 3.95619L4.59438 3.95619ZM1.9502 3.95619L1.9502 4.70619L4.59438 4.70619L4.59438 3.95619V3.20619L1.9502 3.20619L1.9502 3.95619ZM4.59438 3.95619L4.59438 4.70619L7.23856 4.70619V3.95619V3.20619L4.59438 3.20619V3.95619Z" fill="#2C2920"/>
</svg>
