<svg width="25" height="24" viewBox="0 0 25 24" fill="none" xmlns="http://www.w3.org/2000/svg">
<path d="M20.0956 12.6141L20.3465 11.9073L18.9328 11.4056L18.682 12.1125L20.0956 12.6141ZM17.3554 18.0939L18.0622 18.3447L17.3554 18.0939ZM15.9839 19.2813L16.131 20.0168L15.9839 19.2813ZM4.0127 21.6756L3.2746 21.5425C3.23054 21.7868 3.31023 22.0371 3.48742 22.2109C3.66462 22.3848 3.91636 22.4597 4.15978 22.411L4.0127 21.6756ZM6.19732 9.56085L6.93541 9.69395L6.19732 9.56085ZM7.45765 8.13299L7.68136 8.84886L7.68136 8.84885L7.45765 8.13299ZM13.5487 7.01531L14.2646 6.7916L13.8172 5.35988L13.1013 5.58359L13.5487 7.01531ZM3.69893 20.9287L3.1686 21.459L4.22926 22.5197L4.75959 21.9893L3.69893 20.9287ZM9.95716 16.7918L10.4875 16.2614L9.42683 15.2008L8.8965 15.7311L9.95716 16.7918ZM22.8539 8.03197L23.3842 7.50164L22.8539 8.03197ZM22.8539 9.76449L22.3235 9.23416L22.8539 9.76449ZM15.9238 2.8344L15.3935 2.30407V2.30407L15.9238 2.8344ZM17.6563 2.8344L17.126 3.36473L17.6563 2.8344ZM13.7581 6.73258L14.2885 6.20225L13.7581 6.73258ZM13.7581 5.00006L14.2885 5.53039V5.53039L13.7581 5.00006ZM18.9557 11.9301L18.4254 12.4605H18.4254L18.9557 11.9301ZM20.6882 11.9301L21.2185 12.4605L20.6882 11.9301ZM1.9502 2.00625H1.2002V3.50625H1.9502V2.00625ZM7.23856 3.50625H7.98856V2.00625H7.23856V3.50625ZM19.3888 12.3633L18.682 12.1125L16.6486 17.8431L17.3554 18.0939L18.0622 18.3447L20.0956 12.6141L19.3888 12.3633ZM15.9839 19.2813L15.8369 18.5459L3.86561 20.9401L4.0127 21.6756L4.15978 22.411L16.131 20.0168L15.9839 19.2813ZM4.0127 21.6756L4.75079 21.8087L6.93541 9.69395L6.19732 9.56085L5.45922 9.42775L3.2746 21.5425L4.0127 21.6756ZM7.45765 8.13299L7.68136 8.84885L13.5487 7.01531L13.325 6.29945L13.1013 5.58359L7.23394 7.41713L7.45765 8.13299ZM6.19732 9.56085L6.93541 9.69395C7.0073 9.29532 7.29474 8.96967 7.68136 8.84886L7.45765 8.13299L7.23394 7.41713C6.31412 7.70458 5.63024 8.47936 5.45922 9.42775L6.19732 9.56085ZM17.3554 18.0939L16.6486 17.8431C16.5205 18.2039 16.2123 18.4708 15.8369 18.5459L15.9839 19.2813L16.131 20.0168C17.0242 19.8381 17.7576 19.2031 18.0622 18.3447L17.3554 18.0939ZM4.22926 21.459L4.75959 21.9893L9.95716 16.7918L9.42683 16.2614L8.8965 15.7311L3.69893 20.9287L4.22926 21.459ZM18.9557 11.9301L19.486 11.3998L14.2885 6.20225L13.7581 6.73258L13.2278 7.26291L18.4254 12.4605L18.9557 11.9301ZM13.7581 5.00006L14.2885 5.53039L16.4541 3.36473L15.9238 2.8344L15.3935 2.30407L13.2278 4.46973L13.7581 5.00006ZM17.6563 2.8344L17.126 3.36473L22.3235 8.5623L22.8539 8.03197L23.3842 7.50164L18.1866 2.30407L17.6563 2.8344ZM22.8539 9.76449L22.3235 9.23416L20.1579 11.3998L20.6882 11.9301L21.2185 12.4605L23.3842 10.2948L22.8539 9.76449ZM22.8539 8.03197L22.3235 8.5623C22.5091 8.74783 22.5091 9.04863 22.3235 9.23416L22.8539 9.76449L23.3842 10.2948C24.1555 9.5235 24.1555 8.27295 23.3842 7.50164L22.8539 8.03197ZM15.9238 2.8344L16.4541 3.36473C16.6396 3.1792 16.9404 3.1792 17.126 3.36473L17.6563 2.8344L18.1866 2.30407C17.4153 1.53276 16.1648 1.53276 15.3935 2.30407L15.9238 2.8344ZM13.7581 6.73258L14.2885 6.20225C14.1029 6.01672 14.1029 5.71592 14.2885 5.53039L13.7581 5.00006L13.2278 4.46973C12.4565 5.24104 12.4565 6.49159 13.2278 7.26291L13.7581 6.73258ZM18.9557 11.9301L18.4254 12.4605C19.1967 13.2318 20.4472 13.2318 21.2185 12.4605L20.6882 11.9301L20.1579 11.3998C19.9724 11.5853 19.6716 11.5853 19.486 11.3998L18.9557 11.9301ZM9.85996 12.3633L10.3903 12.8936C11.0542 12.2297 12.1307 12.2297 12.7947 12.8936L13.325 12.3633L13.8553 11.8329C12.6056 10.5832 10.5794 10.5832 9.32963 11.8329L9.85996 12.3633ZM13.325 12.3633L12.7947 12.8936C13.4586 13.5576 13.4586 14.634 12.7947 15.298L13.325 15.8283L13.8553 16.3586C15.1051 15.1089 15.1051 13.0827 13.8553 11.8329L13.325 12.3633ZM13.325 15.8283L12.7947 15.298C12.1307 15.9619 11.0542 15.9619 10.3903 15.298L9.85996 15.8283L9.32963 16.3586C10.5794 17.6084 12.6056 17.6084 13.8553 16.3586L13.325 15.8283ZM9.85996 15.8283L10.3903 15.298C9.72633 14.634 9.72633 13.5576 10.3903 12.8936L9.85996 12.3633L9.32963 11.8329C8.07989 13.0827 8.07989 15.1089 9.32963 16.3586L9.85996 15.8283ZM1.9502 2.75625V3.50625H7.23856V2.75625V2.00625H1.9502V2.75625Z" fill="#2C2920"/>
</svg>
