<svg width="24" height="24" viewBox="0 0 24 24" fill="none" xmlns="http://www.w3.org/2000/svg">
<path d="M12.871 6.32583C14.0709 6.52693 15.1608 7.09365 16.031 7.96202C16.9011 8.83038 17.4644 9.91812 17.6705 11.1156M13.0542 2.3999C15.1883 2.76096 17.1347 3.771 18.6826 5.31121C20.2306 6.85598 21.2381 8.79838 21.5999 10.9282M19.9329 19.4016C19.9329 19.4016 18.7742 20.5396 18.4903 20.8732C18.0277 21.3668 17.4827 21.5999 16.7683 21.5999C16.6996 21.5999 16.6263 21.5999 16.5576 21.5953C15.1974 21.5085 13.9335 20.9783 12.9855 20.5259C10.3933 19.2736 8.11724 17.4957 6.22582 15.2426C4.66415 13.3641 3.61997 11.6274 2.92844 9.76272C2.50253 8.6247 2.34682 7.73806 2.41551 6.90168C2.46131 6.36695 2.6674 5.92363 3.04751 5.54429L4.60919 3.98581C4.83359 3.77557 5.07174 3.66131 5.3053 3.66131C5.59382 3.66131 5.82739 3.83499 5.97394 3.98124C5.97852 3.98581 5.9831 3.99038 5.98768 3.99495C6.26704 4.25546 6.53266 4.52511 6.81202 4.81304C6.95399 4.95929 7.10054 5.10554 7.24709 5.25636L8.49735 6.50407C8.9828 6.98852 8.9828 7.43641 8.49735 7.92087C8.36454 8.05341 8.23631 8.18595 8.1035 8.31392C7.7188 8.70697 8.021 8.40539 7.62257 8.76187C7.61341 8.77101 7.60425 8.77558 7.59967 8.78472C7.20582 9.17777 7.27909 9.56168 7.36153 9.82219C7.36611 9.8359 7.37069 9.84961 7.37527 9.86332C7.70042 10.6494 8.15839 11.3898 8.85451 12.2719L8.85909 12.2765C10.1231 13.8304 11.4558 15.0415 12.9259 15.9693C13.1136 16.0881 13.306 16.1841 13.4892 16.2755C13.654 16.3578 13.8097 16.4355 13.9426 16.5177C13.9609 16.5269 13.9792 16.5406 13.9975 16.5497C14.1532 16.6274 14.2998 16.664 14.4509 16.664C14.831 16.664 15.0692 16.4263 15.147 16.3486L16.0447 15.4528C16.2004 15.2974 16.4477 15.11 16.7362 15.11C17.0202 15.11 17.2537 15.2883 17.3957 15.4436C17.4003 15.4482 17.4003 15.4482 17.4049 15.4528L19.9283 17.971C20.4 18.4372 19.9329 19.4016 19.9329 19.4016Z" stroke="#2C2920" stroke-width="1.5" stroke-linecap="square" stroke-linejoin="round"/>
</svg>
