<svg width="24" height="24" viewBox="0 0 24 24" fill="none" xmlns="http://www.w3.org/2000/svg">
<path d="M17.2961 9.89199L13.4042 6.00012M13.4042 6.00012L16.8415 2.55933M13.4042 6.00012L22.2474 6.00012M19.7892 19.1793C19.7892 19.1793 18.5972 20.35 18.3051 20.6933C17.8293 21.201 17.2687 21.4408 16.5337 21.4408C16.463 21.4408 16.3877 21.4408 16.317 21.4361C14.9178 21.3468 13.6175 20.8014 12.6422 20.3359C9.9757 19.0477 7.63422 17.2188 5.68848 14.9009C4.08196 12.9685 3.0078 11.1819 2.2964 9.26367C1.85826 8.09298 1.69808 7.18087 1.76875 6.32047C1.81586 5.77039 2.02786 5.31433 2.41889 4.9241L4.02542 3.32086C4.25627 3.10458 4.50125 2.98704 4.74153 2.98704C5.03833 2.98704 5.27861 3.1657 5.42936 3.31615C5.43408 3.32086 5.43879 3.32556 5.4435 3.33026C5.73088 3.59825 6.00413 3.87564 6.29152 4.17185C6.43757 4.3223 6.58833 4.47275 6.73908 4.6279L8.02525 5.91144C8.52464 6.4098 8.52464 6.87056 8.02525 7.36893C7.88862 7.50528 7.75671 7.64162 7.62008 7.77327C7.22434 8.1776 7.53522 7.86736 7.12534 8.23408C7.11592 8.24349 7.1065 8.24819 7.10179 8.25759C6.69662 8.66193 6.772 9.05686 6.8568 9.32485C6.86151 9.33896 6.86623 9.35306 6.87094 9.36717C7.20543 10.1758 7.67656 10.9375 8.39266 11.8449L8.39737 11.8496C9.69767 13.4482 11.0686 14.6941 12.5809 15.6485C12.7741 15.7707 12.972 15.8695 13.1604 15.9635C13.33 16.0481 13.4902 16.1281 13.6268 16.2127C13.6457 16.2221 13.6645 16.2362 13.6834 16.2456C13.8435 16.3255 13.9943 16.3631 14.1498 16.3631C14.5408 16.3631 14.7858 16.1187 14.8659 16.0387L15.7893 15.1172C15.9495 14.9573 16.2039 14.7645 16.5007 14.7645C16.7928 14.7645 17.0331 14.9479 17.1792 15.1078C17.1839 15.1125 17.1839 15.1125 17.1886 15.1172L19.7845 17.7077C20.2697 18.1873 19.7892 19.1793 19.7892 19.1793Z" stroke="#2C2920" stroke-width="1.5" stroke-linecap="square" stroke-linejoin="round"/>
</svg>
