<svg width="24" height="24" viewBox="0 0 24 24" fill="none" xmlns="http://www.w3.org/2000/svg">
<path d="M15.3608 18.0001L11.7608 21.6001M11.7608 21.6001L8.31998 18.1628M11.7608 21.6001V12.7569M0.83291 9.51115C0.833015 8.72829 0.828652 7.80975 0.808902 7.56431C0.786318 6.86879 1.0132 6.30282 1.53289 5.78313C2.58546 4.85688 5.06583 3.81271 5.06583 3.81271C5.06583 3.81271 8.31998 2.40007 11.7621 2.40015C15.1461 2.40022 18.3513 3.47298 20.2107 4.32636C21.3484 4.84435 22.1066 5.37605 22.665 6.03441C23.0207 6.45669 23.1932 6.92908 23.1927 7.48152L23.1732 9.59295C23.1671 10.2585 22.6204 10.7919 21.9549 10.7817L18.9437 10.7357C18.2882 10.7257 17.7621 10.1915 17.7621 9.53588V8.30175C17.7621 8.01142 17.5553 7.76336 17.2687 7.71678C16.1987 7.54286 13.6124 7.16075 11.7608 7.20015C10.1183 7.2351 7.85171 7.56392 6.86016 7.71943C6.57136 7.76472 6.36206 8.01394 6.36206 8.30627V9.51768C6.36206 10.1804 5.8248 10.7177 5.16206 10.7177L2.0365 10.7177C1.37109 10.7177 0.83282 10.1766 0.83291 9.51115Z" stroke="#2C2920" stroke-width="1.5" stroke-linecap="square" stroke-linejoin="round"/>
</svg>
