<svg width="24" height="24" viewBox="0 0 24 24" fill="none" xmlns="http://www.w3.org/2000/svg">
<path d="M8.78995 9.07197C9.66403 8.44882 10.6977 8.12236 11.7823 8.12125C12.867 8.12014 13.8971 8.44734 14.7728 9.06585M6.45484 6.50824C8.01161 5.402 9.85614 4.81782 11.7829 4.81299C13.7124 4.81102 15.5529 5.39429 17.1074 6.49735M2.41934 18.267C2.41934 18.267 2.43222 16.8341 2.40121 16.4488C2.38184 15.8522 2.57644 15.3668 3.02218 14.921C3.06504 14.8782 3.11076 14.8325 3.15647 14.7925C4.05927 13.998 5.17865 13.5402 6.05241 13.231C8.45095 12.3951 10.9803 12.0842 13.5661 12.3099C15.7124 12.5075 17.4474 12.9396 19.0423 13.6716C20.018 14.1159 20.6684 14.5719 21.1473 15.1366C21.4524 15.4988 21.6004 15.9039 21.5999 16.3778L21.5979 18.3245C21.5891 18.5956 21.5118 18.8155 21.3661 18.9612C21.186 19.1412 20.932 19.1786 20.7493 19.1788C20.7436 19.1788 20.7379 19.1788 20.7322 19.1788C20.3953 19.1906 20.0614 19.1881 19.7074 19.1827C19.5276 19.18 19.3449 19.1802 19.1594 19.1776L17.6009 19.1792C16.9958 19.1798 16.7163 18.9003 16.7169 18.2952C16.7171 18.1296 16.7144 17.9669 16.7174 17.8042C16.7122 17.319 16.7118 17.6957 16.738 17.2247C16.738 17.2133 16.7409 17.2047 16.738 17.1962C16.7385 16.7052 16.4533 16.5114 16.2393 16.4003C16.2279 16.3946 16.2165 16.3889 16.2051 16.3832C15.5118 16.0956 14.7641 15.9194 13.7795 15.8034L13.7738 15.8034C12.0156 15.6225 10.4285 15.6984 8.93248 16.0367C8.74119 16.0797 8.5613 16.1398 8.38998 16.1971C8.23579 16.2486 8.09017 16.2973 7.95598 16.3288C7.93885 16.3346 7.91886 16.3374 7.90173 16.3432C7.75611 16.3918 7.64186 16.4605 7.54757 16.5548C7.31041 16.7919 7.31011 17.0888 7.31001 17.1858L7.30886 18.3048C7.30867 18.4989 7.27128 18.7701 7.09127 18.9501C6.91412 19.1273 6.65719 19.1618 6.47166 19.1534C6.46595 19.1534 6.46595 19.1534 6.46024 19.1534L3.3147 19.1567C2.72955 19.1601 2.41934 18.267 2.41934 18.267Z" stroke="#2C2920" stroke-width="1.5" stroke-linecap="square" stroke-linejoin="round"/>
</svg>
