<svg width="24" height="24" viewBox="0 0 24 24" fill="none" xmlns="http://www.w3.org/2000/svg">
<path d="M16.0935 2.71582L21.5974 2.71582M21.5974 2.71582L21.5999 7.57935M21.5974 2.71582L15.3444 8.96885M20.4364 19.0225C20.4364 19.0225 19.2444 20.1932 18.9524 20.5364C18.4765 21.0442 17.9159 21.284 17.1809 21.284C17.1103 21.284 17.0349 21.284 16.9642 21.2793C15.565 21.1899 14.2647 20.6445 13.2895 20.1791C10.6229 18.8908 8.28143 17.0619 6.3357 14.744C4.72917 12.8117 3.65501 11.0251 2.94362 9.10682C2.50548 7.93613 2.34529 7.02402 2.41596 6.16362C2.46307 5.61354 2.67508 5.15748 3.06611 4.76725L4.67264 3.16401C4.90349 2.94773 5.14847 2.83019 5.38874 2.83019C5.68555 2.83019 5.92582 3.00885 6.07658 3.1593C6.08129 3.16401 6.086 3.16871 6.09072 3.17341C6.3781 3.4414 6.65135 3.71879 6.93873 4.01499C7.08478 4.16545 7.23554 4.3159 7.3863 4.47105L8.67247 5.75459C9.17185 6.25295 9.17185 6.71371 8.67247 7.21208C8.53584 7.34843 8.40392 7.48477 8.2673 7.61642C7.87156 8.02075 8.18244 7.71051 7.77256 8.07723C7.76314 8.08664 7.75371 8.09134 7.749 8.10074C7.34384 8.50508 7.41922 8.90001 7.50402 9.168C7.50873 9.18211 7.51344 9.19621 7.51815 9.21032C7.85265 10.019 8.32377 10.7807 9.03988 11.6881L9.04459 11.6928C10.3449 13.2913 11.7159 14.5372 13.2282 15.4917C13.4213 15.6139 13.6192 15.7126 13.8076 15.8067C13.9772 15.8913 14.1374 15.9712 14.274 16.0558C14.2929 16.0652 14.3117 16.0793 14.3306 16.0888C14.4908 16.1687 14.6415 16.2063 14.797 16.2063C15.188 16.2063 15.433 15.9618 15.5131 15.8819L16.4366 14.9603C16.5967 14.8005 16.8511 14.6077 17.148 14.6077C17.44 14.6077 17.6803 14.7911 17.8264 14.9509C17.8311 14.9556 17.8311 14.9556 17.8358 14.9603L20.4317 17.5509C20.9169 18.0305 20.4364 19.0225 20.4364 19.0225Z" stroke="#2C2920" stroke-width="1.5" stroke-linecap="square" stroke-linejoin="round"/>
</svg>
