<svg width="24" height="24" viewBox="0 0 24 24" fill="none" xmlns="http://www.w3.org/2000/svg">
<path d="M8.31813 16.3569L11.9181 12.7569M11.9181 12.7569L15.3589 16.1942M11.9181 12.7569L11.9181 21.6001M0.832666 9.51115C0.832771 8.72829 0.828408 7.80975 0.808658 7.56431C0.786074 6.86879 1.01295 6.30282 1.53264 5.78313C2.58521 4.85688 5.06559 3.81271 5.06559 3.81271C5.06559 3.81271 8.31974 2.40007 11.7618 2.40015C15.1459 2.40022 18.351 3.47298 20.2105 4.32636C21.3481 4.84435 22.1063 5.37605 22.6647 6.03441C23.0204 6.45669 23.193 6.92908 23.1924 7.48152L23.173 9.59295C23.1668 10.2585 22.6202 10.7919 21.9547 10.7817L18.9435 10.7357C18.288 10.7257 17.7618 10.1915 17.7618 9.53588V8.30175C17.7618 8.01142 17.555 7.76336 17.2684 7.71678C16.1985 7.54286 13.6121 7.16075 11.7605 7.20015C10.118 7.2351 7.85146 7.56392 6.85992 7.71943C6.57112 7.76472 6.36182 8.01394 6.36182 8.30627V9.51768C6.36182 10.1804 5.82456 10.7177 5.16181 10.7177L2.03626 10.7177C1.37085 10.7177 0.832576 10.1766 0.832666 9.51115Z" stroke="#2C2920" stroke-width="1.5" stroke-linecap="square" stroke-linejoin="round"/>
</svg>
