<svg width="24" height="24" viewBox="0 0 24 24" fill="none" xmlns="http://www.w3.org/2000/svg">
<path d="M21.5999 8.43066L18.5999 5.43066M18.5999 5.43066L15.5999 2.43066M18.5999 5.43066L15.5999 8.43066M18.5999 5.43066L21.5999 2.43066M19.9329 19.3708C19.9329 19.3708 18.7742 20.5088 18.4903 20.8425C18.0277 21.336 17.4827 21.5691 16.7683 21.5691C16.6996 21.5691 16.6263 21.5691 16.5576 21.5646C15.1974 21.4777 13.9335 20.9476 12.9855 20.4951C10.3933 19.2428 8.11724 17.465 6.22582 15.2118C4.66415 13.3334 3.61997 11.5967 2.92844 9.73196C2.50253 8.59394 2.34682 7.70729 2.41551 6.87092C2.46131 6.33619 2.6674 5.89287 3.04751 5.51353L4.60919 3.95505C4.83359 3.74481 5.07174 3.63055 5.3053 3.63055C5.59382 3.63055 5.82739 3.80422 5.97394 3.95048C5.97852 3.95505 5.9831 3.95962 5.98768 3.96419C6.26704 4.2247 6.53266 4.49435 6.81202 4.78228C6.95399 4.92853 7.10054 5.07478 7.24709 5.2256L8.49735 6.4733C8.9828 6.95776 8.9828 7.40565 8.49735 7.89011C8.36454 8.02265 8.23631 8.15519 8.1035 8.28316C7.7188 8.67621 8.021 8.37462 7.62257 8.73111C7.61341 8.74025 7.60425 8.74482 7.59967 8.75396C7.20582 9.14701 7.27909 9.53092 7.36153 9.79143C7.36611 9.80514 7.37069 9.81885 7.37527 9.83256C7.70042 10.6187 8.15839 11.3591 8.85451 12.2411L8.85909 12.2457C10.1231 13.7996 11.4558 15.0108 12.9259 15.9385C13.1136 16.0574 13.306 16.1533 13.4892 16.2447C13.654 16.327 13.8097 16.4047 13.9425 16.487C13.9609 16.4961 13.9792 16.5098 13.9975 16.519C14.1532 16.5967 14.2998 16.6332 14.4509 16.6332C14.831 16.6332 15.0692 16.3956 15.147 16.3179L16.0447 15.422C16.2004 15.2666 16.4477 15.0793 16.7362 15.0793C17.0202 15.0793 17.2537 15.2575 17.3957 15.4129C17.4003 15.4175 17.4003 15.4175 17.4049 15.422L19.9283 17.9403C20.4 18.4065 19.9329 19.3708 19.9329 19.3708Z" stroke="#2C2920" stroke-width="1.5" stroke-linecap="square" stroke-linejoin="round"/>
</svg>
