<svg width="24" height="24" viewBox="0 0 24 24" fill="none" xmlns="http://www.w3.org/2000/svg">
<path d="M15.5993 12.8093L15.1902 12.1808L15.1797 12.1876L15.1695 12.1947L15.5993 12.8093ZM15.5993 11.4332L15.1546 12.0371L15.1881 12.0617L15.2241 12.0825L15.5993 11.4332ZM10.0839 7.37187L10.5286 6.76793L10.5075 6.75235L10.4853 6.73829L10.0839 7.37187ZM8.92766 7.97847L9.67777 7.9763L9.6775 7.96317L8.92766 7.97847ZM8.95078 15.9562L8.20078 15.9584L8.20085 15.9796L8.20211 16.0008L8.95078 15.9562ZM10.1494 16.621L10.5126 17.2772L10.547 17.2581L10.5793 17.2356L10.1494 16.621ZM5.9999 2.3999V3.1499H17.9999V2.3999V1.6499H5.9999V2.3999ZM21.5999 5.9999H20.8499V17.9999H21.5999H22.3499V5.9999H21.5999ZM17.9999 21.5999V20.8499H5.9999V21.5999V22.3499H17.9999V21.5999ZM2.3999 17.9999H3.1499V5.9999H2.3999H1.6499V17.9999H2.3999ZM5.9999 21.5999V20.8499C4.42589 20.8499 3.1499 19.5739 3.1499 17.9999H2.3999H1.6499C1.6499 20.4023 3.59746 22.3499 5.9999 22.3499V21.5999ZM21.5999 17.9999H20.8499C20.8499 19.5739 19.5739 20.8499 17.9999 20.8499V21.5999V22.3499C20.4023 22.3499 22.3499 20.4023 22.3499 17.9999H21.5999ZM17.9999 2.3999V3.1499C19.5739 3.1499 20.8499 4.42589 20.8499 5.9999H21.5999H22.3499C22.3499 3.59746 20.4023 1.6499 17.9999 1.6499V2.3999ZM5.9999 2.3999V1.6499C3.59746 1.6499 1.6499 3.59746 1.6499 5.9999H2.3999H3.1499C3.1499 4.42589 4.42589 3.1499 5.9999 3.1499V2.3999ZM15.5993 12.8093L16.0085 13.4379C16.4225 13.1684 16.8782 12.7295 16.8774 12.1003C16.8765 11.4544 16.3995 11.0293 15.9746 10.7838L15.5993 11.4332L15.2241 12.0825C15.2831 12.1166 15.3261 12.1469 15.3563 12.1715C15.3866 12.1962 15.4007 12.2125 15.405 12.218C15.4091 12.2231 15.4018 12.2152 15.3934 12.1933C15.3846 12.1702 15.3774 12.1387 15.3774 12.1024C15.3773 12.0663 15.3843 12.0376 15.3909 12.0197C15.3971 12.003 15.401 12.0005 15.3929 12.0114C15.3847 12.0226 15.3665 12.0441 15.3325 12.0744C15.2986 12.1045 15.2521 12.1405 15.1902 12.1808L15.5993 12.8093ZM15.5993 11.4332L16.044 10.8292L10.5286 6.76793L10.0839 7.37187L9.63922 7.9758L15.1546 12.0371L15.5993 11.4332ZM10.0839 7.37187L10.4853 6.73829C10.0608 6.46944 9.49196 6.33204 8.96831 6.57654C8.40324 6.84037 8.16598 7.41409 8.17781 7.99378L8.92766 7.97847L9.6775 7.96317C9.67564 7.87204 9.69343 7.8475 9.68612 7.86149C9.68231 7.86878 9.67355 7.88258 9.65757 7.89804C9.64151 7.91359 9.62258 7.9265 9.60292 7.93568C9.56255 7.95453 9.54107 7.94832 9.5558 7.95039C9.56316 7.95142 9.5781 7.95447 9.60018 7.96296C9.62219 7.97143 9.65006 7.98484 9.68258 8.00545L10.0839 7.37187ZM8.92766 7.97847L8.17766 7.98065L8.20078 15.9584L8.95078 15.9562L9.70078 15.954L9.67765 7.9763L8.92766 7.97847ZM8.95078 15.9562L8.20211 16.0008C8.23207 16.504 8.4035 17.1035 8.95831 17.3998C9.50538 17.6919 10.0927 17.5096 10.5126 17.2772L10.1494 16.621L9.78629 15.9648C9.7296 15.9962 9.68302 16.0169 9.64657 16.0302C9.60997 16.0435 9.58718 16.048 9.57713 16.0494C9.5674 16.0508 9.5732 16.0487 9.5909 16.0513C9.60967 16.0541 9.63615 16.0613 9.66496 16.0766C9.69387 16.0921 9.71546 16.1106 9.72942 16.1262C9.74265 16.141 9.74498 16.1485 9.74136 16.1407C9.73756 16.1326 9.72892 16.1114 9.72019 16.0723C9.71149 16.0333 9.70356 15.9805 9.69946 15.9116L8.95078 15.9562ZM10.1494 16.621L10.5793 17.2356L16.0292 13.4239L15.5993 12.8093L15.1695 12.1947L9.7196 16.0064L10.1494 16.621Z" fill="#2C2920"/>
</svg>
