<svg width="24" height="24" viewBox="0 0 24 24" fill="none" xmlns="http://www.w3.org/2000/svg">
<path d="M15.3744 12.7588L14.9652 12.1303L14.9547 12.1371L14.9445 12.1442L15.3744 12.7588ZM15.3744 11.4687L14.9296 12.0726L14.9631 12.0972L14.9991 12.118L15.3744 11.4687ZM10.2037 7.66122L10.6484 7.05728L10.6272 7.0417L10.605 7.02764L10.2037 7.66122ZM9.11966 8.22991L9.86977 8.22774L9.8695 8.21461L9.11966 8.22991ZM9.14134 15.709L8.39134 15.7112L8.3914 15.7324L8.39266 15.7536L9.14134 15.709ZM10.2651 16.3323L10.6283 16.9885L10.6627 16.9694L10.6949 16.9469L10.2651 16.3323ZM12 21V20.25C7.44365 20.25 3.75 16.5563 3.75 12H3H2.25C2.25 17.3848 6.61522 21.75 12 21.75V21ZM21 12H20.25C20.25 16.5563 16.5563 20.25 12 20.25V21V21.75C17.3848 21.75 21.75 17.3848 21.75 12H21ZM12 3V3.75C16.5563 3.75 20.25 7.44365 20.25 12H21H21.75C21.75 6.61522 17.3848 2.25 12 2.25V3ZM12 3V2.25C6.61522 2.25 2.25 6.61522 2.25 12H3H3.75C3.75 7.44365 7.44365 3.75 12 3.75V3ZM15.3744 12.7588L15.7835 13.3874C16.1754 13.1323 16.6202 12.7085 16.6194 12.0941C16.6185 11.4629 16.1525 11.0522 15.7496 10.8193L15.3744 11.4687L14.9991 12.118C15.0526 12.149 15.0908 12.1759 15.1169 12.1972C15.1431 12.2186 15.1537 12.2314 15.1553 12.2334C15.1566 12.2351 15.1472 12.2235 15.1375 12.1981C15.1326 12.1853 15.128 12.1699 15.1246 12.1521C15.1213 12.1342 15.1194 12.1154 15.1194 12.0961C15.1194 12.0769 15.1212 12.0588 15.1242 12.0424C15.1272 12.0261 15.1312 12.0127 15.135 12.0024C15.1425 11.982 15.1485 11.9757 15.1432 11.9829C15.1377 11.9903 15.1229 12.0082 15.093 12.0348C15.0632 12.0613 15.0216 12.0936 14.9652 12.1303L15.3744 12.7588ZM15.3744 11.4687L15.8191 10.8647L10.6484 7.05728L10.2037 7.66122L9.75895 8.26515L14.9296 12.0726L15.3744 11.4687ZM10.2037 7.66122L10.605 7.02764C10.1984 6.7701 9.64787 6.63503 9.13794 6.87312C8.58659 7.13055 8.35846 7.68913 8.36981 8.24522L9.11966 8.22991L9.8695 8.21461C9.86788 8.13528 9.88351 8.12042 9.87226 8.14195C9.86648 8.15301 9.85531 8.17004 9.83655 8.18819C9.81771 8.20642 9.79564 8.22148 9.77255 8.23227C9.72532 8.25432 9.69584 8.24913 9.70204 8.25C9.70925 8.25101 9.74482 8.25837 9.80232 8.2948L10.2037 7.66122ZM9.11966 8.22991L8.36966 8.23208L8.39134 15.7112L9.14134 15.709L9.89133 15.7068L9.86965 8.22774L9.11966 8.22991ZM9.14134 15.709L8.39266 15.7536C8.4211 16.2312 8.5845 16.8144 9.12631 17.1037C9.66038 17.389 10.2297 17.209 10.6283 16.9885L10.2651 16.3323L9.90193 15.6761C9.85059 15.7045 9.80915 15.7229 9.77759 15.7344C9.74589 15.7459 9.72775 15.7492 9.72211 15.75C9.71677 15.7507 9.7267 15.7487 9.74825 15.7518C9.75906 15.7534 9.77223 15.7562 9.78707 15.761C9.80196 15.7659 9.81746 15.7723 9.83296 15.7806C9.84847 15.7889 9.86272 15.7983 9.87544 15.8084C9.88812 15.8184 9.89832 15.8283 9.90622 15.8371C9.92206 15.8548 9.92665 15.8658 9.92494 15.8621C9.92305 15.8581 9.91596 15.8415 9.9084 15.8076C9.90087 15.7739 9.89373 15.7269 9.89001 15.6644L9.14134 15.709ZM10.2651 16.3323L10.6949 16.9469L15.8042 13.3734L15.3744 12.7588L14.9445 12.1442L9.83524 15.7177L10.2651 16.3323Z" fill="#2C2920"/>
</svg>
