<svg width="25" height="24" viewBox="0 0 25 24" fill="none" xmlns="http://www.w3.org/2000/svg">
<path d="M9.3299 8.5799L22.3499 19.1999M22.3499 4.7999L9.3299 15.4199M6.7499 9.5999C4.76168 9.5999 3.1499 7.98813 3.1499 5.9999C3.1499 4.01168 4.76168 2.3999 6.7499 2.3999C8.73813 2.3999 10.3499 4.01168 10.3499 5.9999C10.3499 7.98813 8.73813 9.5999 6.7499 9.5999ZM6.7499 21.5999C4.76168 21.5999 3.1499 19.9881 3.1499 17.9999C3.1499 16.0117 4.76168 14.3999 6.7499 14.3999C8.73813 14.3999 10.3499 16.0117 10.3499 17.9999C10.3499 19.9881 8.73813 21.5999 6.7499 21.5999Z" stroke="#2C2920" stroke-width="1.5" stroke-linecap="square" stroke-linejoin="round"/>
</svg>
