<svg width="25" height="24" viewBox="0 0 25 24" fill="none" xmlns="http://www.w3.org/2000/svg">
<path d="M5.5499 9.39554L22.3499 16.8004M22.3499 7.20039L5.5499 14.6052M6.7499 9.60039C4.76168 9.60039 3.1499 7.98861 3.1499 6.00039C3.1499 4.01216 4.76168 2.40039 6.7499 2.40039C8.73813 2.40039 10.3499 4.01217 10.3499 6.00039C10.3499 7.98862 8.73813 9.60039 6.7499 9.60039ZM6.7499 21.6004C4.76168 21.6004 3.1499 19.9886 3.1499 18.0004C3.1499 16.0122 4.76168 14.4004 6.7499 14.4004C8.73813 14.4004 10.3499 16.0122 10.3499 18.0004C10.3499 19.9886 8.73813 21.6004 6.7499 21.6004Z" stroke="#2C2920" stroke-width="1.5" stroke-linecap="square" stroke-linejoin="round"/>
</svg>
