<svg width="25" height="24" viewBox="0 0 25 24" fill="none" xmlns="http://www.w3.org/2000/svg">
<g clip-path="url(#clip0_48_7755)">
<path d="M4.34971 9.39505L21.1497 16.7999M21.1497 7.1999L4.34971 14.6047M18.1501 12.0002L18.1266 12.0237M22.9735 12.0002L22.95 12.0237M5.54971 9.5999C3.56148 9.5999 1.94971 7.98813 1.94971 5.9999C1.94971 4.01168 3.56148 2.3999 5.54971 2.3999C7.53793 2.3999 9.14971 4.01168 9.14971 5.9999C9.14971 7.98813 7.53793 9.5999 5.54971 9.5999ZM5.54971 21.5999C3.56148 21.5999 1.94971 19.9881 1.94971 17.9999C1.94971 16.0117 3.56148 14.3999 5.54971 14.3999C7.53793 14.3999 9.14971 16.0117 9.14971 17.9999C9.14971 19.9881 7.53793 21.5999 5.54971 21.5999Z" stroke="#2C2920" stroke-width="1.5" stroke-linecap="square" stroke-linejoin="round"/>
</g>
<defs>
<clipPath id="clip0_48_7755">
<rect width="24" height="24" fill="white" transform="translate(24.75) rotate(90)"/>
</clipPath>
</defs>
</svg>
