<svg width="24" height="24" viewBox="0 0 24 24" fill="none" xmlns="http://www.w3.org/2000/svg">
<path d="M8.3999 11.8297H10.5159M4.7999 21.5999C3.47442 21.5999 2.3999 20.5254 2.3999 19.1999V4.7999C2.3999 3.47442 3.47442 2.3999 4.7999 2.3999H19.1999C20.5254 2.3999 21.5999 3.47442 21.5999 4.7999V19.1999C21.5999 20.5254 20.5254 21.5999 19.1999 21.5999H4.7999ZM8.3999 15.2415V8.2593C8.3999 7.47092 9.23117 6.95948 9.93489 7.3149L16.2188 10.4886C16.9605 10.8632 17.0008 11.9072 16.2902 12.3378L10.0063 16.1463C9.30119 16.5736 8.3999 16.066 8.3999 15.2415Z" stroke="#2C2920" stroke-width="1.5" stroke-linecap="square"/>
</svg>
