<svg width="24" height="24" viewBox="0 0 24 24" fill="none" xmlns="http://www.w3.org/2000/svg">
<path d="M2.3999 18.4499H1.6499V19.9499H2.3999V18.4499ZM21.5999 19.9499H22.3499V18.4499H21.5999V19.9499ZM21.5999 5.9999H20.8499C20.8499 6.20545 20.7415 6.49105 20.3479 6.83999C19.9552 7.18815 19.3442 7.53595 18.5248 7.84324C16.8915 8.45573 14.5847 8.8499 11.9999 8.8499V9.5999V10.3499C14.717 10.3499 17.2103 9.93818 19.0515 9.24773C19.9693 8.90355 20.7642 8.47561 21.343 7.96238C21.921 7.44992 22.3499 6.78847 22.3499 5.9999H21.5999ZM11.9999 9.5999V8.8499C9.41506 8.8499 7.10834 8.45573 5.47502 7.84324C4.65559 7.53595 4.04457 7.18815 3.65187 6.83999C3.25831 6.49105 3.1499 6.20545 3.1499 5.9999H2.3999H1.6499C1.6499 6.78847 2.07876 7.44992 2.65676 7.96238C3.23564 8.47561 4.0305 8.90355 4.94833 9.24773C6.78953 9.93818 9.28281 10.3499 11.9999 10.3499V9.5999ZM2.3999 5.9999H3.1499C3.1499 5.79436 3.25831 5.50875 3.65187 5.15981C4.04457 4.81165 4.65559 4.46385 5.47502 4.15656C7.10834 3.54407 9.41506 3.1499 11.9999 3.1499V2.3999V1.6499C9.28281 1.6499 6.78953 2.06162 4.94833 2.75207C4.0305 3.09626 3.23564 3.52419 2.65676 4.03743C2.07876 4.54988 1.6499 5.21134 1.6499 5.9999H2.3999ZM11.9999 2.3999V3.1499C14.5847 3.1499 16.8915 3.54407 18.5248 4.15656C19.3442 4.46385 19.9552 4.81165 20.3479 5.15981C20.7415 5.50875 20.8499 5.79436 20.8499 5.9999H21.5999H22.3499C22.3499 5.21134 21.921 4.54988 21.343 4.03743C20.7642 3.52419 19.9693 3.09626 19.0515 2.75207C17.2103 2.06162 14.717 1.6499 11.9999 1.6499V2.3999ZM21.5999 10.7999H20.8499C20.8499 11.0054 20.7415 11.2911 20.3479 11.64C19.9552 11.9882 19.3442 12.336 18.5248 12.6432C16.8915 13.2557 14.5847 13.6499 11.9999 13.6499V14.3999V15.1499C14.717 15.1499 17.2103 14.7382 19.0515 14.0477C19.9693 13.7035 20.7642 13.2756 21.343 12.7624C21.921 12.2499 22.3499 11.5885 22.3499 10.7999H21.5999ZM11.9999 14.3999V13.6499C9.41506 13.6499 7.10834 13.2557 5.47502 12.6432C4.65559 12.336 4.04457 11.9882 3.65187 11.64C3.25831 11.2911 3.1499 11.0054 3.1499 10.7999H2.3999H1.6499C1.6499 11.5885 2.07876 12.2499 2.65676 12.7624C3.23564 13.2756 4.0305 13.7035 4.94833 14.0477C6.78953 14.7382 9.28281 15.1499 11.9999 15.1499V14.3999ZM2.3999 10.7999H3.1499V5.9999H2.3999H1.6499V10.7999H2.3999ZM21.5999 10.7999H22.3499V5.9999H21.5999H20.8499V10.7999H21.5999ZM14.3999 19.1999H13.6499C13.6499 20.1112 12.9112 20.8499 11.9999 20.8499V21.5999V22.3499C13.7396 22.3499 15.1499 20.9396 15.1499 19.1999H14.3999ZM11.9999 21.5999V20.8499C11.0886 20.8499 10.3499 20.1112 10.3499 19.1999H9.5999H8.8499C8.8499 20.9396 10.2602 22.3499 11.9999 22.3499V21.5999ZM9.5999 19.1999H10.3499C10.3499 18.2886 11.0886 17.5499 11.9999 17.5499V16.7999V16.0499C10.2602 16.0499 8.8499 17.4602 8.8499 19.1999H9.5999ZM11.9999 16.7999V17.5499C12.9112 17.5499 13.6499 18.2886 13.6499 19.1999H14.3999H15.1499C15.1499 17.4602 13.7396 16.0499 11.9999 16.0499V16.7999ZM2.3999 19.1999V19.9499H9.5999V19.1999V18.4499H2.3999V19.1999ZM14.3999 19.1999V19.9499H21.5999V19.1999V18.4499H14.3999V19.1999ZM11.9999 14.3999H11.2499V16.7999H11.9999H12.7499V14.3999H11.9999Z" fill="#2C2920"/>
</svg>
