<svg width="24" height="24" viewBox="0 0 24 24" fill="none" xmlns="http://www.w3.org/2000/svg">
<path d="M4.7998 5.78757L4.46439 5.11675C4.21031 5.24379 4.0498 5.50349 4.0498 5.78757H4.7998ZM11.9998 21.3876L11.5993 22.0217C11.844 22.1762 12.1556 22.1762 12.4003 22.0217L11.9998 21.3876ZM19.1998 5.78757H19.9498C19.9498 5.50349 19.7893 5.24379 19.5352 5.11675L19.1998 5.78757ZM10.3898 2.99255L10.0544 2.32173L10.3898 2.99255ZM13.6098 2.99255L13.9452 2.32173L13.6098 2.99255ZM14.6998 11.6377H15.4498V10.1377H14.6998V11.6377ZM9.29981 10.1377H8.54981V11.6377H9.29981V10.1377ZM11.2498 13.5876V14.3376H12.7498V13.5876H11.2498ZM12.7498 8.18757V7.43757H11.2498V8.18757H12.7498ZM10.3898 2.99255L10.0544 2.32173L4.46439 5.11675L4.7998 5.78757L5.13521 6.45839L10.7252 3.66337L10.3898 2.99255ZM4.7998 5.78757H4.0498V13.8156H4.7998H5.5498V5.78757H4.7998ZM4.7998 13.8156H4.0498C4.0498 15.1967 4.85726 16.5385 6.12291 17.8405C7.40391 19.1584 9.26153 20.5453 11.5993 22.0217L11.9998 21.3876L12.4003 20.7534C10.1005 19.301 8.3581 17.988 7.1985 16.795C6.02355 15.5863 5.5498 14.6065 5.5498 13.8156H4.7998ZM11.9998 21.3876L12.4003 22.0217C14.7087 20.5639 16.5754 19.3248 17.8604 18.0818C19.1658 16.8191 19.9498 15.4763 19.9498 13.8156H19.1998H18.4498C18.4498 14.9268 17.9526 15.9057 16.8175 17.0037C15.6618 18.1216 13.9285 19.2825 11.5993 20.7534L11.9998 21.3876ZM19.1998 13.8156H19.9498C19.9498 13.8102 19.9498 13.8047 19.9498 13.7993C19.9498 13.7939 19.9498 13.7884 19.9498 13.783C19.9498 13.7775 19.9498 13.7721 19.9498 13.7666C19.9498 13.7611 19.9498 13.7556 19.9498 13.7501C19.9498 13.7447 19.9498 13.7392 19.9498 13.7337C19.9498 13.7281 19.9498 13.7226 19.9498 13.7171C19.9498 13.7116 19.9498 13.706 19.9498 13.7005C19.9498 13.695 19.9498 13.6894 19.9498 13.6838C19.9498 13.6783 19.9498 13.6727 19.9498 13.6671C19.9498 13.6615 19.9498 13.656 19.9498 13.6504C19.9498 13.6448 19.9498 13.6392 19.9498 13.6335C19.9498 13.6279 19.9498 13.6223 19.9498 13.6167C19.9498 13.611 19.9498 13.6054 19.9498 13.5997C19.9498 13.5941 19.9498 13.5884 19.9498 13.5828C19.9498 13.5771 19.9498 13.5714 19.9498 13.5657C19.9498 13.56 19.9498 13.5544 19.9498 13.5486C19.9498 13.5429 19.9498 13.5372 19.9498 13.5315C19.9498 13.5258 19.9498 13.5201 19.9498 13.5143C19.9498 13.5086 19.9498 13.5029 19.9498 13.4971C19.9498 13.4913 19.9498 13.4856 19.9498 13.4798C19.9498 13.474 19.9498 13.4683 19.9498 13.4625C19.9498 13.4567 19.9498 13.4509 19.9498 13.4451C19.9498 13.4393 19.9498 13.4335 19.9498 13.4277C19.9498 13.4218 19.9498 13.416 19.9498 13.4102C19.9498 13.4043 19.9498 13.3985 19.9498 13.3926C19.9498 13.3868 19.9498 13.3809 19.9498 13.3751C19.9498 13.3692 19.9498 13.3633 19.9498 13.3574C19.9498 13.3516 19.9498 13.3457 19.9498 13.3398C19.9498 13.3339 19.9498 13.328 19.9498 13.322C19.9498 13.3161 19.9498 13.3102 19.9498 13.3043C19.9498 13.2983 19.9498 13.2924 19.9498 13.2865C19.9498 13.2805 19.9498 13.2746 19.9498 13.2686C19.9498 13.2626 19.9498 13.2567 19.9498 13.2507C19.9498 13.2447 19.9498 13.2387 19.9498 13.2327C19.9498 13.2267 19.9498 13.2207 19.9498 13.2147C19.9498 13.2087 19.9498 13.2027 19.9498 13.1967C19.9498 13.1907 19.9498 13.1846 19.9498 13.1786C19.9498 13.1726 19.9498 13.1665 19.9498 13.1605C19.9498 13.1544 19.9498 13.1484 19.9498 13.1423C19.9498 13.1362 19.9498 13.1302 19.9498 13.1241C19.9498 13.118 19.9498 13.1119 19.9498 13.1058C19.9498 13.0997 19.9498 13.0936 19.9498 13.0875C19.9498 13.0814 19.9498 13.0753 19.9498 13.0692C19.9498 13.0631 19.9498 13.0569 19.9498 13.0508C19.9498 13.0447 19.9498 13.0385 19.9498 13.0324C19.9498 13.0262 19.9498 13.0201 19.9498 13.0139C19.9498 13.0077 19.9498 13.0016 19.9498 12.9954C19.9498 12.9892 19.9498 12.983 19.9498 12.9768C19.9498 12.9706 19.9498 12.9644 19.9498 12.9582C19.9498 12.952 19.9498 12.9458 19.9498 12.9396C19.9498 12.9334 19.9498 12.9272 19.9498 12.9209C19.9498 12.9147 19.9498 12.9085 19.9498 12.9022C19.9498 12.896 19.9498 12.8897 19.9498 12.8835C19.9498 12.8772 19.9498 12.8709 19.9498 12.8647C19.9498 12.8584 19.9498 12.8521 19.9498 12.8458C19.9498 12.8396 19.9498 12.8333 19.9498 12.827C19.9498 12.8207 19.9498 12.8144 19.9498 12.8081C19.9498 12.8018 19.9498 12.7955 19.9498 12.7891C19.9498 12.7828 19.9498 12.7765 19.9498 12.7702C19.9498 12.7638 19.9498 12.7575 19.9498 12.7512C19.9498 12.7448 19.9498 12.7385 19.9498 12.7321C19.9498 12.7257 19.9498 12.7194 19.9498 12.713C19.9498 12.7067 19.9498 12.7003 19.9498 12.6939C19.9498 12.6875 19.9498 12.6811 19.9498 12.6747C19.9498 12.6684 19.9498 12.662 19.9498 12.6556C19.9498 12.6492 19.9498 12.6427 19.9498 12.6363C19.9498 12.6299 19.9498 12.6235 19.9498 12.6171C19.9498 12.6107 19.9498 12.6042 19.9498 12.5978C19.9498 12.5913 19.9498 12.5849 19.9498 12.5785C19.9498 12.572 19.9498 12.5656 19.9498 12.5591C19.9498 12.5526 19.9498 12.5462 19.9498 12.5397C19.9498 12.5332 19.9498 12.5268 19.9498 12.5203C19.9498 12.5138 19.9498 12.5073 19.9498 12.5008C19.9498 12.4943 19.9498 12.4878 19.9498 12.4813C19.9498 12.4748 19.9498 12.4683 19.9498 12.4618C19.9498 12.4553 19.9498 12.4488 19.9498 12.4423C19.9498 12.4358 19.9498 12.4292 19.9498 12.4227C19.9498 12.4162 19.9498 12.4096 19.9498 12.4031C19.9498 12.3966 19.9498 12.39 19.9498 12.3835C19.9498 12.3769 19.9498 12.3703 19.9498 12.3638C19.9498 12.3572 19.9498 12.3507 19.9498 12.3441C19.9498 12.3375 19.9498 12.3309 19.9498 12.3244C19.9498 12.3178 19.9498 12.3112 19.9498 12.3046C19.9498 12.298 19.9498 12.2914 19.9498 12.2848C19.9498 12.2782 19.9498 12.2716 19.9498 12.265C19.9498 12.2584 19.9498 12.2518 19.9498 12.2452C19.9498 12.2386 19.9498 12.2319 19.9498 12.2253C19.9498 12.2187 19.9498 12.212 19.9498 12.2054C19.9498 12.1988 19.9498 12.1921 19.9498 12.1855C19.9498 12.1789 19.9498 12.1722 19.9498 12.1655C19.9498 12.1589 19.9498 12.1522 19.9498 12.1456C19.9498 12.1389 19.9498 12.1323 19.9498 12.1256C19.9498 12.1189 19.9498 12.1122 19.9498 12.1056C19.9498 12.0989 19.9498 12.0922 19.9498 12.0855C19.9498 12.0788 19.9498 12.0721 19.9498 12.0654C19.9498 12.0588 19.9498 12.0521 19.9498 12.0454C19.9498 12.0387 19.9498 12.0319 19.9498 12.0252C19.9498 12.0185 19.9498 12.0118 19.9498 12.0051C19.9498 11.9984 19.9498 11.9917 19.9498 11.9849C19.9498 11.9782 19.9498 11.9715 19.9498 11.9647C19.9498 11.958 19.9498 11.9513 19.9498 11.9445C19.9498 11.9378 19.9498 11.9311 19.9498 11.9243C19.9498 11.9176 19.9498 11.9108 19.9498 11.9041C19.9498 11.8973 19.9498 11.8905 19.9498 11.8838C19.9498 11.877 19.9498 11.8703 19.9498 11.8635C19.9498 11.8567 19.9498 11.8499 19.9498 11.8432C19.9498 11.8364 19.9498 11.8296 19.9498 11.8228C19.9498 11.8161 19.9498 11.8093 19.9498 11.8025C19.9498 11.7957 19.9498 11.7889 19.9498 11.7821C19.9498 11.7753 19.9498 11.7685 19.9498 11.7617C19.9498 11.7549 19.9498 11.7481 19.9498 11.7413C19.9498 11.7345 19.9498 11.7277 19.9498 11.7209C19.9498 11.7141 19.9498 11.7072 19.9498 11.7004C19.9498 11.6936 19.9498 11.6868 19.9498 11.68C19.9498 11.6731 19.9498 11.6663 19.9498 11.6595C19.9498 11.6526 19.9498 11.6458 19.9498 11.639C19.9498 11.6321 19.9498 11.6253 19.9498 11.6185C19.9498 11.6116 19.9498 11.6048 19.9498 11.5979C19.9498 11.5911 19.9498 11.5842 19.9498 11.5774C19.9498 11.5705 19.9498 11.5637 19.9498 11.5568C19.9498 11.5499 19.9498 11.5431 19.9498 11.5362C19.9498 11.5294 19.9498 11.5225 19.9498 11.5156C19.9498 11.5088 19.9498 11.5019 19.9498 11.495C19.9498 11.4881 19.9498 11.4813 19.9498 11.4744C19.9498 11.4675 19.9498 11.4606 19.9498 11.4538C19.9498 11.4469 19.9498 11.44 19.9498 11.4331C19.9498 11.4262 19.9498 11.4193 19.9498 11.4124C19.9498 11.4055 19.9498 11.3986 19.9498 11.3918C19.9498 11.3849 19.9498 11.378 19.9498 11.3711C19.9498 11.3642 19.9498 11.3573 19.9498 11.3504C19.9498 11.3435 19.9498 11.3366 19.9498 11.3296C19.9498 11.3227 19.9498 11.3158 19.9498 11.3089C19.9498 11.302 19.9498 11.2951 19.9498 11.2882C19.9498 11.2813 19.9498 11.2743 19.9498 11.2674C19.9498 11.2605 19.9498 11.2536 19.9498 11.2467C19.9498 11.2397 19.9498 11.2328 19.9498 11.2259C19.9498 11.219 19.9498 11.212 19.9498 11.2051C19.9498 11.1982 19.9498 11.1913 19.9498 11.1843C19.9498 11.1774 19.9498 11.1705 19.9498 11.1635C19.9498 11.1566 19.9498 11.1497 19.9498 11.1427C19.9498 11.1358 19.9498 11.1289 19.9498 11.1219C19.9498 11.115 19.9498 11.108 19.9498 11.1011C19.9498 11.0941 19.9498 11.0872 19.9498 11.0803C19.9498 11.0733 19.9498 11.0664 19.9498 11.0594C19.9498 11.0525 19.9498 11.0455 19.9498 11.0386C19.9498 11.0316 19.9498 11.0247 19.9498 11.0177C19.9498 11.0108 19.9498 11.0038 19.9498 10.9969C19.9498 10.9899 19.9498 10.983 19.9498 10.976C19.9498 10.969 19.9498 10.9621 19.9498 10.9551C19.9498 10.9482 19.9498 10.9412 19.9498 10.9343C19.9498 10.9273 19.9498 10.9203 19.9498 10.9134C19.9498 10.9064 19.9498 10.8995 19.9498 10.8925C19.9498 10.8855 19.9498 10.8786 19.9498 10.8716C19.9498 10.8646 19.9498 10.8577 19.9498 10.8507C19.9498 10.8437 19.9498 10.8368 19.9498 10.8298C19.9498 10.8228 19.9498 10.8159 19.9498 10.8089C19.9498 10.8019 19.9498 10.795 19.9498 10.788C19.9498 10.781 19.9498 10.7741 19.9498 10.7671C19.9498 10.7601 19.9498 10.7532 19.9498 10.7462C19.9498 10.7392 19.9498 10.7323 19.9498 10.7253C19.9498 10.7183 19.9498 10.7113 19.9498 10.7044C19.9498 10.6974 19.9498 10.6904 19.9498 10.6835C19.9498 10.6765 19.9498 10.6695 19.9498 10.6626C19.9498 10.6556 19.9498 10.6486 19.9498 10.6416C19.9498 10.6347 19.9498 10.6277 19.9498 10.6207C19.9498 10.6138 19.9498 10.6068 19.9498 10.5998C19.9498 10.5928 19.9498 10.5859 19.9498 10.5789C19.9498 10.5719 19.9498 10.565 19.9498 10.558C19.9498 10.551 19.9498 10.544 19.9498 10.5371C19.9498 10.5301 19.9498 10.5231 19.9498 10.5162C19.9498 10.5092 19.9498 10.5022 19.9498 10.4953C19.9498 10.4883 19.9498 10.4813 19.9498 10.4744C19.9498 10.4674 19.9498 10.4604 19.9498 10.4535C19.9498 10.4465 19.9498 10.4395 19.9498 10.4326C19.9498 10.4256 19.9498 10.4186 19.9498 10.4117C19.9498 10.4047 19.9498 10.3977 19.9498 10.3908C19.9498 10.3838 19.9498 10.3768 19.9498 10.3699C19.9498 10.3629 19.9498 10.356 19.9498 10.349C19.9498 10.342 19.9498 10.3351 19.9498 10.3281C19.9498 10.3212 19.9498 10.3142 19.9498 10.3073C19.9498 10.3003 19.9498 10.2933 19.9498 10.2864C19.9498 10.2794 19.9498 10.2725 19.9498 10.2655C19.9498 10.2586 19.9498 10.2516 19.9498 10.2447C19.9498 10.2377 19.9498 10.2308 19.9498 10.2238C19.9498 10.2169 19.9498 10.2099 19.9498 10.203C19.9498 10.196 19.9498 10.1891 19.9498 10.1821C19.9498 10.1752 19.9498 10.1683 19.9498 10.1613C19.9498 10.1544 19.9498 10.1474 19.9498 10.1405C19.9498 10.1335 19.9498 10.1266 19.9498 10.1197C19.9498 10.1127 19.9498 10.1058 19.9498 10.0989C19.9498 10.0919 19.9498 10.085 19.9498 10.0781C19.9498 10.0711 19.9498 10.0642 19.9498 10.0573C19.9498 10.0504 19.9498 10.0434 19.9498 10.0365C19.9498 10.0296 19.9498 10.0227 19.9498 10.0158C19.9498 10.0088 19.9498 10.0019 19.9498 9.995C19.9498 9.98808 19.9498 9.98116 19.9498 9.97425C19.9498 9.96734 19.9498 9.96043 19.9498 9.95352C19.9498 9.94661 19.9498 9.9397 19.9498 9.93279C19.9498 9.92589 19.9498 9.91898 19.9498 9.91208C19.9498 9.90518 19.9498 9.89828 19.9498 9.89138C19.9498 9.88449 19.9498 9.87759 19.9498 9.8707C19.9498 9.8638 19.9498 9.85691 19.9498 9.85002C19.9498 9.84313 19.9498 9.83625 19.9498 9.82936C19.9498 9.82248 19.9498 9.81559 19.9498 9.80871C19.9498 9.80183 19.9498 9.79496 19.9498 9.78808C19.9498 9.78121 19.9498 9.77433 19.9498 9.76746C19.9498 9.76059 19.9498 9.75372 19.9498 9.74686C19.9498 9.73999 19.9498 9.73313 19.9498 9.72626C19.9498 9.7194 19.9498 9.71255 19.9498 9.70569C19.9498 9.69883 19.9498 9.69198 19.9498 9.68513C19.9498 9.67828 19.9498 9.67143 19.9498 9.66459C19.9498 9.65774 19.9498 9.6509 19.9498 9.64406C19.9498 9.63722 19.9498 9.63038 19.9498 9.62355C19.9498 9.61671 19.9498 9.60988 19.9498 9.60305C19.9498 9.59622 19.9498 9.5894 19.9498 9.58257C19.9498 9.57575 19.9498 9.56893 19.9498 9.56211C19.9498 9.5553 19.9498 9.54848 19.9498 9.54167C19.9498 9.53486 19.9498 9.52805 19.9498 9.52125C19.9498 9.51444 19.9498 9.50764 19.9498 9.50084C19.9498 9.49404 19.9498 9.48725 19.9498 9.48046C19.9498 9.47366 19.9498 9.46687 19.9498 9.46009C19.9498 9.4533 19.9498 9.44652 19.9498 9.43974C19.9498 9.43296 19.9498 9.42619 19.9498 9.41941C19.9498 9.41264 19.9498 9.40587 19.9498 9.39911C19.9498 9.39234 19.9498 9.38558 19.9498 9.37882C19.9498 9.37206 19.9498 9.36531 19.9498 9.35855C19.9498 9.3518 19.9498 9.34505 19.9498 9.33831C19.9498 9.33157 19.9498 9.32482 19.9498 9.31809C19.9498 9.31135 19.9498 9.30462 19.9498 9.29789C19.9498 9.29116 19.9498 9.28443 19.9498 9.27771C19.9498 9.27099 19.9498 9.26427 19.9498 9.25755C19.9498 9.25084 19.9498 9.24413 19.9498 9.23742C19.9498 9.23071 19.9498 9.22401 19.9498 9.21731C19.9498 9.21061 19.9498 9.20392 19.9498 9.19723C19.9498 9.19054 19.9498 9.18385 19.9498 9.17717C19.9498 9.17048 19.9498 9.1638 19.9498 9.15713C19.9498 9.15045 19.9498 9.14378 19.9498 9.13712C19.9498 9.13045 19.9498 9.12379 19.9498 9.11713C19.9498 9.11047 19.9498 9.10382 19.9498 9.09717C19.9498 9.09052 19.9498 9.08388 19.9498 9.07723C19.9498 9.07059 19.9498 9.06396 19.9498 9.05733C19.9498 9.05069 19.9498 9.04407 19.9498 9.03744C19.9498 9.03082 19.9498 9.0242 19.9498 9.01759C19.9498 9.01097 19.9498 9.00436 19.9498 8.99776C19.9498 8.99115 19.9498 8.98455 19.9498 8.97796C19.9498 8.97136 19.9498 8.96477 19.9498 8.95818C19.9498 8.9516 19.9498 8.94502 19.9498 8.93844C19.9498 8.93186 19.9498 8.92529 19.9498 8.91872C19.9498 8.91216 19.9498 8.90559 19.9498 8.89904C19.9498 8.89248 19.9498 8.88593 19.9498 8.87938C19.9498 8.87283 19.9498 8.86629 19.9498 8.85975C19.9498 8.85321 19.9498 8.84668 19.9498 8.84015C19.9498 8.83362 19.9498 8.8271 19.9498 8.82058C19.9498 8.81407 19.9498 8.80755 19.9498 8.80105C19.9498 8.79454 19.9498 8.78804 19.9498 8.78154C19.9498 8.77504 19.9498 8.76855 19.9498 8.76207C19.9498 8.75558 19.9498 8.7491 19.9498 8.74262C19.9498 8.73615 19.9498 8.72968 19.9498 8.72321C19.9498 8.71675 19.9498 8.71029 19.9498 8.70383C19.9498 8.69738 19.9498 8.69093 19.9498 8.68449C19.9498 8.67804 19.9498 8.67161 19.9498 8.66517C19.9498 8.65874 19.9498 8.65232 19.9498 8.6459C19.9498 8.63947 19.9498 8.63306 19.9498 8.62665C19.9498 8.62024 19.9498 8.61384 19.9498 8.60744C19.9498 8.60104 19.9498 8.59465 19.9498 8.58826C19.9498 8.58188 19.9498 8.57549 19.9498 8.56912C19.9498 8.56275 19.9498 8.55638 19.9498 8.55001C19.9498 8.54365 19.9498 8.53729 19.9498 8.53094C19.9498 8.52459 19.9498 8.51825 19.9498 8.51191C19.9498 8.50557 19.9498 8.49923 19.9498 8.49291C19.9498 8.48658 19.9498 8.48026 19.9498 8.47394C19.9498 8.46763 19.9498 8.46132 19.9498 8.45502C19.9498 8.44872 19.9498 8.44242 19.9498 8.43613C19.9498 8.42984 19.9498 8.42356 19.9498 8.41728C19.9498 8.411 19.9498 8.40473 19.9498 8.39847C19.9498 8.3922 19.9498 8.38594 19.9498 8.37969C19.9498 8.37344 19.9498 8.3672 19.9498 8.36096C19.9498 8.35472 19.9498 8.34849 19.9498 8.34226C19.9498 8.33603 19.9498 8.32981 19.9498 8.3236C19.9498 8.31739 19.9498 8.31118 19.9498 8.30498C19.9498 8.29878 19.9498 8.29259 19.9498 8.28641C19.9498 8.28022 19.9498 8.27404 19.9498 8.26787C19.9498 8.2617 19.9498 8.25553 19.9498 8.24937C19.9498 8.24321 19.9498 8.23706 19.9498 8.23092C19.9498 8.22477 19.9498 8.21863 19.9498 8.2125C19.9498 8.20637 19.9498 8.20025 19.9498 8.19413C19.9498 8.18801 19.9498 8.1819 19.9498 8.1758C19.9498 8.1697 19.9498 8.1636 19.9498 8.15751C19.9498 8.15142 19.9498 8.14534 19.9498 8.13927C19.9498 8.13319 19.9498 8.12712 19.9498 8.12106C19.9498 8.115 19.9498 8.10895 19.9498 8.1029C19.9498 8.09686 19.9498 8.09082 19.9498 8.08479C19.9498 8.07876 19.9498 8.07274 19.9498 8.06672C19.9498 8.0607 19.9498 8.05469 19.9498 8.04869C19.9498 8.04269 19.9498 8.0367 19.9498 8.03071C19.9498 8.02473 19.9498 8.01875 19.9498 8.01278C19.9498 8.0068 19.9498 8.00084 19.9498 7.99489C19.9498 7.98893 19.9498 7.98298 19.9498 7.97704C19.9498 7.9711 19.9498 7.96517 19.9498 7.95924C19.9498 7.95332 19.9498 7.9474 19.9498 7.94149C19.9498 7.93558 19.9498 7.92968 19.9498 7.92379C19.9498 7.91789 19.9498 7.91201 19.9498 7.90613C19.9498 7.90025 19.9498 7.89438 19.9498 7.88852C19.9498 7.88266 19.9498 7.8768 19.9498 7.87096C19.9498 7.86511 19.9498 7.85927 19.9498 7.85344C19.9498 7.84761 19.9498 7.84179 19.9498 7.83598C19.9498 7.83017 19.9498 7.82436 19.9498 7.81856C19.9498 7.81277 19.9498 7.80698 19.9498 7.8012C19.9498 7.79542 19.9498 7.78964 19.9498 7.78388C19.9498 7.77812 19.9498 7.77236 19.9498 7.76661C19.9498 7.76087 19.9498 7.75513 19.9498 7.7494C19.9498 7.74367 19.9498 7.73795 19.9498 7.73223C19.9498 7.72652 19.9498 7.72081 19.9498 7.71512C19.9498 7.70942 19.9498 7.70373 19.9498 7.69805C19.9498 7.69238 19.9498 7.68671 19.9498 7.68104C19.9498 7.67538 19.9498 7.66973 19.9498 7.66408C19.9498 7.65844 19.9498 7.6528 19.9498 7.64718C19.9498 7.64155 19.9498 7.63593 19.9498 7.63032C19.9498 7.62472 19.9498 7.61912 19.9498 7.61352C19.9498 7.60793 19.9498 7.60235 19.9498 7.59678C19.9498 7.5912 19.9498 7.58564 19.9498 7.58008C19.9498 7.57453 19.9498 7.56898 19.9498 7.56345C19.9498 7.55791 19.9498 7.55238 19.9498 7.54686C19.9498 7.54134 19.9498 7.53583 19.9498 7.53033C19.9498 7.52483 19.9498 7.51934 19.9498 7.51386C19.9498 7.50837 19.9498 7.5029 19.9498 7.49744C19.9498 7.49197 19.9498 7.48652 19.9498 7.48108C19.9498 7.47563 19.9498 7.4702 19.9498 7.46477C19.9498 7.45934 19.9498 7.45393 19.9498 7.44852C19.9498 7.44311 19.9498 7.43772 19.9498 7.43233C19.9498 7.42694 19.9498 7.42156 19.9498 7.41619C19.9498 7.41082 19.9498 7.40546 19.9498 7.40011C19.9498 7.39476 19.9498 7.38942 19.9498 7.38409C19.9498 7.37876 19.9498 7.37344 19.9498 7.36813C19.9498 7.36282 19.9498 7.35752 19.9498 7.35223C19.9498 7.34694 19.9498 7.34166 19.9498 7.33639C19.9498 7.33112 19.9498 7.32585 19.9498 7.3206C19.9498 7.31535 19.9498 7.31011 19.9498 7.30488C19.9498 7.29965 19.9498 7.29443 19.9498 7.28921C19.9498 7.284 19.9498 7.2788 19.9498 7.27361C19.9498 7.26842 19.9498 7.26324 19.9498 7.25807C19.9498 7.2529 19.9498 7.24774 19.9498 7.24258C19.9498 7.23743 19.9498 7.23229 19.9498 7.22716C19.9498 7.22203 19.9498 7.21691 19.9498 7.21181C19.9498 7.2067 19.9498 7.2016 19.9498 7.19651C19.9498 7.19142 19.9498 7.18634 19.9498 7.18128C19.9498 7.17621 19.9498 7.17115 19.9498 7.1661C19.9498 7.16106 19.9498 7.15602 19.9498 7.151C19.9498 7.14597 19.9498 7.14096 19.9498 7.13595C19.9498 7.13095 19.9498 7.12595 19.9498 7.12097C19.9498 7.11599 19.9498 7.11102 19.9498 7.10606C19.9498 7.10109 19.9498 7.09614 19.9498 7.0912C19.9498 7.08626 19.9498 7.08134 19.9498 7.07642C19.9498 7.0715 19.9498 7.06659 19.9498 7.0617C19.9498 7.0568 19.9498 7.05191 19.9498 7.04704C19.9498 7.04217 19.9498 7.0373 19.9498 7.03245C19.9498 7.0276 19.9498 7.02276 19.9498 7.01793C19.9498 7.0131 19.9498 7.00828 19.9498 7.00347C19.9498 6.99866 19.9498 6.99387 19.9498 6.98908C19.9498 6.98429 19.9498 6.97952 19.9498 6.97476C19.9498 6.97 19.9498 6.96524 19.9498 6.9605C19.9498 6.95576 19.9498 6.95103 19.9498 6.94632C19.9498 6.9416 19.9498 6.93689 19.9498 6.9322C19.9498 6.9275 19.9498 6.92282 19.9498 6.91815C19.9498 6.91348 19.9498 6.90882 19.9498 6.90417C19.9498 6.89952 19.9498 6.89488 19.9498 6.89026C19.9498 6.88563 19.9498 6.88102 19.9498 6.87642C19.9498 6.87181 19.9498 6.86722 19.9498 6.86265C19.9498 6.85807 19.9498 6.8535 19.9498 6.84894C19.9498 6.84439 19.9498 6.83985 19.9498 6.83531C19.9498 6.83078 19.9498 6.82626 19.9498 6.82176C19.9498 6.81725 19.9498 6.81275 19.9498 6.80827C19.9498 6.80379 19.9498 6.79931 19.9498 6.79485C19.9498 6.79039 19.9498 6.78595 19.9498 6.78151C19.9498 6.77708 19.9498 6.77265 19.9498 6.76824C19.9498 6.76383 19.9498 6.75943 19.9498 6.75504C19.9498 6.75066 19.9498 6.74628 19.9498 6.74192C19.9498 6.73756 19.9498 6.73321 19.9498 6.72887C19.9498 6.72453 19.9498 6.7202 19.9498 6.71589C19.9498 6.71158 19.9498 6.70728 19.9498 6.70299C19.9498 6.6987 19.9498 6.69442 19.9498 6.69016C19.9498 6.6859 19.9498 6.68165 19.9498 6.67741C19.9498 6.67317 19.9498 6.66894 19.9498 6.66473C19.9498 6.66052 19.9498 6.65632 19.9498 6.65213C19.9498 6.64794 19.9498 6.64376 19.9498 6.6396C19.9498 6.63544 19.9498 6.63129 19.9498 6.62715C19.9498 6.62302 19.9498 6.61889 19.9498 6.61478C19.9498 6.61067 19.9498 6.60657 19.9498 6.60248C19.9498 6.5984 19.9498 6.59433 19.9498 6.59027C19.9498 6.58621 19.9498 6.58216 19.9498 6.57813C19.9498 6.57409 19.9498 6.57007 19.9498 6.56606C19.9498 6.56205 19.9498 6.55806 19.9498 6.55408C19.9498 6.5501 19.9498 6.54613 19.9498 6.54217C19.9498 6.53822 19.9498 6.53428 19.9498 6.53035C19.9498 6.52642 19.9498 6.5225 19.9498 6.5186C19.9498 6.5147 19.9498 6.51081 19.9498 6.50693C19.9498 6.50306 19.9498 6.4992 19.9498 6.49535C19.9498 6.4915 19.9498 6.48766 19.9498 6.48384C19.9498 6.48002 19.9498 6.47621 19.9498 6.47241C19.9498 6.46862 19.9498 6.46484 19.9498 6.46107C19.9498 6.4573 19.9498 6.45355 19.9498 6.44981C19.9498 6.44607 19.9498 6.44234 19.9498 6.43863C19.9498 6.43491 19.9498 6.43121 19.9498 6.42753C19.9498 6.42384 19.9498 6.42017 19.9498 6.41651C19.9498 6.41285 19.9498 6.40921 19.9498 6.40558C19.9498 6.40195 19.9498 6.39833 19.9498 6.39473C19.9498 6.39113 19.9498 6.38754 19.9498 6.38396C19.9498 6.38039 19.9498 6.37683 19.9498 6.37328C19.9498 6.36974 19.9498 6.3662 19.9498 6.36268C19.9498 6.35917 19.9498 6.35566 19.9498 6.35217C19.9498 6.34868 19.9498 6.3452 19.9498 6.34174C19.9498 6.33828 19.9498 6.33483 19.9498 6.3314C19.9498 6.32797 19.9498 6.32455 19.9498 6.32114C19.9498 6.31774 19.9498 6.31435 19.9498 6.31097C19.9498 6.3076 19.9498 6.30423 19.9498 6.30089C19.9498 6.29754 19.9498 6.29421 19.9498 6.29089C19.9498 6.28757 19.9498 6.28427 19.9498 6.28098C19.9498 6.27769 19.9498 6.27441 19.9498 6.27115C19.9498 6.26789 19.9498 6.26465 19.9498 6.26142C19.9498 6.25819 19.9498 6.25497 19.9498 6.25177C19.9498 6.24857 19.9498 6.24538 19.9498 6.24221C19.9498 6.23904 19.9498 6.23588 19.9498 6.23274C19.9498 6.2296 19.9498 6.22647 19.9498 6.22336C19.9498 6.22025 19.9498 6.21715 19.9498 6.21407C19.9498 6.21099 19.9498 6.20792 19.9498 6.20487C19.9498 6.20182 19.9498 6.19878 19.9498 6.19576C19.9498 6.19273 19.9498 6.18973 19.9498 6.18674C19.9498 6.18374 19.9498 6.18077 19.9498 6.17781C19.9498 6.17484 19.9498 6.1719 19.9498 6.16897C19.9498 6.16604 19.9498 6.16312 19.9498 6.16022C19.9498 6.15732 19.9498 6.15443 19.9498 6.15156C19.9498 6.14869 19.9498 6.14584 19.9498 6.143C19.9498 6.14016 19.9498 6.13734 19.9498 6.13453C19.9498 6.13172 19.9498 6.12893 19.9498 6.12615C19.9498 6.12338 19.9498 6.12061 19.9498 6.11787C19.9498 6.11512 19.9498 6.11239 19.9498 6.10968C19.9498 6.10696 19.9498 6.10426 19.9498 6.10158C19.9498 6.0989 19.9498 6.09623 19.9498 6.09358C19.9498 6.09093 19.9498 6.08829 19.9498 6.08567C19.9498 6.08305 19.9498 6.08045 19.9498 6.07786C19.9498 6.07527 19.9498 6.0727 19.9498 6.07014C19.9498 6.06759 19.9498 6.06505 19.9498 6.06252C19.9498 6.06 19.9498 6.05749 19.9498 6.055C19.9498 6.0525 19.9498 6.05003 19.9498 6.04757C19.9498 6.04511 19.9498 6.04266 19.9498 6.04024C19.9498 6.03781 19.9498 6.0354 19.9498 6.033C19.9498 6.03061 19.9498 6.02823 19.9498 6.02586C19.9498 6.0235 19.9498 6.02115 19.9498 6.01882C19.9498 6.01649 19.9498 6.01418 19.9498 6.01188C19.9498 6.00958 19.9498 6.0073 19.9498 6.00504C19.9498 6.00277 19.9498 6.00053 19.9498 5.9983C19.9498 5.99606 19.9498 5.99385 19.9498 5.99165C19.9498 5.98945 19.9498 5.98727 19.9498 5.9851C19.9498 5.98294 19.9498 5.98079 19.9498 5.97866C19.9498 5.97653 19.9498 5.97441 19.9498 5.97231C19.9498 5.97022 19.9498 5.96813 19.9498 5.96607C19.9498 5.964 19.9498 5.96196 19.9498 5.95993C19.9498 5.95789 19.9498 5.95588 19.9498 5.95388C19.9498 5.95189 19.9498 5.94991 19.9498 5.94794C19.9498 5.94598 19.9498 5.94403 19.9498 5.9421C19.9498 5.94017 19.9498 5.93826 19.9498 5.93637C19.9498 5.93447 19.9498 5.93259 19.9498 5.93073C19.9498 5.92887 19.9498 5.92703 19.9498 5.9252C19.9498 5.92338 19.9498 5.92157 19.9498 5.91977C19.9498 5.91798 19.9498 5.91621 19.9498 5.91445C19.9498 5.91269 19.9498 5.91095 19.9498 5.90923C19.9498 5.90751 19.9498 5.9058 19.9498 5.90411C19.9498 5.90243 19.9498 5.90076 19.9498 5.8991C19.9498 5.89745 19.9498 5.89582 19.9498 5.8942C19.9498 5.89258 19.9498 5.89098 19.9498 5.8894C19.9498 5.88782 19.9498 5.88625 19.9498 5.8847C19.9498 5.88316 19.9498 5.88163 19.9498 5.88012C19.9498 5.8786 19.9498 5.87711 19.9498 5.87563C19.9498 5.87416 19.9498 5.8727 19.9498 5.87126C19.9498 5.86982 19.9498 5.86839 19.9498 5.86699C19.9498 5.86559 19.9498 5.8642 19.9498 5.86283C19.9498 5.86146 19.9498 5.86011 19.9498 5.85878C19.9498 5.85744 19.9498 5.85613 19.9498 5.85483C19.9498 5.85354 19.9498 5.85226 19.9498 5.851C19.9498 5.84974 19.9498 5.84849 19.9498 5.84727C19.9498 5.84605 19.9498 5.84484 19.9498 5.84365C19.9498 5.84246 19.9498 5.84129 19.9498 5.84014C19.9498 5.83899 19.9498 5.83786 19.9498 5.83675C19.9498 5.83563 19.9498 5.83454 19.9498 5.83346C19.9498 5.83238 19.9498 5.83132 19.9498 5.83028C19.9498 5.82924 19.9498 5.82822 19.9498 5.82721C19.9498 5.82621 19.9498 5.82522 19.9498 5.82426C19.9498 5.82329 19.9498 5.82234 19.9498 5.82141C19.9498 5.82049 19.9498 5.81958 19.9498 5.81868C19.9498 5.81779 19.9498 5.81692 19.9498 5.81606C19.9498 5.81521 19.9498 5.81437 19.9498 5.81356C19.9498 5.81274 19.9498 5.81194 19.9498 5.81116C19.9498 5.81039 19.9498 5.80963 19.9498 5.80888C19.9498 5.80814 19.9498 5.80742 19.9498 5.80672C19.9498 5.80601 19.9498 5.80533 19.9498 5.80467C19.9498 5.804 19.9498 5.80335 19.9498 5.80273C19.9498 5.8021 19.9498 5.80149 19.9498 5.8009C19.9498 5.80032 19.9498 5.79975 19.9498 5.7992C19.9498 5.79865 19.9498 5.79812 19.9498 5.7976C19.9498 5.79709 19.9498 5.7966 19.9498 5.79613C19.9498 5.79565 19.9498 5.7952 19.9498 5.79477C19.9498 5.79433 19.9498 5.79392 19.9498 5.79352C19.9498 5.79313 19.9498 5.79275 19.9498 5.7924C19.9498 5.79204 19.9498 5.7917 19.9498 5.79139C19.9498 5.79107 19.9498 5.79077 19.9498 5.79049C19.9498 5.79022 19.9498 5.78996 19.9498 5.78972C19.9498 5.78948 19.9498 5.78926 19.9498 5.78906C19.9498 5.78886 19.9498 5.78868 19.9498 5.78852C19.9498 5.78836 19.9498 5.78823 19.9498 5.78811C19.9498 5.78799 19.9498 5.78789 19.9498 5.78781C19.9498 5.78773 19.9498 5.78767 19.9498 5.78763C19.9498 5.78759 19.9498 5.78757 19.1998 5.78757C18.4498 5.78757 18.4498 5.78759 18.4498 5.78763C18.4498 5.78767 18.4498 5.78773 18.4498 5.78781C18.4498 5.78789 18.4498 5.78799 18.4498 5.78811C18.4498 5.78823 18.4498 5.78836 18.4498 5.78852C18.4498 5.78868 18.4498 5.78886 18.4498 5.78906C18.4498 5.78926 18.4498 5.78948 18.4498 5.78972C18.4498 5.78996 18.4498 5.79022 18.4498 5.79049C18.4498 5.79077 18.4498 5.79107 18.4498 5.79139C18.4498 5.7917 18.4498 5.79204 18.4498 5.7924C18.4498 5.79275 18.4498 5.79313 18.4498 5.79352C18.4498 5.79392 18.4498 5.79433 18.4498 5.79477C18.4498 5.7952 18.4498 5.79565 18.4498 5.79613C18.4498 5.7966 18.4498 5.79709 18.4498 5.7976C18.4498 5.79812 18.4498 5.79865 18.4498 5.7992C18.4498 5.79975 18.4498 5.80032 18.4498 5.8009C18.4498 5.80149 18.4498 5.8021 18.4498 5.80273C18.4498 5.80335 18.4498 5.804 18.4498 5.80467C18.4498 5.80533 18.4498 5.80601 18.4498 5.80672C18.4498 5.80742 18.4498 5.80814 18.4498 5.80888C18.4498 5.80963 18.4498 5.81039 18.4498 5.81116C18.4498 5.81194 18.4498 5.81274 18.4498 5.81356C18.4498 5.81437 18.4498 5.81521 18.4498 5.81606C18.4498 5.81692 18.4498 5.81779 18.4498 5.81868C18.4498 5.81958 18.4498 5.82049 18.4498 5.82141C18.4498 5.82234 18.4498 5.82329 18.4498 5.82426C18.4498 5.82522 18.4498 5.82621 18.4498 5.82721C18.4498 5.82822 18.4498 5.82924 18.4498 5.83028C18.4498 5.83132 18.4498 5.83238 18.4498 5.83346C18.4498 5.83454 18.4498 5.83563 18.4498 5.83675C18.4498 5.83786 18.4498 5.83899 18.4498 5.84014C18.4498 5.84129 18.4498 5.84246 18.4498 5.84365C18.4498 5.84484 18.4498 5.84605 18.4498 5.84727C18.4498 5.84849 18.4498 5.84974 18.4498 5.851C18.4498 5.85226 18.4498 5.85354 18.4498 5.85483C18.4498 5.85613 18.4498 5.85744 18.4498 5.85878C18.4498 5.86011 18.4498 5.86146 18.4498 5.86283C18.4498 5.8642 18.4498 5.86559 18.4498 5.86699C18.4498 5.86839 18.4498 5.86982 18.4498 5.87126C18.4498 5.8727 18.4498 5.87416 18.4498 5.87563C18.4498 5.87711 18.4498 5.8786 18.4498 5.88012C18.4498 5.88163 18.4498 5.88316 18.4498 5.8847C18.4498 5.88625 18.4498 5.88782 18.4498 5.8894C18.4498 5.89098 18.4498 5.89258 18.4498 5.8942C18.4498 5.89582 18.4498 5.89745 18.4498 5.8991C18.4498 5.90076 18.4498 5.90243 18.4498 5.90411C18.4498 5.9058 18.4498 5.90751 18.4498 5.90923C18.4498 5.91095 18.4498 5.91269 18.4498 5.91445C18.4498 5.91621 18.4498 5.91798 18.4498 5.91977C18.4498 5.92157 18.4498 5.92338 18.4498 5.9252C18.4498 5.92703 18.4498 5.92887 18.4498 5.93073C18.4498 5.93259 18.4498 5.93447 18.4498 5.93637C18.4498 5.93826 18.4498 5.94017 18.4498 5.9421C18.4498 5.94403 18.4498 5.94598 18.4498 5.94794C18.4498 5.94991 18.4498 5.95189 18.4498 5.95388C18.4498 5.95588 18.4498 5.95789 18.4498 5.95993C18.4498 5.96196 18.4498 5.964 18.4498 5.96607C18.4498 5.96813 18.4498 5.97022 18.4498 5.97231C18.4498 5.97441 18.4498 5.97653 18.4498 5.97866C18.4498 5.98079 18.4498 5.98294 18.4498 5.9851C18.4498 5.98727 18.4498 5.98945 18.4498 5.99165C18.4498 5.99385 18.4498 5.99606 18.4498 5.9983C18.4498 6.00053 18.4498 6.00277 18.4498 6.00504C18.4498 6.0073 18.4498 6.00958 18.4498 6.01188C18.4498 6.01418 18.4498 6.01649 18.4498 6.01882C18.4498 6.02115 18.4498 6.0235 18.4498 6.02586C18.4498 6.02823 18.4498 6.03061 18.4498 6.033C18.4498 6.0354 18.4498 6.03781 18.4498 6.04024C18.4498 6.04266 18.4498 6.04511 18.4498 6.04757C18.4498 6.05003 18.4498 6.0525 18.4498 6.055C18.4498 6.05749 18.4498 6.06 18.4498 6.06252C18.4498 6.06505 18.4498 6.06759 18.4498 6.07014C18.4498 6.0727 18.4498 6.07527 18.4498 6.07786C18.4498 6.08045 18.4498 6.08305 18.4498 6.08567C18.4498 6.08829 18.4498 6.09093 18.4498 6.09358C18.4498 6.09623 18.4498 6.0989 18.4498 6.10158C18.4498 6.10426 18.4498 6.10696 18.4498 6.10968C18.4498 6.11239 18.4498 6.11512 18.4498 6.11787C18.4498 6.12061 18.4498 6.12338 18.4498 6.12615C18.4498 6.12893 18.4498 6.13172 18.4498 6.13453C18.4498 6.13734 18.4498 6.14016 18.4498 6.143C18.4498 6.14584 18.4498 6.14869 18.4498 6.15156C18.4498 6.15443 18.4498 6.15732 18.4498 6.16022C18.4498 6.16312 18.4498 6.16604 18.4498 6.16897C18.4498 6.1719 18.4498 6.17484 18.4498 6.17781C18.4498 6.18077 18.4498 6.18374 18.4498 6.18674C18.4498 6.18973 18.4498 6.19273 18.4498 6.19576C18.4498 6.19878 18.4498 6.20182 18.4498 6.20487C18.4498 6.20792 18.4498 6.21099 18.4498 6.21407C18.4498 6.21715 18.4498 6.22025 18.4498 6.22336C18.4498 6.22647 18.4498 6.2296 18.4498 6.23274C18.4498 6.23588 18.4498 6.23904 18.4498 6.24221C18.4498 6.24538 18.4498 6.24857 18.4498 6.25177C18.4498 6.25497 18.4498 6.25819 18.4498 6.26142C18.4498 6.26465 18.4498 6.26789 18.4498 6.27115C18.4498 6.27441 18.4498 6.27769 18.4498 6.28098C18.4498 6.28427 18.4498 6.28757 18.4498 6.29089C18.4498 6.29421 18.4498 6.29754 18.4498 6.30089C18.4498 6.30423 18.4498 6.3076 18.4498 6.31097C18.4498 6.31435 18.4498 6.31774 18.4498 6.32114C18.4498 6.32455 18.4498 6.32797 18.4498 6.3314C18.4498 6.33483 18.4498 6.33828 18.4498 6.34174C18.4498 6.3452 18.4498 6.34868 18.4498 6.35217C18.4498 6.35566 18.4498 6.35917 18.4498 6.36268C18.4498 6.3662 18.4498 6.36974 18.4498 6.37328C18.4498 6.37683 18.4498 6.38039 18.4498 6.38396C18.4498 6.38754 18.4498 6.39113 18.4498 6.39473C18.4498 6.39833 18.4498 6.40195 18.4498 6.40558C18.4498 6.40921 18.4498 6.41285 18.4498 6.41651C18.4498 6.42017 18.4498 6.42384 18.4498 6.42753C18.4498 6.43121 18.4498 6.43491 18.4498 6.43863C18.4498 6.44234 18.4498 6.44607 18.4498 6.44981C18.4498 6.45355 18.4498 6.4573 18.4498 6.46107C18.4498 6.46484 18.4498 6.46862 18.4498 6.47241C18.4498 6.47621 18.4498 6.48002 18.4498 6.48384C18.4498 6.48766 18.4498 6.4915 18.4498 6.49535C18.4498 6.4992 18.4498 6.50306 18.4498 6.50693C18.4498 6.51081 18.4498 6.5147 18.4498 6.5186C18.4498 6.5225 18.4498 6.52642 18.4498 6.53035C18.4498 6.53428 18.4498 6.53822 18.4498 6.54217C18.4498 6.54613 18.4498 6.5501 18.4498 6.55408C18.4498 6.55806 18.4498 6.56205 18.4498 6.56606C18.4498 6.57007 18.4498 6.57409 18.4498 6.57813C18.4498 6.58216 18.4498 6.58621 18.4498 6.59027C18.4498 6.59433 18.4498 6.5984 18.4498 6.60248C18.4498 6.60657 18.4498 6.61067 18.4498 6.61478C18.4498 6.61889 18.4498 6.62302 18.4498 6.62715C18.4498 6.63129 18.4498 6.63544 18.4498 6.6396C18.4498 6.64376 18.4498 6.64794 18.4498 6.65213C18.4498 6.65632 18.4498 6.66052 18.4498 6.66473C18.4498 6.66894 18.4498 6.67317 18.4498 6.67741C18.4498 6.68165 18.4498 6.6859 18.4498 6.69016C18.4498 6.69442 18.4498 6.6987 18.4498 6.70299C18.4498 6.70728 18.4498 6.71158 18.4498 6.71589C18.4498 6.7202 18.4498 6.72453 18.4498 6.72887C18.4498 6.73321 18.4498 6.73756 18.4498 6.74192C18.4498 6.74628 18.4498 6.75066 18.4498 6.75504C18.4498 6.75943 18.4498 6.76383 18.4498 6.76824C18.4498 6.77265 18.4498 6.77708 18.4498 6.78151C18.4498 6.78595 18.4498 6.79039 18.4498 6.79485C18.4498 6.79931 18.4498 6.80379 18.4498 6.80827C18.4498 6.81275 18.4498 6.81725 18.4498 6.82176C18.4498 6.82626 18.4498 6.83078 18.4498 6.83531C18.4498 6.83985 18.4498 6.84439 18.4498 6.84894C18.4498 6.8535 18.4498 6.85807 18.4498 6.86265C18.4498 6.86722 18.4498 6.87181 18.4498 6.87642C18.4498 6.88102 18.4498 6.88563 18.4498 6.89026C18.4498 6.89488 18.4498 6.89952 18.4498 6.90417C18.4498 6.90882 18.4498 6.91348 18.4498 6.91815C18.4498 6.92282 18.4498 6.9275 18.4498 6.9322C18.4498 6.93689 18.4498 6.9416 18.4498 6.94632C18.4498 6.95103 18.4498 6.95576 18.4498 6.9605C18.4498 6.96524 18.4498 6.97 18.4498 6.97476C18.4498 6.97952 18.4498 6.98429 18.4498 6.98908C18.4498 6.99387 18.4498 6.99866 18.4498 7.00347C18.4498 7.00828 18.4498 7.0131 18.4498 7.01793C18.4498 7.02276 18.4498 7.0276 18.4498 7.03245C18.4498 7.0373 18.4498 7.04217 18.4498 7.04704C18.4498 7.05191 18.4498 7.0568 18.4498 7.0617C18.4498 7.06659 18.4498 7.0715 18.4498 7.07642C18.4498 7.08134 18.4498 7.08626 18.4498 7.0912C18.4498 7.09614 18.4498 7.10109 18.4498 7.10606C18.4498 7.11102 18.4498 7.11599 18.4498 7.12097C18.4498 7.12595 18.4498 7.13095 18.4498 7.13595C18.4498 7.14096 18.4498 7.14597 18.4498 7.151C18.4498 7.15602 18.4498 7.16106 18.4498 7.1661C18.4498 7.17115 18.4498 7.17621 18.4498 7.18128C18.4498 7.18634 18.4498 7.19142 18.4498 7.19651C18.4498 7.2016 18.4498 7.2067 18.4498 7.21181C18.4498 7.21691 18.4498 7.22203 18.4498 7.22716C18.4498 7.23229 18.4498 7.23743 18.4498 7.24258C18.4498 7.24774 18.4498 7.2529 18.4498 7.25807C18.4498 7.26324 18.4498 7.26842 18.4498 7.27361C18.4498 7.2788 18.4498 7.284 18.4498 7.28921C18.4498 7.29443 18.4498 7.29965 18.4498 7.30488C18.4498 7.31011 18.4498 7.31535 18.4498 7.3206C18.4498 7.32585 18.4498 7.33112 18.4498 7.33639C18.4498 7.34166 18.4498 7.34694 18.4498 7.35223C18.4498 7.35752 18.4498 7.36282 18.4498 7.36813C18.4498 7.37344 18.4498 7.37876 18.4498 7.38409C18.4498 7.38942 18.4498 7.39476 18.4498 7.40011C18.4498 7.40546 18.4498 7.41082 18.4498 7.41619C18.4498 7.42156 18.4498 7.42694 18.4498 7.43233C18.4498 7.43772 18.4498 7.44311 18.4498 7.44852C18.4498 7.45393 18.4498 7.45934 18.4498 7.46477C18.4498 7.4702 18.4498 7.47563 18.4498 7.48108C18.4498 7.48652 18.4498 7.49197 18.4498 7.49744C18.4498 7.5029 18.4498 7.50837 18.4498 7.51386C18.4498 7.51934 18.4498 7.52483 18.4498 7.53033C18.4498 7.53583 18.4498 7.54134 18.4498 7.54686C18.4498 7.55238 18.4498 7.55791 18.4498 7.56345C18.4498 7.56898 18.4498 7.57453 18.4498 7.58008C18.4498 7.58564 18.4498 7.5912 18.4498 7.59678C18.4498 7.60235 18.4498 7.60793 18.4498 7.61352C18.4498 7.61912 18.4498 7.62472 18.4498 7.63032C18.4498 7.63593 18.4498 7.64155 18.4498 7.64718C18.4498 7.6528 18.4498 7.65844 18.4498 7.66408C18.4498 7.66973 18.4498 7.67538 18.4498 7.68104C18.4498 7.68671 18.4498 7.69238 18.4498 7.69805C18.4498 7.70373 18.4498 7.70942 18.4498 7.71512C18.4498 7.72081 18.4498 7.72652 18.4498 7.73223C18.4498 7.73795 18.4498 7.74367 18.4498 7.7494C18.4498 7.75513 18.4498 7.76087 18.4498 7.76661C18.4498 7.77236 18.4498 7.77812 18.4498 7.78388C18.4498 7.78964 18.4498 7.79542 18.4498 7.8012C18.4498 7.80698 18.4498 7.81277 18.4498 7.81856C18.4498 7.82436 18.4498 7.83017 18.4498 7.83598C18.4498 7.84179 18.4498 7.84761 18.4498 7.85344C18.4498 7.85927 18.4498 7.86511 18.4498 7.87096C18.4498 7.8768 18.4498 7.88266 18.4498 7.88852C18.4498 7.89438 18.4498 7.90025 18.4498 7.90613C18.4498 7.91201 18.4498 7.91789 18.4498 7.92379C18.4498 7.92968 18.4498 7.93558 18.4498 7.94149C18.4498 7.9474 18.4498 7.95332 18.4498 7.95924C18.4498 7.96517 18.4498 7.9711 18.4498 7.97704C18.4498 7.98298 18.4498 7.98893 18.4498 7.99489C18.4498 8.00084 18.4498 8.0068 18.4498 8.01278C18.4498 8.01875 18.4498 8.02473 18.4498 8.03071C18.4498 8.0367 18.4498 8.04269 18.4498 8.04869C18.4498 8.05469 18.4498 8.0607 18.4498 8.06672C18.4498 8.07274 18.4498 8.07876 18.4498 8.08479C18.4498 8.09082 18.4498 8.09686 18.4498 8.1029C18.4498 8.10895 18.4498 8.115 18.4498 8.12106C18.4498 8.12712 18.4498 8.13319 18.4498 8.13927C18.4498 8.14534 18.4498 8.15142 18.4498 8.15751C18.4498 8.1636 18.4498 8.1697 18.4498 8.1758C18.4498 8.1819 18.4498 8.18801 18.4498 8.19413C18.4498 8.20025 18.4498 8.20637 18.4498 8.2125C18.4498 8.21863 18.4498 8.22477 18.4498 8.23092C18.4498 8.23706 18.4498 8.24321 18.4498 8.24937C18.4498 8.25553 18.4498 8.2617 18.4498 8.26787C18.4498 8.27404 18.4498 8.28022 18.4498 8.28641C18.4498 8.29259 18.4498 8.29878 18.4498 8.30498C18.4498 8.31118 18.4498 8.31739 18.4498 8.3236C18.4498 8.32981 18.4498 8.33603 18.4498 8.34226C18.4498 8.34849 18.4498 8.35472 18.4498 8.36096C18.4498 8.3672 18.4498 8.37344 18.4498 8.37969C18.4498 8.38594 18.4498 8.3922 18.4498 8.39847C18.4498 8.40473 18.4498 8.411 18.4498 8.41728C18.4498 8.42356 18.4498 8.42984 18.4498 8.43613C18.4498 8.44242 18.4498 8.44872 18.4498 8.45502C18.4498 8.46132 18.4498 8.46763 18.4498 8.47394C18.4498 8.48026 18.4498 8.48658 18.4498 8.49291C18.4498 8.49923 18.4498 8.50557 18.4498 8.51191C18.4498 8.51825 18.4498 8.52459 18.4498 8.53094C18.4498 8.53729 18.4498 8.54365 18.4498 8.55001C18.4498 8.55638 18.4498 8.56275 18.4498 8.56912C18.4498 8.57549 18.4498 8.58188 18.4498 8.58826C18.4498 8.59465 18.4498 8.60104 18.4498 8.60744C18.4498 8.61384 18.4498 8.62024 18.4498 8.62665C18.4498 8.63306 18.4498 8.63947 18.4498 8.6459C18.4498 8.65232 18.4498 8.65874 18.4498 8.66517C18.4498 8.67161 18.4498 8.67804 18.4498 8.68449C18.4498 8.69093 18.4498 8.69738 18.4498 8.70383C18.4498 8.71029 18.4498 8.71675 18.4498 8.72321C18.4498 8.72968 18.4498 8.73615 18.4498 8.74262C18.4498 8.7491 18.4498 8.75558 18.4498 8.76207C18.4498 8.76855 18.4498 8.77504 18.4498 8.78154C18.4498 8.78804 18.4498 8.79454 18.4498 8.80105C18.4498 8.80755 18.4498 8.81407 18.4498 8.82058C18.4498 8.8271 18.4498 8.83362 18.4498 8.84015C18.4498 8.84668 18.4498 8.85321 18.4498 8.85975C18.4498 8.86629 18.4498 8.87283 18.4498 8.87938C18.4498 8.88593 18.4498 8.89248 18.4498 8.89904C18.4498 8.90559 18.4498 8.91216 18.4498 8.91872C18.4498 8.92529 18.4498 8.93186 18.4498 8.93844C18.4498 8.94502 18.4498 8.9516 18.4498 8.95818C18.4498 8.96477 18.4498 8.97136 18.4498 8.97796C18.4498 8.98455 18.4498 8.99115 18.4498 8.99776C18.4498 9.00436 18.4498 9.01097 18.4498 9.01759C18.4498 9.0242 18.4498 9.03082 18.4498 9.03744C18.4498 9.04407 18.4498 9.05069 18.4498 9.05733C18.4498 9.06396 18.4498 9.07059 18.4498 9.07723C18.4498 9.08388 18.4498 9.09052 18.4498 9.09717C18.4498 9.10382 18.4498 9.11047 18.4498 9.11713C18.4498 9.12379 18.4498 9.13045 18.4498 9.13712C18.4498 9.14378 18.4498 9.15045 18.4498 9.15713C18.4498 9.1638 18.4498 9.17048 18.4498 9.17717C18.4498 9.18385 18.4498 9.19054 18.4498 9.19723C18.4498 9.20392 18.4498 9.21061 18.4498 9.21731C18.4498 9.22401 18.4498 9.23071 18.4498 9.23742C18.4498 9.24413 18.4498 9.25084 18.4498 9.25755C18.4498 9.26427 18.4498 9.27099 18.4498 9.27771C18.4498 9.28443 18.4498 9.29116 18.4498 9.29789C18.4498 9.30462 18.4498 9.31135 18.4498 9.31809C18.4498 9.32482 18.4498 9.33157 18.4498 9.33831C18.4498 9.34505 18.4498 9.3518 18.4498 9.35855C18.4498 9.36531 18.4498 9.37206 18.4498 9.37882C18.4498 9.38558 18.4498 9.39234 18.4498 9.39911C18.4498 9.40587 18.4498 9.41264 18.4498 9.41941C18.4498 9.42619 18.4498 9.43296 18.4498 9.43974C18.4498 9.44652 18.4498 9.4533 18.4498 9.46009C18.4498 9.46687 18.4498 9.47366 18.4498 9.48046C18.4498 9.48725 18.4498 9.49404 18.4498 9.50084C18.4498 9.50764 18.4498 9.51444 18.4498 9.52125C18.4498 9.52805 18.4498 9.53486 18.4498 9.54167C18.4498 9.54848 18.4498 9.5553 18.4498 9.56211C18.4498 9.56893 18.4498 9.57575 18.4498 9.58257C18.4498 9.5894 18.4498 9.59622 18.4498 9.60305C18.4498 9.60988 18.4498 9.61671 18.4498 9.62355C18.4498 9.63038 18.4498 9.63722 18.4498 9.64406C18.4498 9.6509 18.4498 9.65774 18.4498 9.66459C18.4498 9.67143 18.4498 9.67828 18.4498 9.68513C18.4498 9.69198 18.4498 9.69883 18.4498 9.70569C18.4498 9.71255 18.4498 9.7194 18.4498 9.72626C18.4498 9.73313 18.4498 9.73999 18.4498 9.74686C18.4498 9.75372 18.4498 9.76059 18.4498 9.76746C18.4498 9.77433 18.4498 9.78121 18.4498 9.78808C18.4498 9.79496 18.4498 9.80183 18.4498 9.80871C18.4498 9.81559 18.4498 9.82248 18.4498 9.82936C18.4498 9.83625 18.4498 9.84313 18.4498 9.85002C18.4498 9.85691 18.4498 9.8638 18.4498 9.8707C18.4498 9.87759 18.4498 9.88449 18.4498 9.89138C18.4498 9.89828 18.4498 9.90518 18.4498 9.91208C18.4498 9.91898 18.4498 9.92589 18.4498 9.93279C18.4498 9.9397 18.4498 9.94661 18.4498 9.95352C18.4498 9.96043 18.4498 9.96734 18.4498 9.97425C18.4498 9.98116 18.4498 9.98808 18.4498 9.995C18.4498 10.0019 18.4498 10.0088 18.4498 10.0158C18.4498 10.0227 18.4498 10.0296 18.4498 10.0365C18.4498 10.0434 18.4498 10.0504 18.4498 10.0573C18.4498 10.0642 18.4498 10.0711 18.4498 10.0781C18.4498 10.085 18.4498 10.0919 18.4498 10.0989C18.4498 10.1058 18.4498 10.1127 18.4498 10.1197C18.4498 10.1266 18.4498 10.1335 18.4498 10.1405C18.4498 10.1474 18.4498 10.1544 18.4498 10.1613C18.4498 10.1683 18.4498 10.1752 18.4498 10.1821C18.4498 10.1891 18.4498 10.196 18.4498 10.203C18.4498 10.2099 18.4498 10.2169 18.4498 10.2238C18.4498 10.2308 18.4498 10.2377 18.4498 10.2447C18.4498 10.2516 18.4498 10.2586 18.4498 10.2655C18.4498 10.2725 18.4498 10.2794 18.4498 10.2864C18.4498 10.2933 18.4498 10.3003 18.4498 10.3073C18.4498 10.3142 18.4498 10.3212 18.4498 10.3281C18.4498 10.3351 18.4498 10.342 18.4498 10.349C18.4498 10.356 18.4498 10.3629 18.4498 10.3699C18.4498 10.3768 18.4498 10.3838 18.4498 10.3908C18.4498 10.3977 18.4498 10.4047 18.4498 10.4117C18.4498 10.4186 18.4498 10.4256 18.4498 10.4326C18.4498 10.4395 18.4498 10.4465 18.4498 10.4535C18.4498 10.4604 18.4498 10.4674 18.4498 10.4744C18.4498 10.4813 18.4498 10.4883 18.4498 10.4953C18.4498 10.5022 18.4498 10.5092 18.4498 10.5162C18.4498 10.5231 18.4498 10.5301 18.4498 10.5371C18.4498 10.544 18.4498 10.551 18.4498 10.558C18.4498 10.565 18.4498 10.5719 18.4498 10.5789C18.4498 10.5859 18.4498 10.5928 18.4498 10.5998C18.4498 10.6068 18.4498 10.6138 18.4498 10.6207C18.4498 10.6277 18.4498 10.6347 18.4498 10.6416C18.4498 10.6486 18.4498 10.6556 18.4498 10.6626C18.4498 10.6695 18.4498 10.6765 18.4498 10.6835C18.4498 10.6904 18.4498 10.6974 18.4498 10.7044C18.4498 10.7113 18.4498 10.7183 18.4498 10.7253C18.4498 10.7323 18.4498 10.7392 18.4498 10.7462C18.4498 10.7532 18.4498 10.7601 18.4498 10.7671C18.4498 10.7741 18.4498 10.781 18.4498 10.788C18.4498 10.795 18.4498 10.8019 18.4498 10.8089C18.4498 10.8159 18.4498 10.8228 18.4498 10.8298C18.4498 10.8368 18.4498 10.8437 18.4498 10.8507C18.4498 10.8577 18.4498 10.8646 18.4498 10.8716C18.4498 10.8786 18.4498 10.8855 18.4498 10.8925C18.4498 10.8995 18.4498 10.9064 18.4498 10.9134C18.4498 10.9203 18.4498 10.9273 18.4498 10.9343C18.4498 10.9412 18.4498 10.9482 18.4498 10.9551C18.4498 10.9621 18.4498 10.969 18.4498 10.976C18.4498 10.983 18.4498 10.9899 18.4498 10.9969C18.4498 11.0038 18.4498 11.0108 18.4498 11.0177C18.4498 11.0247 18.4498 11.0316 18.4498 11.0386C18.4498 11.0455 18.4498 11.0525 18.4498 11.0594C18.4498 11.0664 18.4498 11.0733 18.4498 11.0803C18.4498 11.0872 18.4498 11.0941 18.4498 11.1011C18.4498 11.108 18.4498 11.115 18.4498 11.1219C18.4498 11.1289 18.4498 11.1358 18.4498 11.1427C18.4498 11.1497 18.4498 11.1566 18.4498 11.1635C18.4498 11.1705 18.4498 11.1774 18.4498 11.1843C18.4498 11.1913 18.4498 11.1982 18.4498 11.2051C18.4498 11.212 18.4498 11.219 18.4498 11.2259C18.4498 11.2328 18.4498 11.2397 18.4498 11.2467C18.4498 11.2536 18.4498 11.2605 18.4498 11.2674C18.4498 11.2743 18.4498 11.2813 18.4498 11.2882C18.4498 11.2951 18.4498 11.302 18.4498 11.3089C18.4498 11.3158 18.4498 11.3227 18.4498 11.3296C18.4498 11.3366 18.4498 11.3435 18.4498 11.3504C18.4498 11.3573 18.4498 11.3642 18.4498 11.3711C18.4498 11.378 18.4498 11.3849 18.4498 11.3918C18.4498 11.3986 18.4498 11.4055 18.4498 11.4124C18.4498 11.4193 18.4498 11.4262 18.4498 11.4331C18.4498 11.44 18.4498 11.4469 18.4498 11.4538C18.4498 11.4606 18.4498 11.4675 18.4498 11.4744C18.4498 11.4813 18.4498 11.4881 18.4498 11.495C18.4498 11.5019 18.4498 11.5088 18.4498 11.5156C18.4498 11.5225 18.4498 11.5294 18.4498 11.5362C18.4498 11.5431 18.4498 11.5499 18.4498 11.5568C18.4498 11.5637 18.4498 11.5705 18.4498 11.5774C18.4498 11.5842 18.4498 11.5911 18.4498 11.5979C18.4498 11.6048 18.4498 11.6116 18.4498 11.6185C18.4498 11.6253 18.4498 11.6321 18.4498 11.639C18.4498 11.6458 18.4498 11.6526 18.4498 11.6595C18.4498 11.6663 18.4498 11.6731 18.4498 11.68C18.4498 11.6868 18.4498 11.6936 18.4498 11.7004C18.4498 11.7072 18.4498 11.7141 18.4498 11.7209C18.4498 11.7277 18.4498 11.7345 18.4498 11.7413C18.4498 11.7481 18.4498 11.7549 18.4498 11.7617C18.4498 11.7685 18.4498 11.7753 18.4498 11.7821C18.4498 11.7889 18.4498 11.7957 18.4498 11.8025C18.4498 11.8093 18.4498 11.8161 18.4498 11.8228C18.4498 11.8296 18.4498 11.8364 18.4498 11.8432C18.4498 11.8499 18.4498 11.8567 18.4498 11.8635C18.4498 11.8703 18.4498 11.877 18.4498 11.8838C18.4498 11.8905 18.4498 11.8973 18.4498 11.9041C18.4498 11.9108 18.4498 11.9176 18.4498 11.9243C18.4498 11.9311 18.4498 11.9378 18.4498 11.9445C18.4498 11.9513 18.4498 11.958 18.4498 11.9647C18.4498 11.9715 18.4498 11.9782 18.4498 11.9849C18.4498 11.9917 18.4498 11.9984 18.4498 12.0051C18.4498 12.0118 18.4498 12.0185 18.4498 12.0252C18.4498 12.0319 18.4498 12.0387 18.4498 12.0454C18.4498 12.0521 18.4498 12.0588 18.4498 12.0654C18.4498 12.0721 18.4498 12.0788 18.4498 12.0855C18.4498 12.0922 18.4498 12.0989 18.4498 12.1056C18.4498 12.1122 18.4498 12.1189 18.4498 12.1256C18.4498 12.1323 18.4498 12.1389 18.4498 12.1456C18.4498 12.1522 18.4498 12.1589 18.4498 12.1655C18.4498 12.1722 18.4498 12.1789 18.4498 12.1855C18.4498 12.1921 18.4498 12.1988 18.4498 12.2054C18.4498 12.212 18.4498 12.2187 18.4498 12.2253C18.4498 12.2319 18.4498 12.2386 18.4498 12.2452C18.4498 12.2518 18.4498 12.2584 18.4498 12.265C18.4498 12.2716 18.4498 12.2782 18.4498 12.2848C18.4498 12.2914 18.4498 12.298 18.4498 12.3046C18.4498 12.3112 18.4498 12.3178 18.4498 12.3244C18.4498 12.3309 18.4498 12.3375 18.4498 12.3441C18.4498 12.3507 18.4498 12.3572 18.4498 12.3638C18.4498 12.3703 18.4498 12.3769 18.4498 12.3835C18.4498 12.39 18.4498 12.3966 18.4498 12.4031C18.4498 12.4096 18.4498 12.4162 18.4498 12.4227C18.4498 12.4292 18.4498 12.4358 18.4498 12.4423C18.4498 12.4488 18.4498 12.4553 18.4498 12.4618C18.4498 12.4683 18.4498 12.4748 18.4498 12.4813C18.4498 12.4878 18.4498 12.4943 18.4498 12.5008C18.4498 12.5073 18.4498 12.5138 18.4498 12.5203C18.4498 12.5268 18.4498 12.5332 18.4498 12.5397C18.4498 12.5462 18.4498 12.5526 18.4498 12.5591C18.4498 12.5656 18.4498 12.572 18.4498 12.5785C18.4498 12.5849 18.4498 12.5913 18.4498 12.5978C18.4498 12.6042 18.4498 12.6107 18.4498 12.6171C18.4498 12.6235 18.4498 12.6299 18.4498 12.6363C18.4498 12.6427 18.4498 12.6492 18.4498 12.6556C18.4498 12.662 18.4498 12.6684 18.4498 12.6747C18.4498 12.6811 18.4498 12.6875 18.4498 12.6939C18.4498 12.7003 18.4498 12.7067 18.4498 12.713C18.4498 12.7194 18.4498 12.7257 18.4498 12.7321C18.4498 12.7385 18.4498 12.7448 18.4498 12.7512C18.4498 12.7575 18.4498 12.7638 18.4498 12.7702C18.4498 12.7765 18.4498 12.7828 18.4498 12.7891C18.4498 12.7955 18.4498 12.8018 18.4498 12.8081C18.4498 12.8144 18.4498 12.8207 18.4498 12.827C18.4498 12.8333 18.4498 12.8396 18.4498 12.8458C18.4498 12.8521 18.4498 12.8584 18.4498 12.8647C18.4498 12.8709 18.4498 12.8772 18.4498 12.8835C18.4498 12.8897 18.4498 12.896 18.4498 12.9022C18.4498 12.9085 18.4498 12.9147 18.4498 12.9209C18.4498 12.9272 18.4498 12.9334 18.4498 12.9396C18.4498 12.9458 18.4498 12.952 18.4498 12.9582C18.4498 12.9644 18.4498 12.9706 18.4498 12.9768C18.4498 12.983 18.4498 12.9892 18.4498 12.9954C18.4498 13.0016 18.4498 13.0077 18.4498 13.0139C18.4498 13.0201 18.4498 13.0262 18.4498 13.0324C18.4498 13.0385 18.4498 13.0447 18.4498 13.0508C18.4498 13.0569 18.4498 13.0631 18.4498 13.0692C18.4498 13.0753 18.4498 13.0814 18.4498 13.0875C18.4498 13.0936 18.4498 13.0997 18.4498 13.1058C18.4498 13.1119 18.4498 13.118 18.4498 13.1241C18.4498 13.1302 18.4498 13.1362 18.4498 13.1423C18.4498 13.1484 18.4498 13.1544 18.4498 13.1605C18.4498 13.1665 18.4498 13.1726 18.4498 13.1786C18.4498 13.1846 18.4498 13.1907 18.4498 13.1967C18.4498 13.2027 18.4498 13.2087 18.4498 13.2147C18.4498 13.2207 18.4498 13.2267 18.4498 13.2327C18.4498 13.2387 18.4498 13.2447 18.4498 13.2507C18.4498 13.2567 18.4498 13.2626 18.4498 13.2686C18.4498 13.2746 18.4498 13.2805 18.4498 13.2865C18.4498 13.2924 18.4498 13.2983 18.4498 13.3043C18.4498 13.3102 18.4498 13.3161 18.4498 13.322C18.4498 13.328 18.4498 13.3339 18.4498 13.3398C18.4498 13.3457 18.4498 13.3516 18.4498 13.3574C18.4498 13.3633 18.4498 13.3692 18.4498 13.3751C18.4498 13.3809 18.4498 13.3868 18.4498 13.3926C18.4498 13.3985 18.4498 13.4043 18.4498 13.4102C18.4498 13.416 18.4498 13.4218 18.4498 13.4277C18.4498 13.4335 18.4498 13.4393 18.4498 13.4451C18.4498 13.4509 18.4498 13.4567 18.4498 13.4625C18.4498 13.4683 18.4498 13.474 18.4498 13.4798C18.4498 13.4856 18.4498 13.4913 18.4498 13.4971C18.4498 13.5029 18.4498 13.5086 18.4498 13.5143C18.4498 13.5201 18.4498 13.5258 18.4498 13.5315C18.4498 13.5372 18.4498 13.5429 18.4498 13.5486C18.4498 13.5544 18.4498 13.56 18.4498 13.5657C18.4498 13.5714 18.4498 13.5771 18.4498 13.5828C18.4498 13.5884 18.4498 13.5941 18.4498 13.5997C18.4498 13.6054 18.4498 13.611 18.4498 13.6167C18.4498 13.6223 18.4498 13.6279 18.4498 13.6335C18.4498 13.6392 18.4498 13.6448 18.4498 13.6504C18.4498 13.656 18.4498 13.6615 18.4498 13.6671C18.4498 13.6727 18.4498 13.6783 18.4498 13.6838C18.4498 13.6894 18.4498 13.695 18.4498 13.7005C18.4498 13.706 18.4498 13.7116 18.4498 13.7171C18.4498 13.7226 18.4498 13.7281 18.4498 13.7337C18.4498 13.7392 18.4498 13.7447 18.4498 13.7501C18.4498 13.7556 18.4498 13.7611 18.4498 13.7666C18.4498 13.7721 18.4498 13.7775 18.4498 13.783C18.4498 13.7884 18.4498 13.7939 18.4498 13.7993C18.4498 13.8047 18.4498 13.8102 18.4498 13.8156H19.1998ZM19.1998 5.78757L19.5352 5.11675L13.9452 2.32173L13.6098 2.99255L13.2744 3.66337L18.8644 6.45839L19.1998 5.78757ZM10.3898 2.99255L10.7252 3.66337C11.5276 3.26219 12.472 3.26219 13.2744 3.66337L13.6098 2.99255L13.9452 2.32173C12.7205 1.70941 11.2791 1.70941 10.0544 2.32173L10.3898 2.99255ZM14.6998 10.8877V10.1377H11.9998V10.8877V11.6377H14.6998V10.8877ZM11.9998 10.8877V10.1377H9.29981V10.8877V11.6377H11.9998V10.8877ZM11.9998 13.5876H12.7498V10.8877H11.9998H11.2498V13.5876H11.9998ZM11.9998 10.8877H12.7498V8.18757H11.9998H11.2498V10.8877H11.9998Z" fill="#2C2920"/>
</svg>
