<svg width="25" height="24" viewBox="0 0 25 24" fill="none" xmlns="http://www.w3.org/2000/svg">
<path d="M12.4473 11.796H12.5M10.3198 7.85843C8.93635 8.62608 8 10.1017 8 11.796C8 13.4902 8.93635 14.9658 10.3198 15.7335M14.6802 7.85843C16.0637 8.62608 17 10.1017 17 11.796C17 13.4902 16.0637 14.9658 14.6802 15.7335M8 19.5919C5.30989 18.0358 3.5 15.1272 3.5 11.796C3.5 8.46469 5.30989 5.55614 8 4M17 19.5919C19.6901 18.0358 21.5 15.1272 21.5 11.796C21.5 8.46469 19.6901 5.55614 17 4" stroke="#2C2920" stroke-width="1.5" stroke-linecap="square"/>
</svg>
