<svg width="24" height="24" viewBox="0 0 24 24" fill="none" xmlns="http://www.w3.org/2000/svg">
<path d="M17.8739 16.5473L20.2739 7.45253M15.3476 19.0736H6.75809M3.72651 16.2946L6.12651 7.70516M8.65283 4.92622H17.4949M4.61072 7.45253H7.6423C8.2004 7.45253 8.65283 7.00011 8.65283 6.44201V3.41043C8.65283 2.85233 8.2004 2.3999 7.6423 2.3999H4.61072C4.05262 2.3999 3.6002 2.85233 3.6002 3.41043V6.44201C3.6002 7.00011 4.05262 7.45253 4.61072 7.45253ZM18.7581 7.45253H21.7897C22.3478 7.45253 22.8002 7.00011 22.8002 6.44201V3.41043C22.8002 2.85233 22.3478 2.3999 21.7897 2.3999H18.7581C18.2 2.3999 17.7476 2.85233 17.7476 3.41043V6.44201C17.7476 7.00011 18.2 7.45253 18.7581 7.45253ZM2.21072 21.5999H5.2423C5.8004 21.5999 6.25283 21.1475 6.25283 20.5894V17.5578C6.25283 16.9997 5.8004 16.5473 5.2423 16.5473H2.21072C1.65262 16.5473 1.2002 16.9997 1.2002 17.5578V20.5894C1.2002 21.1475 1.65262 21.5999 2.21072 21.5999ZM16.3581 21.5999H19.3897C19.9478 21.5999 20.4002 21.1475 20.4002 20.5894V17.5578C20.4002 16.9997 19.9478 16.5473 19.3897 16.5473H16.3581C15.8 16.5473 15.3476 16.9997 15.3476 17.5578V20.5894C15.3476 21.1475 15.8 21.5999 16.3581 21.5999Z" stroke="#2C2920" stroke-width="1.5" stroke-linecap="square"/>
</svg>
