<svg width="24" height="24" viewBox="0 0 24 24" fill="none" xmlns="http://www.w3.org/2000/svg">
<path d="M9.1199 9.12002V8.37002C8.70569 8.37002 8.3699 8.70581 8.3699 9.12002H9.1199ZM9.21553 9.12002H9.96553C9.96553 8.70581 9.62974 8.37002 9.21553 8.37002V9.12002ZM14.8799 9.12002V8.37002C14.4657 8.37002 14.1299 8.70581 14.1299 9.12002H14.8799ZM14.9649 9.12002H15.7149C15.7149 8.70581 15.3791 8.37002 14.9649 8.37002V9.12002ZM9.21553 9.1969V9.9469C9.62974 9.9469 9.96553 9.61111 9.96553 9.1969H9.21553ZM9.1199 9.1969H8.3699C8.3699 9.61111 8.70569 9.9469 9.1199 9.9469V9.1969ZM14.9649 9.1969V9.9469C15.3791 9.9469 15.7149 9.61111 15.7149 9.1969H14.9649ZM14.8799 9.1969H14.1299C14.1299 9.61111 14.4657 9.9469 14.8799 9.9469V9.1969ZM8.67185 14.1692H7.92185V15.6692H8.67185V14.1692ZM15.3279 15.6692H16.0779V14.1692H15.3279V15.6692ZM21.5999 12H20.8499C20.8499 16.8877 16.8876 20.85 11.9999 20.85V21.6V22.35C17.716 22.35 22.3499 17.7162 22.3499 12H21.5999ZM11.9999 21.6V20.85C7.11218 20.85 3.1499 16.8877 3.1499 12H2.3999H1.6499C1.6499 17.7162 6.28375 22.35 11.9999 22.35V21.6ZM2.3999 12H3.1499C3.1499 7.1123 7.11218 3.15002 11.9999 3.15002V2.40002V1.65002C6.28375 1.65002 1.6499 6.28388 1.6499 12H2.3999ZM11.9999 2.40002V3.15002C16.8876 3.15002 20.8499 7.1123 20.8499 12H21.5999H22.3499C22.3499 6.28388 17.716 1.65002 11.9999 1.65002V2.40002ZM9.1199 9.12002V9.87002H9.21553V9.12002V8.37002H9.1199V9.12002ZM14.8799 9.12002V9.87002H14.9649V9.12002V8.37002H14.8799V9.12002ZM9.21553 9.12002H8.46553V9.1969H9.21553H9.96553V9.12002H9.21553ZM9.21553 9.1969V8.4469H9.1199V9.1969V9.9469H9.21553V9.1969ZM9.1199 9.1969H9.8699V9.12002H9.1199H8.3699V9.1969H9.1199ZM14.9649 9.12002H14.2149V9.1969H14.9649H15.7149V9.12002H14.9649ZM14.9649 9.1969V8.4469H14.8799V9.1969V9.9469H14.9649V9.1969ZM14.8799 9.1969H15.6299V9.12002H14.8799H14.1299V9.1969H14.8799ZM15.3279 14.9192V14.1692H8.67185V14.9192V15.6692H15.3279V14.9192Z" fill="#2C2920"/>
</svg>
