<svg width="24" height="24" viewBox="0 0 24 24" fill="none" xmlns="http://www.w3.org/2000/svg">
<path d="M15.7719 4L16.5219 4C16.5219 3.80109 16.4429 3.61032 16.3023 3.46967C16.1616 3.32902 15.9709 3.25 15.7719 3.25L15.7719 4ZM8.39376 4L8.39376 3.25C7.97955 3.25 7.64376 3.58579 7.64376 4L8.39376 4ZM17.8353 6.01282L17.2114 5.5966L16.379 6.84441L17.0029 7.26063L17.8353 6.01282ZM18.5838 8.31532L19.2077 8.73154L20.0402 7.48372L19.4163 7.0675L18.5838 8.31532ZM15.0607 8.96316L14.7284 8.29077L13.3836 8.95525L13.7159 9.62764L15.0607 8.96316ZM14.5581 11.332L14.8903 12.0044L16.2351 11.34L15.9028 10.6676L14.5581 11.332ZM10.691 9.8338L11.1068 9.20963L9.85846 8.37797L9.44262 9.00213L10.691 9.8338ZM8.38864 10.5842L7.97281 11.2083L9.22114 12.04L9.63698 11.4158L8.38864 10.5842ZM4.66745 6.80724L3.99523 7.13984L4.66043 8.48428L5.33265 8.15168L4.66745 6.80724ZM7.03591 7.30894L7.70813 6.97634L7.04293 5.63191L6.37071 5.96451L7.03591 7.30894ZM18.2958 15.0423L17.6374 15.4014L17.6374 15.4014L18.2958 15.0423ZM19.3868 17.0423L20.0452 16.6832L20.0452 16.6832L19.3868 17.0423ZM4.61334 17.0423L3.95492 16.6832L3.95492 16.6832L4.61334 17.0423ZM5.70425 15.0423L5.04583 14.6832L5.70425 15.0423ZM7.46004 14L7.46004 14.75L7.46004 14ZM12 14L12 13.25L12 14ZM16.5401 14L16.5401 13.25L16.5401 14ZM17.631 20L17.631 19.25L17.631 19.25L17.631 20ZM12 20L12 20.75L12 20ZM6.36913 20L6.36913 19.25L6.36913 20ZM15.7719 4L15.7719 3.25L8.39376 3.25L8.39376 4L8.39376 4.75L15.7719 4.75L15.7719 4ZM15.7719 4L15.0219 4C15.0219 5.62489 13.7054 6.94141 12.0827 6.94141L12.0827 7.69141L12.0827 8.44141C14.5346 8.44141 16.5219 6.45253 16.5219 4L15.7719 4ZM12.0827 7.69141L12.0827 6.94141C10.46 6.94141 9.14376 5.62497 9.14376 4L8.39376 4L7.64376 4C7.64376 6.45245 9.63066 8.44141 12.0827 8.44141L12.0827 7.69141ZM17.4191 6.63672L17.0029 7.26063L18.5838 8.31532L19 7.69141L19.4163 7.0675L17.8353 6.01282L17.4191 6.63672ZM14.3883 9.2954L13.7159 9.62764L14.5581 11.332L15.2304 10.9998L15.9028 10.6676L15.0607 8.96316L14.3883 9.2954ZM10.0668 9.41796L9.44262 9.00213L8.38864 10.5842L9.01281 11L9.63698 11.4158L10.691 9.8338L10.0668 9.41796ZM5.00005 7.47946L5.33265 8.15168L7.03591 7.30894L6.70331 6.63672L6.37071 5.96451L4.66745 6.80724L5.00005 7.47946ZM18.2958 15.0423L17.6374 15.4014L18.4715 16.9306L19.1299 16.5714L19.7883 16.2123L18.9543 14.6832L18.2958 15.0423ZM19.1299 16.5714L18.4715 16.9306L18.7283 17.4014L19.3868 17.0423L20.0452 16.6832L19.7883 16.2123L19.1299 16.5714ZM4.61334 17.0423L5.27176 17.4014L5.5286 16.9306L4.87018 16.5714L4.21176 16.2123L3.95492 16.6832L4.61334 17.0423ZM4.87018 16.5714L5.5286 16.9306L6.36267 15.4014L5.70425 15.0423L5.04583 14.6832L4.21176 16.2123L4.87018 16.5714ZM7.46004 14L7.46004 14.75L12 14.75L12 14L12 13.25L7.46004 13.25L7.46004 14ZM12 14L12 14.75L16.5401 14.75L16.5401 14L16.5401 13.25L12 13.25L12 14ZM17.631 20L17.631 19.25L12 19.25L12 20L12 20.75L17.631 20.75L17.631 20ZM12 20L12 19.25L6.36913 19.25L6.36913 20L6.36913 20.75L12 20.75L12 20ZM12 14L11.2501 14L11.25 16.5714L12 16.5714L12.75 16.5714L12.75 14L12 14ZM12 16.5714L11.25 16.5714L11.25 20L12 20L12.75 20L12.75 16.5714L12 16.5714ZM4.87018 16.5714L4.87018 17.3214L12 17.3214L12 16.5714L12 15.8214L4.87018 15.8214L4.87018 16.5714ZM12 16.5714L12 17.3214L19.1299 17.3214L19.1299 16.5714L19.1299 15.8214L12 15.8214L12 16.5714ZM4.61334 17.0423L3.95492 16.6832C2.95536 18.5157 4.28172 20.75 6.36913 20.75L6.36913 20L6.36913 19.25C5.42031 19.25 4.81742 18.2344 5.27176 17.4014L4.61334 17.0423ZM19.3868 17.0423L18.7283 17.4014C19.1827 18.2344 18.5798 19.25 17.631 19.25L17.631 20L17.631 20.75C19.7184 20.75 21.0447 18.5157 20.0452 16.6832L19.3868 17.0423ZM18.2958 15.0423L18.9543 14.6832C18.4724 13.7997 17.5464 13.25 16.5401 13.25L16.5401 14L16.5401 14.75C16.9975 14.75 17.4184 14.9999 17.6374 15.4014L18.2958 15.0423ZM5.70425 15.0423L6.36267 15.4014C6.58171 14.9999 7.00261 14.75 7.46004 14.75L7.46004 14L7.46004 13.25C6.45369 13.25 5.52772 13.7997 5.04583 14.6832L5.70425 15.0423Z" fill="#2C2920"/>
</svg>
