<svg width="25" height="25" viewBox="0 0 25 25" fill="none" xmlns="http://www.w3.org/2000/svg">
	<path d="M8.45215 2.94727C9.83516 2.94727 11.5686 3.02952 13.0859 3.99121C14.6246 4.96665 15.7976 6.74769 16.3311 9.81152L18.1895 14.1699C18.288 14.4014 18.2645 14.667 18.126 14.877C17.9871 15.0869 17.7517 15.2138 17.5 15.2139H15.7373V17.3545C15.737 18.3206 14.9534 19.1042 13.9873 19.1045H12.7578C12.7867 19.4433 12.8338 19.8347 12.9092 20.2393C13.0532 21.0122 13.2832 21.7673 13.6143 22.3037C13.8314 22.6561 13.7224 23.1185 13.3701 23.3359C13.0178 23.5531 12.5555 23.4429 12.3379 23.0908C11.865 22.3246 11.5922 21.3598 11.4346 20.5137C11.2751 19.6571 11.2207 18.8509 11.2207 18.3545C11.2207 17.9404 11.5566 17.6047 11.9707 17.6045H13.9873C14.125 17.6042 14.237 17.4922 14.2373 17.3545V14.4639C14.2373 14.0497 14.5731 13.7139 14.9873 13.7139H16.3652L14.9199 10.3242C14.8969 10.2701 14.8799 10.2132 14.8701 10.1553C14.3905 7.30628 13.3691 5.94622 12.2832 5.25781C11.1602 4.54602 9.81674 4.44727 8.45215 4.44727C7.45588 4.44736 6.28638 4.76276 5.31543 5.59961C4.35545 6.42708 3.52221 7.82217 3.28711 10.1074C3.0005 12.8952 4.42291 15.1919 5.60059 16.4707C6.22632 17.1504 6.64345 18.1256 6.45605 19.1494C6.18337 20.6391 6.15536 20.7833 5.66406 22.8691C5.56895 23.2721 5.16473 23.5226 4.76172 23.4277C4.35882 23.3327 4.10942 22.9284 4.2041 22.5254C4.69104 20.4581 4.71327 20.3387 4.98047 18.8789C5.06296 18.4274 4.8871 17.91 4.49707 17.4863C3.1694 16.0447 1.44684 13.3402 1.79492 9.9541C2.0624 7.35412 3.0393 5.58167 4.33594 4.46387C5.62164 3.35574 7.15673 2.94736 8.45215 2.94727ZM20.29 15.4473C20.7041 15.4475 21.04 15.7832 21.04 16.1973V22.2773C21.0398 22.6912 20.7039 23.0271 20.29 23.0273C19.876 23.0273 19.5403 22.6913 19.54 22.2773V16.1973C19.54 15.7831 19.8758 15.4473 20.29 15.4473ZM17.5 17.4473C17.9142 17.4473 18.25 17.7831 18.25 18.1973V20.6973C18.2498 21.1113 17.914 21.4472 17.5 21.4473C17.0859 21.4473 16.7502 21.1113 16.75 20.6973V18.1973C16.75 17.7831 17.0858 17.4473 17.5 17.4473ZM23 17.4473C23.4142 17.4473 23.75 17.7831 23.75 18.1973V20.6973C23.7498 21.1113 23.414 21.4472 23 21.4473C22.5859 21.4473 22.2502 21.1113 22.25 20.6973V18.1973C22.25 17.7831 22.5858 17.4473 23 17.4473ZM11.5 10.3223C11.9142 10.3223 12.25 10.6581 12.25 11.0723V11.1973C12.2498 11.6113 11.9141 11.9472 11.5 11.9473C11.0859 11.9473 10.7502 11.6113 10.75 11.1973V11.0723C10.75 10.6581 11.0858 10.3223 11.5 10.3223Z" fill="#061032"/>
</svg>