<svg width="25" height="24" viewBox="0 0 25 24" fill="none" xmlns="http://www.w3.org/2000/svg">
<path d="M4.5 6.375C4.5 4.51104 6.03502 3 7.92857 3H17.0714C18.965 3 20.5 4.51104 20.5 6.375V17.625C20.5 19.489 18.965 21 17.0714 21H7.92857C6.03502 21 4.5 19.489 4.5 17.625V6.375Z" stroke="#2C2920" stroke-width="1.5" stroke-linecap="square" stroke-linejoin="round"/>
<path d="M12.581 6.375H12.5V6.44707H12.581V6.375Z" stroke="#2C2920" stroke-width="1.5" stroke-linecap="square" stroke-linejoin="round"/>
<path d="M15.9286 14.25C15.9286 16.114 14.3935 17.625 12.5 17.625C10.6065 17.625 9.07143 16.114 9.07143 14.25C9.07143 12.386 10.6065 10.875 12.5 10.875C14.3935 10.875 15.9286 12.386 15.9286 14.25Z" stroke="#2C2920" stroke-width="1.5" stroke-linecap="square" stroke-linejoin="round"/>
</svg>
