<svg width="24" height="24" viewBox="0 0 24 24" fill="none" xmlns="http://www.w3.org/2000/svg">
<path d="M17.7305 6.32184L17.2002 6.85217L18.2609 7.91283L18.7912 7.3825L17.7305 6.32184ZM19.626 2.98271L19.0957 2.45238L18.035 3.51304L18.5653 4.04337L19.626 2.98271ZM21.0697 6.54772L21.6 7.07805L22.6607 6.01739L22.1303 5.48706L21.0697 6.54772ZM12.75 9.84091V9.09091H11.25V9.84091H12.75ZM11.25 13.2175V13.9675H12.75V13.2175H11.25ZM9.5 1.25H8.75V2.75H9.5V1.25ZM14.5 2.75H15.25V1.25H14.5V2.75ZM18.2609 6.85217L18.7912 7.3825L20.8782 5.29555L20.3478 4.76522L19.8175 4.23489L17.7305 6.32184L18.2609 6.85217ZM19.0957 3.51304L18.5653 4.04337L19.8175 5.29555L20.3478 4.76522L20.8782 4.23489L19.626 2.98271L19.0957 3.51304ZM20.3478 4.76522L19.8175 5.29555L21.0697 6.54772L21.6 6.01739L22.1303 5.48706L20.8782 4.23489L20.3478 4.76522ZM12 9.84091H11.25V13.2175H12H12.75V9.84091H12ZM9.5 2V2.75H14.5V2V1.25H9.5V2ZM20.5 13.4286H19.75C19.75 17.7542 16.2743 21.25 12 21.25V22V22.75C17.1145 22.75 21.25 18.5707 21.25 13.4286H20.5ZM12 22V21.25C7.7257 21.25 4.25 17.7542 4.25 13.4286H3.5H2.75C2.75 18.5707 6.88546 22.75 12 22.75V22ZM3.5 13.4286H4.25C4.25 9.10299 7.7257 5.60714 12 5.60714V4.85714V4.10714C6.88546 4.10714 2.75 8.28642 2.75 13.4286H3.5ZM12 4.85714V5.60714C16.2743 5.60714 19.75 9.10299 19.75 13.4286H20.5H21.25C21.25 8.28642 17.1145 4.10714 12 4.10714V4.85714Z" fill="#2C2920"/>
</svg>
