<svg width="25" height="24" viewBox="0 0 25 24" fill="none" xmlns="http://www.w3.org/2000/svg">
<path d="M13.8701 14.2565C13.8701 14.9737 13.2887 15.5552 12.5714 15.5552C11.8542 15.5552 11.2727 14.9737 11.2727 14.2565C11.2727 13.5392 11.8542 12.9578 12.5714 12.9578C13.2887 12.9578 13.8701 13.5392 13.8701 14.2565Z" fill="#2C2920"/>
<path d="M20.1147 3.54759L19.5844 3.01726L18.5238 4.07792L19.0541 4.60825L20.1147 3.54759ZM21.3917 6.94591L21.9221 7.47624L22.9827 6.41558L22.4524 5.88525L21.3917 6.94591ZM13.3214 9.84091V9.09091H11.8214V9.84091H13.3214ZM11.8214 13.2175V13.9675H13.3214V13.2175H11.8214ZM9.97403 1.25H9.22403V2.75H9.97403V1.25ZM14.9091 2.75H15.6591V1.25H14.9091V2.75ZM18.2749 6.66448L17.7445 7.19481L18.8052 8.25547L19.3355 7.72514L18.2749 6.66448ZM20.7532 5.24675L21.2836 4.71642L20.7532 5.24675ZM12.5714 9.84091H11.8214V13.2175H12.5714H13.3214V9.84091H12.5714ZM9.97403 2V2.75H14.9091V2V1.25H9.97403V2ZM18.8052 7.19481L19.3355 7.72514L21.2836 5.77708L20.7532 5.24675L20.2229 4.71642L18.2749 6.66448L18.8052 7.19481ZM21.1429 13.4286H20.3929C20.3929 17.7482 16.8911 21.25 12.5714 21.25V22V22.75C17.7195 22.75 21.8929 18.5767 21.8929 13.4286H21.1429ZM12.5714 22V21.25C8.25177 21.25 4.75 17.7482 4.75 13.4286H4H3.25C3.25 18.5767 7.42334 22.75 12.5714 22.75V22ZM4 13.4286H4.75C4.75 9.10892 8.25177 5.60714 12.5714 5.60714V4.85714V4.10714C7.42334 4.10714 3.25 8.28049 3.25 13.4286H4ZM12.5714 4.85714V5.60714C16.8911 5.60714 20.3929 9.10892 20.3929 13.4286H21.1429H21.8929C21.8929 8.28049 17.7195 4.10714 12.5714 4.10714V4.85714ZM13.8701 14.2565H13.1201C13.1201 14.5595 12.8745 14.8052 12.5714 14.8052V15.5552V16.3052C13.7029 16.3052 14.6201 15.388 14.6201 14.2565H13.8701ZM12.5714 15.5552V14.8052C12.2684 14.8052 12.0227 14.5595 12.0227 14.2565H11.2727H10.5227C10.5227 15.388 11.44 16.3052 12.5714 16.3052V15.5552ZM11.2727 14.2565H12.0227C12.0227 13.9535 12.2684 13.7078 12.5714 13.7078V12.9578V12.2078C11.44 12.2078 10.5227 13.125 10.5227 14.2565H11.2727ZM12.5714 12.9578V13.7078C12.8745 13.7078 13.1201 13.9535 13.1201 14.2565H13.8701H14.6201C14.6201 13.125 13.7029 12.2078 12.5714 12.2078V12.9578ZM19.5844 4.07792L19.0541 4.60825L20.2229 5.77708L20.7532 5.24675L21.2836 4.71642L20.1147 3.54759L19.5844 4.07792ZM20.7532 5.24675L20.2229 5.77708L21.3917 6.94591L21.9221 6.41558L22.4524 5.88525L21.2836 4.71642L20.7532 5.24675Z" fill="#2C2920"/>
</svg>
