<svg width="25" height="24" viewBox="0 0 25 24" fill="none" xmlns="http://www.w3.org/2000/svg">
<path d="M18.125 3H6.875C5.01104 3 3.5 4.51104 3.5 6.375V17.625C3.5 19.489 5.01104 21 6.875 21H18.125C19.989 21 21.5 19.489 21.5 17.625V6.375C21.5 4.51104 19.989 3 18.125 3Z" stroke="#2C2920" stroke-width="1.5" stroke-linecap="square" stroke-linejoin="round"/>
<path d="M9.125 9.89062C9.125 9.19164 9.69164 8.625 10.3906 8.625H14.6094C15.3084 8.625 15.875 9.19164 15.875 9.89062V14.1094C15.875 14.8084 15.3084 15.375 14.6094 15.375H10.3906C9.69164 15.375 9.125 14.8084 9.125 14.1094V9.89062Z" stroke="#2C2920" stroke-width="1.5" stroke-linecap="square" stroke-linejoin="round"/>
</svg>
