<svg width="24" height="24" viewBox="0 0 24 24" fill="none" xmlns="http://www.w3.org/2000/svg">
<path d="M4 10.6768C3.73478 10.6768 3.48043 10.7821 3.29289 10.9697C3.10536 11.1572 3 11.4115 3 11.6768V14.9346C3 15.1998 3.10536 15.4541 3.29289 15.6417C3.48043 15.8292 3.73478 15.9346 4 15.9346C4.26522 15.9346 4.51957 15.8292 4.70711 15.6417C4.89464 15.4541 5 15.1998 5 14.9346V11.6768C5 11.4115 4.89464 11.1572 4.70711 10.9697C4.51957 10.7821 4.26522 10.6768 4 10.6768Z" fill="#2C2920"/>
<path d="M20 10C19.7348 10 19.4804 10.1054 19.2929 10.2929C19.1054 10.4804 19 10.7348 19 11V14.2578C19 14.523 19.1054 14.7774 19.2929 14.9649C19.4804 15.1525 19.7348 15.2578 20 15.2578C20.2652 15.2578 20.5196 15.1525 20.7071 14.9649C20.8946 14.7774 21 14.523 21 14.2578V11C21 10.7348 20.8946 10.4804 20.7071 10.2929C20.5196 10.1054 20.2652 10 20 10Z" fill="#2C2920"/>
<path d="M7.2002 7.43848C6.93498 7.43848 6.68063 7.54383 6.49309 7.73137C6.30555 7.91891 6.2002 8.17326 6.2002 8.43848V18.1732C6.2002 18.4385 6.30555 18.6928 6.49309 18.8804C6.68063 19.0679 6.93498 19.1732 7.2002 19.1732C7.46541 19.1732 7.71977 19.0679 7.9073 18.8804C8.09484 18.6928 8.2002 18.4385 8.2002 18.1732V8.43848C8.2002 8.17326 8.09484 7.91891 7.9073 7.73137C7.71977 7.54383 7.46541 7.43848 7.2002 7.43848Z" fill="#2C2920"/>
<path d="M10.3999 2.5C10.1347 2.5 9.88033 2.60536 9.6928 2.79289C9.50526 2.98043 9.3999 3.23478 9.3999 3.5V17.5C9.3999 17.7652 9.50526 18.0196 9.6928 18.2071C9.88033 18.3946 10.1347 18.5 10.3999 18.5C10.6651 18.5 10.9195 18.3946 11.107 18.2071C11.2945 18.0196 11.3999 17.7652 11.3999 17.5V3.5C11.3999 3.23478 11.2945 2.98043 11.107 2.79289C10.9195 2.60536 10.6651 2.5 10.3999 2.5Z" fill="#2C2920"/>
<path d="M13.5996 5.69678C13.3344 5.69678 13.08 5.80213 12.8925 5.98967C12.705 6.17721 12.5996 6.43156 12.5996 6.69678V14.303C12.5996 14.5682 12.705 14.8226 12.8925 15.0101C13.08 15.1976 13.3344 15.303 13.5996 15.303C13.8648 15.303 14.1192 15.1976 14.3067 15.0101C14.4943 14.8226 14.5996 14.5682 14.5996 14.303V6.69678C14.5996 6.43156 14.4943 6.17721 14.3067 5.98967C14.1192 5.80213 13.8648 5.69678 13.5996 5.69678Z" fill="#2C2920"/>
<path d="M16.7998 7C16.5346 7 16.2802 7.10536 16.0927 7.29289C15.9052 7.48043 15.7998 7.73478 15.7998 8V13C15.7998 13.2652 15.9052 13.5196 16.0927 13.7071C16.2802 13.8946 16.5346 14 16.7998 14C17.065 14 17.3194 13.8946 17.5069 13.7071C17.6944 13.5196 17.7998 13.2652 17.7998 13V8C17.7998 7.73478 17.6944 7.48043 17.5069 7.29289C17.3194 7.10536 17.065 7 16.7998 7Z" fill="#2C2920"/>
<circle cx="15" cy="16" r="6" fill="white"/>
<circle cx="15" cy="16" r="5.25" fill="#2C2920"/>
<path d="M13.8415 18.7159H15.0799M15.0799 18.7159H16.3757M15.0799 18.7159V13.2844M15.0799 13.2844H13.0598C12.8456 13.2844 12.6719 13.4581 12.6719 13.6724V14.2429M15.0799 13.2844H16.9395C17.1538 13.2844 17.3275 13.4581 17.3275 13.6724V14.4027" stroke="white" stroke-width="1.5" stroke-linecap="round" stroke-linejoin="round"/>
</svg>