<svg width="26" height="26" viewBox="0 0 26 26" fill="none" xmlns="http://www.w3.org/2000/svg">
<path d="M12.25 5.8V6.55H13.75V5.8H12.25ZM13.75 1V0.25H12.25V1H13.75ZM12.25 25V25.75H13.75V25H12.25ZM13.75 20.2V19.45H12.25V20.2H13.75ZM20.2 12.25H19.45V13.75H20.2V12.25ZM25 13.75H25.75V12.25H25V13.75ZM1 12.25H0.25V13.75H1V12.25ZM5.8 13.75H6.55V12.25H5.8V13.75ZM22.6 12.9999H21.85C21.85 17.8876 17.8877 21.8499 13 21.8499V22.5999V23.3499C18.7161 23.3499 23.35 18.7161 23.35 12.9999H22.6ZM13 22.5999V21.8499C8.11228 21.8499 4.15 17.8876 4.15 12.9999H3.4H2.65C2.65 18.7161 7.28385 23.3499 13 23.3499V22.5999ZM3.4 12.9999H4.15C4.15 8.11221 8.11228 4.14993 13 4.14993V3.39993V2.64993C7.28385 2.64993 2.65 7.28378 2.65 12.9999H3.4ZM13 3.39993V4.14993C17.8877 4.14993 21.85 8.11221 21.85 12.9999H22.6H23.35C23.35 7.28378 18.7161 2.64993 13 2.64993V3.39993ZM13 5.8H13.75V1H13H12.25V5.8H13ZM13 25H13.75V20.2H13H12.25V25H13ZM20.2 13V13.75H25V13V12.25H20.2V13ZM1 13V13.75H5.8V13V12.25H1V13ZM16.6 13H15.85C15.85 14.574 14.574 15.85 13 15.85V16.6V17.35C15.4024 17.35 17.35 15.4024 17.35 13H16.6ZM13 16.6V15.85C11.426 15.85 10.15 14.574 10.15 13H9.4H8.65C8.65 15.4024 10.5976 17.35 13 17.35V16.6ZM9.4 13H10.15C10.15 11.426 11.426 10.15 13 10.15V9.4V8.65C10.5976 8.65 8.65 10.5976 8.65 13H9.4ZM13 9.4V10.15C14.574 10.15 15.85 11.426 15.85 13H16.6H17.35C17.35 10.5976 15.4024 8.65 13 8.65V9.4Z" fill="#2C2920"/>
</svg>
