<svg width="24" height="24" viewBox="0 0 24 24" fill="none" xmlns="http://www.w3.org/2000/svg">
<path d="M20.8516 12.5294V11.7794H19.3516V12.5294H20.8516ZM11.5508 4.80882H12.3008V3.30882H11.5508V4.80882ZM16.5762 12.5294V11.7794H15.0762V12.5294H16.5762ZM11.5508 9.04412H12.3008V7.54412H11.5508V9.04412ZM15.8576 9.148L16.3904 8.62018L15.3348 7.55453L14.8019 8.08235L15.8576 9.148ZM11.023 11.8259L10.4902 12.3537L11.5458 13.4193L12.0786 12.8915L11.023 11.8259ZM21 5.99481L21.5278 6.52763C21.7302 6.32713 21.8015 6.02927 21.7119 5.75884C21.6223 5.48842 21.3872 5.29212 21.1051 5.2522L21 5.99481ZM17.5989 9.36396L17.3638 10.0761C17.6316 10.1646 17.9264 10.0953 18.1268 9.89678L17.5989 9.36396ZM14.5758 6.36916L14.0479 5.83633C13.8447 6.03769 13.7737 6.33717 13.8649 6.60835L14.5758 6.36916ZM17.9768 3L18.7192 2.89295C18.6787 2.61259 18.4838 2.37892 18.2152 2.28889C17.9466 2.19886 17.6502 2.26783 17.449 2.46718L17.9768 3ZM15.3316 8.61526L14.6207 8.85445C14.696 9.07819 14.8722 9.25342 15.0964 9.32744L15.3316 8.61526ZM18.3547 5.62045L17.6124 5.7275C17.66 6.05742 17.9196 6.31635 18.2496 6.36306L18.3547 5.62045ZM20.1016 12.5294H19.3516C19.3516 16.7867 15.8657 20.25 11.5508 20.25V21V21.75C16.6808 21.75 20.8516 17.6285 20.8516 12.5294H20.1016ZM11.5508 21V20.25C7.23586 20.25 3.75 16.7867 3.75 12.5294H3H2.25C2.25 17.6285 6.42079 21.75 11.5508 21.75V21ZM3 12.5294H3.75C3.75 8.2721 7.23586 4.80882 11.5508 4.80882V4.05882V3.30882C6.42079 3.30882 2.25 7.43037 2.25 12.5294H3ZM15.8262 12.5294H15.0762C15.0762 14.4476 13.5045 16.0147 11.5508 16.0147V16.7647V17.5147C14.3196 17.5147 16.5762 15.2894 16.5762 12.5294H15.8262ZM11.5508 16.7647V16.0147C9.5971 16.0147 8.0254 14.4476 8.0254 12.5294H7.2754H6.5254C6.5254 15.2894 8.78203 17.5147 11.5508 17.5147V16.7647ZM7.2754 12.5294H8.0254C8.0254 10.6112 9.5971 9.04412 11.5508 9.04412V8.29412V7.54412C8.78203 7.54412 6.5254 9.76946 6.5254 12.5294H7.2754ZM15.3298 8.61518L14.8019 8.08235L11.023 11.8259L11.5508 12.3587L12.0786 12.8915L15.8576 9.148L15.3298 8.61518ZM21 5.99481L20.4722 5.46198L17.0711 8.83114L17.5989 9.36396L18.1268 9.89678L21.5278 6.52763L21 5.99481ZM14.5758 6.36916L15.1036 6.90198L18.5047 3.53282L17.9768 3L17.449 2.46718L14.0479 5.83633L14.5758 6.36916ZM17.5989 9.36396L17.8341 8.65178L15.5667 7.90308L15.3316 8.61526L15.0964 9.32744L17.3638 10.0761L17.5989 9.36396ZM15.3316 8.61526L16.0424 8.37607L15.2866 6.12997L14.5758 6.36916L13.8649 6.60835L14.6207 8.85445L15.3316 8.61526ZM17.9768 3L17.2345 3.10705L17.6124 5.7275L18.3547 5.62045L19.0971 5.5134L18.7192 2.89295L17.9768 3ZM18.3547 5.62045L18.2496 6.36306L20.8949 6.73741L21 5.99481L21.1051 5.2522L18.4598 4.87785L18.3547 5.62045Z" fill="#2C2920"/>
</svg>
