<svg width="24" height="24" viewBox="0 0 24 24" fill="none" xmlns="http://www.w3.org/2000/svg">
<path d="M12 12V11.25C11.5858 11.25 11.25 11.5858 11.25 12H12ZM12.0797 12H12.8297C12.8297 11.5858 12.4939 11.25 12.0797 11.25V12ZM12.0797 12.0721V12.8221C12.4939 12.8221 12.8297 12.4863 12.8297 12.0721H12.0797ZM12 12.0721H11.25C11.25 12.4863 11.5858 12.8221 12 12.8221V12.0721ZM21 12H20.25C20.25 16.5563 16.5563 20.25 12 20.25V21V21.75C17.3848 21.75 21.75 17.3848 21.75 12H21ZM12 21V20.25C7.44365 20.25 3.75 16.5563 3.75 12H3H2.25C2.25 17.3848 6.61522 21.75 12 21.75V21ZM3 12H3.75C3.75 7.44365 7.44365 3.75 12 3.75V3V2.25C6.61522 2.25 2.25 6.61522 2.25 12H3ZM12 3V3.75C16.5563 3.75 20.25 7.44365 20.25 12H21H21.75C21.75 6.61522 17.3848 2.25 12 2.25V3ZM16.5 12H15.75C15.75 14.0711 14.0711 15.75 12 15.75V16.5V17.25C14.8995 17.25 17.25 14.8995 17.25 12H16.5ZM12 16.5V15.75C9.92893 15.75 8.25 14.0711 8.25 12H7.5H6.75C6.75 14.8995 9.1005 17.25 12 17.25V16.5ZM7.5 12H8.25C8.25 9.92893 9.92893 8.25 12 8.25V7.5V6.75C9.1005 6.75 6.75 9.1005 6.75 12H7.5ZM12 7.5V8.25C14.0711 8.25 15.75 9.92893 15.75 12H16.5H17.25C17.25 9.1005 14.8995 6.75 12 6.75V7.5ZM12 12V12.75H12.0797V12V11.25H12V12ZM12.0797 12H11.3297V12.0721H12.0797H12.8297V12H12.0797ZM12.0797 12.0721V11.3221H12V12.0721V12.8221H12.0797V12.0721ZM12 12.0721H12.75V12H12H11.25V12.0721H12Z" fill="#2C2920"/>
</svg>
