<svg width="24" height="24" viewBox="0 0 24 24" fill="none" xmlns="http://www.w3.org/2000/svg">
<path d="M6.60005 13.9528L7.02912 14.568C7.23021 14.4277 7.35005 14.198 7.35005 13.9528H6.60005ZM11.4 13.9528H10.65C10.65 14.1662 10.7409 14.3694 10.8999 14.5117L11.4 13.9528ZM9.00005 16.65H8.25005V18.15H9.00005V16.65ZM9.0563 18.15H9.8063V16.65H9.0563V18.15ZM13.2 17.4H12.45C12.45 19.3054 10.9054 20.85 9.00005 20.85V21.6V22.35C11.7339 22.35 13.95 20.1338 13.95 17.4H13.2ZM9.00005 21.6V20.85C7.09467 20.85 5.55005 19.3054 5.55005 17.4H4.80005H4.05005C4.05005 20.1338 6.26624 22.35 9.00005 22.35V21.6ZM4.80005 17.4H5.55005C5.55005 16.2283 6.1335 15.1927 7.02912 14.568L6.60005 13.9528L6.17098 13.3377C4.89042 14.2309 4.05005 15.7173 4.05005 17.4H4.80005ZM11.4 13.9528L10.8999 14.5117C11.2659 14.8393 11.6647 15.3247 11.9683 15.8655C12.2759 16.4134 12.45 16.9537 12.45 17.4H13.2H13.95C13.95 16.6024 13.6538 15.8037 13.2762 15.1312C12.8947 14.4516 12.3934 13.8354 11.9002 13.394L11.4 13.9528ZM11.4 4.8H10.65V13.9528H11.4H12.15V4.8H11.4ZM6.60005 13.9528H7.35005V4.79843H6.60005H5.85005V13.9528H6.60005ZM9.00005 2.4V3.15C9.91132 3.15 10.65 3.88873 10.65 4.8H11.4H12.15C12.15 3.06031 10.7397 1.65 9.00005 1.65V2.4ZM9.00005 2.4V1.65C7.26099 1.65 5.85005 3.0581 5.85005 4.79843H6.60005H7.35005C7.35005 3.8878 8.08814 3.15 9.00005 3.15V2.4ZM9.00005 17.4V18.15H9.0563V17.4V16.65H9.00005V17.4ZM19.2 7.2H18.45C18.45 8.11127 17.7113 8.85 16.8 8.85V9.6V10.35C18.5397 10.35 19.95 8.9397 19.95 7.2H19.2ZM16.8 9.6V8.85C15.8888 8.85 15.15 8.11127 15.15 7.2H14.4H13.65C13.65 8.9397 15.0604 10.35 16.8 10.35V9.6ZM14.4 7.2H15.15C15.15 6.28873 15.8888 5.55 16.8 5.55V4.8V4.05C15.0604 4.05 13.65 5.4603 13.65 7.2H14.4ZM16.8 4.8V5.55C17.7113 5.55 18.45 6.28873 18.45 7.2H19.2H19.95C19.95 5.4603 18.5397 4.05 16.8 4.05V4.8Z" fill="#2C2920"/>
</svg>
