<svg width="24" height="24" viewBox="0 0 24 24" fill="none" xmlns="http://www.w3.org/2000/svg">
<path d="M8.39995 17.4H8.4562M14.55 11.25L16.8 9M16.8 9L19.05 11.25M16.8 9V5.4M16.8 9L13.8 7.5M16.8 9L19.8 7.5M12.6 17.4C12.6 19.7196 10.7195 21.6 8.39995 21.6C6.08036 21.6 4.19995 19.7196 4.19995 17.4C4.19995 15.9728 4.91186 14.7118 5.99995 13.9528V4.79843C5.99995 3.47295 7.07447 2.4 8.39995 2.4C9.72543 2.4 10.8 3.47452 10.8 4.8V13.9528C11.6592 14.7219 12.6 16.1561 12.6 17.4Z" stroke="#2C2920" stroke-width="1.5" stroke-linecap="square" stroke-linejoin="round"/>
</svg>
