<svg width="86" height="20" viewBox="0 0 86 20" fill="none" xmlns="http://www.w3.org/2000/svg">
<path d="M0.721591 19V1.54545H11.9034V4.19602H3.88352V8.93466H11.1364V11.5852H3.88352V19H0.721591ZM13.9277 19V5.90909H17.013V19H13.9277ZM15.4789 4.05114C14.9902 4.05114 14.5698 3.8892 14.2175 3.56534C13.8652 3.23579 13.6891 2.84091 13.6891 2.38068C13.6891 1.91477 13.8652 1.51989 14.2175 1.19602C14.5698 0.866477 14.9902 0.701704 15.4789 0.701704C15.9732 0.701704 16.3936 0.866477 16.7402 1.19602C17.0925 1.51989 17.2686 1.91477 17.2686 2.38068C17.2686 2.84091 17.0925 3.23579 16.7402 3.56534C16.3936 3.8892 15.9732 4.05114 15.4789 4.05114ZM22.5508 11.3295V19H19.4655V5.90909H22.4144V8.13352H22.5678C22.8689 7.40057 23.3491 6.81818 24.0082 6.38636C24.6729 5.95455 25.4939 5.73864 26.4712 5.73864C27.3746 5.73864 28.1616 5.93182 28.832 6.31818C29.5082 6.70455 30.0309 7.2642 30.4002 7.99716C30.7752 8.73011 30.9599 9.61932 30.9542 10.6648V19H27.8689V11.142C27.8689 10.267 27.6417 9.58239 27.1871 9.08807C26.7383 8.59375 26.1161 8.34659 25.3207 8.34659C24.7809 8.34659 24.3008 8.46591 23.8803 8.70455C23.4655 8.9375 23.1388 9.27557 22.9002 9.71875C22.6672 10.1619 22.5508 10.6989 22.5508 11.3295ZM37.1376 19.2642C36.308 19.2642 35.5609 19.1165 34.8961 18.821C34.237 18.5199 33.7143 18.0767 33.3279 17.4915C32.9472 16.9062 32.7569 16.1847 32.7569 15.3267C32.7569 14.5881 32.8933 13.9773 33.166 13.4943C33.4387 13.0114 33.8109 12.625 34.2825 12.3352C34.7541 12.0455 35.2853 11.8267 35.8762 11.679C36.4728 11.5256 37.0893 11.4148 37.7257 11.3466C38.4927 11.267 39.1149 11.196 39.5921 11.1335C40.0694 11.0653 40.416 10.9631 40.6319 10.8267C40.8535 10.6847 40.9643 10.4659 40.9643 10.1705V10.1193C40.9643 9.47727 40.7739 8.98011 40.3933 8.62784C40.0126 8.27557 39.4643 8.09943 38.7484 8.09943C37.9927 8.09943 37.3933 8.2642 36.9501 8.59375C36.5126 8.9233 36.2171 9.3125 36.0637 9.76136L33.183 9.35227C33.4103 8.55682 33.7853 7.89205 34.308 7.35795C34.8308 6.81818 35.47 6.41477 36.2257 6.14773C36.9813 5.875 37.8166 5.73864 38.7313 5.73864C39.362 5.73864 39.9899 5.8125 40.6149 5.96023C41.2399 6.10795 41.8109 6.35227 42.3279 6.69318C42.845 7.02841 43.2597 7.4858 43.5722 8.06534C43.8904 8.64489 44.0495 9.36932 44.0495 10.2386V19H41.0836V17.2017H40.9813C40.7938 17.5653 40.5296 17.9062 40.1887 18.2244C39.8535 18.5369 39.4302 18.7898 38.9188 18.983C38.4132 19.1705 37.8194 19.2642 37.1376 19.2642ZM37.9387 16.9972C38.558 16.9972 39.095 16.875 39.5495 16.6307C40.0041 16.3807 40.3535 16.0511 40.5978 15.642C40.8478 15.233 40.9728 14.7869 40.9728 14.304V12.7614C40.8762 12.8409 40.7114 12.9148 40.4785 12.983C40.2512 13.0511 39.9955 13.1108 39.7114 13.1619C39.4274 13.2131 39.1461 13.2585 38.8677 13.2983C38.5893 13.3381 38.3478 13.3722 38.1433 13.4006C37.683 13.4631 37.2711 13.5653 36.9075 13.7074C36.5438 13.8494 36.2569 14.0483 36.0467 14.304C35.8364 14.554 35.7313 14.8778 35.7313 15.2756C35.7313 15.8438 35.9387 16.2727 36.3535 16.5625C36.7683 16.8523 37.2967 16.9972 37.9387 16.9972ZM49.517 11.3295V19H46.4318V5.90909H49.3807V8.13352H49.5341C49.8352 7.40057 50.3153 6.81818 50.9744 6.38636C51.6392 5.95455 52.4602 5.73864 53.4375 5.73864C54.3409 5.73864 55.1278 5.93182 55.7983 6.31818C56.4744 6.70455 56.9971 7.2642 57.3664 7.99716C57.7414 8.73011 57.9261 9.61932 57.9204 10.6648V19H54.8352V11.142C54.8352 10.267 54.6079 9.58239 54.1534 9.08807C53.7045 8.59375 53.0824 8.34659 52.2869 8.34659C51.7471 8.34659 51.267 8.46591 50.8466 8.70455C50.4318 8.9375 50.1051 9.27557 49.8664 9.71875C49.6335 10.1619 49.517 10.6989 49.517 11.3295ZM66.047 19.2557C64.7402 19.2557 63.618 18.9688 62.6805 18.3949C61.7487 17.821 61.03 17.0284 60.5243 16.017C60.0243 15 59.7743 13.8295 59.7743 12.5057C59.7743 11.1761 60.03 10.0028 60.5413 8.9858C61.0527 7.96307 61.7743 7.16761 62.7061 6.59943C63.6436 6.02557 64.7516 5.73864 66.03 5.73864C67.0925 5.73864 68.0328 5.93466 68.851 6.3267C69.6749 6.71307 70.3311 7.26136 70.8197 7.97159C71.3084 8.67614 71.5868 9.5 71.655 10.4432H68.7061C68.5868 9.8125 68.3027 9.28693 67.8538 8.86648C67.4107 8.44034 66.8169 8.22727 66.0726 8.22727C65.4419 8.22727 64.8879 8.39773 64.4107 8.73864C63.9334 9.07386 63.5612 9.55682 63.2942 10.1875C63.0328 10.8182 62.9021 11.5739 62.9021 12.4545C62.9021 13.3466 63.0328 14.1136 63.2942 14.7557C63.5555 15.392 63.922 15.8835 64.3936 16.2301C64.8709 16.571 65.4305 16.7415 66.0726 16.7415C66.5271 16.7415 66.9334 16.6562 67.2913 16.4858C67.655 16.3097 67.959 16.0568 68.2033 15.7273C68.4476 15.3977 68.6152 14.9972 68.7061 14.5256H71.655C71.5811 15.4517 71.3084 16.2727 70.8368 16.9886C70.3652 17.6989 69.7232 18.2557 68.9107 18.6591C68.0982 19.0568 67.1436 19.2557 66.047 19.2557ZM79.2638 19.2557C77.9513 19.2557 76.8178 18.983 75.8632 18.4375C74.9144 17.8864 74.1843 17.108 73.6729 16.1023C73.1615 15.0909 72.9059 13.9006 72.9059 12.5312C72.9059 11.1847 73.1615 10.0028 73.6729 8.9858C74.1899 7.96307 74.9115 7.16761 75.8377 6.59943C76.7638 6.02557 77.8519 5.73864 79.1019 5.73864C79.9087 5.73864 80.6701 5.86932 81.386 6.13068C82.1076 6.38636 82.7439 6.78409 83.2951 7.32386C83.8519 7.86364 84.2894 8.55114 84.6076 9.38636C84.9257 10.2159 85.0848 11.2045 85.0848 12.3523V13.2983H74.3547V11.2188H82.1274C82.1218 10.6278 81.9939 10.1023 81.7439 9.64205C81.4939 9.17614 81.1445 8.80966 80.6956 8.54261C80.2524 8.27557 79.7354 8.14205 79.1445 8.14205C78.5138 8.14205 77.9598 8.29545 77.4826 8.60227C77.0053 8.90341 76.6331 9.30114 76.3661 9.79545C76.1047 10.2841 75.9712 10.821 75.9655 11.4062V13.2216C75.9655 13.983 76.1047 14.6364 76.3831 15.1818C76.6615 15.7216 77.0507 16.1364 77.5507 16.4261C78.0507 16.7102 78.636 16.8523 79.3064 16.8523C79.7553 16.8523 80.1615 16.7898 80.5252 16.6648C80.8888 16.5341 81.2041 16.3438 81.4712 16.0938C81.7382 15.8438 81.9399 15.5341 82.0763 15.1648L84.957 15.4886C84.7752 16.25 84.4286 16.9148 83.9172 17.483C83.4115 18.0455 82.7638 18.483 81.974 18.7955C81.1843 19.1023 80.2809 19.2557 79.2638 19.2557Z" fill="#2C2920"/>
</svg>
