<svg width="24" height="24" viewBox="0 0 24 24" fill="none" xmlns="http://www.w3.org/2000/svg">
<path d="M16.9988 4L13.2388 3.06C13.0802 3.02025 12.9173 3.0001 12.7538 3H8.73577C8.36428 3.00001 8.00013 3.10349 7.68415 3.29884C7.36816 3.49419 7.11283 3.77369 6.94677 4.106L3.44677 11.106C3.2944 11.4109 3.2225 11.7497 3.23788 12.0902C3.25326 12.4308 3.35541 12.7617 3.53465 13.0516C3.71388 13.3416 3.96424 13.5809 4.26197 13.7469C4.5597 13.9129 4.89491 14 5.23577 14H9.99977H11.9998M16.9988 4L16.9998 13L13.6078 18.088C13.2108 18.683 12.9998 19.381 12.9998 20.096C12.9998 20.595 12.5948 21 12.0948 21H11.9988C11.4683 21 10.9596 20.7893 10.5846 20.4142C10.2095 20.0391 9.99877 19.5304 9.99877 19V14M16.9988 4H18.9998C19.5302 4 20.0389 4.21071 20.414 4.58579C20.7891 4.96086 20.9998 5.46957 20.9998 6V12C20.9998 12.5304 20.7891 13.0391 20.414 13.4142C20.0389 13.7893 19.5302 14 18.9998 14H16.4998" stroke="#2C2920" stroke-width="1.5" stroke-linecap="square" stroke-linejoin="round"/>
</svg>
