<svg width="24" height="24" viewBox="0 0 24 24" fill="none" xmlns="http://www.w3.org/2000/svg">
<path d="M14.4 15.1402V14.9464M14.3995 12.1374V11.9435M14.3995 9.14723V8.9534M5.01172 3.45978H12.001C12.0407 4.87484 13.2003 6.00978 14.625 6.00978C16.0496 6.00978 17.2092 4.87484 17.2489 3.45978H18.9882C21.0934 3.45978 22.7999 5.16636 22.7999 7.27154V16.7285C22.7999 18.8337 21.0934 20.5402 18.9882 20.5402H17.2489C17.2092 19.1252 16.0496 17.9902 14.625 17.9902C13.2003 17.9902 12.0407 19.1252 12.001 20.5402H5.01173C2.90655 20.5402 1.19996 18.8337 1.19996 16.7285L1.19995 7.27154C1.19995 5.16636 2.90654 3.45978 5.01172 3.45978Z" stroke="#2C2920" stroke-width="1.5" stroke-linecap="square" stroke-linejoin="round"/>
</svg>
