<svg width="24" height="24" viewBox="0 0 24 24" fill="none" xmlns="http://www.w3.org/2000/svg">
<path d="M14.3997 14.8598V8.9534M5.01196 3.45978H12.0012C12.0409 4.87484 13.2005 6.00978 14.6252 6.00978C16.0499 6.00978 17.2094 4.87484 17.2491 3.45978H18.9884C21.0936 3.45978 22.8002 5.16636 22.8002 7.27154V16.7285C22.8002 18.8337 21.0936 20.5402 18.9884 20.5402H17.2491C17.2094 19.1252 16.0499 17.9902 14.6252 17.9902C13.2005 17.9902 12.0409 19.1252 12.0012 20.5402H5.01197C2.90679 20.5402 1.20021 18.8337 1.20021 16.7285L1.2002 7.27154C1.2002 5.16636 2.90678 3.45978 5.01196 3.45978Z" stroke="#2C2920" stroke-width="1.5" stroke-linecap="square" stroke-linejoin="round"/>
</svg>
