<svg width="24" height="24" viewBox="0 0 24 24" fill="none" xmlns="http://www.w3.org/2000/svg">
<path d="M19.0736 16.5473V7.45253M16.5473 19.0736H7.9578M4.92622 16.2946V7.70516M7.45253 4.92622H16.2946M3.41043 7.45253H6.44201C7.00011 7.45253 7.45253 7.00011 7.45253 6.44201V3.41043C7.45253 2.85233 7.00011 2.3999 6.44201 2.3999H3.41043C2.85233 2.3999 2.3999 2.85233 2.3999 3.41043V6.44201C2.3999 7.00011 2.85233 7.45253 3.41043 7.45253ZM17.5578 7.45253H20.5894C21.1475 7.45253 21.5999 7.00011 21.5999 6.44201V3.41043C21.5999 2.85233 21.1475 2.3999 20.5894 2.3999H17.5578C16.9997 2.3999 16.5473 2.85233 16.5473 3.41043V6.44201C16.5473 7.00011 16.9997 7.45253 17.5578 7.45253ZM3.41043 21.5999H6.44201C7.00011 21.5999 7.45253 21.1475 7.45253 20.5894V17.5578C7.45253 16.9997 7.00011 16.5473 6.44201 16.5473H3.41043C2.85233 16.5473 2.3999 16.9997 2.3999 17.5578V20.5894C2.3999 21.1475 2.85233 21.5999 3.41043 21.5999ZM17.5578 21.5999H20.5894C21.1475 21.5999 21.5999 21.1475 21.5999 20.5894V17.5578C21.5999 16.9997 21.1475 16.5473 20.5894 16.5473H17.5578C16.9997 16.5473 16.5473 16.9997 16.5473 17.5578V20.5894C16.5473 21.1475 16.9997 21.5999 17.5578 21.5999Z" stroke="#2C2920" stroke-width="1.5" stroke-linecap="square"/>
</svg>
