<svg width="24" height="24" viewBox="0 0 24 24" fill="none" xmlns="http://www.w3.org/2000/svg">
<path d="M5.14276 17.0286H4.22847C3.21858 17.0286 2.3999 16.2099 2.3999 15.2V6.97142C2.3999 5.96153 3.21858 5.14285 4.22847 5.14285H12.457C13.4669 5.14285 14.2856 5.96153 14.2856 6.97142V15.2C14.2856 16.2099 13.4669 17.0286 12.457 17.0286H11.5428M15.657 17.0286H15.1999C14.695 17.0286 14.2856 16.6192 14.2856 16.1143V8.34285C14.2856 7.83791 14.695 7.42857 15.1999 7.42857H17.5033C17.7811 7.42857 18.0438 7.55482 18.2173 7.7717L21.3995 11.7496C21.5292 11.9117 21.5999 12.1131 21.5999 12.3207V16.1143C21.5999 16.6192 21.1906 17.0286 20.6856 17.0286M10.6285 16.5714C10.6285 17.8338 9.60512 18.8571 8.34276 18.8571C7.08039 18.8571 6.05704 17.8338 6.05704 16.5714C6.05704 15.3091 7.08039 14.2857 8.34276 14.2857C9.60512 14.2857 10.6285 15.3091 10.6285 16.5714ZM20.2285 16.5714C20.2285 17.8338 19.2051 18.8571 17.9428 18.8571C16.6804 18.8571 15.657 17.8338 15.657 16.5714C15.657 15.3091 16.6804 14.2857 17.9428 14.2857C19.2051 14.2857 20.2285 15.3091 20.2285 16.5714Z" stroke="#2C2920" stroke-width="1.5" stroke-linecap="square"/>
</svg>
