<svg width="24" height="24" viewBox="0 0 24 24" fill="none" xmlns="http://www.w3.org/2000/svg">
<path d="M10.2088 16.1999H12.124M12.124 16.1999H14.128M12.124 16.1999V7.7999M12.124 7.7999H8.9999C8.66853 7.7999 8.3999 8.06853 8.3999 8.3999V9.28225M12.124 7.7999H14.9999C15.3313 7.7999 15.5999 8.06853 15.5999 8.3999V9.52931M4.7999 21.5999H19.1999C20.5254 21.5999 21.5999 20.5254 21.5999 19.1999V4.7999C21.5999 3.47442 20.5254 2.3999 19.1999 2.3999H4.7999C3.47442 2.3999 2.3999 3.47442 2.3999 4.7999V19.1999C2.3999 20.5254 3.47442 21.5999 4.7999 21.5999Z" stroke="#2C2920" stroke-width="1.5" stroke-linecap="square" stroke-linejoin="round"/>
</svg>
