<svg width="24" height="24" viewBox="0 0 24 24" fill="none" xmlns="http://www.w3.org/2000/svg">
<path d="M12.8725 12.6751L10.4494 16.872M17.2669 3.91272C15.2146 5.16496 11.0636 8.44034 10.8786 11.5239M18.2638 4.48827C18.251 6.91803 17.5673 12.1952 14.9347 13.8658M1.7998 19.1897L4.33326 18.0751C5.8813 17.3941 7.58698 17.1525 9.26327 17.3767L9.34085 17.3871C11.0429 17.6148 12.6475 18.3138 13.9733 19.4053L15.9998 21.0736M6.66602 9.09183L19.0789 16.2584C19.781 16.6638 20.6787 16.4232 21.084 15.7211C23.3809 11.7428 22.0179 6.65567 18.0395 4.35876L17.4911 4.04216C13.5128 1.74525 8.42565 3.10834 6.12874 7.0867C5.72341 7.78877 5.96395 8.68649 6.66602 9.09183Z" stroke="#2C2920" stroke-width="1.5" stroke-linecap="square" stroke-linejoin="round"/>
</svg>
