<svg width="24" height="24" viewBox="0 0 24 24" fill="none" xmlns="http://www.w3.org/2000/svg">
<path d="M2.40039 21.6L2.4008 17.9996C2.40102 16.0116 4.01273 14.4 6.00079 14.4H12.0004M17.5708 18.3L14.9994 15.9M14.9994 15.9L17.5708 13.5M14.9994 15.9H21.5994M17.4004 2.40002C18.8566 3.2163 19.8004 4.5249 19.8004 6.00002C19.8004 7.47515 18.8566 8.78375 17.4004 9.60002M14.4004 6.00002C14.4004 7.98825 12.7886 9.60002 10.8004 9.60002C8.81216 9.60002 7.20039 7.98825 7.20039 6.00002C7.20039 4.0118 8.81216 2.40002 10.8004 2.40002C12.7886 2.40002 14.4004 4.0118 14.4004 6.00002Z" stroke="#2C2920" stroke-width="1.5" stroke-linecap="square" stroke-linejoin="round"/>
</svg>
