<svg width="24" height="24" viewBox="0 0 24 24" fill="none" xmlns="http://www.w3.org/2000/svg">
<path d="M1.6499 21.5999L1.64982 22.3499L3.14982 22.3501L3.1499 21.6001L1.6499 21.5999ZM2.40031 17.9996L3.15031 17.9997L2.40031 17.9996ZM13.1999 15.15H13.9499V13.65H13.1999V15.15ZM21.0696 17.9304L21.5999 18.4607L22.6606 17.4L22.1302 16.8697L21.0696 17.9304ZM18.3119 13.0513L17.7815 12.521L16.7209 13.5816L17.2512 14.112L18.3119 13.0513ZM17.2513 16.8696L16.721 17.3999L17.7816 18.4606L18.312 17.9303L17.2513 16.8696ZM22.1303 14.1119L22.6607 13.5815L21.6 12.5209L21.0697 13.0512L22.1303 14.1119ZM14.3999 6.00002H13.6499C13.6499 7.57403 12.3739 8.85002 10.7999 8.85002V9.60002V10.35C13.2023 10.35 15.1499 8.40246 15.1499 6.00002H14.3999ZM10.7999 9.60002V8.85002C9.22589 8.85002 7.9499 7.57404 7.9499 6.00002H7.1999H6.4499C6.4499 8.40246 8.39746 10.35 10.7999 10.35V9.60002ZM7.1999 6.00002H7.9499C7.9499 4.42601 9.22589 3.15002 10.7999 3.15002V2.40002V1.65002C8.39746 1.65002 6.4499 3.59759 6.4499 6.00002H7.1999ZM10.7999 2.40002V3.15002C12.3739 3.15002 13.6499 4.42601 13.6499 6.00002H14.3999H15.1499C15.1499 3.59758 13.2023 1.65002 10.7999 1.65002V2.40002ZM2.3999 21.6L3.1499 21.6001L3.15031 17.9997L2.40031 17.9996L1.65031 17.9995L1.6499 21.5999L2.3999 21.6ZM6.00031 14.4V13.65C3.59806 13.65 1.65058 15.5973 1.65031 17.9995L2.40031 17.9996L3.15031 17.9997C3.15048 16.4258 4.42642 15.15 6.00031 15.15V14.4ZM6.00031 14.4V15.15H13.1999V14.4V13.65H6.00031V14.4ZM21.5999 17.4L22.1302 16.8697L20.221 14.9605L19.6907 15.4908L19.1604 16.0212L21.0696 17.9304L21.5999 17.4ZM19.6907 15.4908L20.221 14.9605L18.3119 13.0513L17.7815 13.5816L17.2512 14.112L19.1604 16.0212L19.6907 15.4908ZM17.7816 17.3999L18.312 17.9303L20.221 16.0212L19.6907 15.4908L19.1604 14.9605L17.2513 16.8696L17.7816 17.3999ZM19.6907 15.4908L20.221 16.0212L22.1303 14.1119L21.6 13.5815L21.0697 13.0512L19.1604 14.9605L19.6907 15.4908Z" fill="#2C2920"/>
</svg>
