<svg width="24" height="24" viewBox="0 0 24 24" fill="none" xmlns="http://www.w3.org/2000/svg">
<path d="M1.6499 21.5999L1.64982 22.3499L3.14982 22.3501L3.1499 21.6001L1.6499 21.5999ZM2.40031 17.9996L3.15031 17.9997L2.40031 17.9996ZM12.5999 15.15H13.3499V13.65H12.5999V15.15ZM21.5999 16.35H22.3499V14.85H21.5999V16.35ZM16.1999 14.85H15.4499V16.35H16.1999V14.85ZM18.1499 18.2999V19.0499H19.6499V18.2999H18.1499ZM19.6499 12.8999V12.1499H18.1499V12.8999H19.6499ZM14.3999 6.00002H13.6499C13.6499 7.57404 12.3739 8.85002 10.7999 8.85002V9.60002V10.35C13.2023 10.35 15.1499 8.40246 15.1499 6.00002H14.3999ZM10.7999 9.60002V8.85002C9.22589 8.85002 7.9499 7.57404 7.9499 6.00002H7.1999H6.4499C6.4499 8.40246 8.39746 10.35 10.7999 10.35V9.60002ZM7.1999 6.00002H7.9499C7.9499 4.42601 9.22589 3.15002 10.7999 3.15002V2.40002V1.65002C8.39746 1.65002 6.4499 3.59759 6.4499 6.00002H7.1999ZM10.7999 2.40002V3.15002C12.3739 3.15002 13.6499 4.42601 13.6499 6.00002H14.3999H15.1499C15.1499 3.59759 13.2023 1.65002 10.7999 1.65002V2.40002ZM2.3999 21.6L3.1499 21.6001L3.15031 17.9997L2.40031 17.9996L1.65031 17.9995L1.6499 21.5999L2.3999 21.6ZM6.00031 14.4V13.65C3.59806 13.65 1.65058 15.5973 1.65031 17.9995L2.40031 17.9996L3.15031 17.9997C3.15048 16.4258 4.42642 15.15 6.00031 15.15V14.4ZM6.00031 14.4V15.15H12.5999V14.4V13.65H6.00031V14.4ZM21.5999 15.6V14.85H18.8999V15.6V16.35H21.5999V15.6ZM18.8999 15.6V14.85H16.1999V15.6V16.35H18.8999V15.6ZM18.8999 18.2999H19.6499V15.6H18.8999H18.1499V18.2999H18.8999ZM18.8999 15.6H19.6499V12.8999H18.8999H18.1499V15.6H18.8999Z" fill="#2C2920"/>
</svg>
