<svg width="24" height="24" viewBox="0 0 24 24" fill="none" xmlns="http://www.w3.org/2000/svg">
<path d="M12 13.3057C14.4005 13.3057 16.5375 13.764 18.0459 14.4717C19.6135 15.2072 20.25 16.0748 20.25 16.7783C20.2498 17.592 19.7953 18.4265 18.5059 19.0986C17.1913 19.7838 15.0781 20.25 12 20.25C8.92186 20.25 6.80873 19.7838 5.49414 19.0986C4.20465 18.4265 3.75016 17.592 3.75 16.7783C3.75 16.0748 4.38653 15.2072 5.9541 14.4717C7.4625 13.764 9.59955 13.3057 12 13.3057ZM12 3.75C13.6402 3.75 15.0684 5.32706 15.0684 7.00977C15.0683 8.65655 13.6741 10.125 12 10.125C10.3259 10.125 8.9317 8.65655 8.93164 7.00977C8.93164 5.32706 10.3598 3.75 12 3.75Z" stroke="#2C2920" stroke-width="1.5" stroke-linecap="square"/>
</svg>
