<svg width="26" height="24" viewBox="0 0 26 24" fill="none" xmlns="http://www.w3.org/2000/svg">
<path d="M14.693 21.0946H2.63775C2.12562 21.0946 1.71045 20.6333 1.71045 20.0643C1.71045 16.4875 4.6987 13.5879 10.8051 13.5879C11.73 13.6022 13.7771 13.7118 14.5665 14.0356M14.2156 6.31578C14.2156 8.19935 12.6887 9.72629 10.8051 9.72629C8.92156 9.72629 7.39462 8.19935 7.39462 6.31578C7.39462 4.43221 8.92156 2.90527 10.8051 2.90527C12.6887 2.90527 14.2156 4.43221 14.2156 6.31578Z" stroke="#2C2920" stroke-width="1.5" stroke-linecap="round"/>
<path d="M24.2896 17.7375H20.9324M20.9324 17.7375H17.5752M20.9324 17.7375V21.0946M20.9324 17.7375V14.3801" stroke="#2C2920" stroke-width="1.5" stroke-linecap="round"/>
</svg>
