<svg width="25" height="24" viewBox="0 0 25 24" fill="none" xmlns="http://www.w3.org/2000/svg">
<path d="M15.875 12.4683L20.4697 9.29195C21.047 8.97614 21.4391 9.16261 21.4803 9.84596L21.4998 16.494C21.5128 17.1235 21.0069 17.3013 20.5249 16.9996L15.875 13.6151V12.4683ZM15.875 12.4683V10.2857C15.875 9.02335 14.8676 8 13.625 8H12.5M8 8H5.75C4.50736 8 3.5 9.02335 3.5 10.2857V16C3.5 17.2624 4.50736 18.2857 5.75 18.2857H13.625C14.0972 18.2857 14.5353 18.138 14.8972 17.8855M17 20L5.1875 4" stroke="#2C2920" stroke-width="1.5" stroke-linecap="square" stroke-linejoin="round"/>
</svg>
