<svg width="24" height="24" viewBox="0 0 24 24" fill="none" xmlns="http://www.w3.org/2000/svg">
<path d="M9.42383 19.907C9.71781 20.5829 10.1016 21.2106 10.5615 21.7742H8.2666C7.85256 21.7741 7.5168 21.4382 7.5166 21.0242C7.51665 20.61 7.85246 20.2742 8.2666 20.2742H9.42383V19.907ZM2.91992 10.4841C3.32956 10.4247 3.71067 10.7084 3.77051 11.1179C3.99443 12.6565 4.76458 14.0637 5.94043 15.0808C6.75592 15.7862 7.72923 16.2703 8.76758 16.5017C8.76564 16.5741 8.7627 16.6466 8.7627 16.7195C8.7627 17.172 8.80184 17.6156 8.87402 18.0476C7.43333 17.8095 6.07596 17.1807 4.95898 16.2146C3.51089 14.9618 2.562 13.2296 2.28613 11.3347C2.22653 10.925 2.5103 10.544 2.91992 10.4841ZM10.1748 2.22632C11.1943 2.22632 12.1727 2.63145 12.8936 3.35229C13.6141 4.07308 14.0185 5.05089 14.0186 6.07007V9.2019C13.49 9.39487 12.9883 9.64366 12.5186 9.93823V6.07007C12.5185 5.44857 12.2714 4.85235 11.832 4.41284C11.3925 3.97342 10.7963 3.72632 10.1748 3.72632C9.55328 3.72641 8.95707 3.97335 8.51758 4.41284C8.07823 4.85234 7.83111 5.44862 7.83105 6.07007V10.1951C7.83117 10.8165 8.07814 11.4138 8.51758 11.8533C8.90329 12.2388 9.40999 12.4757 9.94824 12.5281C9.67676 12.9685 9.44672 13.4369 9.26367 13.9285C8.58556 13.7628 7.95879 13.4154 7.45703 12.9138C6.73628 12.193 6.33117 11.2144 6.33105 10.1951V6.07007C6.33111 5.0508 6.73638 4.0731 7.45703 3.35229C8.17783 2.6315 9.15546 2.22641 10.1748 2.22632Z" fill="#2C2920"/>
<path d="M16.7627 9.96924C20.4904 9.9695 23.5127 12.9925 23.5127 16.7202C23.5124 20.4478 20.4902 23.47 16.7627 23.4702C13.0349 23.4702 10.012 20.4479 10.0117 16.7202C10.0117 12.9923 13.0348 9.96924 16.7627 9.96924ZM14.2686 12.478C13.5789 12.478 13.0195 13.0374 13.0195 13.7271V14.4604C13.0196 14.8746 13.3553 15.2104 13.7695 15.2104C14.1836 15.2103 14.5195 14.8746 14.5195 14.4604V13.978H16.1152V19.4614H15.2734C14.8592 19.4614 14.5234 19.7972 14.5234 20.2114C14.5235 20.6256 14.8592 20.9614 15.2734 20.9614H18.5312C18.9454 20.9613 19.2812 20.6256 19.2812 20.2114C19.2812 19.7973 18.9454 19.4615 18.5312 19.4614H17.6152V13.978H19.0049V14.6655C19.0049 15.0796 19.3408 15.4153 19.7549 15.4155C20.169 15.4154 20.5049 15.0797 20.5049 14.6655V13.7271C20.5049 13.0375 19.9463 12.4783 19.2568 12.478H14.2686Z" fill="#2C2920"/>
</svg>