<svg width="24" height="24" viewBox="0 0 24 24" fill="none" xmlns="http://www.w3.org/2000/svg">
<path d="M15.863 18.0411L14.9891 20.6628C14.922 20.8642 14.7335 21 14.5213 21H9.31435C9.10208 21 8.91363 20.8642 8.8465 20.6628L7.9726 18.0411M7.9726 5.9589L8.8465 3.3372C8.91363 3.13583 9.10208 3 9.31435 3H14.5213C14.7335 3 14.922 3.13583 14.9891 3.3372L15.863 5.9589M7.47945 18.0411H16.3562C17.1732 18.0411 17.8356 17.3787 17.8356 16.5616V7.68493C17.8356 6.86785 17.1732 6.20548 16.3562 6.20548H7.47945C6.66237 6.20548 6 6.86785 6 7.68493V16.5616C6 17.3787 6.66237 18.0411 7.47945 18.0411Z" stroke="#2C2920" stroke-width="1.5" stroke-linecap="square"/>
</svg>
