<svg width="24" height="24" viewBox="0 0 24 24" fill="none" xmlns="http://www.w3.org/2000/svg">
<path d="M9.02097 4.79641C9.38093 3.88591 10.2429 3.24475 11.249 3.24475C12.5787 3.24475 13.6567 4.36471 13.6567 5.74625C13.6567 7.12779 12.5787 8.24775 11.249 8.24775H2.3999M14.024 19.2036C14.3839 20.1141 15.2459 20.7553 16.252 20.7553C17.5817 20.7553 18.6597 19.6353 18.6597 18.2538C18.6597 16.8722 17.5817 15.7523 16.252 15.7523H7.4029M16.7835 8.54867C17.1575 7.63816 18.0531 6.997 19.0984 6.997C20.4799 6.997 21.5999 8.11696 21.5999 9.4985C21.5999 10.88 20.4799 12 19.0984 12H4.9014" stroke="#2C2920" stroke-width="1.5" stroke-linecap="square" stroke-linejoin="round"/>
</svg>
