<svg width="24" height="24" viewBox="0 0 24 24" fill="none" xmlns="http://www.w3.org/2000/svg">
<path d="M7.41679 20.8186C8.68581 21.0856 10.2612 21.2438 11.9679 21.2438C13.8033 21.2438 15.4869 21.0609 16.8008 20.7563M3.88411 12.2614C5.59116 13.241 8.57402 13.89 11.9683 13.89C15.3626 13.89 18.3455 13.241 20.0525 12.2614M5.3999 16.5562C6.78688 17.164 9.21045 17.5667 11.9683 17.5667C14.7262 17.5667 17.1498 17.164 18.5367 16.5562M21.5999 6.29301C21.5999 8.24635 17.3018 9.82985 11.9999 9.82985C6.69797 9.82985 2.3999 8.24635 2.3999 6.29301C2.3999 4.33966 6.69797 2.75616 11.9999 2.75616C17.3018 2.75616 21.5999 4.33966 21.5999 6.29301Z" stroke="#2C2920" stroke-width="1.5" stroke-linecap="square"/>
</svg>
