<svg width="24" height="24" viewBox="0 0 24 24" fill="none" xmlns="http://www.w3.org/2000/svg">
<path d="M20.9815 7.37503C20.9677 7.2148 20.6101 6.90708 20.4587 6.85219C20.307 6.79697 20.1371 6.83456 20.023 6.94809L17.7334 9.23769L14.7595 6.26374L17.0949 3.93712C17.2092 3.82337 17.2464 3.65413 17.1914 3.50324C17.1358 3.35205 16.7691 3.03175 16.6079 3.01787C15.1896 2.89613 13.7999 3.40061 12.7951 4.40174C11.419 5.77278 11.0546 7.77488 11.6999 9.48143C11.6294 9.54063 11.5598 9.60336 11.4911 9.671L3.69554 16.9993C3.69279 17.002 3.69008 17.0049 3.6871 17.0075C2.77031 17.9209 2.77031 19.407 3.6871 20.3206C4.60404 21.2339 6.08488 21.2228 7.00152 20.3094C7.00547 20.3057 7.00909 20.302 7.0127 20.2979L14.3045 12.4712C14.371 12.4047 14.4327 12.3351 14.4909 12.2637C16.2044 12.9077 18.2153 12.5455 19.5926 11.1736C20.5972 10.1724 21.1039 8.78782 20.9815 7.37503Z" stroke="#2C2920" stroke-width="1.5" stroke-linecap="square" stroke-linejoin="round"/>
</svg>
