<svg width="24" height="24" viewBox="0 0 24 24" fill="none" xmlns="http://www.w3.org/2000/svg">
<path d="M15.7123 9.34835L16.2426 8.81802L15.182 7.75736L14.6517 8.28769L15.7123 9.34835ZM8.28769 14.6517L7.75736 15.182L8.81802 16.2426L9.34835 15.7123L8.28769 14.6517ZM14.6517 15.7123L15.182 16.2426L16.2426 15.182L15.7123 14.6517L14.6517 15.7123ZM9.34835 8.28769L8.81802 7.75736L7.75736 8.81802L8.28769 9.34835L9.34835 8.28769ZM21 12H20.25C20.25 16.5563 16.5563 20.25 12 20.25V21V21.75C17.3848 21.75 21.75 17.3848 21.75 12H21ZM12 21V20.25C7.44365 20.25 3.75 16.5563 3.75 12H3H2.25C2.25 17.3848 6.61522 21.75 12 21.75V21ZM3 12H3.75C3.75 7.44365 7.44365 3.75 12 3.75V3V2.25C6.61522 2.25 2.25 6.61522 2.25 12H3ZM12 3V3.75C16.5563 3.75 20.25 7.44365 20.25 12H21H21.75C21.75 6.61522 17.3848 2.25 12 2.25V3ZM15.182 8.81802L14.6517 8.28769L11.4697 11.4697L12 12L12.5303 12.5303L15.7123 9.34835L15.182 8.81802ZM12 12L11.4697 11.4697L8.28769 14.6517L8.81802 15.182L9.34835 15.7123L12.5303 12.5303L12 12ZM15.182 15.182L15.7123 14.6517L12.5303 11.4697L12 12L11.4697 12.5303L14.6517 15.7123L15.182 15.182ZM12 12L12.5303 11.4697L9.34835 8.28769L8.81802 8.81802L8.28769 9.34835L11.4697 12.5303L12 12Z" fill="#2C2920"/>
</svg>
