<svg width="24" height="24" viewBox="0 0 24 24" fill="none" xmlns="http://www.w3.org/2000/svg">
<path d="M14.8132 12.5902L14.3596 11.9929L14.3492 12.0008L14.3391 12.0091L14.8132 12.5902ZM14.8132 11.5867L14.3245 12.1556L14.3577 12.1841L14.3939 12.2086L14.8132 11.5867ZM11.3661 8.62535L11.8548 8.05645L11.834 8.03853L11.8118 8.02219L11.3661 8.62535ZM10.6434 9.06767L11.3935 9.0658L11.3933 9.05455L10.6434 9.06767ZM10.6579 14.8847L9.90787 14.8866L9.90792 14.9048L9.90884 14.923L10.6579 14.8847ZM11.407 15.3695L11.8139 15.9996L11.8489 15.977L11.8812 15.9506L11.407 15.3695ZM12 19V18.25C10.4004 18.25 8.67927 18.2494 7.23633 18.1246C6.51486 18.0622 5.8903 17.9708 5.40041 17.8421C4.8858 17.707 4.62791 17.5575 4.5284 17.4543L3.98851 17.9749L3.44863 18.4955C3.84338 18.9048 4.43631 19.1398 5.01933 19.2929C5.62709 19.4526 6.34699 19.5533 7.10708 19.6191C8.62727 19.7506 10.4176 19.75 12 19.75V19ZM3 12H2.25C2.25 13.6295 2.24852 14.9243 2.37979 15.9369C2.51351 16.9683 2.79672 17.8194 3.44863 18.4955L3.98851 17.9749L4.5284 17.4543C4.1918 17.1052 3.98075 16.6188 3.86734 15.744C3.75148 14.8504 3.75 13.6704 3.75 12H3ZM21 12H20.25C20.25 13.6704 20.2485 14.8504 20.1327 15.744C20.0192 16.6188 19.8082 17.1052 19.4716 17.4543L20.0115 17.9749L20.5514 18.4955C21.2033 17.8194 21.4865 16.9683 21.6202 15.9369C21.7515 14.9243 21.75 13.6295 21.75 12H21ZM12 19V19.75C13.5824 19.75 15.3727 19.7506 16.8929 19.6191C17.653 19.5533 18.3729 19.4526 18.9807 19.2929C19.5637 19.1398 20.1566 18.9048 20.5514 18.4955L20.0115 17.9749L19.4716 17.4543C19.3721 17.5575 19.1142 17.707 18.5996 17.8421C18.1097 17.9708 17.4851 18.0622 16.7637 18.1246C15.3207 18.2494 13.5996 18.25 12 18.25V19ZM12 5V5.75C13.5996 5.75 15.3207 5.75055 16.7637 5.87535C17.4851 5.93775 18.1097 6.02919 18.5996 6.15787C19.1142 6.29304 19.3721 6.44253 19.4716 6.54573L20.0115 6.02513L20.5514 5.50452C20.1566 5.09516 19.5637 4.86023 18.9807 4.70708C18.3729 4.54744 17.653 4.44667 16.8929 4.38093C15.3727 4.24945 13.5824 4.25 12 4.25V5ZM21 12H21.75C21.75 10.3705 21.7515 9.07567 21.6202 8.06312C21.4865 7.03171 21.2033 6.18058 20.5514 5.50452L20.0115 6.02513L19.4716 6.54573C19.8082 6.8948 20.0192 7.38119 20.1327 8.25598C20.2485 9.14962 20.25 10.3296 20.25 12H21ZM12 5V4.25C10.4176 4.25 8.62727 4.24945 7.10708 4.38093C6.34699 4.44667 5.62709 4.54744 5.01933 4.70708C4.43631 4.86023 3.84338 5.09516 3.44863 5.50452L3.98851 6.02513L4.5284 6.54573C4.62791 6.44253 4.8858 6.29304 5.40041 6.15787C5.8903 6.02919 6.51486 5.93775 7.23633 5.87535C8.67927 5.75055 10.4004 5.75 12 5.75V5ZM3 12H3.75C3.75 10.3296 3.75148 9.14962 3.86734 8.25598C3.98075 7.38119 4.1918 6.8948 4.5284 6.54573L3.98851 6.02513L3.44863 5.50452C2.79672 6.18058 2.51351 7.03171 2.37979 8.06312C2.24852 9.07567 2.25 10.3705 2.25 12H3ZM14.8132 12.5902L15.2668 13.1874C15.5707 12.9567 15.8938 12.5849 15.8932 12.0731C15.8926 11.547 15.5529 11.1809 15.2325 10.9648L14.8132 11.5867L14.3939 12.2086C14.4469 12.2443 14.4509 12.2588 14.4382 12.24C14.4218 12.2156 14.3933 12.1573 14.3932 12.0748C14.3931 11.9943 14.4202 11.9438 14.4277 11.9319C14.4327 11.9241 14.4195 11.9474 14.3596 11.9929L14.8132 12.5902ZM14.8132 11.5867L15.3019 11.0178L11.8548 8.05645L11.3661 8.62535L10.8774 9.19425L14.3245 12.1556L14.8132 11.5867ZM11.3661 8.62535L11.8118 8.02219C11.4939 7.78724 10.9916 7.61908 10.5084 7.88232C10.0267 8.14472 9.88618 8.66077 9.89353 9.08079L10.6434 9.06767L11.3933 9.05455C11.391 8.92379 11.4332 9.08665 11.2259 9.19956C11.0171 9.31332 10.8809 9.19939 10.9203 9.22851L11.3661 8.62535ZM10.6434 9.06767L9.89342 9.06953L9.90787 14.8866L10.6579 14.8847L11.4079 14.8829L11.3934 9.0658L10.6434 9.06767ZM10.6579 14.8847L9.90884 14.923C9.92678 15.2745 10.0261 15.8045 10.4868 16.0915C10.9974 16.4097 11.525 16.1861 11.8139 15.9996L11.407 15.3695L11.0002 14.7394C10.9476 14.7734 10.9471 14.7616 10.994 14.754C11.0532 14.7445 11.1658 14.7472 11.28 14.8184C11.3858 14.8843 11.4202 14.9637 11.4235 14.9718C11.4258 14.9775 11.4118 14.9433 11.4069 14.8465L10.6579 14.8847ZM11.407 15.3695L11.8812 15.9506L15.2874 13.1713L14.8132 12.5902L14.3391 12.0091L10.9329 14.7884L11.407 15.3695Z" fill="#2C2920"/>
</svg>
