<svg width="24" height="24" viewBox="0 0 24 24" fill="none" xmlns="http://www.w3.org/2000/svg">
<path d="M17.4484 16.5011L16.9094 15.9796L15.8664 17.0577L16.4055 17.5791L17.4484 16.5011ZM19.8786 20.9391L20.4177 21.4606L21.4606 20.3825L20.9216 19.8611L19.8786 20.9391ZM10.6501 14.4001V15.1501H12.1501V14.4001H10.6501ZM12.1501 8.4001V7.6501H10.6501V8.4001H12.1501ZM8.4001 10.6501H7.6501V12.1501H8.4001V10.6501ZM14.4001 12.1501H15.1501V10.6501H14.4001V12.1501ZM19.2801 11.4401H18.5301C18.5301 15.3558 15.3558 18.5301 11.4401 18.5301V19.2801V20.0301C16.1842 20.0301 20.0301 16.1842 20.0301 11.4401H19.2801ZM11.4401 19.2801V18.5301C7.5244 18.5301 4.3501 15.3558 4.3501 11.4401H3.6001H2.8501C2.8501 16.1842 6.69597 20.0301 11.4401 20.0301V19.2801ZM3.6001 11.4401H4.3501C4.3501 7.5244 7.5244 4.3501 11.4401 4.3501V3.6001V2.8501C6.69597 2.8501 2.8501 6.69597 2.8501 11.4401H3.6001ZM11.4401 3.6001V4.3501C15.3558 4.3501 18.5301 7.5244 18.5301 11.4401H19.2801H20.0301C20.0301 6.69597 16.1842 2.8501 11.4401 2.8501V3.6001ZM16.927 17.0401L16.4055 17.5791L19.8786 20.9391L20.4001 20.4001L20.9216 19.8611L17.4484 16.5011L16.927 17.0401ZM11.4001 14.4001H12.1501V11.4001H11.4001H10.6501V14.4001H11.4001ZM11.4001 11.4001H12.1501V8.4001H11.4001H10.6501V11.4001H11.4001ZM8.4001 11.4001V12.1501H11.4001V11.4001V10.6501H8.4001V11.4001ZM11.4001 11.4001V12.1501H14.4001V11.4001V10.6501H11.4001V11.4001Z" fill="#2C2920"/>
</svg>
