<svg width="178" height="112" viewBox="0 0 178 112" fill="none" xmlns="http://www.w3.org/2000/svg">
<path d="M152.431 69.0295C151.104 40.2909 133.861 37.1982 112.65 37.1982C91.4392 37.1982 74.1808 40.2909 75.0709 69.0295C75.78 91.4622 86.8229 97.8285 102.648 99.4578L102.754 107.408C102.844 110.289 105.786 112.205 108.456 111.089L127.887 99.2918C142.354 97.4212 152.778 90.7532 152.431 69.0295Z" fill="#E27242"/>
<path d="M129.184 58.439H116.829V52.2689C116.829 50.5642 115.441 49.1763 113.736 49.1763C112.031 49.1763 110.643 50.5642 110.643 52.2689V58.439H98.2881C96.5834 58.439 95.1954 59.8269 95.1954 61.5316C95.1954 63.2363 96.5834 64.6242 98.2881 64.6242H121.204C120.449 69.8741 117.779 74.6564 113.706 78.0507C111.337 76.0594 109.406 73.6003 108.079 70.7944C107.385 69.2405 105.56 68.5315 104.006 69.2405C102.452 69.9345 101.743 71.7599 102.452 73.3137C102.467 73.359 102.497 73.4042 102.512 73.4495C103.945 76.4214 105.907 79.1218 108.305 81.3998C105.56 82.5614 102.603 83.1648 99.6308 83.1648C97.9713 83.1648 96.6438 84.5225 96.6438 86.1669C96.6438 86.1971 96.6438 86.2122 96.6438 86.2423C96.6891 87.9621 98.1222 89.335 99.842 89.335C104.745 89.335 109.572 88.0225 113.796 85.5333C118.066 88.0074 122.908 89.3199 127.856 89.335C129.516 89.335 130.843 87.9772 130.843 86.3329C130.843 86.3027 130.843 86.2876 130.843 86.2574C130.798 84.5376 129.365 83.1648 127.645 83.1648C124.749 83.1648 121.898 82.5614 119.242 81.4149C123.844 76.9343 126.74 71.0056 127.464 64.6393H129.184C130.889 64.6393 132.277 63.2514 132.277 61.5467C132.277 59.842 130.889 58.4541 129.184 58.4541V58.439Z" fill="#EBE8D7"/>
<path d="M175.302 71.7445C177.112 71.7445 177.716 70.8695 177.716 69.4816V68.9687C177.716 67.6562 177.052 66.7812 175.302 66.7812H164.032C162.222 66.7812 161.619 67.6562 161.619 69.0441V69.5571C161.619 70.8695 162.283 71.7445 164.032 71.7445H175.302Z" fill="#E27242"/>
<path d="M169.373 86.2425C170.851 87.2834 171.847 86.9063 172.647 85.7597L172.948 85.3373C173.702 84.2662 173.672 83.1649 172.239 82.1693L163.007 75.6974C161.528 74.6565 160.532 75.0337 159.733 76.1802L159.431 76.6026C158.677 77.6737 158.707 78.775 160.14 79.7706L169.373 86.2425Z" fill="#E27242"/>
<path d="M172.239 56.3424C173.718 55.3015 173.702 54.2454 172.903 53.0989L172.601 52.6765C171.847 51.6054 170.806 51.2584 169.373 52.2692L160.14 58.741C158.662 59.782 158.677 60.838 159.476 61.9845L159.778 62.4069C160.533 63.478 161.573 63.825 163.007 62.8142L172.239 56.3424Z" fill="#E27242"/>
<path d="M25.4232 31.9182C26.7508 3.17953 43.9939 0.0869141 65.2047 0.0869141C86.4155 0.0869141 103.674 3.17953 102.784 31.9182C102.075 54.3509 91.0318 60.7172 75.2067 62.3465L75.1012 70.2967C75.0107 73.1781 72.0689 75.094 69.3987 73.9777L49.968 62.1805C35.5006 60.3099 25.0762 53.6419 25.4232 31.9182Z" fill="#3A362A"/>
<path d="M82.3726 47.8639L76.6249 35.2069L66.9246 13.8754C66.5626 13.0608 65.8837 12.5026 65.0993 12.231C65.0993 12.231 65.0842 12.231 65.0691 12.231C64.9936 12.2009 64.9031 12.1858 64.8277 12.1556C64.7975 12.1556 64.7674 12.1556 64.7523 12.1405C64.692 12.1405 64.6166 12.1104 64.5562 12.1104C64.5109 12.1104 64.4807 12.1104 64.4354 12.1104C64.3751 12.1104 64.3298 12.1104 64.2695 12.1104C64.2242 12.1104 64.179 12.1104 64.1187 12.1104C64.0734 12.1104 64.0282 12.1104 63.9678 12.1104C63.9075 12.1104 63.8472 12.1104 63.8019 12.1104C63.7567 12.1104 63.7264 12.1104 63.6811 12.1104C63.6057 12.1104 63.5455 12.1254 63.4852 12.1405C63.455 12.1405 63.4247 12.1405 63.4097 12.1556C63.3191 12.1707 63.2437 12.2009 63.1682 12.231C63.1682 12.231 63.1531 12.231 63.138 12.231C62.3536 12.4875 61.6898 13.0608 61.3127 13.8754L51.6124 35.1918L45.8647 47.8639C45.1557 49.4178 45.8648 51.2432 47.4035 51.9522C47.7958 52.1333 48.2332 52.2389 48.6707 52.2389C49.8776 52.2389 50.9788 51.5298 51.4767 50.4286L56.2741 39.8835H71.9483L76.7456 50.4286C77.2434 51.5298 78.3446 52.2389 79.5515 52.2389C79.989 52.2389 80.4266 52.1483 80.8189 51.9522C82.3727 51.2432 83.0665 49.4178 82.3575 47.8639H82.3726ZM59.08 33.6983L64.1187 22.6252L69.1573 33.6983H59.08Z" fill="#EBE8D7"/>
<path d="M2.55317 29.6543C0.742866 29.6543 0.139282 30.5293 0.139282 31.9172V32.4301C0.139282 33.7426 0.803209 34.6176 2.55317 34.6176H13.8223C15.6326 34.6176 16.236 33.7426 16.236 32.3547V31.8418C16.236 30.5293 15.5723 29.6543 13.8223 29.6543H2.55317Z" fill="#3A362A"/>
<path d="M5.61552 45.0575C4.1371 46.0984 4.15228 47.1544 4.95183 48.3009L5.25348 48.7233C6.00777 49.7944 7.04872 50.1414 8.48188 49.1307L17.7145 42.6588C19.1929 41.6179 19.1779 40.5619 18.3783 39.4153L18.0765 38.9929C17.3222 37.9218 16.2813 37.5748 14.8481 38.5856L5.61552 45.0575Z" fill="#3A362A"/>
<path d="M8.46669 15.1574C6.98827 14.1165 5.99271 14.4936 5.19316 15.6401L4.89133 16.0625C4.13704 17.1336 4.16717 18.2349 5.60033 19.2306L14.8331 25.7024C16.3115 26.7434 17.307 26.3662 18.1066 25.2197L18.4084 24.7973C19.1627 23.7262 19.1324 22.6249 17.6993 21.6292L8.46669 15.1574Z" fill="#3A362A"/>
</svg>