<svg width="133" height="113" viewBox="0 0 133 113" fill="none" xmlns="http://www.w3.org/2000/svg">
<path d="M14.2737 63.569C-3.70866 81.5514 3.59292 105.9 47.5382 109.37C74.4665 111.497 118.578 107.65 129.847 67.4762C129.847 67.4762 98.6945 39.688 70.2425 39.688C41.7904 39.688 14.2587 63.5841 14.2587 63.5841L14.2737 63.569Z" fill="#3A362A" stroke="#3A362A" stroke-width="4.86" stroke-linecap="round" stroke-linejoin="round"/>
<path d="M66.3956 8.11377C40.5383 10.8745 15.6013 29.8526 14.2737 63.5847C14.2737 63.5847 27.2627 69.785 46.7084 73.0586C43.4197 50.1582 52.9389 26.5337 66.3805 8.12886L66.3956 8.11377Z" fill="#CFDAE6" stroke="#CFDAE6" stroke-width="4.86" stroke-linecap="round" stroke-linejoin="round"/>
<path d="M77.5742 7.96311C76.0354 7.82733 74.5118 7.73682 72.973 7.73682C70.7856 7.73682 68.583 7.87259 66.3956 8.09888C52.954 26.5188 43.4348 50.1282 46.7235 73.0286C53.6631 74.1902 61.4323 74.9898 69.7295 74.9898C77.016 74.9898 84.1215 74.5825 90.7744 73.964C90.6235 51.1541 85.6603 28.6006 77.5893 7.94802L77.5742 7.96311Z" fill="#E27242" stroke="#E27242" stroke-width="4.86" stroke-linecap="round" stroke-linejoin="round"/>
<path d="M77.5742 7.96289C85.6452 28.6155 90.6084 51.1689 90.7593 73.9788C112.936 71.9271 129.847 67.4617 129.847 67.4617C129.847 33.624 104.08 10.3917 77.5742 7.96289Z" fill="#CFDAE6" stroke="#CFDAE6" stroke-width="4.86" stroke-linecap="round" stroke-linejoin="round"/>
<path d="M71.1476 13.2277C76.8798 13.2277 81.5267 10.7691 81.5267 7.73639C81.5267 4.70364 76.8798 2.24512 71.1476 2.24512C65.4154 2.24512 60.7685 4.70364 60.7685 7.73639C60.7685 10.7691 65.4154 13.2277 71.1476 13.2277Z" fill="#3A362A" stroke="#3A362A" stroke-width="3.43" stroke-linecap="round" stroke-linejoin="round"/>
<path d="M11.332 64.9268C-6.6504 82.9092 3.59293 105.9 47.5382 109.37C74.4665 111.497 117.326 112.462 128.595 72.2887C128.595 72.2887 89.0093 78.0515 60.5724 78.0515C32.1355 78.0515 11.332 64.9418 11.332 64.9418V64.9268Z" fill="#3A362A" stroke="#3A362A" stroke-width="4.86" stroke-miterlimit="10" stroke-linecap="round"/>
</svg>