<svg width="574" height="575" viewBox="0 0 574 575" fill="none" xmlns="http://www.w3.org/2000/svg">
<mask id="mask0_127_6860" style="mask-type:luminance" maskUnits="userSpaceOnUse" x="51" y="51" width="472" height="473">
<path d="M228.088 59.2973L228.071 59.3016C102.35 91.9084 26.8089 220.476 59.3461 346.466L59.3504 346.483C91.8876 472.473 220.182 548.175 345.903 515.569L345.92 515.564C471.641 482.958 547.182 354.39 514.645 228.4L514.641 228.383C482.103 102.393 353.809 26.6906 228.088 59.2973Z" fill="white"/>
</mask>
<g mask="url(#mask0_127_6860)">
<path d="M401.187 533.14C400.962 466.712 361.668 419.99 361.668 419.99L286.13 427.994L210.54 420.511C210.54 420.511 171.558 467.493 171.8 533.939C172.008 593.005 186.96 633.095 285.905 633.251C285.905 633.251 285.922 633.251 285.939 633.251C286.251 633.251 286.546 633.251 286.857 633.251C287.169 633.251 287.464 633.251 287.758 633.251C287.758 633.251 287.776 633.251 287.793 633.251C386.738 632.418 401.412 592.224 401.222 533.157L401.187 533.14Z" fill="#8C745F"/>
<path d="M378.785 451.537C402.001 453.551 434.105 510.273 445.349 528.417C462.64 556.301 468.738 598.022 449.854 612.468C435.145 623.719 410.699 611.617 390.515 591.529C403.786 560.607 406.021 517.131 379.045 476.504" fill="#8C745F"/>
<path d="M436.219 620.073C423.901 620.073 407.441 613.11 388.158 593.925C387.188 592.953 386.894 591.477 387.448 590.21C402.954 554.079 398.779 512.253 376.256 478.379C375.234 476.834 375.65 474.75 377.192 473.726C378.733 472.701 380.813 473.118 381.835 474.663C405.155 509.787 409.832 553.002 394.482 590.748C419.968 615.385 439.077 616.496 447.809 609.829C464.909 596.738 459.106 557.013 442.491 530.223C441.416 528.487 440.152 526.403 438.714 524.042C426.465 503.849 397.791 456.589 378.491 454.905C376.637 454.749 375.286 453.117 375.442 451.276C375.598 449.436 377.226 448.064 379.063 448.221C401.759 450.183 429.531 495.967 444.448 520.552C445.869 522.896 447.116 524.962 448.191 526.681C466.347 555.971 472.342 599.516 451.881 615.177C447.913 618.215 442.629 620.107 436.219 620.107V620.073Z" fill="#3A362A"/>
<path d="M193.838 452.162C170.639 454.332 138.934 511.281 127.794 529.494C110.694 557.499 104.89 599.256 123.861 613.579C138.64 624.726 162.999 612.468 183.044 592.241C169.565 561.406 167.036 517.948 193.734 477.146" fill="#8C745F"/>
<path d="M137.34 621.097C131.034 621.097 125.802 619.257 121.869 616.271C101.304 600.749 106.986 557.169 124.953 527.74C126.009 526.004 127.257 523.938 128.643 521.594C143.387 496.905 170.847 450.929 193.526 448.811C195.363 448.655 197.008 449.992 197.182 451.85C197.355 453.707 196.004 455.339 194.15 455.513C174.849 457.319 146.505 504.787 134.395 525.049C132.974 527.41 131.727 529.511 130.67 531.265C114.246 558.159 108.719 597.936 125.905 610.906C134.689 617.521 153.782 616.271 179.094 591.46C163.501 553.836 167.867 510.569 190.962 475.289C191.984 473.744 194.046 473.309 195.605 474.316C197.147 475.341 197.58 477.424 196.575 478.97C174.295 513.017 170.397 554.843 186.146 590.887C186.7 592.154 186.423 593.63 185.453 594.602C166.187 614.031 149.693 621.08 137.34 621.08V621.097Z" fill="#3A362A"/>
<path d="M475.287 303.141C535.285 396.967 416.087 442.318 379.167 451.433C379.097 451.45 379.028 451.485 378.959 451.502C377.503 451.85 376.031 452.197 374.558 452.509C335.056 461.277 286.442 459.42 286.442 459.42H285.974C285.974 459.42 237.376 461.607 197.805 453.117C196.333 452.805 194.86 452.475 193.405 452.127C193.336 452.127 193.266 452.093 193.197 452.058C156.207 443.186 36.7149 398.652 96.0714 304.426C116.862 202.909 191.794 164.677 281.833 163.392C282.873 163.323 283.912 163.271 284.952 163.253C376.568 162.941 453.475 200.305 475.253 303.02V303.124L475.287 303.141Z" fill="#8C745F"/>
<mask id="mask1_127_6860" style="mask-type:luminance" maskUnits="userSpaceOnUse" x="79" y="163" width="413" height="297">
<path d="M475.287 303.141C535.285 396.967 416.087 442.318 379.167 451.433C379.097 451.45 379.028 451.485 378.959 451.502C377.503 451.85 376.031 452.197 374.558 452.509C335.056 461.277 286.442 459.42 286.442 459.42H285.974C285.974 459.42 237.376 461.607 197.805 453.117C196.333 452.805 194.86 452.475 193.405 452.127C193.336 452.127 193.266 452.093 193.197 452.058C156.207 443.186 36.7149 398.652 96.0714 304.426C116.862 202.909 191.794 164.677 281.833 163.392C282.873 163.323 283.912 163.271 284.952 163.253C376.568 162.941 453.475 200.305 475.253 303.02V303.124L475.287 303.141Z" fill="white"/>
</mask>
<g mask="url(#mask1_127_6860)">
<path d="M367.489 493.589L193.422 452.145C23.0452 392.609 95.361 326.963 95.361 326.963C118.577 303.523 151.391 312.239 176.409 331.668C201.426 351.096 218.197 366.74 237.914 369.465C274.851 374.587 285.575 340.8 285.575 340.8C285.575 340.8 296.525 374.501 333.428 369.136C353.127 366.271 369.794 350.506 394.673 330.904C419.552 311.302 452.297 302.378 475.686 325.643C475.686 325.643 539.824 397.245 378.474 451.485L378.075 485.272C378.006 490.811 372.843 494.856 367.455 493.571L367.489 493.589Z" fill="#DBD8C3"/>
</g>
<path d="M271.681 463.014C254.147 463.014 223.534 462.059 197.13 456.399C195.64 456.086 194.15 455.756 192.66 455.409C192.573 455.392 192.365 455.322 192.279 455.305C185.418 453.673 160.522 447.04 134.534 432.508C107.558 417.403 89.713 399.52 81.5355 379.345C72.0759 356.062 75.9221 330.435 92.9355 303.176C106.293 238.797 149.936 161.969 281.712 160.041C282.925 159.955 283.964 159.902 284.969 159.902C334.589 159.729 376.083 170.441 408.169 191.71C444.293 215.653 467.942 252.739 478.458 301.891C495.645 329.029 499.647 354.603 490.343 377.938C482.287 398.148 464.58 416.17 437.709 431.449C411.946 446.103 387.188 452.909 380.05 454.662C379.946 454.697 379.842 454.732 379.738 454.749C378.248 455.114 376.759 455.444 375.269 455.773C335.802 464.524 286.806 462.771 286.303 462.753H285.991C285.87 462.753 280.395 462.996 271.663 462.996L271.681 463.014ZM286.113 166.622C285.731 166.622 285.368 166.622 285.004 166.622C284.034 166.622 283.063 166.674 282.11 166.743C282.041 166.743 281.972 166.743 281.92 166.743C211.389 167.75 122.458 192.578 99.3979 305.103C99.3112 305.503 99.1726 305.885 98.9474 306.215C82.8695 331.737 79.1099 355.489 87.7553 376.792C95.3611 395.509 112.201 412.264 137.825 426.605C157.871 437.838 179.995 445.426 194.029 448.776C194.115 448.794 194.289 448.846 194.358 448.881C195.657 449.176 197.095 449.506 198.551 449.801C237.238 458.1 285.385 456.051 285.87 456.034H286.459C287.083 456.051 335.247 457.77 373.865 449.211C375.303 448.898 376.724 448.568 378.127 448.238L378.318 448.186C392.386 444.714 414.458 436.97 434.434 425.598C459.955 411.083 476.691 394.207 484.158 375.438C492.665 354.082 488.732 330.366 472.481 304.947C472.186 304.496 472.013 303.992 471.961 303.471C447.879 190.53 357.891 166.622 286.113 166.622Z" fill="#3A362A"/>
<path d="M73.9989 397.158C73.15 397.158 72.2837 396.828 71.6427 396.186C70.326 394.884 70.326 392.748 71.6427 391.429C112.132 350.575 145.986 328.403 208.859 328.178C210.713 328.178 212.203 329.671 212.22 331.529C212.22 333.386 210.73 334.897 208.876 334.897C148.342 335.105 115.614 356.582 76.4071 396.151C75.7488 396.811 74.8825 397.141 74.0336 397.141L73.9989 397.158Z" fill="#3A362A"/>
<path d="M141.585 417.003C141.083 417.003 140.58 416.899 140.112 416.656C138.449 415.84 137.756 413.826 138.57 412.159C149.295 390.213 176.097 364.847 203.765 350.506C205.411 349.655 207.438 350.297 208.287 351.947C209.136 353.596 208.495 355.627 206.849 356.478C180.342 370.229 154.752 394.345 144.6 415.128C144.011 416.326 142.832 417.003 141.585 417.003Z" fill="#3A362A"/>
<path d="M498.001 395.7C497.152 395.7 496.286 395.37 495.645 394.727C456.351 355.627 423.606 334.376 363.626 334.376C363.331 334.376 363.037 334.428 362.742 334.376C360.888 334.376 359.398 332.883 359.381 331.025C359.381 329.167 360.871 327.657 362.725 327.657C363.019 327.657 363.331 327.657 363.643 327.657C425.928 327.657 459.799 349.585 500.374 389.953C501.691 391.255 501.691 393.39 500.374 394.71C499.716 395.37 498.85 395.7 498.001 395.7Z" fill="#3A362A"/>
<path d="M430.536 416.014C429.306 416.014 428.111 415.336 427.539 414.156C417.248 393.443 391.485 369.5 364.891 355.94C363.245 355.107 362.586 353.075 363.418 351.426C364.25 349.776 366.277 349.117 367.923 349.95C395.678 364.118 422.653 389.276 433.533 411.169C434.365 412.836 433.689 414.85 432.026 415.684C431.541 415.927 431.039 416.031 430.536 416.031V416.014Z" fill="#3A362A"/>
<path d="M285.662 293.47C260.35 293.557 243.804 299.79 243.856 315.624C243.908 331.459 266.344 343.526 285.835 343.456C305.326 343.387 327.676 331.164 327.624 315.329C327.572 299.495 310.974 293.383 285.662 293.47Z" fill="#3A362A"/>
<path d="M285.662 346.807C275.492 346.807 264.335 343.647 255.776 338.352C245.952 332.258 240.512 324.184 240.495 315.625C240.46 304.061 248.257 290.241 285.645 290.102C285.801 290.102 285.974 290.102 286.13 290.102C306.66 290.102 330.881 294.512 330.95 315.312C331.02 333.247 307.18 346.738 285.818 346.807H285.645H285.662ZM285.662 296.821C260.09 296.908 247.148 303.228 247.2 315.59C247.235 323.889 254.806 329.827 259.31 332.622C266.899 337.327 276.809 340.071 285.818 340.071C303.265 340.019 324.315 328.959 324.263 315.329C324.228 303.037 311.407 296.821 286.199 296.821C286.026 296.821 285.853 296.821 285.679 296.821H285.662Z" fill="#3A362A"/>
<path d="M286.061 347.363C281.833 370.767 261.771 378.163 261.771 378.163C264.906 388.893 273.309 393.251 285.991 393.216C298.673 393.182 307.041 388.754 310.108 377.99C310.108 377.99 288.971 365.871 286.061 347.345V347.363Z" fill="#8C745F"/>
<path d="M285.818 396.567C271.109 396.567 261.944 390.699 258.548 379.101L257.664 376.08L260.61 375.003C261.355 374.726 278.957 367.885 282.769 346.755L286.303 327.205L289.387 346.842C292.003 363.51 311.598 374.969 311.789 375.09L314.058 376.392L313.348 378.927C310.021 390.595 300.822 396.533 286.009 396.585H285.818V396.567ZM265.981 379.917C269.03 386.758 275.267 389.848 285.801 389.848C285.87 389.848 285.922 389.848 285.991 389.848C296.82 389.814 303.143 386.567 306.089 379.414C301.567 376.392 291.726 368.961 286.251 358.318C280.759 370.906 270.953 377.33 265.981 379.917Z" fill="#3A362A"/>
<path d="M285.835 347.311C285.87 359.013 270.884 370.35 270.884 370.35C270.884 370.35 275.839 368.51 279.858 369.309C284.224 370.177 285.922 372.851 285.922 372.851C285.922 372.851 287.603 370.177 291.951 369.274C295.971 368.44 300.943 370.246 300.943 370.246C300.943 370.246 285.87 359.03 285.835 347.311Z" fill="#3A362A"/>
<path d="M285.939 407.853C281.747 407.94 277.259 406.325 273.43 404.624C270.988 403.513 262.342 399.554 267.488 405.058C278.697 416.083 293.458 416.013 304.581 404.919C309.692 399.38 301.064 403.391 298.639 404.52C294.827 406.256 290.357 407.905 286.164 407.853H285.957H285.939Z" fill="#3A362A"/>
<path d="M236.164 383.199C230.013 383.199 223.741 382.504 217.591 381.063C201.444 377.278 189.039 368.111 182.681 355.245C177.674 345.141 177.206 333.994 181.381 324.67C182.143 322.969 184.119 322.222 185.816 322.969C187.514 323.733 188.259 325.712 187.514 327.414C184.17 334.897 184.604 343.96 188.71 352.259C194.167 363.284 204.961 371.184 219.133 374.5C238.555 379.049 259.085 375.629 271.438 365.784C278.697 359.985 282.526 352.259 282.492 343.456C282.492 341.599 283.982 340.088 285.835 340.088C287.689 340.088 289.179 341.581 289.196 343.439C289.231 352.259 293.112 359.951 300.406 365.698C312.828 375.455 333.376 378.737 352.763 374.049C366.918 370.628 377.659 362.659 383.03 351.599C387.084 343.265 387.448 334.202 384.052 326.737C383.29 325.052 384.035 323.056 385.716 322.292C387.396 321.528 389.389 322.257 390.151 323.959C394.378 333.247 393.98 344.411 389.059 354.551C382.788 367.451 370.452 376.705 354.34 380.594C333.029 385.751 310.229 381.983 296.265 370.993C291.691 367.399 288.209 363.163 285.887 358.423C283.6 363.18 280.153 367.434 275.596 371.062C265.703 378.945 251.323 383.216 236.164 383.216V383.199Z" fill="#3A362A"/>
<path d="M313.209 303.107C303.334 297.62 291.934 295.693 291.934 295.693C315.929 296.683 323.431 302.152 323.466 312.673C323.466 312.673 320.884 307.395 313.209 303.107Z" fill="#615E55"/>
<path d="M302.71 166.379C312.811 157.333 317.679 141.481 305.188 137.922C296.577 135.474 289.145 156.517 289.145 156.517C277.952 141.342 269.532 127.279 260.939 135.925C254.788 142.123 254.771 160.753 283.029 171.362" fill="#8C745F"/>
<path d="M283.029 174.747C282.63 174.747 282.232 174.678 281.851 174.539C261.389 166.847 256.105 155.51 254.788 149.45C253.454 143.356 254.91 137.279 258.565 133.581C261.181 130.942 264.075 129.744 267.159 129.97C274.435 130.525 280.568 138.981 288.33 149.711C291.639 142.592 297.928 132.383 306.106 134.71C311.165 136.151 314.543 139.502 315.618 144.172C317.315 151.568 312.932 161.725 304.945 168.896C303.559 170.129 301.445 170.007 300.215 168.636C298.985 167.247 299.107 165.128 300.475 163.896C306.522 158.479 310.229 150.648 309.086 145.7C308.566 143.443 306.99 141.967 304.269 141.186C301.03 140.248 295.33 149.138 292.298 157.68C291.882 158.843 290.86 159.694 289.63 159.885C288.399 160.076 287.169 159.555 286.442 158.565C285.246 156.951 284.085 155.353 282.959 153.791C276.999 145.544 270.832 137.036 266.622 136.706C265.963 136.654 264.889 136.776 263.312 138.356C261.771 139.918 260.315 143.391 261.32 148.061C262.342 152.801 266.691 161.708 284.189 168.288C285.922 168.948 286.806 170.875 286.147 172.612C285.645 173.966 284.363 174.799 283.011 174.799L283.029 174.747Z" fill="#3A362A"/>
<path d="M118.161 259.023C98.0119 241.453 81.3276 251.28 75.8528 267.496C70.6379 282.931 79.4911 300.346 96.8857 304.339" fill="#8C745F"/>
<path d="M96.8857 307.69C96.6431 307.69 96.3833 307.656 96.1407 307.603C86.9929 305.503 79.4911 299.947 75.0385 291.977C70.6898 284.182 69.8236 274.858 72.6649 266.42C76.026 256.471 82.8176 249.44 91.2896 247.148C97.6653 245.412 107.905 245.637 120.344 256.489C121.747 257.704 121.886 259.822 120.673 261.229C119.461 262.635 117.347 262.774 115.944 261.559C107.853 254.51 99.9349 251.766 93.0395 253.641C86.7504 255.343 81.6394 260.795 79.006 268.59C76.771 275.24 77.4467 282.567 80.8771 288.713C84.3942 295.016 90.3367 299.408 97.6307 301.075C99.4325 301.492 100.559 303.298 100.143 305.103C99.779 306.666 98.4103 307.708 96.8857 307.708V307.69Z" fill="#3A362A"/>
<path d="M96.8858 304.339C98.497 287.029 105.15 273.539 105.15 273.539C101.754 268.747 92.6411 260.117 84.2729 272.132" fill="#8C745F"/>
<path d="M96.8857 307.69C96.7818 307.69 96.6778 307.69 96.5739 307.69C94.7374 307.516 93.3687 305.884 93.5419 304.027C94.8587 289.946 99.3286 278.435 101.252 273.99C99.2246 271.629 96.366 269.389 93.6286 269.389H93.6112C91.3763 269.389 89.1586 270.969 87.0103 274.059C85.9535 275.587 83.8571 275.952 82.3498 274.893C80.8252 273.834 80.4613 271.733 81.5182 270.222C85.0006 265.239 89.0547 262.704 93.5939 262.687H93.6286C100.992 262.687 106.397 269.51 107.87 271.611C108.58 272.618 108.684 273.938 108.147 275.049C108.078 275.171 101.737 288.227 100.212 304.669C100.056 306.405 98.5836 307.725 96.8857 307.725V307.69Z" fill="#3A362A"/>
<path d="M452.903 257.878C472.931 240.168 489.685 249.874 495.281 266.055C500.6 281.456 491.85 298.922 474.491 303.037" fill="#8C745F"/>
<path d="M474.491 306.405C472.966 306.405 471.597 305.364 471.233 303.818C470.8 302.013 471.926 300.207 473.728 299.773C481.005 298.054 486.913 293.627 490.395 287.289C493.791 281.126 494.415 273.782 492.128 267.149C489.442 259.371 484.297 253.971 477.99 252.304C471.095 250.481 463.177 253.277 455.138 260.378C453.752 261.611 451.638 261.472 450.408 260.083C449.178 258.694 449.317 256.576 450.703 255.343C463.073 244.405 473.295 244.109 479.705 245.794C488.212 248.033 495.038 255.013 498.469 264.944C501.379 273.365 500.582 282.688 496.268 290.519C491.868 298.523 484.418 304.131 475.27 306.301C475.01 306.371 474.75 306.388 474.491 306.388V306.405Z" fill="#3A362A"/>
<path d="M474.49 303.037C472.758 285.727 466.018 272.288 466.018 272.288C469.38 267.479 478.423 258.781 486.895 270.743" fill="#8C745F"/>
<path d="M474.49 306.405C472.793 306.405 471.337 305.121 471.164 303.384C469.518 286.96 463.09 273.938 463.021 273.816C462.467 272.705 462.571 271.386 463.264 270.379C464.736 268.278 470.107 261.385 477.488 261.368H477.522C482.044 261.368 486.116 263.868 489.615 268.816C490.69 270.327 490.326 272.427 488.819 273.504C487.311 274.58 485.215 274.216 484.141 272.705C481.975 269.632 479.74 268.087 477.522 268.087C474.785 268.087 471.944 270.361 469.917 272.74C471.874 277.167 476.431 288.644 477.834 302.725C478.025 304.565 476.673 306.215 474.837 306.405C474.716 306.405 474.612 306.405 474.49 306.405Z" fill="#3A362A"/>
<mask id="mask2_127_6860" style="mask-type:luminance" maskUnits="userSpaceOnUse" x="163" y="259" width="45" height="52">
<path d="M207.3 287.759C204.909 298.558 191.915 313.611 177.136 309.583C166.707 306.736 162.098 289.912 163.345 281.335C165.892 273.4 179.389 253.642 193.647 261.16C207.23 268.313 207.282 282.533 207.3 287.742V287.759Z" fill="white"/>
</mask>
<g mask="url(#mask2_127_6860)">
<path d="M184.482 330.175C208.222 330.175 227.466 310.889 227.466 287.099C227.466 263.309 208.222 244.023 184.482 244.023C160.743 244.023 141.498 263.309 141.498 287.099C141.498 310.889 160.743 330.175 184.482 330.175Z" fill="#3A362A"/>
<path d="M165.806 279.807C165.806 279.807 168.093 300.607 180.827 301.475C193.561 302.361 201.738 296.579 201.738 296.579C201.738 296.579 201.219 302.881 196.402 306.354C191.586 309.826 186.613 314.913 175.872 310.573C165.113 306.232 161.855 291.561 162.289 287.255C162.722 282.949 165.788 279.79 165.788 279.79L165.806 279.807Z" fill="#615E55"/>
<path d="M200.889 278.731C201.756 275.71 199.295 270.327 195.449 269.407C192.66 268.73 190.858 272.637 192.088 275.085C193.907 278.679 200.023 281.769 200.889 278.748V278.731Z" fill="#EBE8D7"/>
</g>
<path d="M182.074 313.611C180.116 313.611 178.176 313.351 176.253 312.83C163.241 309.288 158.72 289.842 160.036 280.849L160.158 280.31C162.323 273.539 170.154 261.646 180.082 257.583C185.227 255.482 190.46 255.691 195.207 258.191C210.574 266.299 210.626 282.446 210.643 287.741V288.123L210.557 288.488C209.05 295.294 203.575 304.531 194.774 309.861C190.667 312.344 186.353 313.611 182.057 313.611H182.074ZM166.637 282.099C165.719 289.426 169.686 304.062 178.02 306.336C182.421 307.534 186.908 306.788 191.326 304.097C197.944 300.103 202.622 292.724 203.939 287.359C203.921 281.96 203.592 270.188 192.088 264.129C189.056 262.531 185.955 262.41 182.611 263.781C174.971 266.907 168.352 277.046 166.62 282.081L166.637 282.099Z" fill="#3A362A"/>
<mask id="mask3_127_6860" style="mask-type:luminance" maskUnits="userSpaceOnUse" x="363" y="258" width="46" height="52">
<path d="M363.972 287.22C366.45 298.002 379.548 312.969 394.292 308.836C404.704 305.919 409.191 289.061 407.892 280.501C405.293 272.584 391.658 252.93 377.451 260.534C363.92 267.792 363.972 281.994 363.99 287.22H363.972Z" fill="white"/>
</mask>
<g mask="url(#mask3_127_6860)">
<path d="M394.43 329.463C418.17 329.463 437.414 310.177 437.414 286.387C437.414 262.597 418.17 243.311 394.43 243.311C370.691 243.311 351.446 262.597 351.446 286.387C351.446 310.177 370.691 329.463 394.43 329.463Z" fill="#3A362A"/>
<path d="M405.415 278.973C405.415 278.973 403.266 299.791 390.532 300.745C377.798 301.718 369.586 296.006 369.586 296.006C369.586 296.006 370.14 302.308 374.991 305.746C379.842 309.184 384.832 314.236 395.556 309.826C406.281 305.416 409.451 290.727 408.966 286.422C408.498 282.116 405.415 278.973 405.415 278.973Z" fill="#615E55"/>
<path d="M370.313 278.14C369.43 275.119 371.855 269.737 375.684 268.782C378.474 268.087 380.31 271.994 379.08 274.424C377.278 278.018 371.197 281.161 370.313 278.14Z" fill="#EBE8D7"/>
</g>
<path d="M389.215 312.899C384.971 312.899 380.691 311.666 376.62 309.236C367.784 303.975 362.257 294.756 360.698 287.967L360.611 287.22C360.594 281.907 360.542 265.76 375.84 257.565C380.587 255.031 385.802 254.77 390.965 256.854C400.927 260.864 408.845 272.705 411.045 279.459L411.166 279.998C412.535 288.991 408.135 308.454 395.158 312.083C393.183 312.639 391.19 312.899 389.198 312.899H389.215ZM367.316 286.821C368.668 292.186 373.415 299.513 380.05 303.471C384.503 306.128 388.99 306.84 393.373 305.607C401.69 303.28 405.57 288.609 404.583 281.282C402.816 276.247 396.128 266.16 388.47 263.087C385.127 261.732 382.025 261.871 378.993 263.486C367.524 269.632 367.282 281.387 367.299 286.804L367.316 286.821Z" fill="#3A362A"/>
<path d="M187.618 234.977C204.788 230.307 199.417 216.452 185.747 221.539C172.077 226.626 165.65 243.033 173.706 240.064C181.762 237.095 187.618 234.977 187.618 234.977Z" fill="#3A362A"/>
<path d="M383.29 234.3C366.086 229.734 371.37 215.861 385.075 220.861C398.779 225.862 405.311 242.217 397.237 239.3C389.163 236.383 383.29 234.3 383.29 234.3Z" fill="#3A362A"/>
</g>
<path d="M493.34 114.361C491.833 81.477 472.134 77.9351 447.896 77.9351C423.658 77.9351 403.959 81.477 404.981 114.361C405.796 140.04 418.408 147.332 436.479 149.19L436.6 158.288C436.687 161.587 440.065 163.774 443.114 162.507L465.308 148.999C481.836 146.846 493.739 139.224 493.34 114.361Z" fill="#E27242"/>
<path d="M466.781 102.26H452.678V95.1933C452.678 93.2487 451.101 91.6514 449.143 91.6514C447.186 91.6514 445.609 93.2313 445.609 95.1933V102.26H431.506C429.566 102.26 427.972 103.84 427.972 105.802C427.972 107.764 429.549 109.344 431.506 109.344H457.685C456.819 115.351 453.769 120.82 449.126 124.709C446.406 122.435 444.223 119.605 442.698 116.41C441.901 114.622 439.822 113.823 438.038 114.622C436.253 115.42 435.456 117.504 436.253 119.292C436.271 119.344 436.305 119.396 436.323 119.448C437.969 122.851 440.204 125.942 442.941 128.546C439.805 129.883 436.427 130.578 433.031 130.56C431.142 130.56 429.618 132.106 429.618 133.998C429.618 134.033 429.618 134.05 429.618 134.085C429.67 136.064 431.298 137.627 433.273 137.627C438.887 137.627 444.379 136.116 449.213 133.286C454.098 136.116 459.625 137.627 465.273 137.627C467.162 137.627 468.686 136.082 468.686 134.189C468.686 134.154 468.686 134.137 468.686 134.102C468.634 132.123 467.006 130.56 465.031 130.56C461.739 130.56 458.464 129.866 455.433 128.564C460.682 123.442 464.009 116.653 464.823 109.361H466.798C468.738 109.361 470.332 107.781 470.332 105.819C470.332 103.857 468.756 102.277 466.798 102.277L466.781 102.26Z" fill="#EBE8D7"/>
<path d="M519.467 117.469C521.528 117.469 522.221 116.462 522.221 114.865V114.275C522.221 112.764 521.476 111.774 519.467 111.774H506.594C504.532 111.774 503.839 112.781 503.839 114.379V114.969C503.839 116.48 504.584 117.469 506.594 117.469H519.467Z" fill="#E27242"/>
<path d="M512.693 134.068C514.373 135.248 515.517 134.831 516.435 133.512L516.781 133.026C517.648 131.793 517.596 130.543 515.967 129.397L505.416 122.001C503.735 120.82 502.592 121.237 501.674 122.556L501.327 123.042C500.461 124.275 500.513 125.525 502.141 126.671L512.693 134.068Z" fill="#E27242"/>
<path d="M515.967 99.8464C517.648 98.6657 517.648 97.4504 516.729 96.1308L516.383 95.6447C515.517 94.412 514.339 94.03 512.693 95.1759L502.142 102.572C500.461 103.753 500.461 104.968 501.379 106.288L501.726 106.774C502.592 108.007 503.77 108.389 505.416 107.243L515.967 99.8464Z" fill="#E27242"/>
<path d="M348.276 71.8929C349.783 39.0087 369.482 35.4668 393.72 35.4668C417.958 35.4668 437.657 39.0087 436.635 71.8929C435.82 97.5718 423.208 104.864 405.137 106.722L405.016 115.82C404.929 119.118 401.551 121.306 398.502 120.039L376.308 106.531C359.78 104.378 347.877 96.7557 348.276 71.8929Z" fill="#3A362A"/>
<path d="M413.332 90.1404L406.766 75.6603L395.695 51.2489C395.279 50.3287 394.5 49.6689 393.616 49.3738C393.616 49.3738 393.599 49.3738 393.581 49.3738C393.495 49.339 393.391 49.3217 393.304 49.287C393.27 49.287 393.235 49.287 393.218 49.2696C393.148 49.2696 393.062 49.2349 392.992 49.2349C392.94 49.2349 392.906 49.2349 392.854 49.2349C392.784 49.2349 392.732 49.2349 392.663 49.2349C392.611 49.2349 392.559 49.2349 392.49 49.2349C392.438 49.2349 392.386 49.2349 392.317 49.2349C392.247 49.2349 392.195 49.2349 392.126 49.2349C392.074 49.2349 392.039 49.2349 391.987 49.2349C391.918 49.2349 391.832 49.2522 391.762 49.2696C391.728 49.2696 391.693 49.2696 391.676 49.287C391.572 49.3043 391.485 49.339 391.398 49.3738C391.398 49.3738 391.381 49.3738 391.364 49.3738C390.48 49.6689 389.7 50.3287 389.285 51.2489L378.214 75.6429L371.648 90.1404C370.851 91.9114 371.648 94.0122 373.415 94.8283C373.865 95.0366 374.368 95.1408 374.87 95.1582C376.256 95.1582 377.503 94.3421 378.075 93.092L383.55 81.0252H401.447L406.922 93.092C407.494 94.3595 408.758 95.1582 410.127 95.1582C410.629 95.1582 411.115 95.054 411.582 94.8283C413.35 94.0296 414.146 91.9288 413.35 90.1404H413.332ZM386.738 73.9241L392.49 61.2496L398.242 73.9241H386.738Z" fill="#EBE8D7"/>
<path d="M322.149 69.3062C320.087 69.3062 319.394 70.3132 319.394 71.9105V72.5008C319.394 74.0113 320.139 75.001 322.149 75.001H335.022C337.084 75.001 337.777 73.994 337.777 72.3966V71.8063C337.777 70.2958 337.032 69.3062 335.022 69.3062H322.149Z" fill="#3A362A"/>
<path d="M325.666 86.9287C323.986 88.1093 323.986 89.3247 324.904 90.6442L325.25 91.1304C326.117 92.3631 327.295 92.7451 328.941 91.5991L339.492 84.2028C341.172 83.0222 341.172 81.8068 340.254 80.4873L339.908 80.0011C339.041 78.7684 337.863 78.3864 336.217 79.5323L325.666 86.9287Z" fill="#3A362A"/>
<path d="M328.923 52.7078C327.243 51.5271 326.099 51.9438 325.181 53.2634L324.835 53.7495C323.968 54.9822 324.02 56.2323 325.649 57.3782L336.2 64.7746C337.88 65.9552 339.024 65.5385 339.942 64.219L340.289 63.7328C341.155 62.5001 341.103 61.25 339.474 60.1041L328.923 52.7078Z" fill="#3A362A"/>
</svg>
