<svg width="120" height="129" viewBox="0 0 120 129" fill="none" xmlns="http://www.w3.org/2000/svg">
<path d="M115.269 0.532227H4.84043C2.32425 0.532227 0.284454 2.57199 0.284454 5.08817V124.433C0.284454 126.949 2.32425 128.989 4.84043 128.989H115.269C117.785 128.989 119.825 126.949 119.825 124.433V5.08817C119.825 2.57199 117.785 0.532227 115.269 0.532227Z" fill="#CFDAE6"/>
<path d="M112.192 8.52783H7.88773V107.899H112.192V8.52783Z" fill="#3A362A"/>
<path d="M91.2072 58.5076C101.013 74.0612 81.4014 81.4986 75.3217 82.9921C75.3217 82.9921 75.3067 82.9921 75.2916 82.9921C75.0502 83.0524 74.8088 83.0977 74.5674 83.158C68.0654 84.5912 60.085 84.2442 60.085 84.2442H60.0096C60.0096 84.2442 52.0291 84.5761 45.5271 83.158C45.2857 83.1128 45.0443 83.0524 44.803 82.9921C44.803 82.9921 44.7879 82.9921 44.7728 82.9921C38.6931 81.4986 19.0815 74.0612 28.8874 58.5076C32.3571 41.717 44.6974 35.4413 59.4966 35.2753C59.6626 35.2753 59.8436 35.2603 60.0096 35.2603C75.0653 35.2603 87.6771 41.4907 91.2072 58.4926V58.5076Z" fill="#EBE8D7"/>
<path d="M25.2064 73.8343C25.0707 73.8343 24.9198 73.774 24.8142 73.6684C24.603 73.4572 24.603 73.1102 24.8142 72.8839C31.4973 66.1405 37.0639 62.4897 47.3978 62.4897C47.6995 62.4897 47.9559 62.7311 47.9559 63.0479C47.9559 63.3647 47.7146 63.6061 47.3978 63.6061C37.4561 63.6061 32.0555 67.1362 25.5987 73.6684C25.4931 73.774 25.3422 73.8343 25.2064 73.8343Z" fill="#3A362A"/>
<path d="M36.3096 77.153C36.2341 77.153 36.1437 77.1379 36.0682 77.0927C35.7967 76.9569 35.6759 76.625 35.8117 76.3534C37.5918 72.7328 42.012 68.554 46.5529 66.1855C46.8244 66.0498 47.1564 66.1554 47.2922 66.4269C47.4279 66.6985 47.3223 67.0304 47.0507 67.1661C42.6909 69.429 38.4669 73.3966 36.7923 76.8362C36.7018 77.0323 36.5057 77.153 36.2945 77.153H36.3096Z" fill="#3A362A"/>
<path d="M94.8882 73.8343C94.7525 73.8343 94.6016 73.774 94.496 73.6684C88.0241 67.1513 82.6385 63.6061 72.6968 63.6061C72.3951 63.6061 72.1387 63.3647 72.1387 63.0479C72.1387 62.7311 72.38 62.4897 72.6968 62.4897C83.0307 62.4897 88.6125 66.1405 95.2805 72.8839C95.4917 73.0951 95.4917 73.4572 95.2805 73.6684C95.1749 73.774 95.0391 73.8343 94.8882 73.8343Z" fill="#3A362A"/>
<path d="M83.7849 77.153C83.5737 77.153 83.3776 77.0323 83.2871 76.8362C81.6126 73.3966 77.3885 69.429 73.0287 67.1661C72.7572 67.0304 72.6515 66.6985 72.7873 66.4269C72.9231 66.1554 73.2549 66.0498 73.5265 66.1855C78.0824 68.5389 82.5026 72.7177 84.2676 76.3534C84.4034 76.625 84.2827 76.9569 84.0112 77.0927C83.9358 77.1379 83.8453 77.153 83.7699 77.153H83.7849Z" fill="#3A362A"/>
<path d="M65.2897 57.1352C64.0677 56.5468 62.3026 56.2451 60.0397 56.2451C53.8997 56.2451 52.6024 58.5231 52.6024 60.439C52.6024 63.4109 56.5247 65.6286 60.0397 65.6286C63.5547 65.6286 67.477 63.4109 67.477 60.439C67.477 58.9757 66.7228 57.8291 65.2897 57.1352Z" fill="#3A362A"/>
<path d="M65.0482 32.1069C64.8672 31.3375 64.3241 30.7794 63.4944 30.538C62.1518 30.1458 61.1108 31.8354 60.5677 33.0121C59.3005 31.232 58.2898 29.829 57.098 29.7384C56.5851 29.6932 56.1174 29.9044 55.6799 30.3268C55.0765 30.9302 54.835 31.941 55.0462 32.9517C55.2574 33.9474 56.1324 35.8181 59.4815 37.1004C59.5418 37.1305 59.6173 37.1305 59.6776 37.1305C59.9039 37.1305 60.1152 36.9948 60.1906 36.7685C60.2358 36.6629 60.2359 36.5422 60.2057 36.4366L62.3781 35.8935C62.3931 35.984 62.4383 36.0594 62.4987 36.1349C62.7099 36.3612 63.0569 36.3762 63.2832 36.1801C64.5956 35.0034 65.3348 33.3138 65.0482 32.0918V32.1069Z" fill="#EBE8D7"/>
<path d="M32.5382 50.9943C29.2344 48.0676 26.4887 49.6969 25.5836 52.3671C24.6784 55.0373 26.1719 57.798 29.0231 58.4769" fill="#EBE8D7"/>
<path d="M29.0231 58.4921C29.2946 55.6257 30.396 53.393 30.396 53.393C29.8378 52.5935 28.3443 51.1603 26.9714 53.1517" fill="#EBE8D7"/>
<path d="M87.5564 50.9943C90.8602 48.0676 93.6059 49.6969 94.5111 52.3671C95.4162 55.0373 93.9227 57.798 91.0714 58.4769" fill="#EBE8D7"/>
<path d="M91.0714 58.4921C90.7999 55.6257 89.6987 53.393 89.6987 53.393C90.2568 52.5935 91.7503 51.1603 93.1231 53.1517" fill="#EBE8D7"/>
<path d="M45.2103 50.9037C44.4259 50.4812 43.581 50.4511 42.7362 50.783C41.0919 51.4467 39.7945 53.423 39.4324 54.5394V54.6299C39.191 56.1234 39.9302 59.3367 42.0573 59.925C42.3741 60.0155 42.7061 60.0608 43.0229 60.0608C43.7168 60.0608 44.4258 59.8647 45.0896 59.4574C46.553 58.5824 47.4581 57.0587 47.7146 55.9273V55.8669V55.8066C47.7146 54.9316 47.7146 52.2614 45.1952 50.9187L45.2103 50.9037Z" fill="#3A362A"/>
<path d="M80.6924 54.6302V54.5397C80.3152 53.4233 79.0178 51.4471 77.3734 50.7833C76.5286 50.4363 75.6688 50.4816 74.8994 50.904C72.3801 52.2466 72.38 54.9168 72.38 55.7918V55.9125C72.6516 57.0439 73.5567 58.5676 75.02 59.4426C75.6838 59.8499 76.3929 60.046 77.0869 60.046C77.4188 60.046 77.7355 60.0008 78.0523 59.9103C80.1945 59.3219 80.9187 56.0935 80.7075 54.6151L80.6924 54.6302Z" fill="#3A362A"/>
</svg>