<svg xmlns="http://www.w3.org/2000/svg" width="171" height="173" viewBox="0 0 171 173" fill="none">
  <path d="M97.7899 0.959961L105.936 38.9161L138.718 18.2937L154.272 34.0735L129.606 68.8767L166.536 88.1565L170.866 95.9258L128.625 104.54L150.379 141.319L142.263 146.826L104.579 131.619L97.0809 172.562L77.8765 171.355L63.3337 141.772L30.3559 148.048L26.4789 143.25L40.3126 105.852L0.108643 98.6563L4.28747 85.079L35.0024 65.7539L16.3713 34.677L30.8688 24.494L66.381 39.4139L87.9237 6.69261L97.7899 0.959961Z" fill="#CFDAE6"/>
  <path d="M94.2261 93.8583C95.3313 94.0964 95.404 94.1133 95.4087 94.1152V94.1171L95.4058 94.1318C95.4041 94.139 95.4022 94.1475 95.3999 94.1572C95.3953 94.1767 95.3889 94.2014 95.3814 94.2304C95.3663 94.2887 95.3446 94.366 95.3159 94.4589C95.2587 94.6446 95.1718 94.8962 95.0444 95.1914C94.7906 95.7794 94.3706 96.5574 93.6978 97.3359C92.3138 98.9371 89.9674 100.412 86.2036 100.412C82.4438 100.412 80.0438 98.9417 78.5982 97.371C77.8921 96.6039 77.4345 95.8363 77.1509 95.2548C77.0087 94.9633 76.9081 94.7146 76.8413 94.5312C76.8079 94.4394 76.7822 94.3631 76.7642 94.3056C76.7551 94.2769 76.7483 94.2526 76.7427 94.2333C76.7399 94.2237 76.7379 94.2151 76.7358 94.208C76.7349 94.2044 76.7337 94.2011 76.7329 94.1982L76.7319 94.1943L76.731 94.1923C76.731 94.1923 76.7626 94.182 78.1782 93.7978L76.731 94.1904C76.5141 93.3909 76.9862 92.5675 77.7857 92.3505C78.5848 92.1338 79.4072 92.6054 79.6245 93.4042V93.3994L79.6235 93.3945L79.6265 93.4052C79.632 93.4228 79.6433 93.4571 79.6607 93.5048C79.6957 93.6011 79.7558 93.7521 79.8472 93.9394C80.0312 94.3167 80.3349 94.8278 80.8052 95.3388C81.7129 96.3251 83.3261 97.412 86.2036 97.4121C89.0777 97.4121 90.6021 96.3298 91.4282 95.374C91.8602 94.8741 92.1305 94.3736 92.2905 94.0029C92.37 93.8188 92.4198 93.6701 92.4487 93.5761C92.4632 93.5293 92.4728 93.496 92.4771 93.4794V93.4814C92.6517 92.6721 93.4489 92.157 94.2583 92.331C95.068 92.5054 95.5838 93.3035 95.4097 94.1132L94.2261 93.8583ZM93.8677 93.7822C93.8923 93.7875 93.9174 93.7923 93.9429 93.7978C94.044 93.8196 94.1384 93.8395 94.2261 93.8583L93.8677 93.7822Z" fill="#3A362A"/>
  <path d="M75.1309 87.1152C77.2472 87.1152 78.9627 84.3797 78.9627 81.0054C78.9627 77.6311 77.2472 74.8956 75.1309 74.8956C73.0146 74.8956 71.299 77.6311 71.299 81.0054C71.299 84.3797 73.0146 87.1152 75.1309 87.1152Z" fill="#3A362A"/>
  <path d="M96.9904 87.1152C99.1066 87.1152 100.822 84.3797 100.822 81.0054C100.822 77.631 99.1066 74.8956 96.9904 74.8956C94.8741 74.8956 93.1585 77.631 93.1585 81.0054C93.1585 84.3797 94.8741 87.1152 96.9904 87.1152Z" fill="#3A362A"/>
</svg>