<svg width="459" height="673" viewBox="0 0 459 673" fill="none" xmlns="http://www.w3.org/2000/svg">
<path d="M88.4666 435.101C50.8644 457.27 16.7988 502.842 7.15634 541.036C-1.63531 575.875 8.40752 639.359 81.5434 653.481C101.712 657.387 125.502 664.699 143.369 668.254C155.997 670.775 152.544 654.75 138.597 648.557C84.296 624.468 61.808 605.638 74.7536 569.03C89.4842 527.364 149.858 501.223 159.234 469.022C168.609 436.82 126.069 412.916 88.4666 435.084V435.101Z" fill="#8C745F"/>
<path d="M145.787 672.061C144.837 672.061 143.786 671.96 142.668 671.727C134.11 670.024 124.384 667.52 114.107 664.866C102.93 661.978 91.3693 658.99 80.8594 656.97C51.248 651.244 29.2438 637.339 15.4641 615.654C-0.801245 590.064 -1.26835 559.883 3.70302 540.168C13.8793 499.854 48.7623 454.382 86.6482 432.046C111.121 417.623 136.178 422.131 150.158 433.014C162.019 442.246 166.691 456.084 162.637 470.023C157.866 486.399 141.317 500.789 123.8 516.013C104.965 532.389 85.4971 549.316 78.1067 570.216C65.7284 605.221 88.2163 622.315 140.032 645.301C151.026 650.176 156.297 660.175 154.312 666.452C153.395 669.34 150.709 672.044 145.804 672.044L145.787 672.061ZM118.845 430.01C109.887 430.01 100.044 432.38 90.2516 438.156C54.4344 459.273 20.1686 503.877 10.5762 541.904C5.95515 560.183 6.38889 588.161 21.4365 611.848C34.1318 631.83 54.5678 644.667 82.1939 649.992C92.9208 652.062 104.582 655.084 115.876 657.988C126.052 660.609 135.678 663.096 144.052 664.766C144.369 664.832 147.205 665.367 147.539 664.315C148.307 661.861 144.953 655.251 137.146 651.795C83.6453 628.057 57.3204 607.658 71.4004 567.845C79.408 545.176 99.6104 527.631 119.129 510.654C135.845 496.115 151.626 482.393 155.814 468.037C159.083 456.819 155.43 446.102 145.804 438.607C139.198 433.465 129.656 430.01 118.845 430.01Z" fill="#3A362A"/>
<path d="M135.027 493.176V590.68C135.027 590.68 120.597 600.079 120.597 618.942C120.597 640.626 139.281 642.963 164.422 644.048C201.357 645.517 223.377 630.911 223.377 613.166V507.014C223.377 507.014 200.005 480.889 135.027 493.176Z" fill="#8C745F"/>
<path d="M169.326 647.688C167.658 647.688 165.99 647.654 164.272 647.588C143.218 646.686 117.044 645.551 117.044 618.942C117.044 602.082 127.387 592.15 131.474 588.894V493.176C131.474 491.473 132.692 490.004 134.36 489.687C200.539 477.167 224.996 503.526 226.013 504.644C226.597 505.295 226.914 506.13 226.914 507.014V613.166C226.914 620.328 223.861 627.055 218.056 632.614C207.996 642.296 190.413 647.688 169.31 647.688H169.326ZM138.564 496.131V590.664C138.564 591.866 137.963 592.984 136.946 593.635C136.429 593.969 124.134 602.316 124.134 618.925C124.134 635.535 136.612 639.274 164.555 640.476C185.959 641.328 203.676 636.587 213.134 627.472C217.505 623.266 219.807 618.308 219.807 613.133V508.484C217.739 506.631 212.017 502.157 201.79 498.601C189.879 494.445 169.36 490.739 138.547 496.114L138.564 496.131Z" fill="#3A362A"/>
<path d="M327.393 493.176V590.681C327.393 590.681 341.823 600.079 341.823 618.943C341.823 640.627 323.138 642.964 297.998 644.049C261.063 645.518 239.042 630.912 239.042 613.167V507.015C239.042 507.015 262.414 480.89 327.393 493.176Z" fill="#8C745F"/>
<path d="M293.11 647.688C272.007 647.688 254.424 642.296 244.364 632.614C238.575 627.039 235.506 620.311 235.506 613.167V507.015C235.506 506.147 235.823 505.296 236.406 504.645C237.424 503.509 261.881 477.168 328.06 489.687C329.728 490.005 330.946 491.474 330.946 493.176V588.895C335.033 592.167 345.376 602.083 345.376 618.943C345.376 645.552 319.201 646.687 298.165 647.588C296.463 647.655 294.778 647.688 293.11 647.688ZM242.596 508.517V613.167C242.596 618.342 244.898 623.3 249.269 627.506C258.744 636.621 276.444 641.328 297.865 640.51C332.447 639.025 338.27 632.664 338.27 618.959C338.27 602.333 325.958 594.003 325.441 593.653C324.456 593.001 323.839 591.883 323.839 590.681V496.148C293.027 490.773 272.507 494.495 260.596 498.635C250.386 502.207 244.664 506.664 242.579 508.517H242.596Z" fill="#3A362A"/>
<path d="M135.394 534.292C135.394 534.292 150.625 565.007 222.844 556.21L223.761 507.9L137.847 483.027L135.394 534.309V534.292Z" fill="#3A362A"/>
<path d="M328.844 534.292C328.844 534.292 313.613 565.007 241.395 556.21L240.477 507.9L326.392 483.027L328.844 534.309V534.292Z" fill="#3A362A"/>
<path d="M352.5 426.253C352.5 356.109 311.127 306.647 311.127 306.647L231.218 314.827L151.309 306.647C151.309 306.647 109.937 356.109 109.937 426.253C109.937 488.619 125.618 530.986 230.234 531.521C230.234 531.521 230.251 531.537 230.267 531.521C230.601 531.521 230.901 531.521 231.235 531.521C231.552 531.521 231.869 531.521 232.203 531.521C232.203 531.521 232.219 531.521 232.236 531.521C336.852 531.003 352.533 488.619 352.533 426.253H352.5Z" fill="#8C745F"/>
<path d="M229.734 536.462L228.766 535.694C178.819 535.26 146.705 525.461 127.787 504.912C108.385 483.845 105.766 453.33 105.766 426.27C105.766 355.424 146.388 306.046 148.123 303.976L149.541 302.273L231.235 310.62L312.912 302.273L314.33 303.976C316.065 306.046 356.687 355.424 356.687 426.27C356.687 453.347 354.068 483.845 334.666 504.912C315.732 525.461 283.635 535.26 233.687 535.694L232.72 536.462L231.218 535.727L229.734 536.479V536.462ZM231.452 527.164L232.52 527.331C279.964 527.047 311.361 517.866 328.51 499.236C342.39 484.162 348.329 462.328 348.329 426.237C348.329 365.624 316.265 320.202 309.259 311.004L231.202 318.983L230.785 318.933L153.161 310.987C146.154 320.185 114.091 365.591 114.091 426.22C114.091 462.311 120.013 484.129 133.91 499.219C151.059 517.832 182.455 527.03 229.884 527.314L231.051 527.08H231.202H231.385L231.469 527.147L231.452 527.164Z" fill="#3A362A"/>
<path d="M329.111 340.017C353.651 342.22 387.383 402.232 399.211 421.429C417.395 450.943 423.684 494.996 403.665 510.187C388.083 522.005 362.276 509.152 341.006 487.868C355.152 455.266 357.671 409.377 329.294 366.375" fill="#8C745F"/>
<path d="M389.351 518.166C376.322 518.166 358.889 510.771 338.503 490.372C337.469 489.337 337.185 487.784 337.752 486.449C354.285 448.355 350.014 404.185 326.325 368.328C325.241 366.692 325.691 364.489 327.326 363.42C328.961 362.335 331.163 362.786 332.247 364.422C356.787 401.598 361.575 447.237 345.209 487.033C372.068 513.125 392.271 514.393 401.529 507.365C419.663 493.61 413.658 451.644 396.191 423.299C395.057 421.462 393.722 419.242 392.221 416.755C379.342 395.404 349.197 345.392 328.794 343.555C326.842 343.389 325.407 341.652 325.574 339.699C325.758 337.746 327.509 336.311 329.428 336.478C353.417 338.631 382.612 387.058 398.293 413.082C399.778 415.553 401.112 417.757 402.23 419.576C421.331 450.575 427.504 496.565 405.817 513.024C401.63 516.196 396.074 518.166 389.351 518.166Z" fill="#3A362A"/>
<path d="M375.255 462.795C388.234 494.145 372.469 502.274 361.975 502.274C348.93 502.274 340.188 486.866 346.494 472.861" fill="#8C745F"/>
<path d="M361.975 505.813C355.052 505.813 348.796 502.274 344.809 496.097C340.138 488.853 339.554 479.621 343.258 471.391C344.058 469.605 346.16 468.804 347.945 469.605C349.73 470.407 350.531 472.51 349.73 474.296C347.028 480.322 347.412 487.033 350.765 492.241C353.417 496.348 357.504 498.718 361.975 498.718C363.911 498.718 370.483 498.301 374.12 492.859C378.057 486.966 377.307 477.034 371.968 464.147C371.217 462.344 372.085 460.257 373.887 459.506C375.705 458.755 377.774 459.623 378.524 461.426C384.897 476.817 385.398 488.719 380.009 496.798C376.239 502.441 369.499 505.813 361.975 505.813Z" fill="#3A362A"/>
<path d="M133.559 340.017C109.019 342.22 75.2874 402.232 63.4595 421.429C45.2756 450.943 38.9864 494.996 59.0053 510.187C74.5867 522.005 100.394 509.152 121.665 487.868C107.518 455.266 104.999 409.377 133.376 366.375" fill="#8C745F"/>
<path d="M73.3189 518.166C66.5959 518.166 61.0406 516.196 56.8533 513.024C35.1661 496.565 41.3386 450.559 60.44 419.576C61.5578 417.757 62.8923 415.57 64.3771 413.082C80.0586 387.058 109.253 338.631 133.242 336.478C135.161 336.311 136.912 337.746 137.096 339.699C137.263 341.652 135.828 343.372 133.876 343.555C113.474 345.392 83.3117 395.404 70.4495 416.755C68.9481 419.259 67.6135 421.462 66.4791 423.299C49.0126 451.644 43.0236 493.61 61.1407 507.365C70.3995 514.393 90.6019 513.141 117.461 487.033C101.095 447.237 105.883 401.598 130.423 364.422C131.507 362.786 133.693 362.335 135.344 363.42C136.979 364.505 137.43 366.709 136.345 368.328C112.673 404.185 108.402 448.355 124.918 486.449C125.502 487.784 125.201 489.337 124.167 490.372C103.798 510.754 86.3646 518.149 73.3189 518.166Z" fill="#3A362A"/>
<path d="M87.4156 462.795C74.4367 494.145 90.2016 502.274 100.695 502.274C113.741 502.274 122.482 486.866 116.176 472.861" fill="#8C745F"/>
<path d="M100.678 505.813C93.1544 505.813 86.4146 502.441 82.6444 496.798C77.256 488.736 77.7565 476.833 84.1292 461.426C84.8799 459.623 86.9652 458.755 88.7669 459.506C90.5686 460.257 91.4361 462.327 90.6854 464.147C85.347 477.034 84.6129 486.966 88.5333 492.859C92.1534 498.284 98.743 498.718 100.678 498.718C105.149 498.718 109.236 496.364 111.889 492.241C115.259 487.033 115.642 480.322 112.923 474.296C112.122 472.51 112.923 470.407 114.708 469.605C116.493 468.804 118.595 469.605 119.396 471.391C123.099 479.621 122.515 488.853 117.844 496.097C113.857 502.274 107.601 505.813 100.678 505.813Z" fill="#3A362A"/>
<path d="M431.691 183.685C494.784 282.959 368.598 330.418 329.528 339.916C329.461 339.933 329.378 339.966 329.311 339.983C327.776 340.35 326.208 340.701 324.657 341.035C282.851 350.149 231.452 348.012 231.452 348.012H230.968C230.968 348.012 179.586 350.149 137.763 341.035C136.212 340.701 134.66 340.35 133.109 339.983C133.042 339.966 132.959 339.933 132.892 339.916C93.8217 330.418 -32.3644 282.976 30.7287 183.685C53.0998 76.5815 132.458 36.4678 227.665 35.4329C228.766 35.3494 229.867 35.2993 230.968 35.2993C327.843 35.2993 409.037 75.0457 431.691 183.568V183.668V183.685Z" fill="#8C745F"/>
<mask id="mask0_2_516" style="mask-type:luminance" maskUnits="userSpaceOnUse" x="13" y="35" width="437" height="314">
<path d="M431.691 183.685C494.784 282.959 368.598 330.418 329.528 339.916C329.461 339.933 329.378 339.966 329.311 339.983C327.776 340.35 326.208 340.701 324.657 341.035C282.851 350.149 231.452 348.012 231.452 348.012H230.968C230.968 348.012 179.586 350.149 137.763 341.035C136.212 340.701 134.66 340.35 133.109 339.983C133.042 339.966 132.959 339.933 132.892 339.916C93.8217 330.418 -32.3644 282.976 30.7287 183.685C53.0998 76.5815 132.458 36.4678 227.665 35.4329C228.766 35.3494 229.867 35.2993 230.968 35.2993C327.843 35.2993 409.037 75.0457 431.691 183.568V183.668V183.685Z" fill="white"/>
</mask>
<g mask="url(#mask0_2_516)">
<path d="M317.016 384.37L133.109 339.966C-46.828 276.482 29.8779 207.456 29.8779 207.456C54.5179 182.8 89.184 192.115 115.559 212.714C141.934 233.314 159.617 249.89 180.454 252.845C219.507 258.37 230.952 222.763 230.952 222.763C230.952 222.763 242.412 258.387 281.449 252.845C302.302 249.89 319.969 233.314 346.344 212.714C372.719 192.115 407.385 182.8 432.025 207.456C432.025 207.456 499.589 283.293 328.794 339.966L328.244 375.639C328.16 381.482 322.672 385.739 316.983 384.37H317.016Z" fill="#DBD8C3"/>
</g>
<path d="M217.572 351.751C199.372 351.751 165.806 350.767 137.013 344.49C135.444 344.156 133.86 343.789 132.291 343.422C132.191 343.405 131.991 343.338 131.908 343.305C124.651 341.552 98.3426 334.474 70.9167 319.016C42.4397 302.974 23.6553 284.027 15.0638 262.71C5.15445 238.104 9.30838 211.062 27.3922 182.333C41.7557 114.391 88.183 33.4463 227.515 31.8938C228.783 31.8103 229.917 31.7603 230.968 31.7603C283.468 31.7603 327.259 43.2118 361.125 65.7976C399.244 91.2213 424.101 130.434 435.045 182.383C453.112 211.095 457.249 238.121 447.339 262.71C438.748 284.027 419.964 302.974 391.487 319.016C364.194 334.407 337.986 341.485 330.446 343.321C330.329 343.355 330.229 343.388 330.129 343.405C328.544 343.789 326.959 344.139 325.391 344.473C283.618 353.571 231.819 351.534 231.302 351.518H230.968C230.851 351.518 225.763 351.718 217.572 351.718V351.751ZM230.968 38.8548C230.051 38.8548 229.05 38.8882 227.915 38.9717C227.848 38.9717 227.782 38.9717 227.698 38.9717C153.111 39.773 58.9887 65.6641 34.1986 184.386C34.1152 184.803 33.9484 185.204 33.7148 185.571C16.632 212.464 12.5615 237.52 21.62 260.039C29.5942 279.821 47.3444 297.582 74.3699 312.823C95.5233 324.742 118.895 332.838 133.709 336.444C133.793 336.461 133.976 336.527 134.06 336.544C135.428 336.861 136.946 337.212 138.481 337.529C179.353 346.426 230.267 344.44 230.785 344.423H231.419C232.069 344.44 283.001 346.443 323.856 337.529C325.374 337.195 326.876 336.861 328.36 336.511L328.56 336.444C343.458 332.821 366.83 324.725 387.983 312.806C415.026 297.566 432.776 279.804 440.733 260.023C449.808 237.503 445.738 212.447 428.638 185.554C428.338 185.087 428.155 184.553 428.105 183.985C402.914 64.0281 306.99 38.8215 230.918 38.8215L230.968 38.8548Z" fill="#3A362A"/>
<path d="M7.03951 281.507C6.13865 281.507 5.22112 281.157 4.53714 280.472C3.1525 279.087 3.1525 276.833 4.53714 275.448C47.4944 232.463 83.3784 209.176 149.858 209.176C151.81 209.176 153.395 210.762 153.395 212.731C153.395 214.701 151.81 216.287 149.858 216.287C85.8474 216.287 51.1646 238.856 9.55856 280.489C8.85789 281.19 7.95704 281.524 7.05619 281.524L7.03951 281.507Z" fill="#3A362A"/>
<path d="M78.4404 302.691C77.9066 302.691 77.3728 302.574 76.8723 302.323C75.1206 301.455 74.4033 299.335 75.2708 297.566C86.6816 274.429 115.125 247.753 144.42 232.696C146.171 231.795 148.307 232.496 149.191 234.232C150.092 235.968 149.391 238.121 147.656 239.006C119.579 253.429 92.437 278.803 81.6268 300.704C81.0095 301.956 79.7583 302.691 78.4404 302.691Z" fill="#3A362A"/>
<path d="M455.38 281.507C454.48 281.507 453.562 281.156 452.878 280.472C411.272 238.839 376.589 216.27 312.579 216.27C310.627 216.27 309.042 214.684 309.042 212.714C309.042 210.745 310.627 209.159 312.579 209.159C379.058 209.159 414.942 232.446 457.9 275.431C459.284 276.816 459.284 279.07 457.9 280.455C457.199 281.156 456.298 281.49 455.397 281.49L455.38 281.507Z" fill="#3A362A"/>
<path d="M383.979 302.691C382.678 302.691 381.41 301.956 380.793 300.704C369.983 278.803 342.824 253.429 314.764 239.006C313.029 238.105 312.328 235.968 313.229 234.232C314.13 232.496 316.265 231.795 318 232.696C347.295 247.753 375.738 274.429 387.149 297.566C388.017 299.319 387.299 301.455 385.548 302.323C385.047 302.574 384.513 302.691 383.979 302.691Z" fill="#3A362A"/>
<path d="M231.218 172.785C204.46 172.785 186.926 179.312 186.926 196.022C186.926 212.731 210.599 225.552 231.218 225.552C251.838 225.552 275.51 212.731 275.51 196.022C275.51 179.312 257.977 172.785 231.218 172.785Z" fill="#3A362A"/>
<path d="M231.218 229.107C208.63 229.107 183.39 214.951 183.39 196.021C183.39 178.243 199.488 169.246 231.218 169.246C262.948 169.246 279.047 178.26 279.047 196.021C279.047 214.951 253.79 229.107 231.218 229.107ZM231.218 176.324C204.176 176.324 190.48 182.951 190.48 196.005C190.48 210.394 212.768 221.996 231.218 221.996C249.669 221.996 271.957 210.394 271.957 196.005C271.957 182.951 258.244 176.324 231.218 176.324Z" fill="#3A362A"/>
<path d="M178.835 267.351C172.246 267.351 165.506 266.583 158.9 265.014C141.834 260.958 128.755 251.242 122.082 237.637C116.827 226.937 116.376 215.168 120.814 205.336C121.615 203.55 123.717 202.765 125.502 203.567C127.287 204.368 128.071 206.471 127.27 208.257C123.7 216.153 124.134 225.719 128.438 234.499C134.16 246.168 145.554 254.548 160.535 258.103C181.054 262.978 202.791 259.439 215.87 249.089C223.578 242.996 227.648 234.85 227.648 225.552C227.648 223.599 229.233 221.996 231.185 221.996C233.137 221.996 234.722 223.582 234.722 225.552C234.722 234.866 238.792 242.996 246.499 249.089C259.595 259.439 281.316 262.978 301.835 258.103C316.799 254.548 328.193 246.168 333.932 234.499C338.236 225.719 338.67 216.153 335.1 208.257C334.299 206.471 335.1 204.368 336.868 203.567C338.653 202.765 340.755 203.567 341.556 205.336C345.994 215.168 345.526 226.937 340.288 237.637C333.615 251.242 320.536 260.958 303.47 265.014C280.915 270.373 256.826 266.316 242.095 254.664C237.274 250.842 233.604 246.368 231.168 241.343C228.733 246.351 225.062 250.842 220.241 254.664C209.831 262.911 194.717 267.351 178.802 267.351H178.835Z" fill="#3A362A"/>
<path d="M260.312 183.051C249.903 177.225 237.841 175.138 237.841 175.138C263.199 176.273 271.123 182.083 271.123 193.184C271.123 193.184 268.42 187.591 260.312 183.051Z" fill="#615E55"/>
<path d="M249.702 38.6713C260.413 29.1562 265.618 12.4296 252.422 8.64029C243.33 6.03616 235.389 28.2214 235.389 28.2214C223.611 12.1626 214.753 -2.72775 205.644 6.38672C199.121 12.9137 199.038 32.5783 228.866 43.8963" fill="#8C745F"/>
<path d="M228.883 47.4354C228.466 47.4354 228.032 47.3686 227.632 47.2017C206.011 39.0053 200.489 27.0196 199.105 20.6095C197.72 14.1659 199.271 7.75572 203.158 3.86621C205.928 1.09515 208.981 -0.173534 212.25 0.0768635C219.924 0.694511 226.38 9.60866 234.521 20.9266C242.596 3.19849 251.554 4.68418 253.406 5.20166C258.761 6.73744 262.314 10.2931 263.432 15.2343C265.2 23.0467 260.529 33.7637 252.055 41.2923C250.587 42.5944 248.351 42.4608 247.05 40.9918C245.749 39.5228 245.882 37.2859 247.35 35.9839C253.773 30.2748 257.71 22.0284 256.526 16.8034C255.975 14.4163 254.324 12.8471 251.454 12.0292C247.984 11.0443 241.979 20.3924 238.742 29.4068C238.292 30.642 237.207 31.5268 235.906 31.7271C234.605 31.9107 233.32 31.3765 232.536 30.3082C231.285 28.6055 230.067 26.9028 228.866 25.2502C222.593 16.5363 216.104 7.52202 211.65 7.15477C210.949 7.10469 209.815 7.22154 208.146 8.89085C206.495 10.5435 204.96 14.1993 206.011 19.1238C207.079 24.1317 211.65 33.5634 230.117 40.5745C231.952 41.2756 232.87 43.3122 232.169 45.1484C231.635 46.5673 230.284 47.4354 228.849 47.4354H228.883Z" fill="#3A362A"/>
<path d="M54.2341 135.809C32.9974 117.18 15.314 127.496 9.45842 144.607C3.90316 160.883 13.1953 179.295 31.5793 183.585" fill="#8C745F"/>
<path d="M31.5794 187.124C31.3125 187.124 31.0456 187.091 30.7786 187.024C21.1028 184.77 13.1953 178.878 8.52426 170.448C3.95327 162.201 3.0691 152.352 6.12199 143.455C9.70871 132.955 16.9155 125.56 25.8907 123.172C32.6471 121.37 43.4573 121.637 56.5864 133.138C58.0545 134.424 58.2046 136.677 56.92 138.146C55.6355 139.615 53.3834 139.765 51.9153 138.48C43.3906 131.002 35.0327 128.08 27.7258 130.033C21.0695 131.803 15.6477 137.545 12.845 145.758C10.4594 152.769 11.1434 160.515 14.7468 167.009C18.4336 173.669 24.7062 178.327 32.4135 180.113C34.3153 180.564 35.4998 182.467 35.066 184.37C34.6823 186.006 33.231 187.107 31.6128 187.107L31.5794 187.124Z" fill="#3A362A"/>
<path d="M31.5793 183.585C33.3477 165.306 40.4377 151.1 40.4377 151.1C36.8677 146.025 27.2586 136.878 18.3668 149.548" fill="#8C745F"/>
<path d="M31.5794 187.124C31.4626 187.124 31.3458 187.124 31.229 187.124C29.2772 186.94 27.8592 185.204 28.0427 183.251C29.4774 168.394 34.2486 156.258 36.3005 151.568C34.1485 149.064 31.129 146.677 28.2429 146.677C25.8907 146.677 23.5384 148.329 21.2529 151.584C20.1185 153.187 17.9165 153.571 16.3149 152.452C14.7134 151.317 14.3297 149.114 15.4641 147.511C19.151 142.253 23.455 139.599 28.2596 139.599C36.067 139.599 41.7724 146.843 43.3405 149.064C44.0912 150.132 44.1913 151.518 43.6241 152.686C43.5574 152.82 36.801 166.591 35.1327 183.936C34.9492 185.772 33.4144 187.141 31.6127 187.141L31.5794 187.124Z" fill="#3A362A"/>
<path d="M408.186 135.809C429.422 117.18 447.106 127.496 452.961 144.607C458.517 160.883 449.225 179.295 430.84 183.585" fill="#8C745F"/>
<path d="M430.841 187.124C429.222 187.124 427.771 186.022 427.387 184.386C426.937 182.483 428.138 180.564 430.04 180.13C437.73 178.344 444.003 173.686 447.706 167.026C451.31 160.532 452.011 152.786 449.608 145.775C446.806 137.562 441.367 131.82 434.728 130.05C427.437 128.097 419.063 131.018 410.538 138.497C409.07 139.782 406.834 139.649 405.533 138.163C404.249 136.694 404.382 134.441 405.867 133.155C418.996 121.637 429.806 121.386 436.563 123.189C445.538 125.593 452.745 132.988 456.331 143.472C459.368 152.369 458.5 162.218 453.929 170.464C449.258 178.911 441.35 184.787 431.675 187.041C431.408 187.107 431.141 187.141 430.874 187.141L430.841 187.124Z" fill="#3A362A"/>
<path d="M430.841 183.585C429.072 165.306 421.982 151.1 421.982 151.1C425.552 146.025 435.161 136.878 444.053 149.548" fill="#8C745F"/>
<path d="M430.841 187.124C429.039 187.124 427.487 185.755 427.32 183.919C425.636 166.558 418.896 152.803 418.829 152.669C418.245 151.501 418.362 150.115 419.113 149.047C420.681 146.827 426.386 139.582 434.194 139.582C438.998 139.582 443.302 142.253 446.989 147.495C448.124 149.097 447.74 151.317 446.138 152.436C444.537 153.554 442.318 153.187 441.2 151.568C438.915 148.313 436.563 146.66 434.21 146.66C431.324 146.66 428.305 149.047 426.153 151.551C428.205 156.225 432.976 168.378 434.411 183.235C434.594 185.188 433.176 186.924 431.224 187.107C431.107 187.107 430.991 187.107 430.874 187.107L430.841 187.124Z" fill="#3A362A"/>
<mask id="mask1_2_516" style="mask-type:luminance" maskUnits="userSpaceOnUse" x="101" y="136" width="48" height="55">
<path d="M148.373 166.474C145.804 177.876 132.008 193.717 116.393 189.411C105.383 186.372 100.561 168.594 101.913 159.53C104.632 151.15 118.979 130.35 134.026 138.346C148.357 145.958 148.357 160.965 148.357 166.474H148.373Z" fill="white"/>
</mask>
<g mask="url(#mask1_2_516)">
<path d="M124.25 211.178C149.348 211.178 169.693 190.82 169.693 165.706C169.693 140.592 149.348 120.234 124.25 120.234C99.153 120.234 78.8075 140.592 78.8075 165.706C78.8075 190.82 99.153 211.178 124.25 211.178Z" fill="#3A362A"/>
<path d="M104.532 157.927C104.532 157.927 106.884 179.895 120.347 180.863C133.81 181.831 142.484 175.772 142.484 175.772C142.484 175.772 141.917 182.432 136.812 186.072C131.708 189.727 126.436 195.086 115.075 190.445C103.714 185.821 100.311 170.33 100.812 165.773C101.312 161.215 104.549 157.91 104.549 157.91L104.532 157.927Z" fill="#615E55"/>
<path d="M141.634 156.925C142.551 153.737 139.965 148.045 135.928 147.06C132.975 146.342 131.057 150.465 132.358 153.036C134.26 156.825 140.733 160.114 141.65 156.925H141.634Z" fill="#EBE8D7"/>
</g>
<path d="M121.698 193.684C119.613 193.684 117.527 193.4 115.475 192.833C101.729 189.043 97.008 168.511 98.4427 159.012L98.5762 158.445C100.895 151.317 109.203 138.78 119.73 134.507C125.168 132.303 130.707 132.537 135.728 135.208C151.943 143.822 151.943 160.865 151.943 166.458V166.858L151.86 167.242C150.242 174.42 144.42 184.152 135.094 189.745C130.773 192.349 126.219 193.651 121.715 193.651L121.698 193.684ZM105.399 160.365C104.398 168.11 108.552 183.568 117.344 186.005C121.998 187.291 126.736 186.506 131.424 183.702C138.431 179.495 143.419 171.749 144.82 166.074C144.82 160.365 144.52 147.945 132.375 141.501C129.172 139.799 125.902 139.665 122.365 141.101C114.274 144.373 107.234 155.039 105.383 160.365H105.399Z" fill="#3A362A"/>
<mask id="mask2_2_516" style="mask-type:luminance" maskUnits="userSpaceOnUse" x="314" y="136" width="47" height="55">
<path d="M314.047 166.474C316.616 177.876 330.412 193.717 346.027 189.411C357.037 186.372 361.859 168.594 360.507 159.53C357.788 151.15 343.441 130.35 328.394 138.346C314.063 145.958 314.063 160.965 314.063 166.474H314.047Z" fill="white"/>
</mask>
<g mask="url(#mask2_2_516)">
<path d="M346.244 211.178C371.341 211.178 391.687 190.82 391.687 165.706C391.687 140.592 371.341 120.234 346.244 120.234C321.146 120.234 300.801 140.592 300.801 165.706C300.801 190.82 321.146 211.178 346.244 211.178Z" fill="#3A362A"/>
<path d="M357.888 157.927C357.888 157.927 355.536 179.895 342.073 180.863C328.61 181.831 319.936 175.772 319.936 175.772C319.936 175.772 320.503 182.432 325.608 186.072C330.712 189.727 335.984 195.086 347.345 190.445C358.706 185.821 362.109 170.33 361.608 165.773C361.125 161.232 357.871 157.91 357.871 157.91L357.888 157.927Z" fill="#615E55"/>
<path d="M320.786 156.925C319.869 153.737 322.455 148.045 326.492 147.06C329.445 146.342 331.363 150.465 330.062 153.036C328.16 156.825 321.687 160.114 320.77 156.925H320.786Z" fill="#EBE8D7"/>
</g>
<path d="M340.722 193.684C336.201 193.684 331.663 192.365 327.343 189.778C318.017 184.186 312.195 174.437 310.577 167.275L310.493 166.891V166.491C310.493 160.882 310.493 143.838 326.709 135.241C331.73 132.57 337.269 132.337 342.707 134.54C353.217 138.797 361.542 151.333 363.86 158.478L363.994 159.046C365.412 168.544 360.691 189.077 346.961 192.866C344.909 193.434 342.824 193.717 340.739 193.717L340.722 193.684ZM317.583 166.057C319.001 171.716 323.973 179.478 330.979 183.685C335.667 186.506 340.405 187.274 345.059 185.988C353.868 183.568 358.005 168.093 357.004 160.348C355.152 155.023 348.112 144.356 340.021 141.084C336.485 139.648 333.215 139.782 330.012 141.484C317.867 147.928 317.567 160.348 317.567 166.057H317.583Z" fill="#3A362A"/>
<path d="M127.77 110.669C145.938 105.795 140.316 91.1549 125.835 96.4801C111.372 101.805 104.515 119.099 113.04 115.994C121.565 112.889 127.77 110.669 127.77 110.669Z" fill="#3A362A"/>
<path d="M334.649 110.669C316.482 105.795 322.104 91.1549 336.585 96.4801C351.048 101.805 357.905 119.099 349.38 115.994C340.855 112.889 334.649 110.669 334.649 110.669Z" fill="#3A362A"/>
</svg>