<svg width="667" height="135" viewBox="0 0 667 135" fill="none" xmlns="http://www.w3.org/2000/svg">
<g clip-path="url(#clip0_127_6857)">
<path d="M58.5195 94.6762C58.3684 110.711 58.8 118.803 60.2243 132.556H27.4875C28.6313 118.782 29.1924 111.421 29.3434 94.6762V49.1343C20.2367 49.1343 11.9931 49.285 0.75 51.1144V23.5869H87.1129V51.1144C75.8698 49.4141 67.4752 49.1343 58.5195 49.1343V94.6762Z" fill="#E27242"/>
<path d="M96.3707 30.8186C96.3707 22.1665 103.773 18.3354 113.591 18.3354C123.41 18.3354 130.381 21.8867 130.381 30.8186C130.381 39.7505 123.691 43.5815 113.591 43.5815C103.492 43.5815 96.3707 39.9011 96.3707 30.8186ZM97.9244 132.556C99.4998 116.952 99.6293 108.429 99.6293 96.5057V88.2841C99.6293 74.5096 99.4782 62.8873 97.7734 50.2535H129.064C128.352 58.3461 128.072 64.5876 128.072 72.8093V109.699C128.072 119.492 128.223 124.464 129.064 132.556H97.9029H97.9244Z" fill="#E27242"/>
<path d="M192.121 132.556C192.833 121.623 192.984 116.802 192.984 105.868V88.6931C192.984 77.0493 191.128 71.2382 183.014 71.2382C175.461 71.2382 172.764 77.9102 172.634 89.6831V132.535H143.048C144.041 121.472 144.192 118.631 144.192 105.847V72.917C144.192 63.8344 143.76 60.0034 143.048 50.2106H172.073C170.088 57.4422 169.225 61.7037 169.095 70.2266H172.375C174.512 56.0432 183.748 47.9507 195.293 47.9507C208.09 47.9507 215.924 55.4621 217.348 70.2266H220.477C222.743 55.4621 231.85 47.9507 245.229 47.9507C264.867 47.9507 270.262 62.8444 270.262 81.5906V105.438C270.262 118.201 270.262 121.472 271.254 132.535H240.805C241.668 121.601 241.798 118.351 241.798 105.847V88.6715C241.798 77.1784 240.093 71.2167 231.547 71.2167C224.016 71.2167 221.297 77.738 221.167 89.6616V132.513H192.142L192.121 132.556Z" fill="#E27242"/>
<path d="M312.774 70.2482C314.911 55.6343 325.01 48.4027 338.821 48.4027C359.322 48.4027 368.709 65.5777 368.709 91.8354C368.709 118.093 358.178 134.558 338.821 134.558C325.01 134.558 314.781 127.455 312.774 112.562H309.365C309.516 120.654 310.228 125.045 312.343 132.578H283.469C284.332 123.646 284.461 116.974 284.461 108.171V43.0435C284.461 35.9411 284.181 28.7094 283.318 20.4878H312.904V50.2967C310.487 57.6789 309.775 62.3493 309.494 70.3127H312.774V70.2482ZM312.062 91.4049C312.062 104.039 315.623 111.83 324.859 111.83C333.254 111.83 336.663 103.888 336.663 91.534C336.663 78.19 332.39 71.2382 324.859 71.2382C315.903 71.2382 312.062 78.19 312.062 91.3834V91.4049Z" fill="#E27242"/>
<path d="M376.953 30.8186C376.953 22.1665 384.355 18.3354 394.174 18.3354C403.993 18.3354 410.963 21.8867 410.963 30.8186C410.963 39.7505 404.273 43.5815 394.174 43.5815C384.074 43.5815 376.953 39.9011 376.953 30.8186ZM378.507 132.556C380.082 116.952 380.212 108.429 380.212 96.5057V88.2841C380.212 74.5096 380.061 62.8873 378.356 50.2535H409.647C408.934 58.3461 408.654 64.5876 408.654 72.8093V109.699C408.654 119.492 408.805 124.464 409.647 132.556H378.485H378.507Z" fill="#E27242"/>
<path d="M423.609 30.8186C423.609 22.1665 431.011 18.3354 440.83 18.3354C450.649 18.3354 457.619 21.8867 457.619 30.8186C457.619 39.7505 450.929 43.5815 440.83 43.5815C430.73 43.5815 423.609 39.9011 423.609 30.8186ZM425.184 132.556C426.76 116.952 426.889 108.429 426.889 96.5057V88.2841C426.889 74.5096 426.738 62.8873 425.033 50.2535H456.324C455.612 58.3461 455.331 64.5876 455.331 72.8093V109.699C455.331 119.492 455.482 124.464 456.324 132.556H425.163H425.184Z" fill="#E27242"/>
<path d="M483.493 57.2053C485.867 6.04593 516.64 0.536133 554.513 0.536133C592.386 0.536133 623.159 6.04593 621.583 57.2053C620.31 97.1513 600.608 108.472 572.359 111.378L572.165 125.54C572.014 130.684 566.749 134.063 561.979 132.083L527.279 111.076C501.448 107.74 482.846 95.8815 483.472 57.1837L483.493 57.2053Z" fill="#3A362A"/>
<path d="M519.553 55.419C519.553 60.4338 515.475 64.5015 510.447 64.5015C505.418 64.5015 501.34 60.4338 501.34 55.419C501.34 50.4042 505.418 46.3364 510.447 46.3364C515.475 46.3364 519.553 50.4042 519.553 55.419ZM552.549 46.3364C547.521 46.3364 543.442 50.4042 543.442 55.419C543.442 60.4338 547.521 64.5015 552.549 64.5015C557.577 64.5015 561.656 60.4338 561.656 55.419C561.656 50.4042 557.577 46.3364 552.549 46.3364ZM594.673 46.3364C589.645 46.3364 585.566 50.4042 585.566 55.419C585.566 60.4338 589.645 64.5015 594.673 64.5015C599.701 64.5015 603.78 60.4338 603.78 55.419C603.78 50.4042 599.701 46.3364 594.673 46.3364Z" fill="#EBE8D7"/>
<path d="M662.456 62.026C665.671 62.026 666.75 60.4764 666.75 57.9798V57.0543C666.75 54.7083 665.585 53.1587 662.456 53.1587H642.343C639.128 53.1587 638.049 54.7083 638.049 57.2049V58.1304C638.049 60.4764 639.214 62.026 642.343 62.026H662.456Z" fill="#3A362A"/>
<path d="M651.881 87.8318C654.514 89.6828 656.305 89.0156 657.73 86.9709L658.269 86.2176C659.607 84.3021 659.542 82.3651 656.996 80.5787L640.509 69.0641C637.876 67.2131 636.085 67.8803 634.661 69.925L634.121 70.6783C632.783 72.5938 632.848 74.5308 635.394 76.3172L651.881 87.8318Z" fill="#3A362A"/>
<path d="M656.974 34.6279C659.607 32.777 659.607 30.9045 658.161 28.8598L657.622 28.1065C656.284 26.191 654.428 25.5884 651.86 27.3748L635.373 38.8894C632.74 40.7403 632.74 42.6343 634.186 44.6575L634.725 45.4107C636.063 47.3263 637.919 47.9289 640.487 46.1425L656.974 34.6279Z" fill="#3A362A"/>
</g>
<defs>
<clipPath id="clip0_127_6857">
<rect width="666" height="134" fill="white" transform="translate(0.75 0.536133)"/>
</clipPath>
</defs>
</svg>
