<svg width="457" height="272" viewBox="0 0 457 272" fill="none" xmlns="http://www.w3.org/2000/svg">
<g clip-path="url(#clip0_127_6858)">
<path d="M57.9096 232.042C57.7589 248.116 58.1896 256.228 59.6112 270.015H26.9367C28.0783 256.206 28.6383 248.828 28.789 232.042V186.389C19.6996 186.389 11.4718 186.54 0.25 188.374V160.779H86.4487V188.374C75.2269 186.669 66.8483 186.389 57.9096 186.389V232.042Z" fill="#E27242"/>
<path d="M95.6888 168.028C95.6888 159.355 103.077 155.515 112.877 155.515C122.677 155.515 129.634 159.075 129.634 168.028C129.634 176.982 122.957 180.822 112.877 180.822C102.797 180.822 95.6888 177.133 95.6888 168.028ZM97.2396 270.015C98.812 254.373 98.9412 245.829 98.9412 233.876V225.634C98.9412 211.826 98.7904 200.176 97.0889 187.511H128.32C127.609 195.623 127.329 201.88 127.329 210.122V247.102C127.329 256.919 127.48 261.903 128.32 270.015H97.2181H97.2396Z" fill="#E27242"/>
<path d="M191.257 270.015C191.968 259.054 192.118 254.222 192.118 243.261V226.044C192.118 214.372 190.266 208.547 182.167 208.547C174.629 208.547 171.937 215.235 171.807 227.037V269.993H142.277C143.268 258.903 143.419 256.055 143.419 243.24V210.23C143.419 201.125 142.988 197.284 142.277 187.468H171.247C169.266 194.717 168.404 198.989 168.275 207.533H171.549C173.681 193.314 182.9 185.202 194.423 185.202C207.196 185.202 215.014 192.732 216.436 207.533H219.559C221.821 192.732 230.91 185.202 244.264 185.202C263.865 185.202 269.249 200.132 269.249 218.924V242.83C269.249 255.624 269.249 258.903 270.24 269.993H239.849C240.71 259.033 240.839 255.775 240.839 243.24V226.023C240.839 214.501 239.138 208.525 230.608 208.525C223.091 208.525 220.377 215.062 220.248 227.015V269.972H191.278L191.257 270.015Z" fill="#E27242"/>
<path d="M311.681 207.576C313.813 192.926 323.893 185.677 337.678 185.677C358.14 185.677 367.51 202.894 367.51 229.216C367.51 255.538 356.999 272.043 337.678 272.043C323.893 272.043 313.684 264.923 311.681 249.993H308.278C308.428 258.105 309.139 262.507 311.25 270.058H282.431C283.293 261.104 283.422 254.416 283.422 245.592V180.305C283.422 173.185 283.142 165.936 282.28 157.694H311.81V187.576C309.398 194.976 308.687 199.658 308.407 207.641H311.681V207.576ZM310.97 228.763C310.97 241.428 314.524 249.238 323.743 249.238C332.121 249.238 335.524 241.277 335.524 228.892C335.524 215.516 331.26 208.547 323.743 208.547C314.804 208.547 310.97 215.516 310.97 228.741V228.763Z" fill="#E27242"/>
<path d="M375.738 168.028C375.738 159.355 383.125 155.515 392.926 155.515C402.726 155.515 409.683 159.075 409.683 168.028C409.683 176.982 403.006 180.822 392.926 180.822C382.845 180.822 375.738 177.133 375.738 168.028ZM377.288 270.015C378.861 254.373 378.99 245.829 378.99 233.876V225.634C378.99 211.826 378.839 200.176 377.138 187.511H408.369C407.658 195.623 407.378 201.88 407.378 210.122V247.102C407.378 256.919 407.529 261.903 408.369 270.015H377.267H377.288Z" fill="#E27242"/>
<path d="M422.305 168.028C422.305 159.355 429.693 155.515 439.493 155.515C449.293 155.515 456.25 159.075 456.25 168.028C456.25 176.982 449.573 180.822 439.493 180.822C429.413 180.822 422.305 177.133 422.305 168.028ZM423.877 270.015C425.449 254.373 425.579 245.829 425.579 233.876V225.634C425.579 211.826 425.428 200.176 423.726 187.511H454.958C454.247 195.623 453.967 201.88 453.967 210.122V247.102C453.967 256.919 454.118 261.903 454.958 270.015H423.855H423.877Z" fill="#E27242"/>
<path d="M137.431 56.8078C139.801 5.52328 170.515 0 208.316 0C246.117 0 276.831 5.52328 275.259 56.8078C273.988 96.8516 254.323 108.2 226.128 111.113L225.935 125.309C225.784 130.466 220.528 133.853 215.768 131.868L181.134 110.811C155.352 107.467 136.785 95.5787 137.41 56.7862L137.431 56.8078Z" fill="#3A362A"/>
<path d="M173.423 55.0169C173.423 60.0439 169.352 64.1217 164.333 64.1217C159.315 64.1217 155.244 60.0439 155.244 55.0169C155.244 49.9898 159.315 45.9121 164.333 45.9121C169.352 45.9121 173.423 49.9898 173.423 55.0169ZM206.377 45.9121C201.359 45.9121 197.288 49.9898 197.288 55.0169C197.288 60.0439 201.359 64.1217 206.377 64.1217C211.396 64.1217 215.467 60.0439 215.467 55.0169C215.467 49.9898 211.396 45.9121 206.377 45.9121ZM248.4 45.9121C243.381 45.9121 239.31 49.9898 239.31 55.0169C239.31 60.0439 243.381 64.1217 248.4 64.1217C253.418 64.1217 257.489 60.0439 257.489 55.0169C257.489 49.9898 253.418 45.9121 248.4 45.9121Z" fill="#EBE8D7"/>
<path d="M316.075 61.6405C319.284 61.6405 320.361 60.0871 320.361 57.5843V56.6566C320.361 54.3049 319.198 52.7515 316.075 52.7515H296.001C292.791 52.7515 291.714 54.3049 291.714 56.8076V57.7354C291.714 60.0871 292.877 61.6405 296.001 61.6405H316.075Z" fill="#3A362A"/>
<path d="M305.499 87.5093C308.127 89.3648 309.915 88.696 311.336 86.6463L311.875 85.8912C313.21 83.971 313.146 82.0292 310.604 80.2384L294.148 68.6956C291.52 66.8402 289.733 67.509 288.311 69.5587L287.773 70.3138C286.437 72.234 286.502 74.1758 289.044 75.9665L305.499 87.5093Z" fill="#3A362A"/>
<path d="M310.582 34.1751C313.21 32.3196 313.21 30.4426 311.767 28.3929L311.229 27.6378C309.893 25.7176 308.041 25.1135 305.478 26.9042L289.022 38.447C286.394 40.3025 286.394 42.2011 287.837 44.2292L288.376 44.9843C289.711 46.9046 291.564 47.5087 294.127 45.7179L310.582 34.1751Z" fill="#3A362A"/>
</g>
<defs>
<clipPath id="clip0_127_6858">
<rect width="456" height="272" fill="white" transform="translate(0.25)"/>
</clipPath>
</defs>
</svg>
